<svg width="30" height="30" viewBox="0 0 30 30" fill="none" xmlns="http://www.w3.org/2000/svg">
<path fill-rule="evenodd" clip-rule="evenodd" d="M7.5 2.5C4.73858 2.5 2.5 4.73858 2.5 7.5V22.5C2.5 25.2614 4.73858 27.5 7.5 27.5H22.5C25.2614 27.5 27.5 25.2614 27.5 22.5V7.5C27.5 4.73858 25.2614 2.5 22.5 2.5H7.5ZM22.5 8.75C23.1904 8.75 23.75 8.19036 23.75 7.5C23.75 6.80964 23.1904 6.25 22.5 6.25C21.8096 6.25 21.25 6.80964 21.25 7.5C21.25 8.19036 21.8096 8.75 22.5 8.75ZM21.25 15C21.25 18.4518 18.4518 21.25 15 21.25C11.5482 21.25 8.75 18.4518 8.75 15C8.75 11.5482 11.5482 8.75 15 8.75C18.4518 8.75 21.25 11.5482 21.25 15ZM15 18.75C17.0711 18.75 18.75 17.0711 18.75 15C18.75 12.9289 17.0711 11.25 15 11.25C12.9289 11.25 11.25 12.9289 11.25 15C11.25 17.0711 12.9289 18.75 15 18.75Z" fill="white"/>
</svg>
