<svg width="200" height="34" viewBox="0 0 200 34" fill="none" xmlns="http://www.w3.org/2000/svg">
<g clip-path="url(#clip0_885_4078)">
<path d="M40.9503 22.5158V8.88922H35.8359V5.97266H49.1321V8.88922H44.0178V22.5211H40.9555L40.9503 22.5158Z" fill="white"/>
<path d="M48.9036 22.515V10.105H51.6066V13.1384L51.315 12.7453C51.4712 12.315 51.6848 11.9271 51.9452 11.5712C52.2056 11.2206 52.5285 10.9284 52.9139 10.7C53.2055 10.514 53.5232 10.3706 53.8721 10.2696C54.2159 10.1687 54.5752 10.0996 54.9398 10.0731C55.3096 10.0465 55.6741 10.0571 56.0439 10.0996V13.0162C55.7054 12.91 55.3148 12.8728 54.8669 12.9046C54.419 12.9365 54.018 13.0428 53.6534 13.2181C53.294 13.3881 52.9868 13.6112 52.742 13.8928C52.492 14.1743 52.3045 14.5037 52.1795 14.8809C52.0545 15.2581 51.9868 15.6884 51.9868 16.1612V22.5043H48.8984L48.9036 22.515Z" fill="white"/>
<path d="M60.4399 22.8609C59.5701 22.8609 58.8306 22.6909 58.2265 22.3509C57.6223 22.0109 57.164 21.5541 56.8515 20.9856C56.5391 20.4172 56.3828 19.785 56.3828 19.0944C56.3828 18.5206 56.4713 17.9947 56.6432 17.5219C56.8151 17.0491 57.0963 16.6294 57.4817 16.2628C57.8671 15.9016 58.3879 15.5934 59.0441 15.3491C59.4972 15.1791 60.0337 15.0303 60.6534 14.9028C61.2732 14.7753 61.9815 14.6478 62.7731 14.5309C63.5595 14.4141 64.4293 14.2813 65.3771 14.1325L64.273 14.7541C64.273 14.0209 64.1012 13.4791 63.7522 13.1337C63.4085 12.7884 62.8304 12.6184 62.0179 12.6184C61.5648 12.6184 61.0961 12.73 60.6118 12.9531C60.1222 13.1762 59.7837 13.5694 59.5858 14.1378L56.8151 13.24C57.1224 12.2147 57.7005 11.3806 58.5494 10.7325C59.3983 10.0897 60.5545 9.76562 62.0179 9.76562C63.0908 9.76562 64.0439 9.93563 64.8772 10.2703C65.7105 10.605 66.3406 11.1894 66.7677 12.0181C67.0073 12.4803 67.1531 12.9372 67.1948 13.3994C67.2364 13.8616 67.2624 14.3716 67.2624 14.94V22.5262H64.5803V19.9762L64.9657 20.5022C64.372 21.3362 63.7314 21.9419 63.0439 22.3137C62.3565 22.6856 61.4867 22.8716 60.4347 22.8716L60.4399 22.8609ZM61.0909 20.4013C61.6534 20.4013 62.1273 20.3003 62.5179 20.0984C62.9033 19.8966 63.2106 19.6628 63.4397 19.4025C63.6689 19.1422 63.8251 18.9244 63.9085 18.7491C64.0647 18.4144 64.1584 18.0212 64.1845 17.5697C64.2105 17.1234 64.2262 16.7462 64.2262 16.4487L65.1271 16.6772C64.2157 16.8312 63.4814 16.9587 62.9189 17.0597C62.3565 17.1659 61.8982 17.2562 61.5544 17.3412C61.2107 17.4262 60.9034 17.5166 60.643 17.6175C60.3409 17.7397 60.1014 17.8725 59.9139 18.0159C59.7264 18.1594 59.5962 18.3134 59.5076 18.4834C59.4191 18.6534 59.3774 18.8394 59.3774 19.0466C59.3774 19.3281 59.4452 19.5725 59.5858 19.7744C59.7264 19.9762 59.9243 20.1303 60.1795 20.2419C60.4347 20.3481 60.7368 20.4013 61.0909 20.4013V20.4013Z" fill="white"/>
<path d="M74.2315 22.8605C73.1117 22.8605 72.1326 22.5737 71.2889 21.9999C70.4452 21.4262 69.7942 20.6452 69.3203 19.6571C68.8463 18.669 68.6172 17.5534 68.6172 16.3155C68.6172 15.0777 68.8568 13.9249 69.3307 12.9421C69.8098 11.9593 70.4765 11.1837 71.341 10.6152C72.2055 10.0468 73.2159 9.76523 74.3825 9.76523C75.5491 9.76523 76.5126 10.0521 77.299 10.6259C78.0854 11.1996 78.6844 11.9805 79.0906 12.9687C79.4968 13.9568 79.6999 15.0724 79.6999 16.3102C79.6999 17.548 79.4968 18.6637 79.0854 19.6518C78.674 20.6399 78.0646 21.4209 77.2574 21.9946C76.4449 22.5684 75.4345 22.8552 74.2263 22.8552L74.2315 22.8605ZM74.7262 20.0768C75.4085 20.0768 75.9553 19.9227 76.3668 19.604C76.7782 19.2905 77.0699 18.8496 77.2522 18.2812C77.4344 17.7127 77.523 17.054 77.523 16.3049C77.523 15.5559 77.4344 14.8971 77.2522 14.3287C77.0699 13.7602 76.7834 13.3193 76.3876 13.0059C75.9918 12.6924 75.4762 12.533 74.8408 12.533C74.1586 12.533 73.5961 12.703 73.1586 13.043C72.7211 13.383 72.393 13.8399 72.1847 14.4084C71.9764 14.9768 71.867 15.609 71.867 16.2996C71.867 16.9902 71.966 17.633 72.1691 18.2015C72.3722 18.7699 72.6847 19.2268 73.1013 19.5615C73.5232 19.8962 74.0648 20.0662 74.7262 20.0662V20.0768ZM77.5178 22.5152V14.0099H77.1324V5.9668H80.2207V22.5152H77.5178Z" fill="white"/>
<path d="M82.6953 8.37828V5.62109H85.7577V8.37828H82.6953ZM82.6953 22.5148V10.1048H85.7577V22.5148H82.6953Z" fill="white"/>
<path d="M88.2188 22.5148V10.1048H90.9426V14.2167H91.328V22.5148H88.2188V22.5148ZM96.5308 22.5148V16.6552C96.5308 16.3736 96.5152 16.0123 96.4839 15.5714C96.4527 15.1305 96.359 14.6895 96.2027 14.2433C96.0465 13.797 95.7861 13.4252 95.4319 13.1277C95.0778 12.8302 94.5726 12.6814 93.9164 12.6814C93.656 12.6814 93.3695 12.7239 93.0727 12.8089C92.7706 12.8939 92.4894 13.0533 92.229 13.2977C91.9633 13.5367 91.7498 13.8927 91.5832 14.3602C91.4165 14.8277 91.328 15.4492 91.328 16.2195L89.5728 15.3695C89.5728 14.3867 89.7708 13.4677 90.1561 12.6123C90.5468 11.7517 91.1353 11.0611 91.9165 10.5298C92.6977 9.99859 93.6924 9.73828 94.8851 9.73828C95.8381 9.73828 96.6141 9.90297 97.2183 10.2323C97.8172 10.5617 98.2859 10.9814 98.6193 11.4861C98.9526 11.9908 99.1921 12.5167 99.3328 13.0639C99.4734 13.6111 99.5619 14.1105 99.5932 14.562C99.6244 15.0136 99.64 15.343 99.64 15.5502V22.5148H96.5308V22.5148Z" fill="white"/>
<path d="M106.606 22.8609C105.487 22.8609 104.508 22.5741 103.664 22.0003C102.82 21.4266 102.169 20.6456 101.695 19.6575C101.221 18.6694 100.992 17.5537 100.992 16.3159C100.992 15.0781 101.232 13.9253 101.706 12.9425C102.185 11.9597 102.851 11.1841 103.716 10.6156C104.581 10.0472 105.591 9.76562 106.758 9.76562C107.924 9.76562 108.888 10.0525 109.674 10.6263C110.46 11.2 111.059 11.9809 111.466 12.9691C111.872 13.9572 112.075 15.0728 112.075 16.3106C112.075 17.5484 111.872 18.6641 111.46 19.6522C111.049 20.6403 110.44 21.4213 109.632 21.995C108.82 22.5688 107.81 22.8556 106.601 22.8556L106.606 22.8609ZM106.877 28.3753C106.185 28.3753 105.528 28.2637 104.903 28.0353C104.278 27.8122 103.721 27.4934 103.232 27.095C102.742 26.6966 102.341 26.2237 102.034 25.6872L104.872 24.2847C105.07 24.6512 105.346 24.9328 105.711 25.1241C106.075 25.3153 106.471 25.4109 106.898 25.4109C107.356 25.4109 107.789 25.3313 108.195 25.1772C108.601 25.0178 108.924 24.7841 109.169 24.4759C109.414 24.1678 109.528 23.78 109.513 23.3231V19.7159H109.898V10.1056H112.58V23.3656C112.58 23.6738 112.565 23.9606 112.538 24.2316C112.512 24.5025 112.466 24.7734 112.398 25.0391C112.2 25.7988 111.841 26.4203 111.309 26.9144C110.778 27.4084 110.132 27.7697 109.367 28.0141C108.601 28.2584 107.773 28.3753 106.877 28.3753V28.3753ZM107.101 20.0772C107.783 20.0772 108.33 19.9231 108.742 19.6044C109.153 19.2909 109.445 18.85 109.627 18.2816C109.809 17.7131 109.898 17.0544 109.898 16.3053C109.898 15.5563 109.809 14.8975 109.627 14.3291C109.445 13.7606 109.158 13.3197 108.763 13.0063C108.367 12.6928 107.851 12.5334 107.216 12.5334C106.534 12.5334 105.971 12.7034 105.534 13.0434C105.096 13.3834 104.768 13.8403 104.56 14.4088C104.351 14.9772 104.242 15.6094 104.242 16.3C104.242 16.9906 104.341 17.6334 104.544 18.2019C104.747 18.7703 105.06 19.2272 105.476 19.5619C105.898 19.8966 106.44 20.0666 107.101 20.0666V20.0772Z" fill="white"/>
<path d="M19.0459 0H0V9.71656H19.0459V0Z" fill="white"/>
<path d="M19.0459 34.0001C8.54643 34.0001 0 25.2823 0 14.5723H9.52555C9.52555 19.9273 13.7962 24.2888 19.0511 24.2888V34.0054L19.0459 34.0001Z" fill="#00DF8D"/>
<path d="M114.896 22.5523V6.00391H117.958V19.6305H124.942V22.547H114.891L114.896 22.5523Z" fill="#00DF8D"/>
<path d="M131.614 22.8975C130.37 22.8975 129.271 22.6212 128.318 22.0741C127.364 21.5269 126.625 20.7725 126.089 19.8109C125.552 18.8494 125.281 17.7497 125.281 16.5066C125.281 15.1519 125.542 13.9725 126.068 12.9684C126.594 11.9644 127.318 11.1834 128.239 10.6309C129.161 10.0731 130.224 9.79688 131.427 9.79688C132.703 9.79688 133.791 10.105 134.682 10.7159C135.578 11.3269 136.239 12.1928 136.666 13.3031C137.093 14.4134 137.244 15.7203 137.119 17.2237H134.088V16.0762C134.088 14.8119 133.89 13.9034 133.494 13.3456C133.099 12.7878 132.458 12.5116 131.562 12.5116C130.521 12.5116 129.75 12.8356 129.26 13.4837C128.771 14.1319 128.521 15.0881 128.521 16.3525C128.521 17.5106 128.765 18.4031 129.26 19.0353C129.75 19.6675 130.474 19.9809 131.427 19.9809C132.026 19.9809 132.541 19.8481 132.968 19.5772C133.395 19.3062 133.724 18.9237 133.947 18.4137L137.01 19.3116C136.551 20.4431 135.828 21.325 134.843 21.9572C133.854 22.5841 132.776 22.8975 131.604 22.8975H131.614ZM127.583 17.2184V14.8969H135.65V17.2184H127.583V17.2184Z" fill="#00DF8D"/>
<path d="M141.909 22.898C141.039 22.898 140.299 22.728 139.695 22.388C139.091 22.048 138.633 21.5912 138.32 21.0227C138.008 20.4543 137.852 19.8221 137.852 19.1315C137.852 18.5577 137.94 18.0318 138.112 17.559C138.284 17.0862 138.565 16.6665 138.95 16.2999C139.336 15.9334 139.857 15.6305 140.513 15.3862C140.966 15.2162 141.502 15.0674 142.122 14.9399C142.747 14.8071 143.45 14.6849 144.242 14.568C145.028 14.4512 145.898 14.3184 146.846 14.1696L145.742 14.7912C145.742 14.058 145.57 13.5162 145.221 13.1709C144.877 12.8255 144.299 12.6555 143.487 12.6555C143.034 12.6555 142.565 12.7671 142.081 12.9902C141.591 13.2134 141.252 13.6065 141.055 14.1749L138.284 13.2771C138.591 12.2518 139.169 11.4177 140.018 10.7696C140.867 10.1268 142.023 9.80273 143.487 9.80273C144.56 9.80273 145.513 9.97273 146.346 10.3074C147.179 10.6421 147.809 11.2265 148.236 12.0552C148.476 12.5174 148.622 12.9743 148.664 13.4365C148.705 13.8987 148.731 14.4087 148.731 14.9771V22.5634H146.049V20.0134L146.434 20.5446C145.841 21.3787 145.2 21.9843 144.513 22.3562C143.825 22.728 142.955 22.914 141.903 22.914L141.909 22.898ZM142.56 20.4384C143.122 20.4384 143.596 20.3374 143.987 20.1355C144.372 19.9337 144.679 19.6999 144.908 19.4396C145.138 19.1793 145.294 18.9615 145.377 18.7862C145.533 18.4515 145.627 18.0584 145.653 17.6068C145.679 17.1605 145.695 16.7834 145.695 16.4859L146.596 16.7143C145.684 16.8684 144.95 16.9959 144.388 17.0968C143.825 17.1977 143.367 17.2934 143.023 17.3784C142.679 17.4634 142.372 17.5537 142.112 17.6546C141.81 17.7768 141.57 17.9096 141.383 18.053C141.2 18.1965 141.065 18.3505 140.976 18.5205C140.888 18.6905 140.846 18.8765 140.846 19.0837C140.846 19.3652 140.914 19.6096 141.055 19.8115C141.195 20.0134 141.393 20.1674 141.648 20.279C141.903 20.3852 142.206 20.4384 142.56 20.4384V20.4384Z" fill="#00DF8D"/>
<path d="M155.7 22.898C154.58 22.898 153.601 22.6112 152.758 22.0374C151.914 21.4637 151.263 20.6827 150.789 19.6946C150.315 18.7065 150.086 17.5909 150.086 16.353C150.086 15.1152 150.326 13.9624 150.799 12.9796C151.279 11.9968 151.945 11.2212 152.81 10.6527C153.674 10.0843 154.685 9.80273 155.851 9.80273C157.018 9.80273 157.981 10.0896 158.768 10.6634C159.554 11.2371 160.153 12.018 160.559 13.0062C160.966 13.9943 161.169 15.1099 161.169 16.3477C161.169 17.5855 160.966 18.7012 160.554 19.6893C160.143 20.6774 159.533 21.4584 158.726 22.0321C157.914 22.6059 156.903 22.8927 155.695 22.8927L155.7 22.898ZM155.971 28.4124C155.278 28.4124 154.622 28.3009 153.997 28.0724C153.372 27.844 152.815 27.5305 152.325 27.1321C151.836 26.7284 151.435 26.2609 151.128 25.7243L153.966 24.3218C154.164 24.6884 154.44 24.9699 154.804 25.1612C155.169 25.3524 155.565 25.448 155.992 25.448C156.45 25.448 156.882 25.3684 157.289 25.2143C157.695 25.0549 158.018 24.8212 158.263 24.513C158.507 24.2049 158.622 23.8171 158.606 23.3602V19.753H158.992V10.1427H161.674V23.4027C161.674 23.7109 161.658 23.9977 161.632 24.2687C161.606 24.5396 161.559 24.8105 161.492 25.0762C161.294 25.8359 160.934 26.4574 160.403 26.9515C159.872 27.4402 159.226 27.8068 158.461 28.0512C157.695 28.2902 156.867 28.4124 155.971 28.4124V28.4124ZM156.195 20.1143C156.877 20.1143 157.424 19.9549 157.836 19.6415C158.247 19.328 158.539 18.8871 158.721 18.3187C158.903 17.7502 158.992 17.0915 158.992 16.3424C158.992 15.5934 158.903 14.9346 158.721 14.3662C158.539 13.7977 158.252 13.3568 157.856 13.0434C157.461 12.7299 156.945 12.5705 156.31 12.5705C155.627 12.5705 155.065 12.7405 154.627 13.0805C154.19 13.4205 153.862 13.8774 153.653 14.4459C153.445 15.0143 153.336 15.6465 153.336 16.3371C153.336 17.0277 153.435 17.6705 153.638 18.239C153.841 18.8074 154.153 19.2643 154.57 19.599C154.987 19.9337 155.534 20.1037 156.195 20.1037V20.1143Z" fill="#00DF8D"/>
<path d="M168.458 22.9191C167.505 22.9191 166.729 22.7545 166.125 22.4251C165.526 22.0957 165.057 21.676 164.724 21.1713C164.391 20.6666 164.151 20.1407 164.01 19.5935C163.87 19.0463 163.781 18.547 163.75 18.0954C163.719 17.6438 163.703 17.3145 163.703 17.1073V10.1426H166.812V16.0023C166.812 16.2838 166.828 16.6504 166.859 17.086C166.89 17.5216 166.984 17.9679 167.14 18.4141C167.297 18.8604 167.557 19.2323 167.911 19.5298C168.271 19.8273 168.776 19.976 169.427 19.976C169.687 19.976 169.968 19.9335 170.27 19.8485C170.573 19.7635 170.854 19.6041 171.114 19.3598C171.375 19.1207 171.593 18.7648 171.76 18.292C171.927 17.8191 172.015 17.2029 172.015 16.4379L173.776 17.2879C173.776 18.2707 173.578 19.1898 173.192 20.0451C172.802 20.9057 172.213 21.5963 171.432 22.1276C170.645 22.6588 169.656 22.9191 168.463 22.9191H168.458ZM172.401 22.5526V18.4407H172.015V10.1426H175.104V22.5526H172.401Z" fill="#00DF8D"/>
<path d="M183.013 22.8975C181.768 22.8975 180.669 22.6212 179.716 22.0741C178.763 21.5269 178.023 20.7725 177.487 19.8109C176.951 18.8494 176.68 17.7497 176.68 16.5066C176.68 15.1519 176.94 13.9725 177.466 12.9684C177.992 11.9644 178.716 11.1834 179.638 10.6309C180.56 10.0731 181.622 9.79688 182.825 9.79688C184.101 9.79688 185.19 10.105 186.08 10.7159C186.976 11.3269 187.637 12.1928 188.065 13.3031C188.492 14.4134 188.643 15.7203 188.518 17.2237H185.487V16.0762C185.487 14.8119 185.289 13.9034 184.893 13.3456C184.497 12.7878 183.856 12.5116 182.961 12.5116C181.919 12.5116 181.148 12.8356 180.659 13.4837C180.169 14.1319 179.919 15.0881 179.919 16.3525C179.919 17.5106 180.164 18.4031 180.659 19.0353C181.148 19.6675 181.872 19.9809 182.825 19.9809C183.424 19.9809 183.94 19.8481 184.367 19.5772C184.794 19.3062 185.122 18.9237 185.346 18.4137L188.408 19.3116C187.95 20.4431 187.226 21.325 186.242 21.9572C185.252 22.5841 184.174 22.8975 183.002 22.8975H183.013ZM178.982 17.2184V14.8969H187.049V17.2184H178.982Z" fill="#00DF8D"/>
<path d="M194.909 22.898C193.377 22.898 192.138 22.5421 191.195 21.8355C190.253 21.129 189.68 20.1249 189.477 18.8287L192.607 18.3452C192.737 18.9296 193.018 19.3812 193.456 19.7105C193.893 20.0399 194.455 20.2046 195.127 20.2046C195.685 20.2046 196.112 20.093 196.414 19.8752C196.716 19.6574 196.867 19.3546 196.867 18.9615C196.867 18.7171 196.804 18.5205 196.685 18.3718C196.565 18.223 196.294 18.0743 195.877 17.9309C195.461 17.7874 194.815 17.5962 193.935 17.3571C192.945 17.0968 192.148 16.8046 191.56 16.4859C190.966 16.1618 190.539 15.7793 190.273 15.333C190.013 14.8868 189.878 14.3449 189.878 13.7074C189.878 12.9105 190.075 12.2199 190.477 11.6355C190.872 11.0512 191.435 10.5996 192.159 10.2809C192.883 9.96211 193.737 9.80273 194.721 9.80273C195.705 9.80273 196.518 9.95148 197.257 10.249C197.997 10.5465 198.591 10.9715 199.044 11.524C199.497 12.0765 199.778 12.7246 199.882 13.479L196.752 14.0527C196.7 13.5905 196.502 13.2293 196.169 12.9584C195.83 12.6927 195.372 12.5334 194.794 12.4855C194.232 12.4484 193.778 12.5227 193.435 12.714C193.091 12.9052 192.924 13.1815 192.924 13.5427C192.924 13.7552 192.997 13.9359 193.143 14.0846C193.289 14.2334 193.596 14.3821 194.054 14.5309C194.518 14.6849 195.221 14.8815 196.169 15.1259C197.091 15.3702 197.835 15.6571 198.393 15.9812C198.95 16.3052 199.361 16.6984 199.617 17.1552C199.872 17.6121 200.002 18.1593 200.002 18.8021C200.002 20.0718 199.549 21.0759 198.648 21.8037C197.747 22.5315 196.502 22.898 194.909 22.898V22.898Z" fill="#00DF8D"/>
</g>
<defs>
<clipPath id="clip0_885_4078">
<rect width="200" height="34" fill="white"/>
</clipPath>
</defs>
</svg>
