<svg width="36" height="36" viewBox="0 0 36 36" fill="none" xmlns="http://www.w3.org/2000/svg">
<g clip-path="url(#clip0_5995_24155)">
<path d="M18.4107 22.9617L18.4123 22.9631C19.0584 23.5346 19.1304 24.5146 18.5701 25.18C18.0116 25.8433 17.0228 25.9378 16.3505 25.4L13.8216 23.3769L13.82 23.3757C12.8192 22.5796 11.3412 22.8512 10.6915 23.9553C10.1468 24.8757 10.374 26.0614 11.2392 26.7103L18.0121 31.7899L18.2121 31.9399L18.4621 31.9399L26.7302 31.9399C27.6134 31.9399 28.3258 32.6523 28.3258 33.5355C28.3258 34.4187 27.6134 35.1311 26.7302 35.1311L13.4044 35.1311C12.5442 35.1311 11.7123 34.8223 11.0551 34.2628C11.0548 34.2625 11.0544 34.2622 11.0541 34.2619L4.02448 28.2355L4.02448 17.8665L10.1573 17.8665C11.7841 17.8665 13.3443 18.4588 14.5632 19.5393C14.5633 19.5393 14.5634 19.5394 14.5635 19.5395L18.4107 22.9617Z" stroke="#00DF8D" stroke-width="1.5"/>
<path d="M1.29639 16.866V28.4684" stroke="#00DF8D" stroke-width="1.5"/>
<path d="M22.7663 3.63684C23.1562 4.54914 22.8408 5.73791 21.7581 6.97112C20.6907 8.18692 18.9549 9.34272 16.7948 10.1211C14.6348 10.8995 12.5062 11.1363 10.8232 10.9116C9.11603 10.6837 8.0043 10.0093 7.6144 9.09696C7.2245 8.18466 7.53989 6.99589 8.6226 5.76268C9.69001 4.54688 11.4258 3.39108 13.5859 2.61269C15.7459 1.83431 17.8745 1.59753 19.5575 1.82218C21.2647 2.05005 22.3764 2.72454 22.7663 3.63684Z" stroke="#00DF8D"/>
<path d="M7.9574 9.50987L9.06359 11.794C9.49702 12.689 10.3442 13.3232 11.3339 13.4194C15.4031 13.8151 19.9354 13.3336 23.391 8.89492C23.9475 8.18009 24.0507 7.22418 23.7645 6.36469L22.9422 3.896" stroke="#00DF8D"/>
<path d="M34.1299 23.6183C33.8403 24.3403 32.9955 24.8468 31.6473 24.9344C30.3221 25.0205 28.6373 24.6838 26.9213 23.877C25.2054 23.0701 23.828 21.967 22.9816 20.8598C22.1204 19.7333 21.8857 18.7192 22.1753 17.9972C22.465 17.2753 23.3097 16.7687 24.6579 16.6811C25.9831 16.595 27.6679 16.9317 29.3839 17.7386C31.0998 18.5454 32.4772 19.6485 33.3236 20.7557C34.1848 21.8822 34.4195 22.8963 34.1299 23.6183Z" stroke="#00DF8D"/>
<path d="M22.0584 18.4061L21.4496 20.1213C21.1155 21.0626 21.2589 22.1192 21.9031 22.8825C23.9679 25.3291 26.7697 27.4769 31.1069 26.9846C31.9937 26.884 32.7302 26.2853 33.1335 25.4893L34.009 23.7614" stroke="#00DF8D"/>
<path d="M29.0259 6.06737L29.2193 6.33469C30.34 7.88373 32.11 8.83228 34.0204 8.90763C32.5668 10.1496 31.7641 11.9904 31.8431 13.9007L31.8568 14.2303L31.6634 13.963C30.5427 12.414 28.7727 11.4654 26.8622 11.3901C28.3158 10.1481 29.1185 8.30733 29.0395 6.39704L29.0259 6.06737Z" fill="#00DF8D"/>
</g>
<defs>
<clipPath id="clip0_5995_24155">
<rect width="36" height="36" fill="white"/>
</clipPath>
</defs>
</svg>
