<svg width="36" height="36" viewBox="0 0 36 36" fill="none" xmlns="http://www.w3.org/2000/svg">
<g clip-path="url(#clip0_5995_24131)">
<path d="M3.1178 26.3792L3.1178 34.0107C3.1178 34.563 3.56551 35.0107 4.1178 35.0107L4.54088 35.0107C5.09316 35.0107 5.54088 34.563 5.54088 34.0107L5.54088 26.3792C5.54088 25.8269 5.09316 25.3792 4.54088 25.3792L4.1178 25.3792C3.56551 25.3792 3.1178 25.8269 3.1178 26.3792Z" stroke="#00DF8D" stroke-width="1.5" stroke-linecap="round"/>
<path d="M12.2313 22.1445L12.2313 34.0117C12.2313 34.564 12.679 35.0117 13.2313 35.0117L13.6544 35.0117C14.2067 35.0117 14.6544 34.564 14.6544 34.0117L14.6544 22.1445C14.6544 21.5922 14.2067 21.1445 13.6544 21.1445L13.2313 21.1445C12.679 21.1445 12.2313 21.5922 12.2313 22.1445Z" stroke="#00DF8D" stroke-width="1.5" stroke-linecap="round"/>
<path d="M21.3456 18.6738L21.3456 34.0117C21.3456 34.564 21.7933 35.0117 22.3456 35.0117L22.7687 35.0117C23.3209 35.0117 23.7687 34.564 23.7687 34.0117L23.7687 18.6738C23.7687 18.1215 23.3209 17.6738 22.7687 17.6738L22.3456 17.6738C21.7933 17.6738 21.3456 18.1215 21.3456 18.6738Z" stroke="#00DF8D" stroke-width="1.5" stroke-linecap="round"/>
<path d="M30.4589 14.4648L30.4589 34.0117C30.4589 34.564 30.9066 35.0117 31.4589 35.0117L31.8819 35.0117C32.4342 35.0117 32.8819 34.564 32.8819 34.0117L32.8819 14.4648C32.8819 13.9126 32.4342 13.4648 31.8819 13.4648L31.4589 13.4648C30.9066 13.4648 30.4589 13.9126 30.4589 14.4648Z" stroke="#00DF8D" stroke-width="1.5" stroke-linecap="round"/>
<path d="M4.67415 12.373L4.77637 12.7125C5.36869 14.6795 6.83157 16.2656 8.74442 17.0146C6.83157 17.7637 5.36869 19.3498 4.77637 21.3168L4.67415 21.6562L4.57193 21.3168C3.97961 19.3498 2.51673 17.7637 0.603882 17.0146C2.51673 16.2656 3.97961 14.6795 4.57193 12.7125L4.67415 12.373Z" fill="#00DF8D"/>
<path d="M20.8329 6.88438C21.1054 7.52195 20.8963 8.38536 20.0805 9.31465C19.2799 10.2265 17.9714 11.0998 16.336 11.6892C14.7005 12.2785 13.0945 12.4555 11.8321 12.287C10.5457 12.1153 9.75293 11.6129 9.48045 10.9753C9.20796 10.3378 9.41703 9.47436 10.2329 8.54507C11.0335 7.6332 12.342 6.75991 13.9774 6.17056C15.6128 5.58122 17.2189 5.40423 18.4812 5.57272C19.7676 5.74443 20.5604 6.24682 20.8329 6.88438Z" stroke="#00DF8D"/>
<path d="M28.4263 -0.222656L28.549 0.184796C29.2599 2.54582 31.0158 4.44954 33.3118 5.34863C31.0158 6.24772 29.2599 8.15145 28.549 10.5125L28.4263 10.9199L28.3036 10.5125C27.5926 8.15145 25.8368 6.24772 23.5408 5.34863C25.8368 4.44954 27.5926 2.54582 28.3036 0.184795L28.4263 -0.222656Z" fill="#00DF8D"/>
<path d="M9.63123 11.3287L10.2954 12.7239C10.7248 13.6257 11.5732 14.2736 12.569 14.3508C15.4402 14.5736 18.5689 14.1264 21.0223 11.1108C21.5855 10.4186 21.6807 9.47352 21.403 8.62539L20.884 7.04028" stroke="#00DF8D"/>
</g>
<defs>
<clipPath id="clip0_5995_24131">
<rect width="36" height="36" fill="white"/>
</clipPath>
</defs>
</svg>
