<svg width="36" height="36" viewBox="0 0 36 36" fill="none" xmlns="http://www.w3.org/2000/svg">
<g clip-path="url(#clip0_5995_24151)">
<path d="M32.4731 18H34.2852M3.48003 18H1.66797M17.9766 3.50347V1.69141M28.2274 7.74914L29.5086 6.46801M7.72752 7.74914L6.44457 6.46801" stroke="#00DF8D" stroke-width="1.5" stroke-linecap="round" stroke-linejoin="round"/>
<path d="M14.1414 21.1094C12.5431 22.7077 10.2828 22.7077 10.2828 22.7077V30.893C10.2828 31.9784 10.714 33.0194 11.4815 33.7869C12.2491 34.5544 13.29 34.9856 14.3755 34.9856H23.925C24.5155 35.0359 25.1008 34.7969 25.5929 34.3048C26.085 33.8127 26.4572 33.0941 26.6534 32.2572L28.0176 25.4361C28.0176 24.7125 27.7302 24.0185 27.2185 23.5068C26.7068 22.9952 26.0128 22.7077 25.2892 22.7077H21.1965V15.8866C21.1965 15.163 20.9091 14.469 20.3974 13.9573C19.8857 13.4457 19.1917 13.1582 18.4681 13.1582C17.7445 13.1582 17.0505 13.4457 16.5388 13.9573C16.0271 14.469 15.7397 15.163 15.7397 15.8866V17.2508C15.7397 18.6981 15.1648 20.0861 14.1414 21.1094Z" stroke="#00DF8D" stroke-width="1.5" stroke-linecap="round"/>
<path d="M7.98303 22.1067L7.98303 33.8622" stroke="#00DF8D" stroke-width="1.5"/>
</g>
<defs>
<clipPath id="clip0_5995_24151">
<rect width="36" height="36" fill="white"/>
</clipPath>
</defs>
</svg>
