<svg width="36" height="36" viewBox="0 0 36 36" fill="none" xmlns="http://www.w3.org/2000/svg">
<g clip-path="url(#clip0_5995_24146)">
<path d="M13.9765 28.8015V28.5875C13.9765 26.9975 12.9845 25.6115 11.7425 24.6195C10.1215 23.3267 8.94233 21.562 8.36834 19.5695C7.79435 17.5771 7.85389 15.4555 8.53873 13.4984C9.22356 11.5413 10.4998 9.84549 12.1909 8.64564C13.8819 7.4458 15.9041 6.80127 17.9775 6.80127C20.051 6.80127 22.0732 7.4458 23.7642 8.64564C25.4553 9.84549 26.7315 11.5413 27.4164 13.4984C28.1012 15.4555 28.1607 17.5771 27.5867 19.5695C27.0128 21.562 25.8336 23.3267 24.2125 24.6195C22.9685 25.6135 21.9765 26.9975 21.9765 28.5875V28.8015M13.9765 28.8015V32.8015C13.9765 33.3319 14.1873 33.8406 14.5623 34.2157C14.9374 34.5908 15.4461 34.8015 15.9765 34.8015H19.9765C20.507 34.8015 21.0157 34.5908 21.3908 34.2157C21.7658 33.8406 21.9765 33.3319 21.9765 32.8015V28.8015M13.9765 28.8015H21.9765" stroke="#00DF8D" stroke-width="1.5" stroke-linecap="round" stroke-linejoin="round"/>
<path d="M32.4731 18H34.2852M3.48003 18H1.66797M17.9766 3.50347V1.69141M28.2274 7.74914L29.5086 6.46801M7.72752 7.74914L6.44457 6.46801" stroke="#00DF8D" stroke-width="1.5" stroke-linecap="round" stroke-linejoin="round"/>
<path d="M16.4485 25.1617L18.8069 21.055L16.5534 19.4692L19.7746 14.386" stroke="#00DF8D" stroke-width="1.5" stroke-linecap="round" stroke-linejoin="round"/>
<path d="M16.5349 13.9631L20.5951 13.1713L21.387 17.2317" stroke="#00DF8D" stroke-width="1.5" stroke-linecap="round"/>
</g>
<defs>
<clipPath id="clip0_5995_24146">
<rect width="36" height="36" fill="white"/>
</clipPath>
</defs>
</svg>
