<svg width="36" height="36" viewBox="0 0 36 36" fill="none" xmlns="http://www.w3.org/2000/svg">
<g clip-path="url(#clip0_5995_24141)">
<circle cx="6.94629" cy="29.0537" r="6.19629" stroke="#00DF8D" stroke-width="1.5"/>
<circle cx="23.3516" cy="12.6484" r="11.8984" stroke="#00DF8D" stroke-width="1.5"/>
<path d="M23.3515 5.32324L23.5128 5.85896C24.4476 8.96326 26.7563 11.4663 29.7751 12.6484C26.7563 13.8306 24.4476 16.3336 23.5128 19.4379L23.3515 19.9736L23.1902 19.4379C22.2554 16.3336 19.9468 13.8306 16.928 12.6484C19.9468 11.4663 22.2554 8.96326 23.1902 5.85896L23.3515 5.32324Z" fill="#00DF8D"/>
<path d="M6.94613 26.4512L7.00345 26.6415C7.33556 27.7444 8.1558 28.6337 9.22833 29.0537C8.1558 29.4737 7.33556 30.363 7.00345 31.4659L6.94613 31.6562L6.88882 31.4659C6.55671 30.363 5.73647 29.4737 4.66394 29.0537C5.73647 28.6337 6.55671 27.7444 6.88882 26.6415L6.94613 26.4512Z" fill="#00DF8D"/>
</g>
<defs>
<clipPath id="clip0_5995_24141">
<rect width="36" height="36" fill="white"/>
</clipPath>
</defs>
</svg>
