<svg width="100" height="100" viewBox="0 0 100 100" fill="none" xmlns="http://www.w3.org/2000/svg">
<g clip-path="url(#clip0_5592_20042)">
<path d="M50.0156 89.6542C41.5327 89.6554 33.2538 87.0528 26.2974 82.198C19.341 77.3433 14.0423 70.4703 11.1171 62.5077C8.19198 54.545 7.78134 45.8764 9.9407 37.6729C12.1001 29.4694 16.7253 22.1263 23.1917 16.6357L23.493 16.9927C17.1291 22.3988 12.5692 29.6205 10.4242 37.6905C8.27919 45.7605 8.65152 54.2933 11.4913 62.1458C14.3311 69.9983 19.5027 76.7955 26.3133 81.6268C33.1239 86.4581 41.2483 89.0927 49.5981 89.1778C57.9478 89.2629 66.1242 86.7942 73.0319 82.1027C79.9395 77.4113 85.2486 70.7209 88.2478 62.928C91.247 55.135 91.7931 46.6116 89.813 38.4995C87.8329 30.3875 83.4211 23.0743 77.1687 17.5396L77.4746 17.1919C83.7724 22.7655 88.2251 30.1236 90.241 38.2884C92.2568 46.4532 91.7404 55.038 88.7603 62.9023C85.7802 70.7665 80.4775 77.5378 73.557 82.3162C66.6364 87.0946 58.4256 89.654 50.0156 89.6542Z" fill="#00DF8D"/>
<path d="M50.0155 93.246C40.8027 93.257 31.8089 90.4376 24.251 85.1694C16.6931 79.9012 10.9359 72.4384 7.75859 63.7909C4.58125 55.1433 4.13707 45.7284 6.48615 36.8201C8.83522 27.9118 13.8642 19.9403 20.8925 13.9839L21.2216 14.3685C14.3046 20.2386 9.34698 28.0826 7.01325 36.8494C4.67952 45.6162 5.08116 54.8868 8.16433 63.4189C11.2475 71.951 16.8649 79.3369 24.2637 84.5867C31.6624 89.8366 40.4891 92.6995 49.5607 92.7918C58.6323 92.8842 67.5154 90.2017 75.0196 85.1036C82.5237 80.0055 88.2903 72.7355 91.5466 64.268C94.8028 55.8004 95.3932 46.5398 93.2384 37.7273C91.0837 28.9149 86.2869 20.9715 79.4908 14.9619L79.8292 14.5864C86.6748 20.6331 91.5164 28.6215 93.7097 37.488C95.903 46.3545 95.3438 55.6787 92.1066 64.2195C88.8694 72.7604 83.1078 80.1128 75.5886 85.2981C68.0694 90.4834 59.1493 93.2557 50.0155 93.246Z" fill="#00DF8D"/>
<path d="M15.2515 48.6736H9.17006C9.04713 48.6736 8.92922 48.6248 8.8423 48.5378C8.75537 48.4509 8.70654 48.333 8.70654 48.2101C8.70654 48.0872 8.75537 47.9693 8.8423 47.8824C8.92922 47.7955 9.04713 47.7466 9.17006 47.7466H15.2515C15.3744 47.7466 15.4923 47.7955 15.5792 47.8824C15.6661 47.9693 15.715 48.0872 15.715 48.2101C15.715 48.333 15.6661 48.4509 15.5792 48.5378C15.4923 48.6248 15.3744 48.6736 15.2515 48.6736Z" fill="#00DF8D"/>
<path d="M91.2132 48.6736H85.1319C85.0089 48.6736 84.891 48.6248 84.8041 48.5378C84.7172 48.4509 84.6683 48.333 84.6683 48.2101C84.6683 48.0872 84.7172 47.9693 84.8041 47.8824C84.891 47.7955 85.0089 47.7466 85.1319 47.7466H91.2132C91.3362 47.7466 91.4541 47.7955 91.541 47.8824C91.6279 47.9693 91.6768 48.0872 91.6768 48.2101C91.6768 48.333 91.6279 48.4509 91.541 48.5378C91.4541 48.6248 91.3362 48.6736 91.2132 48.6736Z" fill="#00DF8D"/>
<path d="M50.1917 89.6956C50.0687 89.6956 49.9508 89.6468 49.8639 89.5598C49.777 89.4729 49.7281 89.355 49.7281 89.2321V83.1554C49.7281 83.0325 49.777 82.9145 49.8639 82.8276C49.9508 82.7407 50.0687 82.6919 50.1917 82.6919C50.3146 82.6919 50.4325 82.7407 50.5194 82.8276C50.6063 82.9145 50.6552 83.0325 50.6552 83.1554V89.2321C50.6552 89.355 50.6063 89.4729 50.5194 89.5598C50.4325 89.6468 50.3146 89.6956 50.1917 89.6956Z" fill="#00DF8D"/>
<path d="M74.8974 23.9682C74.8089 23.9644 74.7233 23.9354 74.6508 23.8846C74.5783 23.8337 74.5219 23.7631 74.4883 23.6812C74.4546 23.5993 74.4451 23.5094 74.4609 23.4223C74.4768 23.3351 74.5172 23.2544 74.5775 23.1895L78.8744 18.8927C78.9128 18.8364 78.9632 18.7895 79.0219 18.7549C79.0806 18.7204 79.1462 18.6992 79.214 18.6929C79.2818 18.6866 79.3502 18.6953 79.4143 18.7184C79.4783 18.7415 79.5365 18.7785 79.5847 18.8267C79.6328 18.8748 79.6698 18.933 79.6929 18.9971C79.716 19.0612 79.7247 19.1295 79.7184 19.1973C79.7121 19.2651 79.691 19.3307 79.6564 19.3894C79.6219 19.4481 79.5749 19.4985 79.5187 19.537L75.2172 23.8339C75.132 23.9184 75.0174 23.9665 74.8974 23.9682Z" fill="#00DF8D"/>
<path d="M21.1847 77.6816C21.0647 77.6799 20.95 77.6317 20.8649 77.5472C20.7813 77.4607 20.7346 77.3452 20.7346 77.225C20.7346 77.1048 20.7813 76.9894 20.8649 76.9029L25.1663 72.6014C25.2044 72.5441 25.2547 72.4959 25.3137 72.4604C25.3726 72.425 25.4387 72.403 25.5072 72.3963C25.5757 72.3895 25.6449 72.3981 25.7096 72.4214C25.7744 72.4447 25.8331 72.4821 25.8816 72.5309C25.9301 72.5798 25.9671 72.6388 25.9899 72.7037C26.0128 72.7687 26.0209 72.8379 26.0136 72.9063C26.0064 72.9747 25.984 73.0407 25.9481 73.0994C25.9122 73.1581 25.8636 73.2081 25.806 73.2457L21.5092 77.5472C21.4228 77.6328 21.3063 77.6811 21.1847 77.6816Z" fill="#00DF8D"/>
<path d="M79.2175 77.6816C79.0959 77.6811 78.9794 77.6328 78.893 77.5472L74.5962 73.2457C74.5386 73.2081 74.49 73.1581 74.4541 73.0994C74.4182 73.0407 74.3958 72.9747 74.3886 72.9063C74.3813 72.8379 74.3894 72.7687 74.4123 72.7037C74.4351 72.6388 74.4721 72.5798 74.5206 72.5309C74.5691 72.4821 74.6278 72.4447 74.6926 72.4214C74.7573 72.3981 74.8265 72.3895 74.895 72.3963C74.9634 72.403 75.0296 72.425 75.0885 72.4604C75.1475 72.4959 75.1978 72.5441 75.2358 72.6014L79.5373 76.9029C79.6209 76.9894 79.6676 77.1048 79.6676 77.225C79.6676 77.3452 79.6209 77.4607 79.5373 77.5472C79.4521 77.6317 79.3375 77.6799 79.2175 77.6816Z" fill="#00DF8D"/>
<path d="M25.4861 23.9682C25.3662 23.9665 25.2515 23.9184 25.1663 23.8339L20.8648 19.537C20.8086 19.4985 20.7616 19.4481 20.7271 19.3894C20.6925 19.3307 20.6714 19.2651 20.6651 19.1973C20.6588 19.1295 20.6675 19.0612 20.6906 18.9971C20.7137 18.933 20.7507 18.8748 20.7988 18.8267C20.847 18.7785 20.9052 18.7415 20.9692 18.7184C21.0333 18.6953 21.1017 18.6866 21.1695 18.6929C21.2373 18.6992 21.3029 18.7204 21.3616 18.7549C21.4203 18.7895 21.4707 18.8364 21.5091 18.8927L25.806 23.1895C25.8663 23.2544 25.9067 23.3351 25.9226 23.4223C25.9384 23.5094 25.9289 23.5993 25.8953 23.6812C25.8616 23.7631 25.8052 23.8337 25.7327 23.8846C25.6602 23.9354 25.5746 23.9644 25.4861 23.9682Z" fill="#00DF8D"/>
<path d="M15.9933 34.4296C15.9327 34.4289 15.8729 34.4163 15.8171 34.3925L12.1507 32.8676C12.0851 32.8523 12.0236 32.8229 11.9705 32.7814C11.9174 32.7399 11.874 32.6874 11.8433 32.6274C11.8126 32.5674 11.7953 32.5014 11.7927 32.4341C11.7901 32.3668 11.8022 32.2997 11.8282 32.2375C11.8541 32.1754 11.8933 32.1196 11.943 32.0741C11.9927 32.0286 12.0518 31.9945 12.116 31.9742C12.1803 31.9539 12.2481 31.9478 12.315 31.9564C12.3818 31.965 12.4459 31.9881 12.503 32.024L16.1694 33.5536C16.2599 33.5994 16.333 33.6736 16.3773 33.7648C16.4216 33.856 16.4348 33.9592 16.4148 34.0587C16.3948 34.1581 16.3427 34.2482 16.2666 34.3152C16.1904 34.3822 16.0944 34.4224 15.9933 34.4296Z" fill="#00DF8D"/>
<path d="M88.1725 64.1563C88.1117 64.1579 88.0514 64.1451 87.9964 64.1192L84.3299 62.5942C84.2192 62.5461 84.1316 62.4568 84.0857 62.3451C84.0398 62.2334 84.0393 62.1082 84.0843 61.9962C84.1323 61.8866 84.2209 61.7998 84.3315 61.754C84.4421 61.7083 84.5661 61.707 84.6776 61.7505L88.344 63.2802C88.4344 63.3257 88.5074 63.3995 88.5519 63.4903C88.5963 63.5811 88.6099 63.684 88.5905 63.7833C88.5711 63.8826 88.5197 63.9727 88.4442 64.0401C88.3688 64.1074 88.2734 64.1482 88.1725 64.1563Z" fill="#00DF8D"/>
<path d="M84.4414 34.2769C84.3512 34.2759 84.2633 34.2487 84.1883 34.1984C84.1134 34.1482 84.0548 34.0772 84.0196 33.9942C83.976 33.8827 83.9773 33.7587 84.0231 33.6481C84.0688 33.5375 84.1557 33.4489 84.2653 33.4009L87.941 31.8851C88.0531 31.8419 88.1775 31.8438 88.2882 31.8905C88.3989 31.9372 88.4871 32.025 88.5343 32.1355C88.5779 32.2469 88.5766 32.3709 88.5309 32.4815C88.4851 32.5921 88.3983 32.6807 88.2886 32.7288L84.6129 34.2399C84.5586 34.263 84.5004 34.2755 84.4414 34.2769Z" fill="#00DF8D"/>
<path d="M12.3823 64.2947C12.2814 64.2867 12.186 64.2459 12.1106 64.1785C12.0351 64.1112 11.9838 64.021 11.9643 63.9217C11.9449 63.8225 11.9585 63.7196 12.003 63.6288C12.0474 63.5379 12.1204 63.4642 12.2108 63.4187L15.8818 61.903C15.939 61.8665 16.0034 61.843 16.0707 61.8341C16.1379 61.8252 16.2063 61.8311 16.2709 61.8515C16.3356 61.8719 16.395 61.9063 16.445 61.9521C16.4949 61.998 16.5342 62.0543 16.56 62.117C16.5859 62.1797 16.5976 62.2473 16.5945 62.315C16.5913 62.3828 16.5734 62.449 16.5419 62.509C16.5104 62.569 16.466 62.6215 16.4121 62.6626C16.3581 62.7036 16.2958 62.7323 16.2295 62.7466L12.5584 64.2577C12.5027 64.2815 12.4428 64.294 12.3823 64.2947Z" fill="#00DF8D"/>
<path d="M33.9685 86.1729C33.9047 86.1746 33.8413 86.1619 33.7831 86.1358C33.6748 86.0852 33.5903 85.9948 33.5471 85.8834C33.5039 85.772 33.5054 85.6482 33.5513 85.5379L35.1412 81.8945C35.2021 81.8053 35.2924 81.7401 35.3963 81.7103C35.5002 81.6805 35.6113 81.688 35.7103 81.7315C35.8093 81.7749 35.89 81.8516 35.9384 81.9483C35.9868 82.045 36 82.1554 35.9755 82.2607L34.3856 85.9041C34.3487 85.9838 34.2899 86.0515 34.216 86.0991C34.1422 86.1467 34.0563 86.1723 33.9685 86.1729Z" fill="#00DF8D"/>
<path d="M65.3582 86.6596C65.2667 86.6592 65.1773 86.6317 65.1014 86.5805C65.0256 86.5294 64.9665 86.457 64.9317 86.3723L63.4809 82.6642C63.4603 82.5578 63.4775 82.4476 63.5296 82.3527C63.5818 82.2578 63.6655 82.1841 63.7662 82.1445C63.867 82.1049 63.9785 82.1017 64.0813 82.1357C64.1841 82.1696 64.2718 82.2386 64.3292 82.3304L65.78 86.0386C65.8227 86.1518 65.8195 86.2772 65.771 86.3881C65.7225 86.4989 65.6326 86.5865 65.5204 86.6319C65.4683 86.6502 65.4134 86.6595 65.3582 86.6596Z" fill="#00DF8D"/>
<path d="M32.1314 15.3612C32.0889 15.3895 32.0747 15.4179 32.0889 15.4462C32.1031 15.4745 32.1314 15.4887 32.1739 15.4887H37.2297C37.3289 15.4887 37.4068 15.517 37.4634 15.5736C37.5201 15.6303 37.5484 15.7082 37.5484 15.8073V18.5902C37.5484 18.6893 37.5201 18.7672 37.4634 18.8238C37.4068 18.8805 37.3289 18.9088 37.2297 18.9088H27.033C26.9339 18.9088 26.856 18.8805 26.7993 18.8238C26.7427 18.7672 26.7144 18.6893 26.7144 18.5902V15.9773C26.7144 15.8215 26.771 15.694 26.8843 15.5949C27.5216 15.0426 28.1589 14.4407 28.7962 13.7892C29.4477 13.1378 29.8584 12.7271 30.0283 12.5571C30.0283 12.5571 30.5027 12.0827 31.4516 11.1338C32.7262 9.88755 33.3635 8.99534 33.3635 8.45718C33.3635 8.11728 33.236 7.84112 32.9811 7.62869C32.7262 7.4021 32.4005 7.2888 32.0039 7.2888C31.5932 7.2888 31.2604 7.4021 31.0055 7.62869C30.7506 7.84112 30.6231 8.13145 30.6231 8.49966V8.92453C30.6231 9.02366 30.5948 9.10155 30.5381 9.1582C30.4815 9.21485 30.4036 9.24317 30.3045 9.24317H26.9056C26.8064 9.24317 26.7285 9.21485 26.6719 9.1582C26.6152 9.10155 26.5869 9.02366 26.5869 8.92453V7.86237C26.6436 7.05513 26.9126 6.3541 27.3942 5.75929C27.8898 5.15032 28.5342 4.68297 29.3273 4.35724C30.1345 4.03152 31.0267 3.86865 32.0039 3.86865C33.0944 3.86865 34.0503 4.074 34.8717 4.4847C35.6932 4.88124 36.3163 5.42648 36.7411 6.12043C37.1802 6.80021 37.3997 7.5508 37.3997 8.3722C37.3997 8.95285 37.2581 9.52641 36.9748 10.0929C36.7057 10.6594 36.3021 11.2542 35.764 11.8773C35.1975 12.5146 34.2911 13.3927 33.0448 14.5115L32.1314 15.3612Z" fill="#182877"/>
<path d="M50.6803 11.7499C50.7794 11.7499 50.8573 11.7782 50.914 11.8348C50.9706 11.8915 50.999 11.9694 50.999 12.0685V14.9576C50.999 15.0567 50.9706 15.1346 50.914 15.1913C50.8573 15.2479 50.7794 15.2762 50.6803 15.2762H49.8093C49.7385 15.2762 49.7031 15.3116 49.7031 15.3824V18.5902C49.7031 18.6893 49.6748 18.7672 49.6182 18.8238C49.5615 18.8805 49.4836 18.9088 49.3845 18.9088H46.0281C45.9289 18.9088 45.851 18.8805 45.7944 18.8238C45.7377 18.7672 45.7094 18.6893 45.7094 18.5902V15.3824C45.7094 15.3116 45.674 15.2762 45.6032 15.2762H38.9753C38.8762 15.2762 38.7983 15.2479 38.7417 15.1913C38.685 15.1346 38.6567 15.0567 38.6567 14.9576V12.7058C38.6567 12.5642 38.685 12.4296 38.7417 12.3022L42.2043 4.27227C42.2609 4.11649 42.3813 4.0386 42.5654 4.0386H46.1555C46.2688 4.0386 46.3467 4.074 46.3892 4.14481C46.4317 4.21562 46.4317 4.30768 46.3892 4.42097L43.3089 11.6224C43.2948 11.6507 43.2948 11.6791 43.3089 11.7074C43.3231 11.7357 43.3443 11.7499 43.3727 11.7499H45.6032C45.674 11.7499 45.7094 11.7145 45.7094 11.6437V9.54058C45.7094 9.44144 45.7377 9.36355 45.7944 9.3069C45.851 9.25025 45.9289 9.22193 46.0281 9.22193H49.3845C49.4836 9.22193 49.5615 9.25025 49.6182 9.3069C49.6748 9.36355 49.7031 9.44144 49.7031 9.54058V11.6437C49.7031 11.7145 49.7385 11.7499 49.8093 11.7499H50.6803Z" fill="#182877"/>
<path d="M52.4568 18.9088C52.3718 18.9088 52.301 18.8947 52.2443 18.8663C52.2019 18.8238 52.1806 18.7743 52.1806 18.7176C52.1806 18.6468 52.2019 18.5831 52.2443 18.5264L55.5583 13.4493C55.5866 13.4068 55.5866 13.3643 55.5583 13.3219L52.2443 8.24474C52.2019 8.17393 52.1806 8.1102 52.1806 8.05355C52.1806 7.99691 52.2019 7.95442 52.2443 7.9261C52.301 7.88361 52.3718 7.86237 52.4568 7.86237H56.0256C56.1956 7.86237 56.323 7.93318 56.408 8.0748L57.7463 10.2204C57.7888 10.3053 57.8313 10.3053 57.8738 10.2204L59.2121 8.0748C59.2971 7.93318 59.4245 7.86237 59.5945 7.86237H63.4182C63.5032 7.86237 63.5669 7.88361 63.6094 7.9261C63.6661 7.95442 63.6944 7.99691 63.6944 8.05355C63.6944 8.1102 63.6732 8.17393 63.6307 8.24474L60.3167 13.3219C60.3026 13.3643 60.3026 13.4068 60.3167 13.4493L63.6307 18.5264C63.6732 18.5831 63.6944 18.6468 63.6944 18.7176C63.6944 18.7743 63.6661 18.8238 63.6094 18.8663C63.5669 18.8947 63.5032 18.9088 63.4182 18.9088H59.8494C59.6794 18.9088 59.552 18.838 59.467 18.6964L58.1287 16.5508C58.0862 16.4658 58.0437 16.4658 58.0012 16.5508L56.6629 18.6964C56.5779 18.838 56.4505 18.9088 56.2805 18.9088H52.4568Z" fill="#182877"/>
<path d="M66.3525 18.9088C66.2392 18.9088 66.1542 18.8805 66.0975 18.8238C66.0551 18.753 66.0551 18.661 66.0975 18.5477L70.4949 7.58621C70.509 7.55788 70.502 7.52956 70.4736 7.50123C70.4595 7.47291 70.4382 7.45875 70.4099 7.45875H67.6058C67.535 7.45875 67.4996 7.49415 67.4996 7.56496V8.52091C67.4996 8.62004 67.4713 8.69793 67.4146 8.75458C67.358 8.81123 67.2801 8.83955 67.1809 8.83955H64.5893C64.4901 8.83955 64.4123 8.81123 64.3556 8.75458C64.299 8.69793 64.2706 8.62004 64.2706 8.52091L64.2919 4.35724C64.2919 4.25811 64.3202 4.18022 64.3768 4.12357C64.4335 4.06692 64.5114 4.0386 64.6105 4.0386H74.4249C74.524 4.0386 74.6019 4.06692 74.6585 4.12357C74.7152 4.18022 74.7435 4.25811 74.7435 4.35724V7.24632C74.7435 7.34545 74.7152 7.47999 74.6585 7.64994L70.3037 18.6539C70.247 18.8238 70.1196 18.9088 69.9213 18.9088H66.3525Z" fill="#182877"/>
<path d="M31.4748 13.9938C31.4829 14.0082 31.4952 14.02 31.5101 14.0274C31.525 14.0348 31.5417 14.0377 31.5582 14.0355H36.4808C36.523 14.0332 36.5653 14.0393 36.6052 14.0536C36.645 14.068 36.6815 14.0902 36.7125 14.1189C36.7674 14.1815 36.7956 14.263 36.7914 14.3461V17.0577C36.7956 17.1408 36.7674 17.2222 36.7125 17.2848C36.6815 17.3136 36.645 17.3358 36.6052 17.3501C36.5653 17.3644 36.523 17.3706 36.4808 17.3682H26.5429C26.5013 17.3711 26.4596 17.3652 26.4205 17.3508C26.3813 17.3364 26.3456 17.3139 26.3158 17.2848C26.2872 17.2546 26.265 17.219 26.2507 17.1799C26.2363 17.1409 26.2301 17.0992 26.2323 17.0577V14.513C26.2305 14.4424 26.2441 14.3722 26.2721 14.3074C26.3001 14.2425 26.3419 14.1846 26.3946 14.1375C27.0126 13.5998 27.6306 13.0142 28.2487 12.3807L29.4353 11.1803L30.8258 9.78972C32.0619 8.5753 32.6799 7.70536 32.6799 7.18004C32.6834 7.0238 32.6515 6.86881 32.5864 6.7267C32.5214 6.5846 32.425 6.45907 32.3045 6.3596C32.0385 6.13854 31.6997 6.02454 31.3542 6.0398C31.0014 6.02274 30.6548 6.13661 30.3809 6.3596C30.2579 6.46593 30.1607 6.59876 30.0964 6.74809C30.0322 6.89742 30.0027 7.05941 30.01 7.2218V7.63428C30.0123 7.67582 30.0061 7.71745 29.9917 7.7565C29.9774 7.79555 29.9552 7.83121 29.9266 7.8614C29.8963 7.8898 29.8605 7.91191 29.8215 7.92625C29.7825 7.94058 29.741 7.94692 29.6995 7.94492H26.3853C26.3436 7.94844 26.3017 7.94276 26.2624 7.9284C26.2231 7.91403 26.1875 7.89131 26.1579 7.86174C26.1283 7.83217 26.1056 7.79646 26.0912 7.75718C26.0768 7.7179 26.0712 7.67595 26.0748 7.63428V6.60064C26.117 5.84636 26.396 5.12461 26.872 4.53799C27.3745 3.93473 28.0221 3.46904 28.7539 3.18455C29.582 2.86121 30.4655 2.70372 31.3542 2.72103C32.3142 2.70146 33.2657 2.90288 34.1354 3.30971C34.891 3.65636 35.5336 4.20897 35.9895 4.90419C36.4073 5.56374 36.6262 6.32979 36.6199 7.11056C36.6159 7.69339 36.4779 8.26745 36.2166 8.78844C35.8952 9.41625 35.4949 10.0004 35.0253 10.5266C34.1874 11.4271 33.304 12.2842 32.3786 13.0946L31.4887 13.9197C31.464 13.9413 31.4593 13.966 31.4748 13.9938Z" fill="#FCE68D"/>
<path d="M51.2162 10.4755C51.2448 10.5057 51.267 10.5414 51.2813 10.5804C51.2956 10.6195 51.3019 10.6611 51.2996 10.7026V13.5162C51.302 13.5585 51.2958 13.6008 51.2815 13.6406C51.2671 13.6804 51.2449 13.717 51.2162 13.748C51.1536 13.8028 51.0721 13.831 50.9891 13.8268H50.1408C50.0713 13.8268 50.0388 13.8638 50.0388 13.9334V17.0575C50.0423 17.0992 50.0367 17.1411 50.0224 17.1804C50.008 17.2197 49.9852 17.2554 49.9557 17.285C49.9261 17.3145 49.8904 17.3372 49.8512 17.3516C49.8119 17.366 49.7699 17.3715 49.7283 17.368H46.4558C46.4141 17.3715 46.3722 17.366 46.3329 17.3516C46.2936 17.3372 46.258 17.3145 46.2284 17.285C46.1988 17.2554 46.1761 17.2197 46.1617 17.1804C46.1474 17.1411 46.1417 17.0992 46.1453 17.0575V13.9334C46.1453 13.8638 46.1128 13.8268 46.0433 13.8268H39.5818C39.4987 13.831 39.4173 13.8028 39.3547 13.748C39.3259 13.717 39.3037 13.6804 39.2894 13.6406C39.275 13.6008 39.2689 13.5585 39.2712 13.5162V11.3237C39.2707 11.1879 39.2992 11.0537 39.3547 10.9298L42.7291 3.10547C42.753 3.03306 42.801 2.97105 42.8651 2.92972C42.9292 2.8884 43.0056 2.87026 43.0814 2.87835H46.581C46.6245 2.87306 46.6687 2.87984 46.7087 2.89781C46.7487 2.91578 46.7831 2.94425 46.8081 2.98031C46.8289 3.02206 46.8397 3.06809 46.8397 3.11475C46.8397 3.1614 46.8289 3.20743 46.8081 3.24919L43.8045 10.267C43.7976 10.2798 43.794 10.294 43.794 10.3086C43.794 10.3232 43.7976 10.3375 43.8045 10.3504C43.81 10.3629 43.8191 10.3736 43.8306 10.381C43.8422 10.3885 43.8556 10.3923 43.8694 10.3921H46.0433C46.0572 10.3946 46.0715 10.3935 46.085 10.3893C46.0985 10.385 46.1108 10.3776 46.1208 10.3676C46.1308 10.3576 46.1382 10.3453 46.1425 10.3318C46.1468 10.3183 46.1477 10.304 46.1453 10.29V8.2506C46.1429 8.20834 46.1491 8.16605 46.1634 8.12623C46.1777 8.08641 46.1999 8.04989 46.2287 8.01883C46.2913 7.96403 46.3727 7.9358 46.4558 7.94007H49.7283C49.8113 7.9358 49.8928 7.96403 49.9554 8.01883C49.9841 8.04989 50.0064 8.08641 50.0207 8.12623C50.035 8.16605 50.0412 8.20834 50.0388 8.2506V10.2993C50.0364 10.3133 50.0373 10.3276 50.0416 10.3411C50.0458 10.3546 50.0533 10.3668 50.0633 10.3768C50.0733 10.3868 50.0856 10.3943 50.0991 10.3986C50.1125 10.4028 50.1269 10.4037 50.1408 10.4013H50.9891C51.0299 10.3978 51.0711 10.4026 51.1102 10.4153C51.1492 10.4281 51.1852 10.4486 51.2162 10.4755Z" fill="#FCE68D"/>
<path d="M53.9415 17.3175C53.9184 17.3036 53.8994 17.2838 53.8864 17.2602C53.8733 17.2366 53.8668 17.21 53.8674 17.183C53.866 17.1162 53.8872 17.0509 53.9276 16.9977L57.1723 12.0472C57.1855 12.029 57.1926 12.0071 57.1926 11.9846C57.1926 11.9621 57.1855 11.9402 57.1723 11.922L53.9276 6.97628C53.8909 6.92116 53.8701 6.85708 53.8674 6.79092C53.8668 6.76397 53.8733 6.73735 53.8864 6.71374C53.8994 6.69014 53.9184 6.67036 53.9415 6.65648C53.9988 6.61802 54.0674 6.6 54.1362 6.60544H57.6126C57.6879 6.60193 57.7626 6.61906 57.8288 6.65501C57.895 6.69096 57.9501 6.74434 57.9881 6.80937L59.2906 8.89985C59.3338 8.98328 59.3755 8.98328 59.4157 8.89985L60.7182 6.80937C60.7562 6.74434 60.8113 6.69096 60.8775 6.65501C60.9437 6.61906 61.0184 6.60193 61.0937 6.60544H64.8018C64.872 6.6007 64.9419 6.61862 65.0011 6.65648C65.0236 6.67102 65.0422 6.69085 65.0551 6.71431C65.0681 6.73776 65.075 6.76413 65.0753 6.79092C65.0707 6.85743 65.0483 6.92144 65.0104 6.97628L61.7658 11.922C61.752 11.9626 61.752 12.0066 61.7658 12.0472L65.0104 16.9977C65.0522 17.0505 65.075 17.1157 65.0753 17.183C65.075 17.2098 65.0681 17.2361 65.0551 17.2595C65.0422 17.283 65.0236 17.3029 65.0011 17.3175C64.941 17.3534 64.8718 17.3711 64.8018 17.3684H61.3254C61.2503 17.3716 61.1758 17.3539 61.1103 17.317C61.0447 17.2802 60.9908 17.2257 60.9546 17.1598L59.6475 15.0693C59.6058 14.9905 59.5687 14.9905 59.527 15.0693L58.2198 17.1598C58.1836 17.2257 58.1297 17.2802 58.0642 17.317C57.9986 17.3539 57.9241 17.3716 57.849 17.3684H54.1408C54.0707 17.3728 54.0009 17.355 53.9415 17.3175Z" fill="#FCE68D"/>
<path d="M68.8439 17.2759C68.8216 17.2363 68.8099 17.1916 68.8099 17.1461C68.8099 17.1007 68.8216 17.0559 68.8439 17.0163L73.1269 6.35535C73.1359 6.34331 73.1408 6.32875 73.1408 6.3137C73.1408 6.29866 73.1359 6.28398 73.1269 6.27194C73.119 6.25929 73.1081 6.2488 73.0952 6.2415C73.0822 6.23421 73.0676 6.23031 73.0527 6.23019H70.3226C70.3086 6.22774 70.2943 6.22876 70.2808 6.23302C70.2673 6.23728 70.2551 6.24474 70.2451 6.25474C70.2351 6.26475 70.2276 6.27701 70.2234 6.2905C70.2191 6.304 70.2181 6.31833 70.2206 6.33226V7.2593C70.2229 7.30085 70.2166 7.34236 70.2023 7.38141C70.1879 7.42046 70.1658 7.45623 70.1372 7.48642C70.1068 7.51482 70.0711 7.53682 70.0321 7.55115C69.9931 7.56549 69.9516 7.57183 69.91 7.56983H67.3839C67.3422 7.57335 67.3002 7.56767 67.261 7.5533C67.2217 7.53894 67.186 7.51622 67.1564 7.48665C67.1269 7.45708 67.1041 7.42136 67.0898 7.38209C67.0754 7.34281 67.0698 7.30098 67.0733 7.2593V3.2035C67.0698 3.16182 67.0754 3.11988 67.0898 3.0806C67.1041 3.04132 67.1269 3.00561 67.1564 2.97604C67.186 2.94646 67.2217 2.92374 67.261 2.90938C67.3002 2.89502 67.3422 2.88934 67.3839 2.89286H76.9509C76.9924 2.89086 77.0339 2.8972 77.0729 2.91153C77.112 2.92586 77.1477 2.94798 77.178 2.97638C77.2067 3.00657 77.2288 3.04223 77.2432 3.08128C77.2575 3.12033 77.2637 3.16195 77.2615 3.2035V6.01699C77.2538 6.15179 77.2257 6.28469 77.178 6.41102L72.9322 17.1322C72.9089 17.2104 72.8592 17.2781 72.7916 17.3238C72.724 17.3694 72.6426 17.3902 72.5614 17.3825H69.0803C69.0353 17.3845 68.9905 17.3759 68.9494 17.3574C68.9084 17.3389 68.8722 17.311 68.8439 17.2759Z" fill="#FCE68D"/>
<path d="M34.1817 3.31897C33.3113 2.91433 32.3602 2.71302 31.4006 2.73029C30.5118 2.71298 29.6283 2.87047 28.8002 3.19381C28.3424 3.37775 27.9156 3.63095 27.5348 3.94466L36.6152 6.50794C36.5375 5.93555 36.3367 5.38682 36.0265 4.89954C35.5712 4.21077 34.9321 3.66328 34.1817 3.31897Z" fill="#F68B42"/>
<path d="M50.0388 10.3084V8.25044C50.0416 8.20884 50.0357 8.16713 50.0213 8.12799C50.0069 8.08886 49.9844 8.05318 49.9554 8.02331C49.9252 7.99469 49.8895 7.97248 49.8504 7.95813C49.8113 7.94379 49.7698 7.93764 49.7282 7.93991H46.4558C46.4142 7.93764 46.3727 7.94379 46.3336 7.95813C46.2946 7.97248 46.2588 7.99469 46.2286 8.02331C46.1996 8.05318 46.1771 8.08886 46.1627 8.12799C46.1484 8.16713 46.1424 8.20884 46.1452 8.25044V9.20532L50.0388 10.3038V10.3084Z" fill="#F68B42"/>
<path d="M46.8081 2.99886C46.7831 2.9628 46.7487 2.93434 46.7087 2.91637C46.6687 2.8984 46.6245 2.89162 46.581 2.8969H43.0628C42.987 2.88881 42.9107 2.90695 42.8466 2.94828C42.7825 2.9896 42.7345 3.05161 42.7106 3.12402L40.7452 7.69439L44.4534 8.74195L46.7942 3.26774C46.8172 3.22708 46.8304 3.18166 46.8328 3.135C46.8353 3.08834 46.8268 3.04168 46.8081 2.99886Z" fill="#F68B42"/>
<path d="M51.2907 10.6652C51.2877 10.6009 51.2613 10.5399 51.2165 10.4937C51.1863 10.465 51.1505 10.4428 51.1115 10.4285C51.0724 10.4141 51.0308 10.4079 50.9893 10.4101H50.3818L51.2907 10.6652Z" fill="#F68B42"/>
<path d="M64.8158 6.6236H61.1077C61.0324 6.62008 60.9577 6.63721 60.8915 6.67316C60.8253 6.70912 60.7702 6.76249 60.7322 6.82752L59.4297 8.92264C59.3896 9.00299 59.3478 9.00299 59.3046 8.92264L58.0021 6.82752C57.9641 6.76249 57.909 6.70912 57.8428 6.67316C57.7766 6.63721 57.7019 6.62008 57.6266 6.6236H54.1502C54.0816 6.62016 54.0136 6.63801 53.9555 6.67463C53.9324 6.68852 53.9134 6.70818 53.9004 6.73178C53.8874 6.75539 53.8808 6.78201 53.8814 6.80896C53.8841 6.87511 53.905 6.93932 53.9416 6.99444L57.1863 11.9448C57.1998 11.962 57.2072 11.9833 57.2072 12.0051C57.2072 12.027 57.1998 12.0482 57.1863 12.0653L57.0426 12.2832L63.0684 13.9889L61.8122 12.0653C61.7984 12.0263 61.7984 11.9838 61.8122 11.9448L65.0569 6.99444C65.0948 6.93959 65.1172 6.87547 65.1218 6.80896C65.1215 6.78217 65.1145 6.75592 65.1016 6.73246C65.0887 6.70901 65.0701 6.68917 65.0476 6.67463C64.9783 6.63205 64.8966 6.61403 64.8158 6.6236Z" fill="#F68B42"/>
<path d="M69.3444 15.7644L73.0526 16.8166L77.1779 6.39662C77.2256 6.27028 77.2537 6.13739 77.2614 6.00258V3.18909C77.2636 3.14755 77.2574 3.10593 77.2431 3.06687C77.2287 3.02782 77.2065 2.99217 77.1779 2.96197C77.1476 2.93357 77.1118 2.91146 77.0728 2.89713C77.0338 2.8828 76.9923 2.87646 76.9508 2.87846H67.3837C67.3421 2.87493 67.3001 2.88062 67.2608 2.89498C67.2216 2.90934 67.1859 2.93206 67.1563 2.96163C67.1268 2.9912 67.104 3.02692 67.0896 3.0662C67.0753 3.10547 67.0696 3.14742 67.0732 3.18909V7.2449C67.0696 7.28657 67.0753 7.32852 67.0896 7.3678C67.104 7.40707 67.1268 7.44267 67.1563 7.47225C67.1859 7.50182 67.2216 7.52465 67.2608 7.53901C67.3001 7.55338 67.3421 7.55894 67.3837 7.55542H69.9099C69.9514 7.55742 69.9929 7.55108 70.0319 7.53675C70.071 7.52242 70.1067 7.50042 70.137 7.47202C70.1657 7.44182 70.1878 7.40606 70.2022 7.367C70.2165 7.32795 70.2227 7.28644 70.2205 7.2449V6.31786C70.218 6.30392 70.219 6.28959 70.2232 6.2761C70.2275 6.26261 70.2349 6.25034 70.2449 6.24034C70.2549 6.23034 70.2672 6.22287 70.2807 6.21861C70.2942 6.21435 70.3085 6.21345 70.3224 6.2159H73.0526C73.0675 6.21602 73.0821 6.2198 73.095 6.2271C73.108 6.23439 73.1189 6.24489 73.1267 6.25754C73.1358 6.26958 73.1407 6.28425 73.1407 6.2993C73.1407 6.31434 73.1358 6.32891 73.1267 6.34094L69.3444 15.7644Z" fill="#F68B42"/>
<path d="M29.2174 44.4065C28.8922 44.2453 28.6214 43.9923 28.4387 43.6787C28.2483 43.3461 28.1521 42.9679 28.1605 42.5847V40.8002C28.1528 40.4216 28.249 40.048 28.4387 39.7202C28.6214 39.4066 28.8922 39.1536 29.2174 38.9925C29.5792 38.8156 29.9782 38.7282 30.3808 38.7375C30.7823 38.7297 31.1802 38.8138 31.5442 38.9832C31.8638 39.1331 32.134 39.371 32.3229 39.6692C32.5112 39.9755 32.6077 40.3295 32.6011 40.689C32.6006 40.7022 32.5976 40.7151 32.592 40.727C32.5864 40.739 32.5785 40.7497 32.5686 40.7585C32.5486 40.7735 32.5242 40.7817 32.4991 40.7817L31.3264 40.8558C31.2569 40.8558 31.2244 40.828 31.2244 40.7631C31.2294 40.6501 31.2114 40.5372 31.1716 40.4312C31.1317 40.3253 31.0709 40.2284 30.9926 40.1466C30.8235 39.998 30.606 39.9161 30.3808 39.9161C30.1556 39.9161 29.9381 39.998 29.769 40.1466C29.6905 40.2283 29.6295 40.3251 29.5897 40.4311C29.5498 40.5371 29.532 40.65 29.5372 40.7631V42.6451C29.5312 42.7575 29.5487 42.87 29.5886 42.9754C29.6285 43.0807 29.69 43.1765 29.769 43.2568C29.8869 43.3813 30.04 43.467 30.2078 43.5023C30.3756 43.5376 30.5502 43.5209 30.7083 43.4544C30.8664 43.3879 31.0005 43.2749 31.0927 43.1303C31.1849 42.9857 31.2308 42.8164 31.2244 42.6451C31.2244 42.5848 31.2569 42.5524 31.3264 42.5524L32.4991 42.6126C32.5116 42.6115 32.5243 42.613 32.5363 42.617C32.5482 42.621 32.5592 42.6274 32.5686 42.6358C32.5778 42.6431 32.5854 42.6522 32.5909 42.6626C32.5965 42.6729 32.6 42.6843 32.6011 42.696C32.6078 43.0599 32.5113 43.4182 32.3229 43.7296C32.1346 44.0295 31.8644 44.2691 31.5442 44.4203C31.1802 44.5896 30.7823 44.6737 30.3808 44.6659C29.9778 44.6738 29.5788 44.5849 29.2174 44.4065Z" fill="#00DF8D"/>
<path d="M34.8772 44.4107C34.5556 44.2526 34.2867 44.0046 34.1031 43.6969C33.9139 43.3722 33.8177 43.0018 33.825 42.6261V38.9179C33.8252 38.8907 33.8351 38.8645 33.8528 38.8438C33.8618 38.8346 33.8726 38.8273 33.8846 38.8225C33.8966 38.8178 33.9094 38.8155 33.9223 38.816H35.0996C35.1125 38.8155 35.1254 38.8178 35.1373 38.8225C35.1493 38.8273 35.1602 38.8346 35.1692 38.8438C35.1869 38.8645 35.1967 38.8907 35.197 38.9179V42.6261C35.1879 42.8564 35.2694 43.0811 35.4241 43.2519C35.5042 43.3315 35.5999 43.3935 35.7052 43.4342C35.8106 43.4749 35.9232 43.4933 36.036 43.4882C36.1466 43.4925 36.2569 43.4737 36.3598 43.433C36.4628 43.3923 36.5561 43.3307 36.6339 43.2519C36.7116 43.168 36.7717 43.0693 36.8107 42.9619C36.8497 42.8544 36.8668 42.7403 36.861 42.6261V38.9179C36.8613 38.8907 36.8711 38.8645 36.8888 38.8438C36.9091 38.8254 36.9356 38.8154 36.963 38.816H38.1357C38.1486 38.8155 38.1614 38.8178 38.1734 38.8225C38.1854 38.8273 38.1962 38.8346 38.2052 38.8438C38.2243 38.8641 38.2357 38.8902 38.2377 38.9179V42.6261C38.2442 43.0011 38.1498 43.3709 37.9642 43.6969C37.7806 44.0046 37.5117 44.2526 37.1901 44.4107C36.8271 44.5795 36.4316 44.6669 36.0313 44.6669C35.631 44.6669 35.2355 44.5795 34.8725 44.4107H34.8772Z" fill="#00DF8D"/>
<path d="M40.4808 44.4427C40.1636 44.3138 39.8912 44.0947 39.6975 43.8123C39.5134 43.5384 39.4165 43.2153 39.4194 42.8853V42.7277C39.4194 42.7018 39.4296 42.6771 39.4479 42.6589C39.4661 42.6406 39.4909 42.6303 39.5167 42.6303H40.6662C40.6936 42.6297 40.7202 42.6397 40.7404 42.6582C40.7496 42.6672 40.7569 42.678 40.7616 42.69C40.7664 42.7019 40.7687 42.7148 40.7682 42.7277V42.8296C40.7733 42.9231 40.8008 43.0141 40.8484 43.0948C40.896 43.1754 40.9623 43.2435 41.0417 43.2931C41.2589 43.439 41.5174 43.5106 41.7787 43.4971C41.9713 43.5131 42.1629 43.457 42.3164 43.3395C42.3708 43.2954 42.4145 43.2396 42.4442 43.1761C42.4739 43.1127 42.4888 43.0434 42.4879 42.9733C42.4899 42.924 42.4819 42.8747 42.4644 42.8285C42.4469 42.7823 42.4202 42.7401 42.3859 42.7045C42.3046 42.6306 42.2103 42.5725 42.1078 42.533C41.9919 42.4867 41.8158 42.4217 41.5701 42.3383C41.5393 42.3219 41.5066 42.3095 41.4728 42.3013L41.3801 42.2734C41.061 42.1727 40.7509 42.0455 40.453 41.8933C40.1881 41.7597 39.9567 41.568 39.7763 41.3325C39.5823 41.0773 39.4824 40.7629 39.4935 40.4425C39.4864 40.122 39.5805 39.8074 39.7624 39.5433C39.9518 39.2798 40.2122 39.0757 40.5133 38.9546C40.8565 38.8109 41.2258 38.7398 41.5979 38.746C41.9917 38.7413 42.3819 38.8203 42.7428 38.9777C43.065 39.1158 43.3414 39.3425 43.5401 39.6314C43.7359 39.916 43.838 40.2546 43.8321 40.6001V40.7159C43.8325 40.7288 43.8303 40.7418 43.8255 40.7537C43.8207 40.7657 43.8135 40.7765 43.8043 40.7855C43.7836 40.8032 43.7573 40.8131 43.7301 40.8134H42.5806C42.5678 40.8134 42.5551 40.8108 42.5433 40.8059C42.5315 40.801 42.5208 40.7939 42.5117 40.7849C42.5027 40.7758 42.4955 40.7651 42.4907 40.7533C42.4858 40.7415 42.4832 40.7287 42.4832 40.7159V40.6465C42.4805 40.5475 42.4558 40.4505 42.4109 40.3623C42.366 40.2741 42.302 40.197 42.2237 40.1365C42.0306 39.9797 41.786 39.9004 41.5377 39.9141C41.3598 39.9032 41.183 39.9486 41.0324 40.0439C40.974 40.0859 40.9269 40.1419 40.8954 40.2066C40.8638 40.2713 40.8488 40.3428 40.8517 40.4147C40.8496 40.4708 40.8588 40.5268 40.8787 40.5793C40.8986 40.6319 40.9288 40.6799 40.9675 40.7206C41.0733 40.8164 41.1959 40.8918 41.3291 40.9431C41.4913 41.0126 41.7416 41.1007 42.0753 41.2119C42.3829 41.3108 42.6847 41.4269 42.9792 41.5596C43.2125 41.6688 43.4195 41.8269 43.5864 42.0231C43.7857 42.274 43.8877 42.5883 43.8738 42.9084C43.8814 43.2383 43.7858 43.5624 43.6003 43.8354C43.4057 44.1018 43.1409 44.3088 42.8355 44.4334C42.4705 44.5807 42.0796 44.6532 41.686 44.6466C41.2745 44.6623 40.8642 44.5929 40.4808 44.4427Z" fill="#00DF8D"/>
<path d="M49.3203 38.8301C49.3307 38.8395 49.339 38.8508 49.3446 38.8636C49.3502 38.8764 49.353 38.8903 49.3527 38.9043V39.887C49.3506 39.9133 49.3392 39.938 49.3205 39.9567C49.3018 39.9754 49.2771 39.9868 49.2508 39.9889H47.8046C47.7989 39.9882 47.7932 39.9887 47.7877 39.9905C47.7823 39.9924 47.7774 39.9954 47.7734 39.9995C47.7694 40.0035 47.7663 40.0084 47.7645 40.0138C47.7627 40.0193 47.7621 40.0249 47.7629 40.0306V44.499C47.7633 44.5119 47.7611 44.5247 47.7563 44.5367C47.7515 44.5486 47.7443 44.5595 47.735 44.5685C47.7144 44.5862 47.6881 44.596 47.6609 44.5963H46.4882C46.4753 44.5968 46.4625 44.5945 46.4505 44.5898C46.4385 44.585 46.4277 44.5777 46.4186 44.5685C46.4088 44.5597 46.4009 44.549 46.3953 44.537C46.3897 44.5251 46.3866 44.5122 46.3862 44.499V40.0306C46.387 40.0249 46.3864 40.0193 46.3846 40.0138C46.3828 40.0084 46.3797 40.0035 46.3757 39.9995C46.3716 39.9954 46.3667 39.9924 46.3613 39.9905C46.3559 39.9887 46.3501 39.9882 46.3445 39.9889H44.9539C44.9276 39.9868 44.9029 39.9754 44.8842 39.9567C44.8655 39.938 44.8541 39.9133 44.8519 39.887V38.9043C44.8517 38.8903 44.8545 38.8764 44.8601 38.8636C44.8657 38.8508 44.874 38.8395 44.8844 38.8301C44.8934 38.8209 44.9042 38.8137 44.9162 38.8089C44.9282 38.8041 44.941 38.8018 44.9539 38.8023H49.2554C49.2798 38.8027 49.3032 38.8127 49.3203 38.8301Z" fill="#00DF8D"/>
<path d="M51.3276 44.4197C50.9953 44.2485 50.7199 43.9844 50.535 43.6596C50.3425 43.3142 50.2449 42.924 50.2522 42.5286V40.8738C50.2461 40.483 50.3436 40.0976 50.535 39.7568C50.7229 39.4366 50.9977 39.1762 51.3276 39.0058C51.6956 38.8287 52.0988 38.7368 52.5072 38.7368C52.9157 38.7368 53.3189 38.8287 53.6869 39.0058C54.018 39.1761 54.2943 39.4365 54.4842 39.7568C54.6755 40.0976 54.773 40.483 54.7669 40.8738V42.5286C54.7742 42.924 54.6766 43.3142 54.4842 43.6596C54.2976 43.9848 54.0206 44.2488 53.6869 44.4197C53.3189 44.5968 52.9157 44.6888 52.5072 44.6888C52.0988 44.6888 51.6956 44.5968 51.3276 44.4197ZM53.1446 43.2563C53.2297 43.1644 53.2954 43.0564 53.3376 42.9385C53.3799 42.8206 53.3978 42.6953 53.3902 42.5703V40.8553C53.3971 40.731 53.3789 40.6067 53.3367 40.4896C53.2945 40.3726 53.2292 40.2652 53.1446 40.1739C52.9724 40.0109 52.7443 39.9201 52.5072 39.9201C52.2701 39.9201 52.0421 40.0109 51.8699 40.1739C51.7861 40.2655 51.7216 40.3731 51.6802 40.4902C51.6388 40.6072 51.6214 40.7313 51.6289 40.8553V42.5703C51.6156 42.8218 51.7022 43.0683 51.8699 43.2563C52.0421 43.4193 52.2701 43.5102 52.5072 43.5102C52.7443 43.5102 52.9724 43.4193 53.1446 43.2563Z" fill="#00DF8D"/>
<path d="M59.8794 38.7925H61.0475C61.0604 38.7921 61.0732 38.7943 61.0852 38.7991C61.0972 38.8039 61.108 38.8112 61.117 38.8204C61.1347 38.8411 61.1446 38.8673 61.1449 38.8945V44.4892C61.1449 44.515 61.1346 44.5398 61.1163 44.558C61.0981 44.5763 61.0733 44.5865 61.0475 44.5865H59.8702C59.8444 44.5865 59.8196 44.5763 59.8013 44.558C59.7831 44.5398 59.7728 44.515 59.7728 44.4892V41.1612C59.7728 41.138 59.7728 41.1287 59.7728 41.1287C59.7728 41.1287 59.7728 41.1287 59.7404 41.1519L59.0312 42.2968C59.0204 42.3178 59.0036 42.335 58.983 42.3466C58.9624 42.3581 58.9389 42.3634 58.9153 42.3616H58.3266C58.3031 42.3634 58.2796 42.3581 58.259 42.3466C58.2384 42.335 58.2216 42.3178 58.2108 42.2968L57.4877 41.1426C57.4877 41.1426 57.4877 41.1194 57.4552 41.1194C57.4228 41.1194 57.4552 41.1195 57.4552 41.1519V44.4892C57.4557 44.5021 57.4534 44.5149 57.4487 44.5269C57.4439 44.5389 57.4366 44.5497 57.4274 44.5587C57.4067 44.5764 57.3805 44.5863 57.3532 44.5865H56.1805C56.1677 44.587 56.1548 44.5848 56.1428 44.58C56.1309 44.5752 56.12 44.5679 56.111 44.5587C56.1004 44.5506 56.092 44.54 56.0863 44.5279C56.0807 44.5158 56.078 44.5026 56.0786 44.4892V38.8945C56.0783 38.8805 56.0811 38.8667 56.0867 38.8539C56.0923 38.8411 56.1006 38.8297 56.111 38.8204C56.12 38.8112 56.1309 38.8039 56.1428 38.7991C56.1548 38.7943 56.1677 38.7921 56.1805 38.7925H57.3486C57.3724 38.7929 57.3956 38.7995 57.4159 38.8117C57.4363 38.8239 57.453 38.8412 57.4645 38.862L58.614 40.6652C58.614 40.6976 58.6465 40.6976 58.6604 40.6652L59.796 38.862C59.8035 38.8447 59.815 38.8294 59.8294 38.8173C59.8439 38.8052 59.8611 38.7968 59.8794 38.7925Z" fill="#00DF8D"/>
<path d="M66.6047 39.9518C66.5957 39.961 66.5849 39.9683 66.5729 39.9731C66.5609 39.9779 66.5481 39.9801 66.5352 39.9797H63.9209C63.9153 39.9789 63.9095 39.9794 63.9041 39.9812C63.8987 39.9831 63.8938 39.9862 63.8897 39.9902C63.8857 39.9942 63.8827 39.9992 63.8808 40.0046C63.879 40.01 63.8785 40.0157 63.8792 40.0213V41.0365C63.8785 41.0422 63.879 41.0478 63.8808 41.0533C63.8827 41.0587 63.8857 41.0636 63.8897 41.0676C63.8938 41.0717 63.8987 41.0747 63.9041 41.0766C63.9095 41.0784 63.9153 41.0789 63.9209 41.0782H65.585C65.5983 41.0776 65.6116 41.0803 65.6237 41.086C65.6358 41.0916 65.6464 41.1001 65.6545 41.1106C65.6637 41.1196 65.671 41.1305 65.6757 41.1424C65.6805 41.1544 65.6828 41.1672 65.6823 41.1801V42.1489C65.6823 42.1747 65.6721 42.1995 65.6538 42.2177C65.6356 42.236 65.6108 42.2462 65.585 42.2462H63.9209C63.9153 42.2455 63.9095 42.246 63.9041 42.2478C63.8987 42.2496 63.8938 42.2527 63.8897 42.2568C63.8857 42.2608 63.8827 42.2657 63.8808 42.2711C63.879 42.2765 63.8785 42.2823 63.8792 42.288V43.3818C63.8785 43.3875 63.879 43.3933 63.8808 43.3987C63.8827 43.4041 63.8857 43.409 63.8897 43.4131C63.8938 43.4171 63.8987 43.4202 63.9041 43.422C63.9095 43.4238 63.9153 43.4244 63.9209 43.4236H66.5213C66.5471 43.4236 66.5719 43.4339 66.5901 43.4521C66.6084 43.4704 66.6186 43.4951 66.6186 43.5209V44.499C66.6186 44.5248 66.6084 44.5495 66.5901 44.5678C66.5719 44.5861 66.5471 44.5963 66.5213 44.5963H62.6045C62.5787 44.5963 62.554 44.5861 62.5357 44.5678C62.5175 44.5495 62.5072 44.5248 62.5072 44.499V38.9043C62.5075 38.877 62.5173 38.8508 62.535 38.8301C62.544 38.8209 62.5549 38.8137 62.5668 38.8089C62.5788 38.8041 62.5917 38.8018 62.6045 38.8023H66.5213C66.5342 38.8018 66.547 38.8041 66.559 38.8089C66.571 38.8137 66.5818 38.8209 66.5908 38.8301C66.6085 38.8508 66.6184 38.877 66.6186 38.9043V39.8777C66.6224 39.9033 66.6175 39.9293 66.6047 39.9518Z" fill="#00DF8D"/>
<path d="M70.846 44.5217L69.868 42.32C69.8649 42.3102 69.8587 42.3016 69.8504 42.2957C69.842 42.2899 69.8319 42.287 69.8217 42.2875H69.2747C69.269 42.2867 69.2633 42.2872 69.2579 42.2891C69.2525 42.2909 69.2475 42.294 69.2435 42.298C69.2395 42.302 69.2364 42.307 69.2346 42.3124C69.2328 42.3178 69.2322 42.3235 69.233 42.3291V44.4985C69.2334 44.5114 69.2312 44.5242 69.2264 44.5362C69.2216 44.5481 69.2144 44.5589 69.2052 44.568C69.1845 44.5857 69.1582 44.5955 69.131 44.5958H67.9583C67.9454 44.5963 67.9326 44.594 67.9206 44.5892C67.9086 44.5845 67.8978 44.5772 67.8888 44.568C67.8789 44.5592 67.871 44.5485 67.8654 44.5365C67.8598 44.5246 67.8567 44.5117 67.8563 44.4985V38.9038C67.8583 38.876 67.8697 38.8499 67.8888 38.8296C67.8978 38.8204 67.9086 38.8131 67.9206 38.8084C67.9326 38.8036 67.9454 38.8013 67.9583 38.8018H70.4103C70.7438 38.7941 71.0738 38.8706 71.3698 39.0243C71.6411 39.1697 71.8647 39.3902 72.0141 39.6594C72.1676 39.9439 72.2458 40.2631 72.2412 40.5864C72.2495 40.9266 72.1541 41.2611 71.9678 41.5458C71.7823 41.8168 71.5164 42.0228 71.2076 42.1345C71.2014 42.1352 71.1956 42.1374 71.1905 42.1409C71.1854 42.1445 71.1813 42.1492 71.1786 42.1547C71.1758 42.1603 71.1745 42.1664 71.1747 42.1726C71.1749 42.1788 71.1766 42.1848 71.1798 42.1902L72.2737 44.466C72.2755 44.483 72.2755 44.5001 72.2737 44.517C72.2737 44.5588 72.2412 44.5819 72.181 44.5819H70.9387C70.9195 44.5804 70.9009 44.5741 70.8847 44.5636C70.8686 44.553 70.8552 44.5387 70.846 44.5217ZM69.233 40.0208V41.1935C69.2322 41.1992 69.2328 41.205 69.2346 41.2104C69.2364 41.2158 69.2395 41.2207 69.2435 41.2248C69.2475 41.2288 69.2525 41.2319 69.2579 41.2337C69.2633 41.2355 69.269 41.236 69.2747 41.2353H70.2017C70.3821 41.2435 70.559 41.184 70.6977 41.0684C70.7626 41.0107 70.8134 40.939 70.8464 40.8587C70.8793 40.7783 70.8935 40.6915 70.8878 40.6048C70.8918 40.5184 70.8769 40.4321 70.8441 40.352C70.8112 40.272 70.7613 40.2 70.6977 40.1413C70.5606 40.0224 70.383 39.961 70.2017 39.9699H69.2747C69.268 39.9685 69.2611 39.9689 69.2547 39.9711C69.2483 39.9734 69.2426 39.9774 69.2383 39.9827C69.234 39.9879 69.2312 39.9943 69.2303 40.001C69.2294 40.0077 69.2303 40.0146 69.233 40.0208Z" fill="#00DF8D"/>
<path d="M32.2626 54.3758C31.9445 54.2484 31.6717 54.0289 31.4792 53.7454C31.2957 53.4713 31.1988 53.1483 31.2011 52.8184V52.6607C31.2011 52.6349 31.2113 52.6102 31.2296 52.5919C31.2478 52.5737 31.2726 52.5634 31.2984 52.5634H32.448C32.4752 52.5637 32.5014 52.5735 32.5221 52.5912C32.5313 52.6003 32.5386 52.6111 32.5434 52.623C32.5481 52.635 32.5504 52.6478 32.5499 52.6607V52.758C32.5542 52.8518 32.5814 52.9431 32.6291 53.0239C32.6767 53.1047 32.7435 53.1725 32.8234 53.2216C33.0406 53.3674 33.2992 53.4391 33.5604 53.4256C33.753 53.4416 33.9446 53.3854 34.0981 53.268C34.1525 53.2239 34.1962 53.168 34.2259 53.1046C34.2556 53.0411 34.2705 52.9718 34.2696 52.9018C34.2716 52.8524 34.2636 52.8031 34.2461 52.7569C34.2286 52.7107 34.2019 52.6686 34.1676 52.633C34.0875 52.5576 33.9929 52.4992 33.8895 52.4614L33.3518 52.2668C33.3211 52.2504 33.2884 52.2379 33.2545 52.2297L33.1618 52.2018C32.8435 52.0991 32.5336 51.9721 32.2347 51.8218C31.9698 51.6882 31.7385 51.4964 31.558 51.2609C31.364 51.0057 31.2641 50.6913 31.2753 50.371C31.2675 50.0503 31.3616 49.7355 31.5441 49.4718C31.7347 49.2083 31.9946 49.0029 32.295 48.8784C33.0134 48.5969 33.8133 48.6069 34.5245 48.9063C34.8467 49.0444 35.1232 49.271 35.3218 49.5598C35.5176 49.8444 35.6197 50.1832 35.6138 50.5286V50.6445C35.6144 50.6578 35.6117 50.6711 35.6061 50.6832C35.6004 50.6953 35.5919 50.7058 35.5814 50.714C35.5723 50.7232 35.5615 50.7304 35.5495 50.7352C35.5376 50.74 35.5247 50.7423 35.5118 50.7418H34.3623C34.3365 50.7418 34.3117 50.7315 34.2935 50.7133C34.2752 50.695 34.265 50.6703 34.265 50.6445V50.5842C34.2622 50.4852 34.2375 50.3882 34.1926 50.3C34.1477 50.2118 34.0837 50.1348 34.0054 50.0744C33.8136 49.9147 33.5685 49.8335 33.3194 49.8472C33.141 49.8377 32.9642 49.8847 32.8141 49.9816C32.7557 50.0236 32.7086 50.0796 32.6771 50.1443C32.6455 50.209 32.6305 50.2805 32.6334 50.3524C32.6309 50.4079 32.6399 50.4633 32.6598 50.5151C32.6798 50.567 32.7102 50.6142 32.7492 50.6538C32.8518 50.7548 32.9752 50.8323 33.1108 50.8809C33.273 50.9504 33.5187 51.0384 33.8571 51.1496C34.1643 51.2493 34.466 51.3654 34.7609 51.4973C34.9942 51.6065 35.2013 51.7646 35.3681 51.9608C35.5675 52.2099 35.6696 52.5229 35.6555 52.8416C35.6637 53.1716 35.5681 53.4959 35.382 53.7686C35.1867 54.0353 34.9222 54.2437 34.6172 54.3712C33.8613 54.6554 33.0278 54.6554 32.2718 54.3712L32.2626 54.3758Z" fill="#00DF8D"/>
<path d="M37.8991 54.3433C37.5752 54.1847 37.3046 53.935 37.1204 53.6248C36.9344 53.3008 36.8398 52.9323 36.8469 52.5587V48.8506C36.8472 48.8233 36.857 48.7971 36.8747 48.7764C36.8838 48.7672 36.8946 48.7599 36.9066 48.7552C36.9185 48.7504 36.9314 48.7481 36.9443 48.7486H38.1216C38.1475 48.7487 38.1723 48.7587 38.1911 48.7764C38.2088 48.7971 38.2187 48.8233 38.2189 48.8506V52.5587C38.2132 52.6729 38.2303 52.7871 38.2693 52.8946C38.3083 53.0021 38.3684 53.1006 38.4461 53.1845C38.5255 53.2638 38.6204 53.3257 38.7249 53.3664C38.8294 53.4071 38.9412 53.4256 39.0533 53.4209C39.1647 53.4258 39.2759 53.4073 39.3796 53.3666C39.4834 53.3259 39.5775 53.2639 39.6559 53.1845C39.7335 53.1006 39.7936 53.0021 39.8326 52.8946C39.8716 52.7871 39.8888 52.6729 39.883 52.5587V48.8506C39.8833 48.8233 39.8931 48.7971 39.9108 48.7764C39.9198 48.7672 39.9307 48.7599 39.9426 48.7552C39.9546 48.7504 39.9674 48.7481 39.9803 48.7486H41.1577C41.1706 48.7481 41.1834 48.7504 41.1954 48.7552C41.2073 48.7599 41.2182 48.7672 41.2272 48.7764C41.2449 48.7971 41.2547 48.8233 41.255 48.8506V52.5587C41.2645 52.9326 41.1698 53.3017 40.9815 53.6248C40.8003 53.9357 40.5309 54.1858 40.2075 54.3433C39.8439 54.51 39.4486 54.5962 39.0487 54.5962C38.6487 54.5962 38.2534 54.51 37.8899 54.3433H37.8991Z" fill="#00DF8D"/>
<path d="M46.0621 48.9894C46.343 49.1377 46.5761 49.3627 46.7342 49.6383C46.892 49.9348 46.9718 50.2666 46.966 50.6024C46.9732 50.9366 46.8899 51.2666 46.7249 51.5573C46.5616 51.8319 46.3215 52.0525 46.0343 52.1923C45.7101 52.3458 45.3546 52.4219 44.996 52.4147H43.9901C43.9845 52.414 43.9787 52.4146 43.9733 52.4164C43.9679 52.4183 43.963 52.4212 43.959 52.4253C43.9549 52.4293 43.9519 52.4342 43.95 52.4396C43.9482 52.445 43.9477 52.4508 43.9484 52.4565V54.4543C43.949 54.4676 43.9463 54.4809 43.9407 54.493C43.935 54.5051 43.9266 54.5156 43.916 54.5238C43.907 54.533 43.8961 54.5403 43.8842 54.5451C43.8722 54.5498 43.8593 54.5521 43.8465 54.5516H42.6737C42.6465 54.5514 42.6203 54.5415 42.5996 54.5238C42.5904 54.5148 42.5831 54.504 42.5783 54.492C42.5736 54.48 42.5713 54.4672 42.5718 54.4543V48.8596C42.5711 48.846 42.5733 48.8324 42.5782 48.8197C42.5831 48.8071 42.5906 48.7956 42.6002 48.786C42.6098 48.7764 42.6213 48.769 42.634 48.7641C42.6466 48.7592 42.6602 48.7569 42.6737 48.7576H45.0655C45.4117 48.7519 45.754 48.8315 46.0621 48.9894ZM45.39 51.1354C45.4604 51.073 45.516 50.9958 45.5529 50.9092C45.5898 50.8226 45.607 50.7289 45.6032 50.6349C45.607 50.5402 45.5899 50.4458 45.553 50.3584C45.5162 50.2711 45.4605 50.193 45.39 50.1296C45.2398 49.9962 45.0437 49.9264 44.843 49.935H43.9901C43.9845 49.9342 43.9787 49.9347 43.9733 49.9366C43.9679 49.9384 43.963 49.9415 43.959 49.9455C43.9549 49.9495 43.9519 49.9545 43.95 49.9599C43.9482 49.9653 43.9477 49.971 43.9484 49.9766V51.2838C43.9477 51.2894 43.9482 51.2952 43.95 51.3006C43.9519 51.306 43.9549 51.311 43.959 51.315C43.963 51.319 43.9679 51.3221 43.9733 51.324C43.9787 51.3258 43.9845 51.3263 43.9901 51.3255H44.843C45.0427 51.3247 45.2347 51.2486 45.3807 51.1123L45.39 51.1354Z" fill="#00DF8D"/>
<path d="M51.5732 48.9894C51.8551 49.1365 52.0885 49.3618 52.2453 49.6383C52.4069 49.9336 52.4884 50.266 52.4817 50.6025C52.4875 50.9371 52.4026 51.2671 52.236 51.5574C52.0728 51.8319 51.8327 52.0526 51.5454 52.1923C51.2229 52.3461 50.8689 52.4223 50.5117 52.4148H49.5013C49.4956 52.414 49.4898 52.4147 49.4844 52.4165C49.479 52.4183 49.4741 52.4213 49.4701 52.4253C49.466 52.4294 49.463 52.4343 49.4612 52.4397C49.4593 52.4451 49.4588 52.4509 49.4595 52.4566V54.4544C49.46 54.4672 49.4578 54.4801 49.453 54.492C49.4482 54.504 49.4409 54.5148 49.4317 54.5238C49.411 54.5415 49.3848 54.5514 49.3576 54.5517H48.1849C48.172 54.5521 48.1591 54.5499 48.1472 54.5451C48.1352 54.5403 48.1244 54.5331 48.1153 54.5238C48.1055 54.5151 48.0976 54.5043 48.092 54.4924C48.0864 54.4804 48.0833 54.4675 48.0829 54.4544V48.8596C48.0848 48.8319 48.0963 48.8057 48.1153 48.7855C48.1244 48.7763 48.1352 48.769 48.1472 48.7642C48.1591 48.7594 48.172 48.7572 48.1849 48.7577H50.5766C50.9229 48.7514 51.2653 48.831 51.5732 48.9894ZM50.9057 51.1355C50.9746 51.072 51.0288 50.9944 51.0648 50.908C51.1008 50.8216 51.1177 50.7285 51.1143 50.635C51.1178 50.5407 51.1009 50.4468 51.0649 50.3596C51.029 50.2725 50.9747 50.194 50.9057 50.1297C50.7537 49.9964 50.5562 49.9268 50.3541 49.935H49.5013C49.4956 49.9343 49.4898 49.9348 49.4844 49.9366C49.479 49.9384 49.4741 49.9415 49.4701 49.9456C49.466 49.9496 49.463 49.9545 49.4612 49.9599C49.4593 49.9653 49.4588 49.971 49.4595 49.9767V51.2838C49.4588 51.2895 49.4593 51.2953 49.4612 51.3007C49.463 51.3061 49.466 51.311 49.4701 51.3151C49.4741 51.3191 49.479 51.3222 49.4844 51.324C49.4898 51.3258 49.4956 51.3264 49.5013 51.3256H50.3541C50.5584 51.3269 50.7555 51.2507 50.9057 51.1124V51.1355Z" fill="#00DF8D"/>
<path d="M54.6044 54.3538C54.2721 54.1826 53.9968 53.9185 53.8118 53.5936C53.6193 53.2482 53.5218 52.858 53.5291 52.4626V50.8078C53.5229 50.417 53.6205 50.0316 53.8118 49.6908C53.9998 49.3706 54.2746 49.1102 54.6044 48.9398C54.9685 48.754 55.3731 48.6617 55.7818 48.6711C56.1934 48.6617 56.601 48.754 56.9684 48.9398C57.2972 49.1117 57.5717 49.3717 57.761 49.6908C57.9523 50.0316 58.0499 50.417 58.0438 50.8078V52.4626C58.0511 52.858 57.9535 53.2482 57.761 53.5936C57.5748 53.9175 57.2998 54.1813 56.9684 54.3538C56.6002 54.5375 56.1932 54.6297 55.7818 54.6226C55.3734 54.6297 54.9693 54.5375 54.6044 54.3538ZM56.4261 53.1904C56.5937 53.0025 56.6804 52.7559 56.6671 52.5044V50.7893C56.6746 50.6653 56.6571 50.5412 56.6157 50.4242C56.5743 50.3072 56.5098 50.1996 56.4261 50.1079C56.3437 50.0205 56.2436 49.9518 56.1325 49.9062C56.0214 49.8607 55.9018 49.8394 55.7818 49.8438C55.6639 49.8396 55.5464 49.861 55.4376 49.9066C55.3287 49.9522 55.2311 50.0209 55.1514 50.1079C55.0668 50.1992 55.0015 50.3066 54.9593 50.4236C54.9171 50.5407 54.8988 50.665 54.9057 50.7893V52.5044C54.8982 52.6294 54.9161 52.7546 54.9583 52.8725C55.0006 52.9904 55.0662 53.0986 55.1514 53.1904C55.2323 53.2752 55.3304 53.3419 55.4391 53.3858C55.5478 53.4298 55.6646 53.4501 55.7818 53.4453C55.901 53.45 56.0199 53.4297 56.1308 53.3858C56.2418 53.3419 56.3423 53.2754 56.4261 53.1904Z" fill="#00DF8D"/>
<path d="M62.3129 54.4553L61.3349 52.2536C61.3318 52.2438 61.3256 52.2353 61.3172 52.2294C61.3088 52.2236 61.2988 52.2206 61.2885 52.2211H60.7416C60.7359 52.2203 60.7302 52.2208 60.7247 52.2227C60.7193 52.2245 60.7144 52.2276 60.7104 52.2316C60.7063 52.2356 60.7033 52.2406 60.7015 52.246C60.6996 52.2514 60.6991 52.2572 60.6998 52.2628V54.4321C60.7003 54.445 60.6981 54.4578 60.6933 54.4698C60.6885 54.4817 60.6813 54.4925 60.672 54.5016C60.6514 54.5193 60.6251 54.5291 60.5979 54.5294H59.4252C59.4123 54.5299 59.3994 54.5276 59.3875 54.5228C59.3755 54.518 59.3647 54.5108 59.3556 54.5016C59.3451 54.4934 59.3366 54.4829 59.331 54.4708C59.3253 54.4587 59.3226 54.4454 59.3232 54.4321V48.8373C59.323 48.8234 59.3257 48.8095 59.3313 48.7967C59.3369 48.7839 59.3452 48.7725 59.3556 48.7632C59.3647 48.754 59.3755 48.7467 59.3875 48.742C59.3994 48.7372 59.4123 48.7349 59.4252 48.7354H61.8818C62.2153 48.7277 62.5453 48.8042 62.8413 48.9579C63.1135 49.102 63.3375 49.3229 63.4856 49.5929C63.6374 49.8782 63.7155 50.1969 63.7127 50.52C63.7195 50.86 63.6243 51.1942 63.4393 51.4795C63.2538 51.7506 62.9879 51.9564 62.6791 52.0681C62.673 52.0688 62.6671 52.071 62.662 52.0745C62.657 52.0781 62.6529 52.0829 62.6501 52.0884C62.6473 52.094 62.646 52.1 62.6462 52.1062C62.6464 52.1124 62.6482 52.1184 62.6513 52.1238L63.7452 54.3996C63.7477 54.4165 63.7477 54.4337 63.7452 54.4506C63.7452 54.4924 63.7127 54.5155 63.6525 54.5155H62.4102C62.3902 54.5147 62.3707 54.5088 62.3536 54.4983C62.3366 54.4877 62.3225 54.4729 62.3129 54.4553ZM60.6998 49.9545V51.1272C60.6991 51.1329 60.6996 51.1386 60.7015 51.144C60.7033 51.1494 60.7063 51.1543 60.7104 51.1583C60.7144 51.1624 60.7193 51.1655 60.7247 51.1673C60.7302 51.1691 60.7359 51.1696 60.7416 51.1689H61.6686C61.8499 51.1777 62.0275 51.1163 62.1646 50.9974C62.2303 50.9404 62.2817 50.8687 62.3147 50.7882C62.3478 50.7077 62.3614 50.6206 62.3546 50.5339C62.3587 50.4475 62.3438 50.3612 62.3109 50.2811C62.2781 50.201 62.2281 50.1291 62.1646 50.0704C62.0275 49.9515 61.8499 49.89 61.6686 49.8988H60.7416C60.7343 49.8967 60.7266 49.8968 60.7194 49.8992C60.7122 49.9015 60.7059 49.9061 60.7014 49.9122C60.6968 49.9182 60.6942 49.9256 60.694 49.9331C60.6937 49.9407 60.6958 49.9481 60.6998 49.9545Z" fill="#00DF8D"/>
<path d="M69.21 48.7628C69.2204 48.7721 69.2287 48.7835 69.2343 48.7963C69.2399 48.8091 69.2427 48.8229 69.2424 48.8369V49.8196C69.243 49.8329 69.2403 49.8462 69.2347 49.8583C69.229 49.8704 69.2206 49.8809 69.21 49.8891C69.201 49.8983 69.1901 49.9056 69.1782 49.9104C69.1662 49.9151 69.1534 49.9174 69.1405 49.9169H67.6943C67.6886 49.9162 67.6829 49.9167 67.6775 49.9185C67.672 49.9203 67.6671 49.9234 67.6631 49.9274C67.6591 49.9315 67.656 49.9364 67.6542 49.9418C67.6523 49.9472 67.6518 49.953 67.6526 49.9587V54.4316C67.653 54.4445 67.6508 54.4573 67.646 54.4693C67.6412 54.4813 67.634 54.4921 67.6247 54.5011C67.6041 54.5188 67.5778 54.5287 67.5506 54.5289H66.3779C66.365 54.5294 66.3521 54.5272 66.3402 54.5224C66.3282 54.5176 66.3174 54.5103 66.3084 54.5011C66.2978 54.4929 66.2893 54.4824 66.2837 54.4703C66.278 54.4582 66.2754 54.445 66.2759 54.4316V49.9587C66.2767 49.953 66.2761 49.9472 66.2743 49.9418C66.2725 49.9364 66.2694 49.9315 66.2654 49.9274C66.2613 49.9234 66.2564 49.9203 66.251 49.9185C66.2456 49.9167 66.2398 49.9162 66.2342 49.9169H64.8436C64.8307 49.9174 64.8179 49.9151 64.8059 49.9104C64.794 49.9056 64.7831 49.8983 64.7741 49.8891C64.7635 49.8809 64.7551 49.8704 64.7494 49.8583C64.7438 49.8462 64.7411 49.8329 64.7416 49.8196V48.8369C64.7414 48.8229 64.7442 48.8091 64.7498 48.7963C64.7554 48.7835 64.7637 48.7721 64.7741 48.7628C64.7831 48.7535 64.794 48.7463 64.8059 48.7415C64.8179 48.7367 64.8307 48.7345 64.8436 48.7349H69.1451C69.1695 48.7353 69.1929 48.7453 69.21 48.7628Z" fill="#00DF8D"/>
<path d="M50.1825 96.7599C57.6985 96.7599 63.7914 90.667 63.7914 83.151C63.7914 75.6349 57.6985 69.542 50.1825 69.542C42.6664 69.542 36.5735 75.6349 36.5735 83.151C36.5735 90.667 42.6664 96.7599 50.1825 96.7599Z" fill="#1A1C2B"/>
<path d="M50.1822 99.8754C46.7701 99.8757 43.4351 98.8602 40.6023 96.9582C37.7695 95.0561 35.5671 92.3538 34.2758 89.1954C32.9845 86.0371 32.6628 82.5659 33.3516 79.2241C34.0404 75.8822 35.7086 72.821 38.1435 70.4308C40.5785 68.0405 43.67 66.4293 47.024 65.8024C50.3781 65.1756 53.8428 65.5616 56.9767 66.9111C60.1105 68.2607 62.7717 70.5127 64.6209 73.3803C66.4702 76.2478 67.4238 79.6011 67.3603 83.0126C67.2753 87.5129 65.4283 91.8003 62.2162 94.9535C59.0041 98.1066 54.6833 99.8738 50.1822 99.8754ZM55.7027 83.5086C55.7027 84.0231 55.7027 84.5375 55.7027 85.0567C55.6978 85.2201 55.7254 85.383 55.784 85.5357C55.8426 85.6884 55.931 85.8278 56.044 85.946C56.157 86.0642 56.2924 86.1587 56.4423 86.2241C56.5922 86.2894 56.7536 86.3243 56.9172 86.3267C57.3467 86.3267 57.7777 86.3267 58.2104 86.3267C58.4029 86.3316 58.5944 86.2963 58.7726 86.2233C58.9509 86.1502 59.112 86.041 59.2458 85.9025C59.3796 85.7639 59.4831 85.599 59.5498 85.4183C59.6165 85.2376 59.645 85.045 59.6334 84.8527C59.6334 83.9257 59.6334 83.045 59.6334 82.1411C59.6403 81.8283 59.548 81.5212 59.3699 81.264C59.1917 81.0067 58.9367 80.8125 58.6414 80.7089C58.4653 80.6394 58.215 80.7088 58.1269 80.5373C58.0716 80.3445 58.0451 80.1446 58.0481 79.944C58.0501 79.9224 58.0501 79.9008 58.0481 79.8792C57.7531 77.8552 56.7072 76.0163 55.1184 74.7281C53.5296 73.4399 51.5143 72.7967 49.473 72.9264C47.4066 73.0283 45.4649 73.945 44.073 75.4757C42.7993 76.83 42.0301 78.5812 41.8944 80.4354C41.8944 80.5513 41.8713 80.6208 41.7276 80.6579C41.4398 80.7301 41.1851 80.8979 41.0049 81.1336C40.8248 81.3693 40.7298 81.6591 40.7356 81.9557C40.7356 82.9801 40.7356 84.0091 40.7356 85.0335C40.7275 85.3085 40.8115 85.5785 40.9745 85.8003C41.1375 86.022 41.3699 86.1829 41.6349 86.2572C41.808 86.3066 41.9886 86.3238 42.1679 86.3082C42.2977 86.3082 42.3441 86.3407 42.3672 86.4844C42.514 87.3524 42.9427 88.1479 43.587 88.7479C44.2313 89.3478 45.0554 89.7186 45.9317 89.8031C46.0661 89.8031 46.0939 89.8634 46.0939 89.9886C46.0939 90.4011 46.2932 90.5864 46.7104 90.5864H49.3339C49.4274 90.5894 49.5205 90.5726 49.607 90.537C49.6934 90.5014 49.7714 90.448 49.8358 90.3801C49.9002 90.3123 49.9494 90.2315 49.9804 90.1433C50.0113 90.055 50.0232 89.9613 50.0153 89.8681V89.1774C50.0185 89.0808 50.0019 88.9845 49.9665 88.8945C49.9312 88.8045 49.8777 88.7226 49.8096 88.654C49.7414 88.5855 49.66 88.5316 49.5702 88.4956C49.4804 88.4597 49.3843 88.4425 49.2876 88.445C48.4115 88.445 47.5355 88.445 46.6594 88.445C46.5549 88.4384 46.4506 88.4608 46.3582 88.5099C46.2657 88.559 46.1887 88.6329 46.1357 88.7232C46.1193 88.7543 46.0933 88.7792 46.0615 88.7943C46.0297 88.8093 45.9939 88.8136 45.9595 88.8066C44.6107 88.7185 43.4843 87.9815 43.1784 86.5956C43.1367 86.4009 43.132 86.3175 43.3777 86.2897C43.741 86.2589 44.0776 86.0867 44.3152 85.8101C44.5527 85.5336 44.6721 85.1747 44.6478 84.811V82.0299C44.6512 81.7597 44.5759 81.4945 44.431 81.2665C44.2861 81.0384 44.078 80.8575 43.832 80.7459C43.7114 80.6856 43.5121 80.7089 43.4704 80.5745C43.4516 80.4193 43.4627 80.262 43.5029 80.1109C43.5029 80.1109 43.5029 80.0831 43.5029 80.0692C43.7766 78.4958 44.6099 77.0744 45.8492 76.0671C47.0885 75.0598 48.6502 74.5347 50.2463 74.5883C51.8424 74.6419 53.3653 75.2708 54.5342 76.359C55.7031 77.4472 56.4391 78.9213 56.6066 80.5095C56.6167 80.55 56.6107 80.593 56.59 80.6292C56.5693 80.6655 56.5354 80.6924 56.4953 80.7043C56.2448 80.8066 56.0322 80.9842 55.8869 81.2125C55.7416 81.4408 55.6708 81.7086 55.6842 81.9789C55.6981 82.5166 55.7027 83.0126 55.7027 83.5086Z" fill="white"/>
<path d="M50.1358 100.107C47.8294 100.1 45.5472 99.6359 43.4217 98.7404C41.2962 97.845 39.3697 96.5364 37.754 94.8905C36.1383 93.2445 34.8655 91.2942 34.0095 89.1525C33.1535 87.0108 32.7314 84.7203 32.7677 82.4142C32.8243 78.9837 33.8929 75.6464 35.8396 72.8212C37.7862 69.9959 40.5239 67.8087 43.7093 66.5339C46.8946 65.2591 50.3855 64.9535 53.7438 65.6557C57.1021 66.3579 60.1782 68.0365 62.5859 70.4807C64.9936 72.9249 66.6257 76.0258 67.2773 79.3943C67.9289 82.7628 67.5709 86.2488 66.2484 89.4145C64.9258 92.5803 62.6976 95.2848 59.8434 97.1887C56.9892 99.0926 53.6362 100.111 50.2053 100.116C50.183 100.108 50.1593 100.105 50.1358 100.107ZM50.2007 65.746C46.8552 65.7408 43.583 66.7259 40.7965 68.5772C38.0099 70.4285 35.8336 73.0632 34.5419 76.1492C33.2502 79.2353 32.9008 82.6345 33.5378 85.9188C34.1748 89.2031 35.7696 92.2254 38.1213 94.6048C39.6867 96.2035 41.5561 97.4727 43.6194 98.338C45.6828 99.2033 47.8984 99.6471 50.1358 99.6432H50.2053C53.5327 99.6399 56.7855 98.6571 59.558 96.8173C62.3305 94.9775 64.5 92.3623 65.7961 89.2976C67.0921 86.233 67.4573 82.8547 66.846 79.584C66.2348 76.3132 64.6742 73.2947 62.3588 70.9049C60.8138 69.299 58.9651 68.016 56.9201 67.1304C54.8752 66.2447 52.6747 65.7742 50.4463 65.746H50.2007ZM47.8831 90.8363H46.7289C46.6196 90.8501 46.5086 90.8397 46.4038 90.8058C46.299 90.7719 46.2029 90.7153 46.1224 90.6401C46.0419 90.5649 45.9789 90.4729 45.9379 90.3707C45.897 90.2684 45.879 90.1584 45.8853 90.0484C44.9733 89.9467 44.1189 89.552 43.4503 88.9235C42.7817 88.295 42.3349 87.4667 42.1771 86.5627C41.9836 86.572 41.7898 86.5517 41.6024 86.5025C41.2893 86.4124 41.0149 86.2212 40.8221 85.9587C40.6292 85.6963 40.5287 85.3772 40.5363 85.0516C40.5363 84.0272 40.5363 82.9983 40.5363 81.9739C40.5303 81.6277 40.6408 81.2896 40.8502 81.0139C41.0595 80.7382 41.3554 80.5408 41.6904 80.4535V80.4303C41.832 78.5239 42.624 76.724 43.9339 75.3316C45.3687 73.7568 47.3683 72.8137 49.4961 72.7081C51.5909 72.5775 53.6584 73.2381 55.2893 74.5591C56.9203 75.8802 57.9958 77.7654 58.303 79.8416V79.9112V80.1198C58.3 80.2249 58.3141 80.3298 58.3447 80.4303C58.3832 80.4262 58.4221 80.4262 58.4606 80.4303C58.5542 80.4341 58.6465 80.4529 58.7341 80.486C59.0745 80.6047 59.3684 80.8285 59.5733 81.125C59.7782 81.4216 59.8837 81.7757 59.8743 82.136C59.8743 82.7664 59.8743 83.3922 59.8743 84.0226C59.8743 84.2961 59.8743 84.5696 59.8743 84.8431C59.8831 85.0647 59.8469 85.2858 59.7678 85.4931C59.6887 85.7003 59.5683 85.8894 59.4141 86.0488C59.2599 86.2083 59.0749 86.3349 58.8704 86.4208C58.6659 86.5067 58.446 86.5502 58.2242 86.5488C57.7978 86.5488 57.3574 86.5488 56.9217 86.5488C56.7283 86.5452 56.5376 86.5035 56.3604 86.426C56.1832 86.3485 56.0231 86.2368 55.8891 86.0972C55.7552 85.9577 55.6501 85.7931 55.58 85.6129C55.5098 85.4327 55.4759 85.2403 55.4802 85.047C55.4802 84.6901 55.4802 84.3286 55.4802 83.9717V83.0446C55.4802 82.697 55.4802 82.3494 55.4802 82.0064C55.4684 81.6959 55.5506 81.389 55.716 81.1261C55.8814 80.8631 56.1223 80.6561 56.4072 80.5323C56.2486 79.1502 55.646 77.857 54.6899 76.8465C53.7338 75.8361 52.4757 75.163 51.1045 74.9284C50.2805 74.7837 49.4359 74.8038 48.6197 74.9877C47.8034 75.1716 47.0318 75.5155 46.3494 75.9996C45.667 76.4837 45.0874 77.0984 44.6441 77.808C44.2008 78.5176 43.9027 79.3081 43.767 80.1337C43.7621 80.1961 43.7528 80.258 43.7392 80.3191C43.7352 80.3715 43.7352 80.4243 43.7392 80.4767H43.7855C43.8561 80.489 43.9248 80.5108 43.9895 80.5416C44.2721 80.6724 44.5104 80.8829 44.6751 81.1472C44.8397 81.4115 44.9237 81.7181 44.9165 82.0294V84.8106C44.9472 85.2322 44.8091 85.6488 44.5327 85.9687C44.2563 86.2886 43.8642 86.4856 43.4425 86.5164C43.4425 86.5164 43.4425 86.5441 43.4425 86.5488C43.6836 87.7215 44.6338 88.4771 45.9734 88.5744C46.0491 88.458 46.154 88.3634 46.2776 88.3C46.4011 88.2366 46.5391 88.2065 46.6779 88.2129H47.4427C48.0638 88.2129 48.685 88.2129 49.2968 88.2129C49.4244 88.2083 49.5516 88.2301 49.6704 88.277C49.7892 88.3239 49.897 88.3948 49.9871 88.4854C50.0772 88.5759 50.1476 88.684 50.1939 88.803C50.2403 88.922 50.2615 89.0494 50.2563 89.177V89.8677C50.2639 89.9901 50.2463 90.1128 50.2045 90.2282C50.1626 90.3436 50.0975 90.449 50.0132 90.5382C49.9289 90.6273 49.8271 90.6982 49.7142 90.7463C49.6013 90.7944 49.4798 90.8187 49.3571 90.8178H47.8738L47.8831 90.8363ZM42.2142 86.0945C42.265 86.0914 42.316 86.0986 42.3639 86.1158C42.4119 86.133 42.4558 86.1597 42.4931 86.1943C42.5304 86.229 42.5603 86.271 42.5808 86.3176C42.6014 86.3642 42.6123 86.4144 42.6128 86.4654C42.7513 87.2829 43.1549 88.0322 43.7614 88.5976C44.3679 89.163 45.1435 89.5132 45.9687 89.5941C46.0211 89.5932 46.0731 89.6034 46.1212 89.624C46.1694 89.6446 46.2126 89.6752 46.248 89.7138C46.2835 89.7523 46.3104 89.7979 46.327 89.8476C46.3436 89.8973 46.3494 89.95 46.3442 90.0021C46.3442 90.2848 46.4415 90.3728 46.7289 90.3728H49.3431C49.4072 90.3774 49.4715 90.3677 49.5314 90.3445C49.5913 90.3213 49.6453 90.2852 49.6896 90.2387C49.7339 90.1922 49.7674 90.1365 49.7876 90.0755C49.8078 90.0146 49.8143 89.95 49.8067 89.8862V89.2001C49.813 89.1326 49.8045 89.0646 49.7816 89.0007C49.7588 88.9368 49.7222 88.8787 49.6745 88.8305C49.6267 88.7823 49.569 88.7452 49.5053 88.7218C49.4417 88.6983 49.3737 88.6892 49.3061 88.6949C48.685 88.6949 48.0685 88.6949 47.452 88.6949H46.6872C46.6233 88.6884 46.5588 88.7002 46.5014 88.7289C46.4439 88.7576 46.3958 88.802 46.3627 88.8571C46.3252 88.9255 46.2681 88.9811 46.1987 89.0167C46.1292 89.0522 46.0508 89.0661 45.9734 89.0565C44.402 88.9545 43.2849 88.0599 42.9975 86.6647C42.9684 86.6001 42.9561 86.5291 42.962 86.4585C42.9679 86.3878 42.9916 86.3198 43.031 86.2609C43.0705 86.202 43.1243 86.1542 43.1873 86.1218C43.2504 86.0895 43.3207 86.0736 43.3915 86.076C43.5448 86.0673 43.6947 86.0278 43.8322 85.9599C43.9698 85.8919 44.0923 85.7969 44.1923 85.6805C44.2922 85.564 44.3677 85.4286 44.4141 85.2824C44.4605 85.1361 44.4769 84.9819 44.4623 84.8291V82.048C44.469 81.82 44.4067 81.5953 44.2834 81.4034C44.1602 81.2115 43.9818 81.0613 43.7716 80.9726L43.6836 80.9495C43.598 80.9417 43.5162 80.9102 43.4475 80.8586C43.3787 80.8071 43.3257 80.7374 43.2942 80.6574C43.2593 80.5222 43.2593 80.3803 43.2942 80.245C43.2942 80.2032 43.2942 80.1615 43.2942 80.1244V80.0641C43.5782 78.4355 44.4414 76.9646 45.7248 75.9225C47.0082 74.8805 48.625 74.3377 50.2772 74.3941C51.9294 74.4506 53.5054 75.1025 54.7147 76.2298C55.9239 77.357 56.6847 78.8835 56.8568 80.5276C56.871 80.6167 56.8537 80.708 56.8081 80.7858C56.7624 80.8635 56.6912 80.9231 56.6065 80.9542C56.3966 81.04 56.2189 81.1894 56.0983 81.3815C55.9778 81.5735 55.9205 81.7985 55.9344 82.0248C55.9344 82.3678 55.9344 82.7108 55.9344 83.0538V83.9809C55.9344 84.3378 55.9344 84.6947 55.9344 85.0516C55.9288 85.1858 55.9503 85.3197 55.9975 85.4454C56.0447 85.5711 56.1167 85.6861 56.2093 85.7834C56.3018 85.8808 56.413 85.9584 56.5362 86.0118C56.6594 86.0653 56.7921 86.0934 56.9264 86.0945C57.3528 86.0945 57.7839 86.0945 58.201 86.0945C58.3636 86.0994 58.5254 86.0703 58.676 86.009C58.8266 85.9477 58.9628 85.8557 59.0758 85.7387C59.1888 85.6218 59.2762 85.4825 59.3323 85.3299C59.3884 85.1772 59.412 85.0146 59.4016 84.8523C59.4016 84.5789 59.4016 84.3054 59.4016 84.0319C59.4016 83.4015 59.4016 82.7664 59.4016 82.136C59.405 81.8703 59.325 81.6103 59.1728 81.3924C59.0207 81.1746 58.804 81.0099 58.5533 80.9217C58.5071 80.9175 58.4605 80.9175 58.4143 80.9217C58.3148 80.9272 58.2158 80.905 58.1282 80.8575C58.0406 80.81 57.9679 80.7392 57.9183 80.6528C57.8537 80.4973 57.8237 80.3297 57.8302 80.1614C57.8302 80.1012 57.8302 80.0456 57.8302 79.99V79.9343C57.5399 77.9685 56.5205 76.1839 54.9747 74.9352C53.4289 73.6865 51.4698 73.0652 49.4868 73.1948C47.4814 73.2965 45.5972 74.186 44.2444 75.67C43.0048 76.9857 42.2552 78.6878 42.1215 80.4906C42.1249 80.5902 42.0935 80.6877 42.0325 80.7664C41.9716 80.8452 41.885 80.9001 41.7878 80.9217C41.549 80.979 41.3371 81.1167 41.1877 81.3116C41.0384 81.5066 40.9606 81.7469 40.9673 81.9924C40.9673 83.0184 40.9673 84.0427 40.9673 85.0655C40.9578 85.2906 41.0244 85.5123 41.1565 85.6948C41.2885 85.8774 41.4783 86.01 41.6951 86.0713C41.8455 86.1145 42.0028 86.1287 42.1586 86.1131L42.2142 86.0945Z" fill="#415EEF"/>
</g>
<defs>
<clipPath id="clip0_5592_20042">
<rect width="100" height="100" fill="white"/>
</clipPath>
</defs>
</svg>
