<svg width="36" height="36" viewBox="0 0 36 36" fill="none" xmlns="http://www.w3.org/2000/svg">
<path d="M30.7632 30.5224C34.1163 27.1693 36 22.6216 36 17.8796C36 13.1376 34.1163 8.58989 30.7632 5.23681C27.4101 1.88374 22.8624 4.99647e-08 18.1204 0C13.3784 -4.99647e-08 8.8307 1.88374 5.47763 5.23681C5.42923 5.26773 5.38814 5.30882 5.35722 5.35722C5.30882 5.38814 5.26773 5.42923 5.23681 5.47763C1.88374 8.8307 -4.99647e-08 13.3784 0 18.1204C4.99647e-08 22.8624 1.88374 27.4101 5.23681 30.7632C8.58989 34.1163 13.1376 36 17.8796 36C22.6216 36 27.1693 34.1163 30.5224 30.7632C30.5708 30.7323 30.6119 30.6912 30.6428 30.6428C30.6912 30.6119 30.7323 30.5708 30.7632 30.5224ZM33.1369 18C33.1368 21.5393 31.895 24.9663 29.6279 27.6842L8.3158 6.37208C10.5261 4.5322 13.2147 3.36002 16.067 2.99278C18.9193 2.62554 21.8172 3.07843 24.4215 4.29843C27.0257 5.51843 29.2285 7.45506 30.772 9.8816C32.3155 12.3081 33.1358 15.1242 33.1369 18ZM2.86306 18C2.86323 14.4607 4.10501 11.0337 6.37208 8.3158L27.6842 29.6279C25.4739 31.4678 22.7853 32.64 19.933 33.0072C17.0807 33.3745 14.1828 32.9216 11.5785 31.7016C8.97429 30.4816 6.77148 28.5449 5.22798 26.1184C3.68448 23.6919 2.86416 20.8758 2.86306 18Z" fill="#00DF8D"/>
<path d="M16.6556 16.4983C16.6556 16.7065 16.5938 16.91 16.478 17.0831C16.3623 17.2562 16.1977 17.3912 16.0052 17.4708C15.8127 17.5505 15.6009 17.5713 15.3965 17.5307C15.1921 17.4901 15.0044 17.3899 14.8571 17.2426C14.7097 17.0954 14.6094 16.9078 14.5687 16.7036C14.5281 16.4994 14.5489 16.2878 14.6287 16.0954C14.7084 15.9031 14.8434 15.7387 15.0167 15.623C15.19 15.5073 15.3937 15.4456 15.602 15.4456C15.8815 15.4456 16.1494 15.5565 16.347 15.7539C16.5446 15.9513 16.6556 16.2191 16.6556 16.4983ZM20.5187 15.4456C20.3103 15.4456 20.1066 15.5073 19.9333 15.623C19.7601 15.7387 19.625 15.9031 19.5453 16.0954C19.4656 16.2878 19.4447 16.4994 19.4854 16.7036C19.526 16.9078 19.6263 17.0954 19.7737 17.2426C19.921 17.3899 20.1088 17.4901 20.3131 17.5307C20.5175 17.5713 20.7293 17.5505 20.9219 17.4708C21.1144 17.3912 21.2789 17.2562 21.3947 17.0831C21.5104 16.91 21.5722 16.7065 21.5722 16.4983C21.5722 16.2191 21.4612 15.9513 21.2637 15.7539C21.0661 15.5565 20.7981 15.4456 20.5187 15.4456ZM26.4889 16.8492V25.2706C26.4892 25.4035 26.4514 25.5337 26.3798 25.6457C26.3082 25.7576 26.2058 25.8467 26.085 25.9022C25.9653 25.9608 25.8313 25.9836 25.6989 25.9681C25.5666 25.9525 25.4415 25.8992 25.3387 25.8145L23.214 24.0688L21.0806 25.8145C20.9553 25.9164 20.7987 25.972 20.6372 25.972C20.4757 25.972 20.3191 25.9164 20.1938 25.8145L18.0604 24.0688L15.9269 25.8145C15.8016 25.9164 15.645 25.972 15.4835 25.972C15.322 25.972 15.1654 25.9164 15.0401 25.8145L12.9067 24.0688L10.782 25.8145C10.6781 25.896 10.5535 25.947 10.4221 25.9617C10.2908 25.9764 10.158 25.9543 10.0386 25.8978C9.91918 25.8414 9.81786 25.7528 9.74601 25.642C9.67417 25.5312 9.63463 25.4026 9.63184 25.2706V16.8492C9.63184 14.6157 10.5198 12.4736 12.1005 10.8943C13.6811 9.31499 15.825 8.42773 18.0604 8.42773C20.2957 8.42773 22.4396 9.31499 24.0202 10.8943C25.6009 12.4736 26.4889 14.6157 26.4889 16.8492ZM25.0841 16.8492C25.0841 14.9879 24.3441 13.2029 23.0269 11.8868C21.7097 10.5707 19.9232 9.83131 18.0604 9.83131C16.1975 9.83131 14.411 10.5707 13.0938 11.8868C11.7766 13.2029 11.0366 14.9879 11.0366 16.8492V23.7881L12.4677 22.6214C12.593 22.5195 12.7495 22.4639 12.9111 22.4639C13.0726 22.4639 13.2292 22.5195 13.3544 22.6214L15.4879 24.3671L17.6126 22.6214C17.7392 22.5188 17.8973 22.4628 18.0604 22.4628C18.2234 22.4628 18.3815 22.5188 18.5081 22.6214L20.6328 24.3671L22.7663 22.6214C22.8915 22.5195 23.0481 22.4639 23.2097 22.4639C23.3712 22.4639 23.5278 22.5195 23.653 22.6214L25.0841 23.7881V16.8492Z" fill="#00DF8D"/>
</svg>
