<svg width="100" height="100" viewBox="0 0 100 100" fill="none" xmlns="http://www.w3.org/2000/svg">
<g clip-path="url(#clip0_5592_19990)">
<path d="M4.04725 86.7706C3.30211 86.7724 2.58276 86.4979 2.02835 86C1.69587 85.7087 1.43149 85.3479 1.25394 84.9431C1.07639 84.5383 0.990012 84.0993 1.00092 83.6574L2.54207 19.9258C2.55829 19.2053 2.83023 18.5142 3.30927 17.9759C3.78831 17.4375 4.44322 17.0871 5.15688 16.9873L91.3225 4.85854C91.7592 4.79734 92.204 4.83181 92.6261 4.95963C93.0481 5.08745 93.4373 5.30555 93.7667 5.59876C94.0961 5.89198 94.3577 6.25326 94.5336 6.65768C94.7094 7.06209 94.7952 7.49997 94.785 7.94084L93.2438 71.6725C93.2284 72.3927 92.9567 73.0837 92.4774 73.6214C91.9981 74.1591 91.3427 74.5081 90.629 74.6058L4.47364 86.7346C4.33226 86.7543 4.18993 86.7663 4.04725 86.7706ZM91.7694 5.34655C91.6508 5.34486 91.5322 5.35347 91.415 5.37226L5.24935 17.501C4.65608 17.5828 4.1114 17.8734 3.71312 18.3206C3.31484 18.7679 3.08906 19.3424 3.07633 19.9412L1.53518 83.6729C1.52538 84.0396 1.59621 84.4041 1.74267 84.7405C1.88913 85.077 2.10766 85.3771 2.38281 85.6199C2.6594 85.8664 2.98691 86.049 3.34207 86.1546C3.69722 86.2603 4.07129 86.2864 4.43768 86.2312L90.6033 74.1024C91.1966 74.0206 91.7413 73.73 92.1395 73.2828C92.5378 72.8355 92.7636 72.261 92.7763 71.6622L94.3175 7.93055C94.3229 7.59563 94.2617 7.26298 94.1375 6.95191C94.0132 6.64084 93.8284 6.3575 93.5937 6.1185C93.359 5.8795 93.0791 5.68952 92.7704 5.55963C92.4616 5.42975 92.1301 5.36261 91.7951 5.36197L91.7694 5.34655Z" fill="#00DF8D"/>
<path d="M97.7235 35.4612L5.79395 48.3298L6.96522 28.4284L98.381 15.5547L97.7235 35.4612Z" fill="white"/>
<path d="M5.56787 48.5756L6.75969 28.2428L6.93436 28.2171L98.5967 15.3125L97.9289 35.6454L97.7542 35.6711L5.56787 48.5756ZM7.16553 28.6127L6.01994 48.0825L97.5179 35.2756L98.1549 15.8058L7.16553 28.6127Z" fill="#415EEF"/>
<path d="M8.13137 81.7515C7.38885 81.7526 6.67197 81.4801 6.1176 80.9861C5.78634 80.6949 5.52275 80.3348 5.34527 79.9311C5.16779 79.5273 5.08073 79.0896 5.09017 78.6487L6.63132 15.1534C6.64667 14.4346 6.91789 13.7448 7.39624 13.208C7.87459 12.6713 8.5287 12.3228 9.241 12.2251L95.0881 0.137505C95.5244 0.0761213 95.9687 0.110459 96.3903 0.238342C96.8119 0.366225 97.2005 0.584576 97.5291 0.877979C97.8577 1.17138 98.1184 1.53283 98.2931 1.93727C98.4677 2.34171 98.5521 2.77943 98.5403 3.2198L96.9991 66.7151C96.984 67.4331 96.7135 68.1222 96.2362 68.6588C95.7589 69.1954 95.106 69.5444 94.3946 69.6432L8.54234 81.7258C8.40613 81.7441 8.2688 81.7527 8.13137 81.7515ZM95.5299 0.625511C95.4119 0.61784 95.2935 0.61784 95.1755 0.625511L9.32833 12.7133C8.73728 12.7949 8.19457 13.0842 7.79735 13.5294C7.40014 13.9746 7.17437 14.5466 7.16045 15.1431L5.6193 78.6384C5.61134 79.0037 5.68252 79.3664 5.82795 79.7016C5.97337 80.0368 6.1896 80.3365 6.46179 80.5803C6.73446 80.8231 7.0568 81.0037 7.40637 81.1093C7.75593 81.2148 8.1243 81.2429 8.48584 81.1915L94.3381 69.1091C94.9282 69.0264 95.4697 68.7366 95.8659 68.2915C96.2621 67.8463 96.4871 67.2748 96.5008 66.6791L98.042 3.17867C98.0488 2.84423 97.9889 2.51179 97.8658 2.20077C97.7427 1.88976 97.5588 1.60638 97.3249 1.36724C97.091 1.1281 96.8118 0.938002 96.5036 0.807995C96.1954 0.677989 95.8644 0.610697 95.5299 0.610084V0.625511Z" fill="#00DF8D"/>
<path d="M34.9731 38.2035C34.9624 38.1964 34.9542 38.1862 34.9496 38.1742C34.945 38.1623 34.9442 38.1492 34.9474 38.1367L34.9063 32.5372C34.9045 32.524 34.9058 32.5106 34.9103 32.498C34.9148 32.4855 34.9222 32.4743 34.932 32.4653C34.9397 32.4547 34.9497 32.4459 34.9613 32.4397C34.9729 32.4335 34.9857 32.4299 34.9988 32.4293L36.1187 32.2803C36.1311 32.2779 36.144 32.2784 36.1562 32.2818C36.1684 32.2852 36.1797 32.2913 36.1892 32.2997C36.1986 32.3082 36.206 32.3188 36.2107 32.3306C36.2154 32.3424 36.2173 32.3551 36.2163 32.3677L36.2574 37.9672C36.2567 37.9933 36.2477 38.0184 36.2317 38.039C36.2243 38.0504 36.2144 38.06 36.2029 38.0671C36.1914 38.0742 36.1784 38.0786 36.1649 38.0802L35.0399 38.224C35.028 38.2278 35.0152 38.2278 35.0033 38.2242C34.9914 38.2205 34.9809 38.2132 34.9731 38.2035Z" fill="#1A1C2B"/>
<path d="M40.7216 31.7149C40.7375 31.6929 40.7615 31.6781 40.7883 31.6738L41.9134 31.5299C41.9235 31.524 41.935 31.521 41.9468 31.521C41.9585 31.521 41.97 31.524 41.9802 31.5299C41.9899 31.5378 41.9974 31.5482 42.0019 31.5599C42.0064 31.5716 42.0078 31.5843 42.0058 31.5967L42.0469 37.1962C42.0444 37.2228 42.0336 37.2479 42.0161 37.2681C42.0087 37.279 41.9987 37.288 41.9871 37.2943C41.9755 37.3005 41.9625 37.3039 41.9493 37.3041L40.8757 37.4479C40.8538 37.4529 40.8309 37.4505 40.8105 37.4413C40.7901 37.432 40.7733 37.4162 40.7627 37.3965L38.9235 34.4683C38.9235 34.4683 38.9235 34.4683 38.8876 34.4683C38.8516 34.4683 38.8876 34.4684 38.8876 34.5043L38.9184 37.6175C38.9159 37.6441 38.9051 37.6692 38.8876 37.6894C38.8812 37.7006 38.8724 37.7102 38.8617 37.7173C38.851 37.7245 38.8387 37.7289 38.8259 37.7305L37.7009 37.8743C37.69 37.8807 37.6776 37.884 37.6649 37.884C37.6523 37.884 37.6399 37.8807 37.629 37.8743C37.6202 37.8657 37.6134 37.8551 37.609 37.8436C37.6046 37.8321 37.6026 37.8198 37.6033 37.8075L37.5673 32.208C37.5625 32.1967 37.5601 32.1844 37.5601 32.172C37.5601 32.1597 37.5625 32.1474 37.5673 32.1361C37.5858 32.1152 37.6115 32.1025 37.6393 32.1002L38.7232 31.9563C38.7449 31.9521 38.7674 31.9553 38.787 31.9656C38.8066 31.9759 38.8222 31.9925 38.8311 32.0128L40.665 34.9308C40.665 34.9308 40.665 34.9308 40.6959 34.9308C40.7267 34.9308 40.6959 34.9307 40.6959 34.8896L40.6702 31.8073C40.6713 31.7891 40.6766 31.7713 40.6854 31.7553C40.6943 31.7393 40.7067 31.7255 40.7216 31.7149Z" fill="#1A1C2B"/>
<path d="M43.9012 36.7184C43.715 36.6135 43.5567 36.4654 43.4396 36.2866C43.3225 36.1078 43.25 35.9036 43.2282 35.691C43.2282 35.6396 43.2282 35.5626 43.2282 35.4495V35.2903C43.2211 35.2668 43.2211 35.2417 43.2282 35.2183C43.2364 35.2081 43.2465 35.1997 43.258 35.1936C43.2695 35.1874 43.282 35.1836 43.295 35.1824L44.3944 35.0385C44.4057 35.0334 44.4179 35.0308 44.4303 35.0308C44.4427 35.0308 44.455 35.0334 44.4663 35.0385C44.4741 35.0601 44.4741 35.0837 44.4663 35.1053V35.203C44.4679 35.2936 44.4934 35.3822 44.5403 35.4598C44.5872 35.5374 44.6539 35.6012 44.7334 35.6447C44.9495 35.7634 45.2001 35.8033 45.4423 35.7577C45.6383 35.7422 45.8214 35.6543 45.9561 35.5111C46.0068 35.4564 46.0451 35.3913 46.0682 35.3204C46.0912 35.2494 46.0986 35.1742 46.0896 35.1001C46.0838 35.0382 46.0611 34.9793 46.0239 34.9294C45.9868 34.8796 45.9366 34.8409 45.879 34.8177C45.6685 34.7312 45.45 34.6658 45.2266 34.6224L45.0262 34.5813C44.7434 34.523 44.4653 34.444 44.194 34.345C43.9545 34.2532 43.7373 34.1113 43.557 33.9288C43.3625 33.7326 43.2426 33.4746 43.218 33.1994C43.218 33.1583 43.218 33.0864 43.218 32.9888C43.2153 32.6594 43.3042 32.3357 43.4748 32.0538C43.6514 31.7695 43.897 31.5344 44.1889 31.3705C44.5045 31.1875 44.8541 31.0704 45.2163 31.0264C45.5597 30.9763 45.9098 30.9991 46.2437 31.0932C46.5352 31.176 46.7971 31.3399 46.9989 31.5658C47.1931 31.7918 47.3149 32.0711 47.3482 32.3672C47.3554 32.4459 47.3554 32.5249 47.3482 32.6035V32.7217C47.3537 32.7329 47.3565 32.7452 47.3565 32.7577C47.3565 32.7701 47.3537 32.7823 47.3482 32.7935C47.3408 32.8049 47.331 32.8144 47.3194 32.8215C47.3079 32.8286 47.2949 32.8331 47.2815 32.8347L46.1872 32.9785C46.1638 32.986 46.1387 32.986 46.1153 32.9785C46.1059 32.9701 46.0983 32.9598 46.093 32.9483C46.0877 32.9368 46.0848 32.9243 46.0845 32.9117V32.8295C46.0845 32.736 46.0622 32.6438 46.0193 32.5606C45.9764 32.4775 45.9142 32.406 45.8379 32.3518C45.7445 32.2852 45.6383 32.2385 45.5261 32.2146C45.4139 32.1907 45.2979 32.1903 45.1855 32.2131C44.9941 32.2217 44.8119 32.2982 44.6718 32.4288C44.614 32.4865 44.5708 32.5572 44.5458 32.6349C44.5208 32.7126 44.5147 32.7953 44.5279 32.8758C44.5342 32.9224 44.5497 32.9673 44.5735 33.0079C44.5973 33.0485 44.629 33.0839 44.6666 33.1121C44.7693 33.1881 44.8864 33.2424 45.0108 33.2714C45.1598 33.3176 45.391 33.3741 45.6992 33.446C45.9716 33.5018 46.2408 33.5722 46.5057 33.6567C46.7191 33.73 46.9137 33.8492 47.076 34.006C47.2694 34.1967 47.3894 34.4495 47.415 34.72C47.415 34.7662 47.415 34.8382 47.415 34.9358C47.4211 35.1869 47.3745 35.4364 47.278 35.6683C47.1816 35.9001 47.0375 36.1091 46.8551 36.2817C46.4369 36.6607 45.9068 36.8933 45.3447 36.9444C44.8518 37.0313 44.344 36.9519 43.9012 36.7184Z" fill="#1A1C2B"/>
<path d="M52.6652 30.1641C52.6716 30.174 52.675 30.1856 52.675 30.1974C52.675 30.2093 52.6716 30.2208 52.6652 30.2308V31.2172C52.6706 31.2284 52.6734 31.2406 52.6734 31.2531C52.6734 31.2655 52.6706 31.2779 52.6652 31.2891C52.6575 31.2997 52.6474 31.3084 52.6359 31.3147C52.6243 31.3209 52.6115 31.3245 52.5984 31.3251L51.2216 31.5048C51.1874 31.5048 51.172 31.5202 51.1754 31.5511L51.2113 36.0255C51.2088 36.0521 51.198 36.0773 51.1805 36.0975C51.1739 36.108 51.1648 36.1167 51.1541 36.123C51.1434 36.1292 51.1313 36.1328 51.1189 36.1334L49.9938 36.2824C49.9706 36.2906 49.9452 36.2906 49.9219 36.2824C49.9141 36.2608 49.9141 36.2372 49.9219 36.2157L49.8911 31.7411C49.8898 31.7311 49.885 31.722 49.8774 31.7154C49.8698 31.7087 49.8601 31.7051 49.85 31.7052L48.5143 31.8798C48.5044 31.8862 48.4928 31.8897 48.4809 31.8897C48.4691 31.8897 48.4575 31.8862 48.4476 31.8798C48.4369 31.8727 48.4286 31.8625 48.424 31.8506C48.4194 31.8386 48.4187 31.8255 48.4219 31.8131V30.8319C48.4233 30.8035 48.4342 30.7764 48.4527 30.7548C48.4593 30.7443 48.4684 30.7355 48.4791 30.7292C48.4898 30.7229 48.5019 30.7194 48.5143 30.7188L52.6241 30.2051C52.627 30.1954 52.6323 30.1867 52.6395 30.1795C52.6466 30.1723 52.6555 30.167 52.6652 30.1641Z" fill="#1A1C2B"/>
<path d="M56.8726 35.3678C56.8549 35.3533 56.8423 35.3336 56.8366 35.3114L56.626 34.6024C56.626 34.6024 56.5952 34.5716 56.5798 34.6024L54.7818 34.8336C54.7818 34.8336 54.7509 34.8336 54.7407 34.8747L54.5454 35.635C54.5399 35.6614 54.5258 35.6852 54.5054 35.7028C54.485 35.7205 54.4593 35.7309 54.4324 35.7326L53.2252 35.8918C53.2114 35.895 53.197 35.894 53.1837 35.889C53.1705 35.8839 53.1591 35.875 53.1508 35.8635C53.1426 35.852 53.138 35.8383 53.1375 35.8241C53.137 35.81 53.1407 35.796 53.1481 35.784L54.792 29.9687C54.7983 29.9444 54.8112 29.9225 54.8294 29.9052C54.8476 29.888 54.8702 29.8761 54.8948 29.8711L56.3897 29.676C56.413 29.6746 56.4362 29.6809 56.4556 29.6939C56.4751 29.7069 56.4898 29.7258 56.4976 29.7478L58.2339 35.1264V35.1573C58.2339 35.2138 58.2339 35.2446 58.1517 35.2497L56.9394 35.409C56.9138 35.4015 56.8908 35.3873 56.8726 35.3678ZM55.0848 33.7086L56.2561 33.5544C56.2869 33.5544 56.2972 33.5545 56.2921 33.5031L55.6756 31.4483C55.6756 31.4483 55.6756 31.4174 55.6756 31.4225C55.6721 31.4325 55.6721 31.4434 55.6756 31.4534L55.1003 33.6573C55.042 33.6984 55.0283 33.7154 55.0592 33.7086H55.0848Z" fill="#1A1C2B"/>
<path d="M62.4772 28.8906C62.4844 28.879 62.4941 28.8692 62.5057 28.8621C62.5173 28.855 62.5304 28.8506 62.544 28.8494L63.6639 28.7056C63.6763 28.7032 63.6892 28.7037 63.7014 28.7071C63.7136 28.7105 63.7249 28.7166 63.7344 28.725C63.7438 28.7335 63.7512 28.744 63.7559 28.7558C63.7606 28.7675 63.7625 28.7802 63.7615 28.7929L63.7975 34.3873C63.8054 34.4124 63.8054 34.4392 63.7975 34.4643C63.7893 34.4745 63.7792 34.4829 63.7677 34.489C63.7562 34.4952 63.7436 34.4991 63.7307 34.5003L62.657 34.639C62.6352 34.646 62.6115 34.6446 62.5906 34.6351C62.5697 34.6257 62.5531 34.6087 62.544 34.5876L60.7049 31.6595H60.6689C60.6689 31.6595 60.6689 31.6595 60.6689 31.7006L60.7049 34.8137C60.7 34.8397 60.6895 34.8642 60.6741 34.8856C60.6675 34.8961 60.6584 34.9049 60.6477 34.9112C60.6369 34.9175 60.6248 34.921 60.6124 34.9216L59.4874 35.0706C59.4761 35.0757 59.4638 35.0783 59.4514 35.0783C59.439 35.0783 59.4268 35.0757 59.4155 35.0706C59.4061 35.0624 59.3989 35.052 59.3944 35.0404C59.3899 35.0287 59.3883 35.0161 59.3898 35.0038L59.3487 29.4043C59.3479 29.3912 59.3498 29.378 59.3542 29.3657C59.3586 29.3533 59.3655 29.342 59.3744 29.3323C59.3931 29.311 59.4184 29.2967 59.4463 29.2913L60.5302 29.1526C60.5506 29.1483 60.5719 29.151 60.5905 29.1604C60.6092 29.1697 60.6241 29.185 60.633 29.2039L62.4721 32.1269C62.4721 32.1269 62.4721 32.1269 62.4978 32.1269C62.5014 32.1206 62.5033 32.1137 62.5033 32.1065C62.5033 32.0992 62.5014 32.0921 62.4978 32.0859L62.4669 29.0036C62.4585 28.9855 62.4551 28.9655 62.4569 28.9456C62.4587 28.9258 62.4657 28.9068 62.4772 28.8906Z" fill="#1A1C2B"/>
<path d="M69.166 28.0171C69.173 28.0388 69.173 28.0622 69.166 28.0839V29.0702C69.176 29.0949 69.176 29.1227 69.166 29.1474C69.1461 29.1662 69.1211 29.1786 69.0941 29.1832L67.7173 29.3631C67.6865 29.3631 67.6711 29.3785 67.6711 29.4094L67.707 33.8787C67.7149 33.9038 67.7149 33.9306 67.707 33.9557C67.6891 33.9744 67.6657 33.987 67.6402 33.9917L66.5152 34.1355C66.5049 34.1409 66.4934 34.1437 66.4818 34.1437C66.4702 34.1437 66.4587 34.1409 66.4484 34.1355C66.443 34.1252 66.4402 34.1138 66.4402 34.1022C66.4402 34.0905 66.443 34.079 66.4484 34.0687L66.4125 29.5942C66.4125 29.5685 66.4125 29.5582 66.3765 29.5582L65.0357 29.7329C65.0252 29.7376 65.0138 29.7401 65.0023 29.7401C64.9908 29.7401 64.9794 29.7376 64.9689 29.7329C64.9639 29.7225 64.9613 29.7111 64.9613 29.6996C64.9613 29.688 64.9639 29.6766 64.9689 29.6662V28.6798C64.9696 28.6537 64.9786 28.6286 64.9946 28.6079C65.0112 28.5867 65.0349 28.5721 65.0614 28.5668L69.1711 28.0531C69.1676 28.0414 69.1658 28.0293 69.166 28.0171Z" fill="#1A1C2B"/>
<path d="M23.5067 59.3176L21.8628 53.939C21.8628 53.8773 21.8628 53.8464 21.945 53.8361L23.1419 53.6513C23.1531 53.6482 23.1648 53.6476 23.1762 53.6494C23.1876 53.6512 23.1986 53.6554 23.2083 53.6617C23.218 53.668 23.2262 53.6763 23.2325 53.686C23.2388 53.6957 23.2429 53.7066 23.2447 53.718L24.0255 56.6257C24.0255 56.6257 24.0255 56.6566 24.0512 56.6514C24.0769 56.6463 24.0512 56.6514 24.0512 56.6154L24.5649 53.5331C24.5661 53.5057 24.5771 53.4797 24.596 53.4599C24.6149 53.44 24.6404 53.4277 24.6677 53.4253L25.7619 53.2557C25.7844 53.2511 25.8077 53.2555 25.827 53.268C25.8462 53.2805 25.8597 53.3 25.8646 53.3224L26.6455 56.2301V56.261C26.6455 56.261 26.6455 56.2609 26.6455 56.225L27.19 53.1427C27.1899 53.1158 27.1999 53.0898 27.2179 53.0698C27.236 53.0499 27.2608 53.0374 27.2876 53.0348L28.4486 52.855C28.5257 52.855 28.5565 52.8549 28.5462 52.9474L27.3801 58.7576C27.3789 58.7831 27.3682 58.8071 27.3501 58.8252C27.3321 58.8432 27.308 58.8539 27.2825 58.8552L26.1523 59.0299C26.0907 59.0299 26.0547 59.0299 26.0496 58.958L25.2636 55.8757C25.2636 55.8757 25.2636 55.8449 25.2328 55.8757C25.2019 55.9065 25.2328 55.8756 25.2328 55.9116L24.7191 59.1994C24.7181 59.226 24.7078 59.2514 24.6899 59.2712C24.6721 59.2909 24.6478 59.3037 24.6214 59.3073L23.5632 59.4717C23.5464 59.4696 23.5305 59.4628 23.5173 59.4523C23.504 59.4417 23.4939 59.4277 23.4881 59.4118C23.4823 59.3959 23.4809 59.3787 23.4842 59.3621C23.4875 59.3455 23.4953 59.3301 23.5067 59.3176Z" fill="#00DF8D"/>
<path d="M29.9334 58.3776C29.9231 58.3699 29.9149 58.3598 29.9095 58.3481C29.9041 58.3364 29.9017 58.3237 29.9026 58.3109L29.733 52.7164C29.7272 52.7053 29.7241 52.693 29.7241 52.6804C29.7241 52.6679 29.7272 52.6556 29.733 52.6446C29.7405 52.6332 29.7503 52.6237 29.7618 52.6166C29.7734 52.6095 29.7863 52.605 29.7998 52.6034L30.9146 52.4287C30.9711 52.4287 31.007 52.4288 31.0173 52.5161L31.192 58.1104C31.1905 58.138 31.1816 58.1646 31.1663 58.1876C31.1491 58.2073 31.1254 58.2199 31.0995 58.2234L29.9796 58.3982C29.9623 58.3967 29.946 58.3894 29.9334 58.3776Z" fill="#00DF8D"/>
<path d="M36.4217 51.6116C36.4267 51.622 36.4293 51.6334 36.4293 51.645C36.4293 51.6565 36.4267 51.6679 36.4217 51.6783L36.4526 52.6647C36.4533 52.6778 36.4515 52.6909 36.447 52.7032C36.4426 52.7156 36.4358 52.727 36.4269 52.7366C36.4194 52.7479 36.4096 52.7575 36.3981 52.7646C36.3865 52.7717 36.3735 52.7762 36.3601 52.7777L34.9885 52.9883C34.9525 52.9883 34.9371 53.0141 34.9422 53.0397L35.0861 57.509C35.0853 57.5351 35.0763 57.5603 35.0604 57.5809C35.0529 57.5922 35.0431 57.6018 35.0316 57.6089C35.02 57.616 35.0071 57.6205 34.9936 57.622L33.8737 57.7968C33.8503 57.8042 33.8252 57.8042 33.8018 57.7968C33.793 57.7881 33.7862 57.7775 33.7818 57.766C33.7774 57.7545 33.7754 57.7422 33.7761 57.7299L33.6374 53.2606C33.6361 53.2506 33.6313 53.2414 33.6237 53.2348C33.6161 53.2281 33.6064 53.2245 33.5963 53.2246L32.2658 53.4302C32.2555 53.4356 32.244 53.4383 32.2324 53.4383C32.2207 53.4383 32.2093 53.4356 32.199 53.4302C32.1896 53.4217 32.1819 53.4114 32.1766 53.3999C32.1713 53.3885 32.1685 53.376 32.1682 53.3633L32.1322 52.377C32.1329 52.3509 32.1419 52.3257 32.1579 52.305C32.1653 52.2937 32.1752 52.2842 32.1867 52.2771C32.1982 52.27 32.2112 52.2656 32.2247 52.264L36.3344 51.6322C36.3457 51.6212 36.3598 51.6133 36.3752 51.6097C36.3906 51.6061 36.4067 51.6068 36.4217 51.6116Z" fill="#00DF8D"/>
<path d="M40.4339 50.9899C40.4498 50.9679 40.4738 50.953 40.5006 50.9487L41.6205 50.7791C41.6308 50.7737 41.6423 50.771 41.6539 50.771C41.6656 50.771 41.677 50.7737 41.6873 50.7791C41.6968 50.7876 41.7044 50.7979 41.7097 50.8094C41.715 50.8209 41.7179 50.8333 41.7181 50.846L41.8877 56.4403C41.8956 56.4654 41.8956 56.4924 41.8877 56.5174C41.873 56.5383 41.851 56.5529 41.826 56.5585L40.7061 56.728C40.6948 56.7331 40.6826 56.7358 40.6702 56.7358C40.6578 56.7358 40.6455 56.7331 40.6342 56.728C40.6248 56.7198 40.6176 56.7094 40.6131 56.6978C40.6087 56.6862 40.6071 56.6736 40.6085 56.6612L40.5315 54.4574C40.5315 54.4574 40.5315 54.4163 40.4955 54.4214L39.0263 54.6526C39.0006 54.6526 38.9903 54.6526 38.98 54.6989L39.0571 56.8976C39.065 56.9227 39.065 56.9495 39.0571 56.9746C39.0405 56.9958 39.0168 57.0104 38.9903 57.0157L37.8704 57.1852C37.8591 57.1903 37.8469 57.193 37.8345 57.193C37.8221 57.193 37.8098 57.1903 37.7985 57.1852C37.7914 57.1635 37.7914 57.1402 37.7985 57.1185L37.6238 51.524C37.6138 51.4993 37.6138 51.4717 37.6238 51.447C37.6405 51.4258 37.6642 51.4112 37.6906 51.4059L38.8054 51.2364C38.8619 51.2364 38.8978 51.2364 38.9081 51.3186L38.9698 53.4556C38.9698 53.4813 38.9698 53.4967 39.0109 53.4916L40.4904 53.2604C40.4943 53.2627 40.4987 53.2638 40.5032 53.2638C40.5077 53.2638 40.5121 53.2627 40.5161 53.2604C40.5183 53.2556 40.5195 53.2503 40.5195 53.245C40.5195 53.2397 40.5183 53.2344 40.5161 53.2296L40.4339 51.0669C40.426 51.0418 40.426 51.0149 40.4339 50.9899Z" fill="#00DF8D"/>
<path d="M43.2025 56.3271C43.1971 56.3168 43.1943 56.3054 43.1943 56.2938C43.1943 56.2821 43.1971 56.2707 43.2025 56.2604L43.0022 50.666C42.9967 50.6548 42.9939 50.6424 42.9939 50.63C42.9939 50.6175 42.9967 50.6053 43.0022 50.5941C43.0096 50.5828 43.0195 50.5732 43.031 50.5661C43.0425 50.559 43.0555 50.5545 43.069 50.553L45.0725 50.2447C45.5594 50.1403 46.0677 50.2132 46.5057 50.4502C46.6912 50.5572 46.8494 50.7056 46.9679 50.8838C47.0864 51.0621 47.1621 51.2653 47.189 51.4777C47.1944 51.5564 47.1944 51.6353 47.189 51.714L47.2557 53.8818C47.2708 54.2266 47.1927 54.5691 47.0297 54.8733C46.8619 55.1818 46.6156 55.4407 46.3156 55.6234C45.9859 55.8294 45.6166 55.964 45.2317 56.0188L43.2282 56.3271C43.2197 56.3287 43.211 56.3287 43.2025 56.3271ZM44.4817 54.9813L45.2985 54.8528C45.4011 54.8389 45.4997 54.8038 45.5882 54.7499C45.6766 54.6959 45.7529 54.6243 45.8122 54.5394C45.9432 54.3421 46.008 54.1081 45.9971 53.8715L45.9458 52.166C45.9458 52.13 45.9458 52.0787 45.9458 52.012C45.9297 51.825 45.8412 51.6516 45.6992 51.529C45.6282 51.4715 45.545 51.431 45.456 51.4106C45.367 51.3901 45.2745 51.3902 45.1855 51.4108L44.3892 51.5341C44.3584 51.5341 44.343 51.5342 44.3481 51.5855L44.4509 54.9453C44.4509 54.9453 44.4611 54.9813 44.4817 54.9813Z" fill="#00DF8D"/>
<path d="M51.4323 55.0127L50.4409 52.9578C50.4358 52.9489 50.4283 52.9417 50.4191 52.9371C50.41 52.9326 50.3996 52.9308 50.3895 52.9321L49.8758 53.0144C49.845 53.0144 49.8347 53.0143 49.8398 53.0605L49.9066 55.2285C49.9145 55.2536 49.9145 55.2805 49.9066 55.3055C49.9 55.3161 49.8909 55.3249 49.8802 55.3311C49.8695 55.3374 49.8574 55.341 49.845 55.3415L48.7199 55.5161C48.7095 55.5211 48.6981 55.5238 48.6865 55.5238C48.675 55.5238 48.6636 55.5211 48.6531 55.5161C48.6443 55.4947 48.6443 55.4708 48.6531 55.4494L48.4785 49.8498C48.4737 49.8384 48.4712 49.8263 48.4712 49.814C48.4712 49.8016 48.4737 49.7893 48.4785 49.778C48.4972 49.7567 48.5225 49.7422 48.5504 49.7368L50.8878 49.3772C51.0919 49.3351 51.3023 49.3339 51.5068 49.3736C51.7114 49.4133 51.9061 49.493 52.0796 49.6084C52.2418 49.731 52.3773 49.8854 52.478 50.062C52.5786 50.2387 52.6424 50.4338 52.6653 50.6358C52.6653 50.6923 52.6653 50.7797 52.6653 50.8978C52.6836 51.2556 52.6017 51.6114 52.4289 51.9253C52.2656 52.2204 52.0215 52.4628 51.7252 52.624C51.7208 52.6278 51.7173 52.6326 51.7149 52.6379C51.7125 52.6432 51.7112 52.649 51.7112 52.6548C51.7112 52.6606 51.7125 52.6663 51.7149 52.6716C51.7173 52.6769 51.7208 52.6817 51.7252 52.6855L52.8296 54.8021C52.8348 54.8153 52.8348 54.83 52.8296 54.8433C52.8296 54.8895 52.8296 54.9203 52.7423 54.9305L51.5659 55.1104C51.5505 55.1152 51.5343 55.1163 51.5184 55.1137C51.5025 55.111 51.4875 55.1047 51.4745 55.0952C51.4615 55.0857 51.4509 55.0733 51.4436 55.059C51.4362 55.0446 51.4324 55.0288 51.4323 55.0127ZM49.7628 50.7488L49.7987 51.9201C49.7987 51.9509 49.7987 51.9612 49.8398 51.9561L50.708 51.838C50.8082 51.8299 50.9056 51.8011 50.994 51.7533C51.0825 51.7055 51.16 51.6399 51.2217 51.5605C51.2767 51.488 51.3165 51.4051 51.3386 51.3168C51.3607 51.2286 51.3646 51.1367 51.3501 51.0468C51.3416 50.9738 51.3174 50.9034 51.2793 50.8405C51.2412 50.7776 51.19 50.7235 51.1292 50.6821C50.9949 50.602 50.8357 50.5746 50.6823 50.6051L49.8141 50.7387C49.773 50.7027 49.7576 50.7231 49.7628 50.7488Z" fill="#00DF8D"/>
<path d="M57.5765 54.1137C57.5664 54.1084 57.5576 54.1012 57.5505 54.0923C57.5435 54.0835 57.5383 54.0733 57.5354 54.0624L57.3093 53.3585C57.3093 53.3585 57.2785 53.3277 57.2631 53.3328L55.4651 53.6102C55.4651 53.6102 55.4651 53.6103 55.4291 53.6462L55.2493 54.4168C55.244 54.4424 55.2307 54.4656 55.2113 54.4831C55.1919 54.5007 55.1675 54.5117 55.1414 54.5144L53.9394 54.6994C53.9281 54.7048 53.9159 54.7076 53.9034 54.7076C53.8909 54.7076 53.8786 54.7048 53.8674 54.6994C53.8674 54.6994 53.8674 54.653 53.8674 54.612L55.3623 48.7556C55.3683 48.7307 55.381 48.7079 55.3992 48.6898C55.4173 48.6717 55.4401 48.6589 55.4651 48.6529L56.9497 48.4269C56.9728 48.4228 56.9965 48.4266 57.0171 48.4378C57.0376 48.449 57.0538 48.4669 57.0627 48.4885L58.9275 53.8158V53.8465C58.9298 53.8581 58.9295 53.87 58.9267 53.8815C58.9239 53.893 58.9186 53.9037 58.9113 53.913C58.904 53.9223 58.8948 53.9298 58.8843 53.9352C58.8738 53.9406 58.8623 53.9437 58.8505 53.9442L57.6381 54.1291C57.6273 54.1314 57.6162 54.1313 57.6055 54.1286C57.5948 54.1259 57.5849 54.1208 57.5765 54.1137ZM55.7476 52.5006L56.9138 52.3208C56.9138 52.3208 56.9549 52.3209 56.9497 52.2644L56.2819 50.2095C56.2819 50.2095 56.2819 50.2095 56.2562 50.2095C56.2305 50.2095 56.2562 50.2094 56.2562 50.2454L55.7425 52.4595C55.7014 52.4903 55.7117 52.5058 55.7476 52.5006Z" fill="#00DF8D"/>
<path d="M61.2549 53.4863L59.611 48.1128C59.6079 48.1002 59.6077 48.087 59.6104 48.0743C59.613 48.0616 59.6185 48.0496 59.6264 48.0393C59.6343 48.029 59.6443 48.0205 59.6559 48.0146C59.6675 48.0087 59.6802 48.0053 59.6932 48.0049L60.8901 47.82C60.9016 47.8177 60.9134 47.8179 60.9249 47.8203C60.9363 47.8228 60.9472 47.8275 60.9567 47.8342C60.9663 47.841 60.9745 47.8494 60.9807 47.8593C60.9869 47.8692 60.991 47.8804 60.9929 47.8919L61.7737 50.7995C61.7737 50.7995 61.7737 50.8304 61.7737 50.8252C61.7737 50.8201 61.7737 50.8252 61.7737 50.7892L62.2874 47.7069C62.2886 47.6796 62.2996 47.6536 62.3185 47.6337C62.3374 47.6139 62.3629 47.6016 62.3902 47.5991L63.4844 47.4295C63.4956 47.4255 63.5075 47.4243 63.5193 47.4256C63.5311 47.427 63.5424 47.4311 63.5523 47.4375C63.5622 47.444 63.5706 47.4527 63.5766 47.4629C63.5826 47.4731 63.5863 47.4845 63.5871 47.4964L64.368 50.404V50.4348C64.368 50.4348 64.368 50.4348 64.368 50.3937L64.9125 47.3114C64.9125 47.285 64.9226 47.2596 64.9408 47.2405C64.959 47.2214 64.9838 47.21 65.0101 47.2087L66.1711 47.0288C66.2482 47.0288 66.279 47.0289 66.2687 47.1214L65.2002 52.8647C65.199 52.8902 65.1883 52.9142 65.1702 52.9323C65.1522 52.9503 65.1281 52.961 65.1026 52.9623L63.9724 53.137C63.9108 53.137 63.88 53.1369 63.8697 53.0598L63.0837 49.9775C63.0837 49.9775 63.0837 49.9468 63.0529 49.9468C63.0221 49.9468 63.0529 49.9467 63.0529 49.9878L62.5392 53.2757C62.5382 53.3023 62.5279 53.3277 62.51 53.3474C62.4922 53.3672 62.4679 53.3799 62.4416 53.3835L61.3833 53.5428C61.3715 53.5496 61.3582 53.5534 61.3446 53.5541C61.3309 53.5548 61.3173 53.5523 61.3049 53.5468C61.2924 53.5413 61.2814 53.533 61.2727 53.5225C61.264 53.512 61.2579 53.4996 61.2549 53.4863Z" fill="#00DF8D"/>
<path d="M70.3371 52.1462C70.3179 52.1343 70.3034 52.1161 70.296 52.0948L70.07 51.3859C70.055 51.3808 70.0388 51.3808 70.0238 51.3859L68.2309 51.6632C68.2213 51.6653 68.2127 51.6705 68.2062 51.6779C68.1997 51.6853 68.1958 51.6945 68.1949 51.7043L68.01 52.4698C68.0057 52.4963 67.9928 52.5207 67.9733 52.5392C67.9539 52.5578 67.9289 52.5695 67.9021 52.5725L66.7 52.7575C66.6888 52.7629 66.6765 52.7657 66.6641 52.7657C66.6516 52.7657 66.6393 52.7629 66.6281 52.7575C66.6213 52.7439 66.6178 52.729 66.6178 52.7138C66.6178 52.6987 66.6213 52.6837 66.6281 52.6702L68.1384 46.8137C68.1424 46.7893 68.154 46.7668 68.1715 46.7493C68.189 46.7318 68.2116 46.7201 68.236 46.7162L69.7258 46.485C69.7487 46.4825 69.7717 46.4876 69.7913 46.4997C69.8109 46.5118 69.8258 46.5301 69.8337 46.5517L71.6882 51.8379V51.8688C71.6905 51.8801 71.6903 51.8918 71.6874 51.903C71.6846 51.9142 71.6793 51.9246 71.6719 51.9335C71.6645 51.9423 71.6552 51.9495 71.6447 51.9543C71.6342 51.9591 71.6227 51.9614 71.6112 51.9612L70.3988 52.1513C70.3783 52.1567 70.3565 52.1549 70.3371 52.1462ZM68.5083 50.533L69.6744 50.3533C69.7053 50.3533 69.7155 50.3276 69.7104 50.2967L69.0477 48.2419C69.0477 48.2419 69.0477 48.211 69.0169 48.2162C69.0134 48.2261 69.0134 48.2371 69.0169 48.247L68.5032 50.4663C68.4724 50.5177 68.4741 50.5399 68.5083 50.533Z" fill="#00DF8D"/>
<path d="M72.8543 51.7509C72.8479 51.7409 72.8445 51.7292 72.8445 51.7174C72.8445 51.7055 72.8479 51.694 72.8543 51.684L72.6797 46.0897C72.6738 46.0786 72.6708 46.0662 72.6708 46.0537C72.6708 46.0412 72.6738 46.0288 72.6797 46.0177C72.6956 45.9957 72.7196 45.981 72.7465 45.9767L73.8612 45.8071C73.9229 45.8071 73.9537 45.8071 73.964 45.8893L74.1027 50.3689C74.1018 50.3738 74.1021 50.3789 74.1035 50.3837C74.105 50.3885 74.1076 50.3928 74.1112 50.3963C74.1147 50.3999 74.1191 50.4025 74.1239 50.404C74.1286 50.4055 74.1337 50.4058 74.1386 50.4049L76.6558 50.0144C76.6671 50.0093 76.6794 50.0067 76.6918 50.0067C76.7042 50.0067 76.7165 50.0093 76.7278 50.0144C76.7332 50.0247 76.736 50.0362 76.736 50.0478C76.736 50.0594 76.7332 50.071 76.7278 50.0813L76.7637 51.0573C76.7589 51.0832 76.7483 51.1079 76.7329 51.1293C76.7244 51.1408 76.7137 51.1503 76.7013 51.1574C76.6889 51.1645 76.6752 51.1688 76.661 51.1703L72.9006 51.7509C72.8857 51.7564 72.8693 51.7564 72.8543 51.7509Z" fill="#00DF8D"/>
<path d="M78.4076 50.5746C78.218 50.4711 78.0557 50.3239 77.9342 50.1452C77.8127 49.9666 77.7355 49.7616 77.7089 49.5472C77.7089 49.4958 77.7089 49.4188 77.7089 49.3058V49.1516C77.7011 49.1266 77.7011 49.0997 77.7089 49.0746C77.7167 49.064 77.7267 49.0551 77.7382 49.0489C77.7498 49.0427 77.7626 49.0392 77.7757 49.0386L78.8699 48.8691C78.8812 48.864 78.8935 48.8613 78.9059 48.8613C78.9183 48.8613 78.9306 48.864 78.9419 48.8691C78.9469 48.8795 78.9495 48.8909 78.9495 48.9024C78.9495 48.914 78.9469 48.9255 78.9419 48.9359V49.0386C78.9462 49.1286 78.9742 49.2157 79.0228 49.2915C79.0715 49.3672 79.1393 49.4288 79.2193 49.4701C79.4373 49.5831 79.6877 49.6177 79.9282 49.5678C80.1262 49.5477 80.3094 49.4542 80.4419 49.3058C80.4916 49.2496 80.5284 49.1833 80.5497 49.1114C80.571 49.0395 80.5763 48.9638 80.5652 48.8896C80.5565 48.8286 80.532 48.771 80.4941 48.7223C80.4563 48.6737 80.4064 48.6357 80.3494 48.6122C80.1367 48.532 79.9164 48.4735 79.6919 48.4375L79.4915 48.4016C79.2075 48.3479 78.9277 48.274 78.6542 48.1806C78.411 48.0943 78.1887 47.9579 78.0018 47.7801C77.8055 47.5875 77.6805 47.3338 77.6473 47.0608C77.6473 47.0197 77.6473 46.9478 77.6473 46.8502C77.6334 46.5212 77.7136 46.1951 77.8785 45.9101C78.0485 45.6218 78.2889 45.3815 78.5771 45.2115C78.8912 45.0202 79.2406 44.8943 79.6046 44.8415C79.9462 44.7845 80.296 44.7985 80.632 44.8826C80.9227 44.9593 81.1861 45.116 81.3923 45.3348C81.5944 45.5565 81.725 45.8339 81.7673 46.1309C81.7673 46.1823 81.7673 46.2595 81.7673 46.3673V46.4855C81.7721 46.4969 81.7746 46.509 81.7746 46.5214C81.7746 46.5337 81.7721 46.546 81.7673 46.5573C81.7588 46.5688 81.748 46.5784 81.7357 46.5854C81.7233 46.5925 81.7096 46.597 81.6954 46.5985L80.6114 46.7679C80.5993 46.7732 80.5862 46.776 80.5729 46.776C80.5597 46.776 80.5466 46.7732 80.5344 46.7679C80.5245 46.7611 80.5165 46.7519 80.5111 46.7411C80.5057 46.7303 80.5031 46.7184 80.5036 46.7063V46.6446C80.5011 46.5506 80.4759 46.4586 80.4303 46.3764C80.3847 46.2941 80.32 46.224 80.2416 46.1721C80.0599 46.0703 79.8516 46.0261 79.6443 46.0454C79.4369 46.0647 79.2404 46.1464 79.0806 46.2799C79.0255 46.3391 78.9852 46.4105 78.9629 46.4881C78.9406 46.5658 78.9369 46.6476 78.9521 46.7269C78.9588 46.774 78.9749 46.8192 78.9997 46.8599C79.0244 46.9005 79.0572 46.9357 79.096 46.9632C79.2025 47.0334 79.3209 47.0839 79.4453 47.1122C79.5943 47.1533 79.8255 47.2047 80.1337 47.2663C80.4419 47.328 80.7553 47.3998 80.9505 47.4615C81.1643 47.5296 81.3607 47.6435 81.5259 47.7954C81.7246 47.982 81.8503 48.2334 81.8803 48.5044C81.8803 48.5506 81.8803 48.6173 81.8803 48.7201C81.8945 48.9695 81.8561 49.2191 81.7676 49.4528C81.6791 49.6864 81.5425 49.8989 81.3666 50.0764C80.9568 50.4645 80.4323 50.7095 79.8717 50.7749C79.3749 50.8694 78.8608 50.7991 78.4076 50.5746Z" fill="#00DF8D"/>
<path d="M36.653 99.9169C39.0969 100.345 41.6128 100.039 43.8827 99.037C46.1525 98.0352 48.0743 96.3827 49.4051 94.2887C50.7359 92.1947 51.4159 89.7532 51.3591 87.2728C51.3023 84.7923 50.5112 82.3844 49.0859 80.3535C47.6607 78.3227 45.6652 76.7601 43.3518 75.8633C41.0385 74.9665 38.5112 74.7758 36.0895 75.3153C33.6677 75.8549 31.4604 77.1003 29.7465 78.8943C28.0326 80.6883 26.8892 82.9503 26.4609 85.3941C26.1764 87.017 26.2144 88.6799 26.5727 90.288C26.9309 91.8961 27.6025 93.418 28.5489 94.7666C29.4953 96.1152 30.6982 97.264 32.0887 98.1477C33.4792 99.0314 35.0301 99.6326 36.653 99.9169Z" fill="#182877"/>
<path d="M35.8617 97.6194C38.0933 98.012 40.3912 97.7339 42.4649 96.8204C44.5385 95.907 46.2946 94.3991 47.5112 92.4875C48.7278 90.5759 49.3502 88.3464 49.2996 86.0811C49.2491 83.8157 48.5278 81.6163 47.2272 79.7608C45.9265 77.9054 44.1048 76.4774 41.9925 75.6574C39.8802 74.8373 37.5721 74.6622 35.3603 75.1539C33.1484 75.6457 31.132 76.7824 29.5661 78.4202C28.0003 80.058 26.9553 82.1234 26.5634 84.3552C26.0394 87.3469 26.7243 90.4243 28.4678 92.9114C30.2112 95.3984 32.8706 97.0918 35.8617 97.6194Z" fill="#F68B42"/>
<path d="M37.8651 97.9034C37.1867 97.9034 36.5095 97.8451 35.8411 97.7289C32.9045 97.2128 30.2803 95.5833 28.5155 93.18C26.7507 90.7768 25.9814 87.7853 26.368 84.8289C26.7546 81.8724 28.2672 79.1792 30.5906 77.3105C32.9139 75.4419 35.8688 74.5419 38.8394 74.7983C41.81 75.0546 44.567 76.4474 46.5359 78.6865C48.5048 80.9256 49.5337 83.8381 49.4081 86.817C49.2825 89.796 48.0121 92.6116 45.8616 94.6769C43.7112 96.7423 40.8467 97.8981 37.8651 97.9034ZM37.8189 74.9866C34.89 74.9861 32.0739 76.1159 29.9576 78.1407C27.8413 80.1654 26.588 82.9288 26.4591 85.8548C26.3302 88.7809 27.3356 91.6438 29.2657 93.8468C31.1957 96.0498 33.9016 97.4228 36.8192 97.6798C39.7367 97.9368 42.6409 97.0579 44.9264 95.2263C47.2119 93.3946 48.7022 90.7514 49.0868 87.8478C49.4714 84.9443 48.7205 82.0044 46.9907 79.6409C45.2609 77.2774 42.6857 75.6727 39.8018 75.1612C39.1473 75.0446 38.4837 74.9862 37.8189 74.9866Z" fill="#1D2749"/>
<path opacity="0.72" d="M30.5756 77.6777C29.1298 78.8758 28.0031 80.4131 27.296 82.1526C26.589 83.892 26.3236 85.7794 26.5235 87.6464C26.7234 89.5134 27.3825 91.3019 28.4418 92.8522C29.5011 94.4025 30.9278 95.6664 32.5945 96.5311C34.6014 97.57 36.8719 97.9889 39.1175 97.7346C41.3631 97.4803 43.4824 96.5643 45.2062 95.1029L30.5756 77.6777Z" fill="#FCE68D"/>
<path d="M36.5142 93.8953C38.0105 94.1581 39.5512 93.9712 40.9413 93.3583C42.3314 92.7455 43.5085 91.734 44.3237 90.452C45.1389 89.17 45.5556 87.6751 45.521 86.1563C45.4865 84.6375 45.0022 83.163 44.1296 81.9194C43.2569 80.6758 42.035 79.719 40.6185 79.1699C39.2019 78.6209 37.6544 78.5043 36.1716 78.835C34.6888 79.1656 33.3373 79.9286 32.2882 81.0274C31.2391 82.1262 30.5394 83.5114 30.2777 85.008C29.927 87.0134 30.3869 89.076 31.5563 90.7425C32.7257 92.409 34.509 93.543 36.5142 93.8953Z" fill="#182877"/>
<path d="M36.3651 92.2567C37.6208 92.4771 38.9137 92.3202 40.0803 91.8059C41.2469 91.2916 42.2348 90.4431 42.9191 89.3674C43.6035 88.2917 43.9536 87.0373 43.9251 85.7627C43.8966 84.4882 43.4909 83.2505 42.7592 82.2065C42.0275 81.1624 41.0027 80.3589 39.8143 79.8972C38.626 79.4355 37.3274 79.3364 36.0827 79.6126C34.8381 79.8888 33.7033 80.5279 32.8218 81.449C31.9403 82.37 31.3517 83.5317 31.1303 84.7872C30.8347 86.4718 31.2201 88.205 32.2016 89.6056C33.1832 91.0062 34.6808 91.9597 36.3651 92.2567Z" fill="#F4A045"/>
<path d="M37.4851 92.4675C37.1046 92.468 36.7247 92.4352 36.3498 92.3698C34.6818 92.079 33.1903 91.1556 32.1866 89.792C31.1829 88.4283 30.7444 86.7299 30.9625 85.0507C31.1806 83.3716 32.0385 81.8414 33.3573 80.7795C34.6761 79.7175 36.354 79.2058 38.041 79.3508C39.728 79.4959 41.2938 80.2865 42.412 81.558C43.5302 82.8294 44.1144 84.4836 44.0427 86.1753C43.971 87.867 43.249 89.4656 42.0273 90.6379C40.8055 91.8102 39.1784 92.4657 37.4851 92.4675ZM36.3858 92.149C37.6206 92.3678 38.8927 92.2154 40.0409 91.7111C41.1891 91.2069 42.162 90.3734 42.8364 89.3161C43.5109 88.2588 43.8565 87.0252 43.8297 85.7714C43.8029 84.5176 43.4048 83.2998 42.6857 82.2723C41.9667 81.2448 40.9591 80.4537 39.7903 79.999C38.6215 79.5443 37.3442 79.4465 36.1198 79.7179C34.8954 79.9894 33.7791 80.6179 32.912 81.524C32.0449 82.43 31.466 83.5728 31.2486 84.8079C30.9602 86.4622 31.3388 88.1633 32.3015 89.5391C33.2643 90.9149 34.7328 91.8533 36.3858 92.149Z" fill="#1D2749"/>
<path d="M36.6838 89.4779C36.6173 89.461 36.5549 89.4308 36.5002 89.3894C36.4454 89.3479 36.3996 89.296 36.3653 89.2365L34.8242 86.6216C34.7979 86.5888 34.7802 86.55 34.7728 86.5086C34.7681 86.4797 34.7681 86.4502 34.7728 86.4213V86.3905C34.7675 86.3582 34.7675 86.3252 34.7728 86.2929V86.2312C34.7881 86.1844 34.8088 86.1396 34.8345 86.0976V86.0566V86.0257V85.9949L34.891 85.9333C34.9146 85.9068 34.9424 85.8842 34.9732 85.8665H35.0245C35.0606 85.8499 35.0986 85.8378 35.1376 85.8305H35.1735H35.2352L36.4732 86.0515C36.7007 86.0871 36.9335 86.0417 37.1308 85.923C37.2649 85.8473 37.3765 85.7373 37.4544 85.6045L35.3996 85.25C35.2634 85.2235 35.1422 85.1464 35.0605 85.0343C35.0199 84.9777 34.9912 84.9134 34.9762 84.8454C34.9612 84.7774 34.9602 84.7072 34.9732 84.6387C34.9845 84.5706 35.0095 84.5055 35.0465 84.4472C35.0836 84.389 35.132 84.3387 35.1889 84.2996C35.2455 84.259 35.3097 84.2303 35.3777 84.2153C35.4457 84.2003 35.5161 84.1993 35.5845 84.2123L37.3876 84.5308C37.3472 84.4776 37.3025 84.4279 37.2541 84.3819C37.1192 84.2583 36.9515 84.1761 36.7712 84.1455L35.6307 83.9452C35.5613 83.9339 35.4949 83.9084 35.4357 83.8704C35.3765 83.8324 35.3257 83.7827 35.2865 83.7243C35.2313 83.6366 35.2021 83.5351 35.2021 83.4315C35.2021 83.3278 35.2313 83.2263 35.2865 83.1386C35.3236 83.0809 35.3727 83.0318 35.4304 82.9947C35.4859 82.9539 35.5491 82.9247 35.6162 82.9088C35.6833 82.8929 35.7529 82.8907 35.8208 82.9023L39.4168 83.5342C39.4849 83.5455 39.5501 83.5705 39.6083 83.6075C39.6666 83.6446 39.7168 83.6931 39.7559 83.75C39.8366 83.865 39.8697 84.0066 39.8483 84.1455C39.8269 84.2472 39.7776 84.3411 39.706 84.4164C39.6343 84.4917 39.5431 84.5455 39.4425 84.5719C39.3749 84.5873 39.3046 84.5873 39.237 84.5719L38.5332 84.4537C38.565 84.5475 38.5891 84.6438 38.6051 84.7415L39.1856 84.8442C39.2532 84.8553 39.3178 84.8796 39.3757 84.916C39.4338 84.9544 39.4843 85.0032 39.5247 85.0599C39.5641 85.1155 39.592 85.1784 39.6069 85.2449C39.6197 85.3128 39.6197 85.3824 39.6069 85.4503C39.5965 85.5196 39.572 85.5861 39.535 85.6456C39.4952 85.7025 39.4466 85.7529 39.3911 85.7946C39.3328 85.8323 39.2685 85.8601 39.2011 85.8768C39.1332 85.8897 39.0635 85.8897 38.9956 85.8768L38.5127 85.7895C38.3463 86.2312 38.0311 86.6012 37.6213 86.8356C37.2116 87.07 36.7329 87.1542 36.2677 87.0738H36.3242L37.2798 88.7073C37.3173 88.7662 37.3418 88.8324 37.3515 88.9015C37.3612 88.9706 37.3561 89.0411 37.3363 89.108C37.3056 89.2377 37.2257 89.3502 37.1136 89.4221C37.0015 89.494 36.8658 89.5196 36.7352 89.4933L36.6838 89.4779Z" fill="#1D2749"/>
<path d="M39.0623 84.7813L38.3328 84.6529C38.3118 84.4047 38.2401 84.1635 38.1222 83.944L39.1496 84.129C39.1921 84.1367 39.2356 84.1367 39.2781 84.129C39.3203 84.1195 39.3604 84.102 39.3962 84.0776C39.432 84.0521 39.4632 84.0209 39.4887 83.9852C39.5102 83.9466 39.5258 83.9051 39.5349 83.8619C39.5425 83.8191 39.5415 83.7752 39.5318 83.7328C39.522 83.6905 39.5039 83.6505 39.4784 83.6153C39.4529 83.5796 39.4217 83.5482 39.3859 83.5228C39.3474 83.5012 39.3058 83.4857 39.2626 83.4766L35.6666 82.8499C35.5809 82.8357 35.493 82.854 35.42 82.9012C35.3489 82.9527 35.3009 83.0302 35.2865 83.1169C35.2762 83.1591 35.2762 83.2031 35.2865 83.2453C35.2973 83.2888 35.3146 83.3303 35.3379 83.3686C35.3641 83.4041 35.3973 83.4339 35.4355 83.456C35.4704 83.4811 35.511 83.4969 35.5536 83.5022L36.6992 83.7026C36.9143 83.7421 37.1139 83.8419 37.2746 83.9903C37.439 84.1343 37.557 84.3237 37.6136 84.5348L35.4406 84.1546C35.3785 84.1365 35.3126 84.1365 35.2505 84.1546C35.1908 84.1796 35.1405 84.2227 35.1067 84.2779C35.0711 84.3331 35.0515 84.3972 35.0502 84.4629C35.055 84.5287 35.0762 84.5923 35.1118 84.6479C35.136 84.6833 35.1675 84.7131 35.2043 84.7352C35.2401 84.7596 35.2802 84.7769 35.3224 84.7865L37.6136 85.1872C37.5265 85.4515 37.3474 85.6759 37.1088 85.8192C36.8703 85.9625 36.5882 86.0153 36.3139 85.968L35.1529 85.7678H35.1067C35.0848 85.7623 35.0618 85.7623 35.0399 85.7678C35.0179 85.7633 34.9952 85.7633 34.9731 85.7678H34.932C34.8977 85.7929 34.8666 85.8222 34.8395 85.855C34.8371 85.8755 34.8371 85.8963 34.8395 85.9168C34.8085 85.9435 34.7868 85.9795 34.7779 86.0195C34.7795 86.0571 34.7795 86.0948 34.7779 86.1325C34.7741 86.1546 34.7741 86.1771 34.7779 86.1992L36.3191 88.8346C36.3657 88.909 36.4393 88.9624 36.5245 88.9836C36.5667 88.9939 36.6108 88.9939 36.653 88.9836C36.6966 88.9783 36.7386 88.9642 36.7766 88.9421C36.8146 88.92 36.8477 88.8905 36.8739 88.8552C36.9007 88.8221 36.92 88.7835 36.9304 88.7422C36.9381 88.6997 36.9381 88.6562 36.9304 88.6138C36.9253 88.5703 36.9113 88.5283 36.8893 88.4905L35.7231 86.4818L36.1495 86.5589C36.5987 86.6405 37.0621 86.5507 37.4483 86.3072C37.8345 86.0637 38.1153 85.6842 38.2352 85.2438L38.8876 85.3619C38.9301 85.3697 38.9736 85.3697 39.0161 85.3619C39.0602 85.3534 39.1022 85.3359 39.1394 85.3105C39.1912 85.2712 39.2305 85.2177 39.2524 85.1565C39.2728 85.0947 39.2728 85.028 39.2524 84.9663C39.2384 84.9022 39.2063 84.8433 39.1599 84.7968C39.1125 84.7498 39.0513 84.7192 38.9852 84.7095L39.0623 84.7813Z" fill="#F68B42"/>
<path d="M36.658 89.1283H36.5604C36.4613 89.1013 36.3765 89.0367 36.3241 88.9484L34.7829 86.3233C34.7803 86.3114 34.7803 86.2992 34.7829 86.2874C34.7805 86.2773 34.7805 86.2667 34.7829 86.2565C34.7784 86.2328 34.7784 86.2084 34.7829 86.1847C34.7773 86.1576 34.7773 86.1295 34.7829 86.1024C34.7805 86.0836 34.7805 86.0647 34.7829 86.046C34.7945 86.0066 34.8137 85.9699 34.8395 85.938C34.8395 85.938 34.8395 85.9021 34.8395 85.8867C34.8712 85.8516 34.9055 85.819 34.9422 85.7891H34.9833C35.0104 85.7833 35.0384 85.7833 35.0655 85.7891H35.1477H35.1991L36.3549 85.9894C36.6049 86.0338 36.8625 85.99 37.0837 85.8654C37.3049 85.7407 37.4759 85.543 37.5673 85.3061L35.3429 84.9208C35.2939 84.9096 35.2471 84.8906 35.2042 84.8644C35.1621 84.8351 35.1256 84.7986 35.0963 84.7565C35.0515 84.6956 35.028 84.6215 35.0295 84.5458C35.0243 84.4697 35.0441 84.3939 35.086 84.3301C35.1269 84.265 35.1858 84.2132 35.2556 84.1811C35.325 84.1509 35.4014 84.1402 35.4765 84.1502L37.5622 84.5151C37.4944 84.3351 37.3812 84.1756 37.2335 84.0523C37.0859 83.929 36.9089 83.8459 36.7197 83.8112L35.5741 83.6109C35.5241 83.603 35.4766 83.5836 35.4354 83.5544C35.3908 83.5286 35.3522 83.4936 35.3223 83.4517C35.2953 83.4092 35.2761 83.3622 35.2658 83.313C35.253 83.2624 35.253 83.2094 35.2658 83.1588C35.2869 83.0585 35.3435 82.9691 35.4251 82.9071C35.5099 82.8513 35.6125 82.8294 35.7128 82.8455L39.3088 83.4722C39.3593 83.4837 39.4078 83.5027 39.4526 83.5287C39.4945 83.5561 39.5311 83.5909 39.5605 83.6314C39.6204 83.7164 39.6444 83.8217 39.6273 83.9242C39.6158 83.9748 39.5968 84.0233 39.5708 84.0681C39.5434 84.11 39.5086 84.1466 39.468 84.176C39.4247 84.2059 39.3758 84.2269 39.3242 84.2377C39.2748 84.2455 39.2246 84.2455 39.1752 84.2377L38.2351 84.0732C38.3232 84.2576 38.3788 84.4556 38.3995 84.6588L39.1444 84.7873C39.1974 84.8071 39.2462 84.8368 39.2882 84.8747C39.3438 84.9276 39.3831 84.9953 39.4013 85.0698C39.4218 85.1438 39.4218 85.2219 39.4013 85.2958C39.3717 85.3669 39.3238 85.429 39.2626 85.4757C39.2216 85.5064 39.1741 85.5276 39.1238 85.5374C39.0728 85.5451 39.0208 85.5451 38.9697 85.5374L38.3687 85.4294C38.2339 85.8707 37.9419 86.2473 37.548 86.4878C37.1542 86.7283 36.6858 86.816 36.2316 86.7343L35.9234 86.6778L37.0279 88.5785C37.0547 88.6225 37.0722 88.6714 37.0793 88.7224C37.0897 88.7715 37.0897 88.8223 37.0793 88.8714C37.0695 88.9217 37.0484 88.9691 37.0176 89.0101C36.9853 89.0498 36.9472 89.0844 36.9046 89.1128C36.8604 89.1381 36.8114 89.1538 36.7608 89.159L36.658 89.1283ZM34.9165 85.9175C34.914 85.9311 34.914 85.945 34.9165 85.9585C34.8963 85.9781 34.882 86.0032 34.8754 86.0305C34.8733 86.0424 34.8733 86.0545 34.8754 86.0664C34.8725 86.0799 34.8725 86.094 34.8754 86.1075C34.8717 86.1227 34.8717 86.1386 34.8754 86.1538V86.1847L36.4423 88.8251C36.4605 88.8562 36.485 88.8833 36.5141 88.9045C36.5433 88.9257 36.5766 88.9406 36.6118 88.9484C36.6473 88.956 36.6841 88.956 36.7197 88.9484C36.7539 88.9418 36.7869 88.9297 36.8173 88.9124C36.849 88.8939 36.8769 88.8695 36.8995 88.8405C36.92 88.8107 36.9356 88.7778 36.9457 88.743C36.9533 88.7074 36.9533 88.6705 36.9457 88.635C36.9423 88.5999 36.9299 88.5663 36.9097 88.5374L35.682 86.421L36.2316 86.5185C36.6672 86.5958 37.116 86.5079 37.4902 86.272C37.8651 86.0386 38.137 85.6712 38.2505 85.2445V85.1931L38.9543 85.3164C38.9899 85.324 39.0266 85.324 39.0622 85.3164C39.0974 85.3103 39.1308 85.2963 39.1598 85.2754C39.2046 85.2434 39.2386 85.1986 39.2574 85.147C39.2754 85.0954 39.2754 85.0392 39.2574 84.9877C39.2474 84.9343 39.2203 84.8857 39.1804 84.849C39.142 84.8122 39.0938 84.7873 39.0417 84.7771H38.98L38.2659 84.6537V84.6075C38.244 84.3667 38.1742 84.1326 38.0605 83.9191L38.0039 83.8164L39.1701 84.0218C39.2059 84.0269 39.2422 84.0269 39.278 84.0218C39.3128 84.0117 39.3457 83.9962 39.3756 83.9757C39.4058 83.9567 39.4306 83.93 39.4475 83.8985C39.4685 83.8677 39.4825 83.8326 39.4886 83.7958C39.4992 83.724 39.4827 83.6508 39.4424 83.5904C39.4234 83.5601 39.3968 83.5353 39.3653 83.5184C39.3344 83.4974 39.2994 83.4834 39.2626 83.4774L35.6665 82.8455C35.6311 82.8397 35.5949 82.8408 35.5599 82.849C35.5249 82.8572 35.4919 82.8723 35.4628 82.8933C35.4337 82.9143 35.409 82.9408 35.3902 82.9714C35.3714 83.002 35.3588 83.036 35.3532 83.0715C35.3455 83.1071 35.3455 83.1438 35.3532 83.1794C35.3615 83.2139 35.3754 83.2469 35.3943 83.277C35.416 83.3064 35.4419 83.3324 35.4713 83.3541C35.5025 83.3736 35.5376 83.3858 35.5741 83.39L36.7197 83.5904C36.9458 83.6326 37.1556 83.7373 37.3254 83.8925C37.4951 84.0478 37.6181 84.2473 37.6803 84.4688V84.551L35.42 84.1554C35.3667 84.1461 35.3119 84.1529 35.2625 84.1748C35.2131 84.1968 35.1713 84.2329 35.1425 84.2787C35.1125 84.3245 35.0965 84.378 35.0963 84.4328C35.1001 84.4877 35.1177 84.5408 35.1477 84.587C35.1681 84.616 35.1944 84.6404 35.2247 84.6588C35.2538 84.6797 35.2871 84.6938 35.3223 84.7L37.6752 85.111V85.1725C37.5889 85.4492 37.4067 85.686 37.1615 85.8404C36.9109 85.9884 36.6161 86.043 36.3292 85.9945L35.1682 85.7891H35.0706C35.0555 85.7847 35.0395 85.7847 35.0244 85.7891H34.9833L34.9165 85.9175Z" fill="#1D2749"/>
<path d="M53.2766 97.1587C56.8663 97.7886 60.5622 97.34 63.8968 95.8695C67.2315 94.399 70.0553 91.9726 72.011 88.8972C73.9667 85.8219 74.9665 82.2357 74.884 78.5921C74.8016 74.9486 73.6405 71.4112 71.5477 68.4274C69.4548 65.4437 66.5242 63.1477 63.1264 61.8295C59.7286 60.5114 56.0162 60.2304 52.4588 61.0221C48.9013 61.8138 45.6584 63.6427 43.1404 66.2774C40.6223 68.9121 38.942 72.2344 38.3121 75.824C37.4674 80.6376 38.5694 85.5896 41.3758 89.5906C44.1822 93.5917 48.4631 96.3139 53.2766 97.1587Z" fill="#182877"/>
<path d="M52.1365 93.7832C55.4151 94.3592 58.7909 93.9499 61.8369 92.6072C64.8829 91.2644 67.4623 89.0485 69.2488 86.2396C71.0353 83.4308 71.9487 80.1552 71.8734 76.8272C71.7982 73.4992 70.7376 70.2683 68.826 67.5431C66.9143 64.8179 64.2374 62.7209 61.1338 61.5172C58.0302 60.3135 54.6393 60.0572 51.3901 60.7808C48.1408 61.5045 45.1792 63.1754 42.8797 65.5824C40.5802 67.9894 39.0461 71.0243 38.4716 74.3031C37.7015 78.6983 38.7084 83.2194 41.2708 86.8724C43.8333 90.5254 47.7416 93.0112 52.1365 93.7832Z" fill="#F68B42"/>
<path d="M55.0544 94.2038C54.0676 94.2044 53.0826 94.1184 52.1108 93.947C47.7994 93.1886 43.9471 90.7953 41.3572 87.2659C38.7674 83.7365 37.6399 79.3436 38.2099 75.0032C38.7799 70.6628 41.0033 66.7101 44.4166 63.9691C47.8299 61.2281 52.1696 59.9104 56.5307 60.2909C60.8917 60.6715 64.9376 62.7209 67.8245 66.0116C70.7115 69.3024 72.2167 73.5805 72.0264 77.954C71.836 82.3275 69.9647 86.4587 66.8027 89.4862C63.6407 92.5137 59.4321 94.2037 55.0544 94.2038ZM52.1673 93.6234C55.4137 94.1935 58.7563 93.7882 61.7723 92.4586C64.7883 91.1291 67.3423 88.9349 69.1113 86.1538C70.8804 83.3727 71.785 80.1295 71.7107 76.8343C71.6365 73.5391 70.5868 70.3398 68.6943 67.6412C66.8018 64.9426 64.1516 62.8658 61.0787 61.6734C58.0059 60.481 54.6485 60.2266 51.4311 60.9423C48.2137 61.6581 45.2807 63.3119 43.0032 65.6946C40.7257 68.0772 39.206 71.0818 38.636 74.3282C37.8775 78.6805 38.8761 83.156 41.4127 86.7731C43.9493 90.3903 47.8169 92.8538 52.1673 93.6234Z" fill="#1D2749"/>
<path opacity="0.72" d="M44.3741 64.4912C42.662 65.8925 41.2451 67.6198 40.2056 69.5728C39.166 71.5258 38.5245 73.6658 38.3182 75.8686C38.1119 78.0714 38.3449 80.2932 39.0038 82.4053C39.6626 84.5174 40.7342 86.4776 42.1564 88.1725C43.5785 89.8673 45.3229 91.2629 47.2885 92.2784C49.2541 93.294 51.4018 93.9093 53.6069 94.0886C55.8121 94.2679 58.0309 94.0077 60.1347 93.323C62.2386 92.6384 64.1856 91.5428 65.8629 90.1L44.3741 64.4912Z" fill="#FCE68D"/>
<path d="M53.0972 88.3124C55.2997 88.7034 57.5687 88.432 59.6169 87.5324C61.665 86.6329 63.4002 85.1458 64.6026 83.2594C65.805 81.3731 66.4205 79.1723 66.3713 76.9359C66.3221 74.6995 65.6103 72.5281 64.3261 70.6964C63.0419 68.8648 61.243 67.4555 59.1573 66.6469C57.0715 65.8384 54.7928 65.6669 52.6096 66.1544C50.4263 66.6419 48.4369 67.7663 46.8931 69.3852C45.3494 71.0041 44.3208 73.0447 43.9376 75.2487C43.4253 78.195 44.1017 81.2242 45.8185 83.6728C47.5353 86.1214 50.1527 87.7898 53.0972 88.3124Z" fill="#182877"/>
<path d="M52.8811 85.9127C54.7275 86.235 56.628 86.0026 58.3423 85.2449C60.0567 84.4873 61.508 83.2384 62.5126 81.6561C63.5173 80.0737 64.0302 78.229 63.9866 76.3552C63.943 74.4814 63.3448 72.6626 62.2676 71.1288C61.1905 69.5949 59.6827 68.4148 57.935 67.7377C56.1872 67.0606 54.2779 66.9169 52.4485 67.3248C50.6191 67.7327 48.9517 68.6738 47.6571 70.0292C46.3625 71.3846 45.4989 73.0934 45.1753 74.9396C44.9597 76.1662 44.988 77.4232 45.2587 78.6389C45.5294 79.8545 46.0371 81.0049 46.7528 82.024C47.4685 83.0432 48.3782 83.9112 49.4298 84.5784C50.4813 85.2457 51.6541 85.6991 52.8811 85.9127Z" fill="#F4A045"/>
<path d="M54.52 86.2204C53.9602 86.2187 53.4017 86.1689 52.8504 86.0714C50.3321 85.629 48.0926 84.2045 46.6244 82.1111C45.1562 80.0177 44.5796 77.4269 45.0214 74.9084C45.3374 73.0996 46.1632 71.4188 47.4018 70.0633C48.6404 68.7079 50.2403 67.7342 52.0133 67.2568C53.7863 66.7795 55.6587 66.8183 57.4104 67.3687C59.1621 67.9191 60.7203 68.9582 61.9016 70.3638C63.083 71.7695 63.8385 73.4832 64.0792 75.3035C64.32 77.1238 64.036 78.9749 63.2607 80.6393C62.4853 82.3037 61.2509 83.7122 59.7025 84.6991C58.1541 85.686 56.3562 86.2101 54.52 86.2101V86.2204ZM54.52 67.2644C52.116 67.2595 49.8028 68.1829 48.063 69.842C46.3231 71.501 45.2909 73.7676 45.1816 76.1692C45.0723 78.5708 45.8943 80.9219 47.4763 82.7322C49.0582 84.5424 51.2779 85.672 53.6725 85.8856C56.067 86.0991 58.4516 85.38 60.3289 83.8782C62.2061 82.3764 63.4312 80.2079 63.7485 77.8249C64.0659 75.4419 63.451 73.0284 62.0322 71.0876C60.6133 69.1469 58.5001 67.8288 56.1331 67.4082C55.5995 67.3072 55.0579 67.2538 54.5149 67.2489L54.52 67.2644Z" fill="#1D2749"/>
<path d="M53.3487 81.8229C53.1496 81.7709 52.9784 81.6438 52.871 81.4683L50.6003 77.6309C50.5604 77.582 50.5339 77.5235 50.5233 77.4613C50.5076 77.4217 50.4973 77.3803 50.4925 77.338V77.2919C50.4875 77.2423 50.4875 77.1924 50.4925 77.1429V77.0556C50.5137 76.9864 50.5448 76.9206 50.5849 76.8603V76.8039V76.7524L50.6157 76.7113L50.7031 76.624C50.7392 76.5828 50.7807 76.5465 50.8264 76.5162L50.9034 76.4853C50.957 76.4598 51.0142 76.4424 51.073 76.4339H51.2219C51.2526 76.429 51.2838 76.429 51.3144 76.4339L53.133 76.7524C53.4683 76.8079 53.8124 76.7423 54.1039 76.5674C54.2974 76.4527 54.4597 76.2922 54.5765 76.1L51.5867 75.5863C51.4864 75.5696 51.3905 75.5331 51.3046 75.4789C51.2186 75.4248 51.1443 75.3539 51.0859 75.2707C51.0276 75.1875 50.9864 75.0936 50.9648 74.9943C50.9431 74.895 50.9415 74.7924 50.9599 74.6924C50.9963 74.4913 51.1106 74.3126 51.278 74.1953C51.4453 74.0779 51.6523 74.0313 51.8538 74.0657L54.5046 74.528C54.4465 74.4501 54.3811 74.3779 54.3094 74.3123C54.1127 74.1314 53.8686 74.0103 53.6056 73.963L51.9257 73.6701C51.721 73.6312 51.538 73.5176 51.412 73.3516C51.2981 73.181 51.254 72.9733 51.2887 72.7711C51.3038 72.6703 51.3406 72.5738 51.3966 72.4886C51.449 72.4012 51.5211 72.3273 51.6072 72.2728C51.6897 72.2142 51.7831 72.1726 51.8819 72.1506C51.9807 72.1285 52.083 72.1264 52.1826 72.1444L57.4636 73.0691C57.5664 73.0843 57.6651 73.1203 57.7535 73.1751C57.8418 73.2299 57.918 73.3022 57.9773 73.3876C58.0369 73.4705 58.0792 73.5645 58.1019 73.664C58.1246 73.7635 58.1272 73.8665 58.1095 73.967C58.0918 74.0675 58.0541 74.1636 57.9988 74.2493C57.9435 74.3351 57.8715 74.4089 57.7872 74.4664C57.7042 74.5229 57.6121 74.5646 57.515 74.5897C57.415 74.6103 57.3118 74.6103 57.2119 74.5897L56.1844 74.4099C56.2313 74.5486 56.2657 74.6914 56.2872 74.8363L57.1399 74.9853C57.2411 74.9993 57.3377 75.0362 57.4225 75.0931C57.5077 75.1484 57.581 75.2199 57.6382 75.3037C57.6998 75.3857 57.7419 75.4806 57.7615 75.5812C57.782 75.6794 57.782 75.7809 57.7615 75.8791C57.7424 75.9797 57.704 76.0757 57.6485 76.1617C57.5954 76.2483 57.5255 76.3233 57.443 76.3826C57.3586 76.4387 57.2646 76.4788 57.1656 76.5007C57.0656 76.5214 56.9625 76.5214 56.8625 76.5007L56.1485 76.3774C55.9059 77.0266 55.4438 77.5704 54.8424 77.9147C54.2411 78.259 53.5382 78.3821 52.8555 78.2627H52.8144L54.222 80.6619C54.2744 80.7503 54.3093 80.8479 54.3248 80.9495C54.3426 81.048 54.3426 81.1489 54.3248 81.2475C54.276 81.4361 54.1581 81.5995 53.9944 81.7051C53.8306 81.8108 53.6332 81.851 53.4412 81.8177L53.3487 81.8229Z" fill="#1D2749"/>
<path d="M56.8367 74.9556L55.7682 74.7706C55.7334 74.4106 55.6268 74.0613 55.4548 73.7432L56.9959 74.0103C57.0589 74.0206 57.1231 74.0206 57.186 74.0103C57.2485 73.9958 57.3078 73.9697 57.3607 73.9333C57.4115 73.8936 57.4565 73.8469 57.4942 73.7946C57.5262 73.7387 57.5488 73.6779 57.561 73.6147C57.5804 73.4872 57.5511 73.357 57.4788 73.25C57.4414 73.1972 57.3944 73.1518 57.3401 73.1165C57.2865 73.0837 57.2273 73.0611 57.1655 73.0497L51.8896 72.125C51.8272 72.1139 51.7632 72.1154 51.7014 72.1295C51.6397 72.1436 51.5814 72.1701 51.53 72.2072C51.4767 72.2427 51.4314 72.2889 51.3969 72.3429C51.3624 72.3968 51.3395 72.4573 51.3296 72.5206C51.3194 72.5835 51.3194 72.6477 51.3296 72.7106C51.3442 72.7731 51.3703 72.8324 51.4067 72.8853C51.4441 72.9382 51.4912 72.9835 51.5454 73.0189C51.5991 73.0516 51.6583 73.0743 51.7201 73.0857L53.4051 73.3836C53.7214 73.4394 54.0154 73.584 54.2528 73.8005C54.4902 74.0169 54.6612 74.2964 54.7459 74.6063L51.5557 74.0463C51.46 74.0296 51.3616 74.0422 51.2731 74.0823C51.1853 74.1204 51.1116 74.185 51.0625 74.2672C51.0128 74.3474 50.9861 74.4399 50.9855 74.5343C50.9882 74.6315 51.0185 74.7259 51.0728 74.8066C51.108 74.8582 51.1534 74.9019 51.2064 74.935C51.2612 74.9702 51.3222 74.9947 51.3862 75.007L54.7459 75.5977C54.6187 75.986 54.3563 76.3158 54.0066 76.527C53.6568 76.7382 53.2428 76.8168 52.84 76.7485L51.1344 76.4453H51.0676C51.0353 76.44 51.0024 76.44 50.97 76.4453C50.936 76.4501 50.903 76.4605 50.8724 76.4762H50.8057C50.7574 76.5168 50.7127 76.5615 50.6721 76.6097C50.6668 76.6386 50.6668 76.6682 50.6721 76.697C50.6306 76.7383 50.6005 76.7897 50.5848 76.846C50.5823 76.8682 50.5823 76.8907 50.5848 76.9129C50.5798 76.9452 50.5798 76.9781 50.5848 77.0105C50.5895 77.0445 50.5999 77.0774 50.6156 77.108V77.144V77.1749L52.9068 81.038C52.9741 81.1481 53.0805 81.2288 53.2047 81.264C53.2674 81.2768 53.3321 81.2768 53.3948 81.264C53.458 81.2549 53.519 81.2339 53.5746 81.2023C53.6294 81.1679 53.678 81.1245 53.7184 81.0739C53.756 81.023 53.7839 80.9656 53.8006 80.9045C53.8134 80.8417 53.8134 80.7771 53.8006 80.7143C53.7902 80.6514 53.7693 80.5907 53.739 80.5346L52.0232 77.5859L52.655 77.6937C53.3168 77.8183 54.0013 77.6893 54.5724 77.3324C55.1434 76.9755 55.5593 76.4168 55.7373 75.7673L56.698 75.9367C56.7607 75.9496 56.8253 75.9496 56.8881 75.9367C56.9511 75.9239 57.0107 75.8977 57.0627 75.8597C57.1412 75.8037 57.2004 75.7248 57.2322 75.6337C57.2632 75.5439 57.2632 75.4462 57.2322 75.3563C57.2089 75.2643 57.1606 75.1806 57.0926 75.1144C57.0246 75.0482 56.9396 75.0021 56.847 74.9813L56.8367 74.9556Z" fill="#F68B42"/>
<path d="M53.3078 81.3153C53.2601 81.3221 53.2117 81.3221 53.1639 81.3153C53.0182 81.279 52.8927 81.1867 52.8146 81.0585L50.5286 77.2006C50.5144 77.1841 50.5039 77.1648 50.4978 77.144C50.495 77.1287 50.495 77.113 50.4978 77.0977C50.4821 77.0653 50.4717 77.0307 50.4669 76.995C50.4588 76.9543 50.4588 76.9124 50.4669 76.8717C50.4621 76.8463 50.4621 76.8202 50.4669 76.7947C50.4818 76.736 50.5099 76.6815 50.5491 76.6354V76.5584V76.5276C50.5955 76.4761 50.6472 76.4296 50.7032 76.3889H50.7649C50.8019 76.37 50.8419 76.3578 50.883 76.3529C50.9237 76.3447 50.9657 76.3447 51.0063 76.3529H51.0834L52.7735 76.6509C53.1583 76.7165 53.554 76.6417 53.8883 76.4402C54.1926 76.2557 54.4274 75.9758 54.5561 75.644L51.294 75.0737C51.2207 75.0603 51.1509 75.0324 51.0885 74.9916C51.0259 74.9511 50.9718 74.8987 50.9293 74.8374C50.8615 74.7471 50.8254 74.6369 50.8265 74.524C50.8269 74.412 50.857 74.3021 50.9139 74.2056C50.9746 74.1103 51.0622 74.0352 51.1656 73.9898C51.2667 73.9434 51.3797 73.929 51.4892 73.9487L54.5715 74.4624C54.4705 74.1994 54.3036 73.9668 54.0868 73.7869C53.87 73.607 53.6106 73.4858 53.3335 73.435L51.6536 73.1421C51.5787 73.1288 51.5071 73.1009 51.443 73.06C51.3799 73.0196 51.3256 72.9669 51.2833 72.9051C51.2409 72.8433 51.2114 72.7738 51.1964 72.7004C51.1804 72.6276 51.1804 72.5522 51.1964 72.4794C51.223 72.331 51.3058 72.1985 51.4276 72.1096C51.5521 72.024 51.7052 71.9908 51.854 72.0171L57.1298 72.9418C57.2026 72.957 57.2722 72.9848 57.3353 73.024C57.4299 73.0854 57.5045 73.173 57.5501 73.2761C57.5957 73.3792 57.6104 73.4933 57.5922 73.6046C57.5779 73.6776 57.55 73.7472 57.51 73.81C57.4697 73.8742 57.4174 73.9301 57.3559 73.9744C57.2939 74.0169 57.224 74.0466 57.1504 74.0617C57.0776 74.0777 57.0023 74.0777 56.9295 74.0617L55.5527 73.8203C55.6773 74.0938 55.7587 74.3849 55.7942 74.6833L56.8833 74.8734C56.9771 74.9033 57.0612 74.9574 57.1271 75.0306C57.193 75.1037 57.2383 75.193 57.2583 75.2894C57.2891 75.3969 57.2891 75.5109 57.2583 75.6183C57.2171 75.724 57.1456 75.8151 57.0528 75.8803C56.9941 75.9263 56.9255 75.9579 56.8524 75.9727C56.7779 75.9881 56.701 75.9881 56.6264 75.9727L55.7377 75.8186C55.5397 76.4654 55.1114 77.0172 54.5339 77.3694C53.9563 77.7216 53.2697 77.8497 52.604 77.7296L52.1468 77.6526L53.7753 80.4472C53.8128 80.512 53.8373 80.5836 53.8472 80.6579C53.86 80.7309 53.86 80.8057 53.8472 80.8787C53.8273 80.951 53.7942 81.0188 53.7496 81.079C53.703 81.1375 53.6454 81.1864 53.5801 81.2229C53.5179 81.2631 53.4478 81.2894 53.3746 81.3L53.3078 81.3153ZM50.7392 76.5994C50.7392 76.5994 50.7392 76.6355 50.7392 76.656V76.6869H50.7135C50.6833 76.7184 50.6621 76.7574 50.6519 76.7999C50.6499 76.8169 50.6499 76.8341 50.6519 76.8512V76.8769C50.6464 76.8988 50.6464 76.9218 50.6519 76.9437C50.6496 76.9642 50.6496 76.9848 50.6519 77.0053L52.9533 80.8839C53.008 80.9755 53.0966 81.0419 53.1999 81.0687C53.2525 81.079 53.3066 81.079 53.3592 81.0687C53.4112 81.0594 53.4614 81.0421 53.5081 81.0174C53.5545 80.9899 53.5947 80.9532 53.6263 80.9096C53.6586 80.8689 53.6814 80.8215 53.6931 80.7709C53.7033 80.7183 53.7033 80.6642 53.6931 80.6116C53.6861 80.559 53.6686 80.5083 53.6417 80.4626L51.8334 77.3803L52.6451 77.5241C53.2834 77.6383 53.9413 77.5098 54.4897 77.1638C55.0381 76.8179 55.4374 76.2795 55.6092 75.6543V75.5823L56.6367 75.7621C56.689 75.7736 56.7432 75.7735 56.7956 75.762C56.8479 75.7505 56.8971 75.7277 56.9398 75.6953C57.0055 75.6498 57.0557 75.5853 57.0836 75.5104C57.1064 75.4333 57.1064 75.3512 57.0836 75.2741C57.0661 75.1966 57.0248 75.1265 56.9654 75.0737C56.9091 75.0183 56.8376 74.9808 56.76 74.9659H56.6778L55.6503 74.7809V74.7193C55.6217 74.3595 55.5185 74.0096 55.3472 73.6918L55.265 73.5428L56.9757 73.8408C57.0281 73.8517 57.0822 73.8512 57.1344 73.8397C57.1866 73.8282 57.2358 73.8058 57.2788 73.774C57.3211 73.7429 57.3576 73.7046 57.3867 73.661C57.416 73.616 57.4353 73.5651 57.4432 73.512C57.4531 73.4596 57.4523 73.4058 57.4408 73.3537C57.4293 73.3016 57.4074 73.2524 57.3764 73.209C57.3439 73.168 57.3059 73.1316 57.2634 73.101C57.218 73.0725 57.1673 73.0534 57.1144 73.0446L51.8386 72.1198C51.7866 72.111 51.7334 72.1125 51.6821 72.1242C51.6307 72.136 51.5821 72.1578 51.5392 72.1883C51.4962 72.2189 51.4597 72.2575 51.4318 72.3022C51.4038 72.3469 51.3849 72.3967 51.3762 72.4487C51.366 72.5013 51.366 72.5553 51.3762 72.6079C51.3893 72.6587 51.4101 72.7072 51.4379 72.7517C51.4709 72.7941 51.5108 72.8305 51.556 72.8596C51.5992 72.8888 51.6483 72.9081 51.6999 72.9161L53.3848 73.2141C53.7172 73.2725 54.026 73.4243 54.2753 73.6517C54.5245 73.8791 54.7039 74.1728 54.7924 74.4984L54.8284 74.6217L51.5046 74.0411C51.4263 74.0254 51.345 74.0363 51.2735 74.072C51.2013 74.1025 51.1403 74.1545 51.0988 74.221C51.0538 74.2868 51.0296 74.3646 51.0296 74.4444C51.0296 74.5241 51.0538 74.602 51.0988 74.6679C51.128 74.713 51.1664 74.7515 51.2116 74.7807C51.2568 74.81 51.3076 74.8293 51.3608 74.8374L54.813 75.4436L54.7822 75.536C54.6512 75.945 54.3753 76.2922 54.0064 76.5121C53.6397 76.7331 53.2059 76.8151 52.7838 76.7433L51.1194 76.4967H51.0628H50.9961C50.9757 76.4931 50.9548 76.4931 50.9344 76.4967L50.8728 76.5224C50.8278 76.5444 50.7849 76.5701 50.7443 76.5994H50.7392Z" fill="#1D2749"/>
<path d="M10.8744 89.4005C10.8131 89.4003 10.7539 89.3785 10.7069 89.3391C10.66 89.2996 10.6284 89.245 10.6176 89.1847C10.6117 89.1513 10.6124 89.1171 10.6199 89.084C10.6273 89.0509 10.6412 89.0195 10.6608 88.9918C10.6803 88.9641 10.7052 88.9406 10.734 88.9225C10.7627 88.9045 10.7947 88.8924 10.8282 88.8868L22.4536 86.9604C22.4868 86.9537 22.5209 86.954 22.554 86.9611C22.5871 86.9683 22.6183 86.9822 22.6458 87.002C22.6732 87.0218 22.6963 87.0469 22.7137 87.076C22.731 87.1051 22.7421 87.1374 22.7464 87.1709C22.7569 87.2382 22.7408 87.307 22.7015 87.3626C22.6622 87.4182 22.6027 87.4564 22.5358 87.4689L10.9001 89.3954L10.8744 89.4005Z" fill="#00DF8D"/>
<path d="M77.0823 80.231C77.0207 80.2318 76.9609 80.2104 76.9138 80.1708C76.8666 80.1312 76.8353 80.0761 76.8254 80.0153C76.8149 79.948 76.831 79.8792 76.8703 79.8235C76.9096 79.7679 76.9691 79.7298 77.036 79.7173L81.1869 79.0289C81.2549 79.0185 81.3243 79.0353 81.3801 79.0757C81.4358 79.116 81.4735 79.1768 81.4848 79.2447C81.4952 79.3114 81.479 79.3794 81.4395 79.4342C81.4001 79.489 81.3407 79.5261 81.2742 79.5375L77.1234 80.2259L77.0823 80.231Z" fill="#00DF8D"/>
<path d="M82.8822 79.2548C82.8212 79.2554 82.7621 79.2337 82.7158 79.1941C82.6695 79.1544 82.6392 79.0993 82.6305 79.0389C82.6199 78.9716 82.6361 78.9029 82.6754 78.8473C82.7147 78.7917 82.7741 78.7536 82.8411 78.741L84.3822 78.4842C84.416 78.4785 84.4505 78.4793 84.4839 78.4869C84.5172 78.4946 84.5487 78.5087 84.5766 78.5285C84.6046 78.5483 84.6283 78.5734 84.6465 78.6023C84.6647 78.6313 84.677 78.6635 84.6828 78.6973C84.6885 78.731 84.6875 78.7656 84.6799 78.799C84.6723 78.8323 84.6582 78.8638 84.6384 78.8917C84.6186 78.9196 84.5935 78.9433 84.5645 78.9615C84.5356 78.9797 84.5033 78.9922 84.4696 78.9979L82.9284 79.2548H82.8822Z" fill="#00DF8D"/>
<path d="M17.7327 90.9934C17.6711 90.9942 17.6113 90.9728 17.5641 90.9332C17.517 90.8936 17.4856 90.8385 17.4758 90.7777C17.4653 90.7104 17.4814 90.6417 17.5207 90.5861C17.56 90.5305 17.6195 90.4923 17.6864 90.4797L24.4058 89.3701C24.4392 89.3642 24.4735 89.365 24.5066 89.3724C24.5397 89.3798 24.571 89.3937 24.5987 89.4133C24.6264 89.4329 24.65 89.4578 24.668 89.4865C24.686 89.5153 24.6982 89.5473 24.7038 89.5807C24.7143 89.648 24.6982 89.7167 24.6589 89.7724C24.6195 89.828 24.5601 89.8662 24.4932 89.8787L17.7738 90.9883L17.7327 90.9934Z" fill="#00DF8D"/>
<path d="M75.6593 26.6353L78.4231 28.1867L75.6593 31.5567" fill="#1A1C2B"/>
<path d="M77.7142 31.2887C77.6538 31.2885 77.5955 31.2666 77.5498 31.227C77.4977 31.1839 77.4646 31.122 77.4579 31.0547C77.4512 30.9873 77.4713 30.92 77.5139 30.8674L80.0825 27.7338L77.5858 26.3314C77.5266 26.2979 77.4831 26.2423 77.4648 26.1769C77.4465 26.1114 77.4549 26.0412 77.4882 25.982C77.5216 25.9228 77.5772 25.8794 77.6427 25.8611C77.7082 25.8428 77.7782 25.8511 77.8375 25.8844L80.8684 27.5848L77.9146 31.1808C77.8912 31.2125 77.8611 31.2386 77.8265 31.2572C77.7918 31.2759 77.7535 31.2866 77.7142 31.2887Z" fill="#1A1C2B"/>
<path d="M23.373 34.1353L26.1317 35.6867L23.373 39.0567" fill="#1A1C2B"/>
<path d="M25.4794 39.0365C25.4195 39.0392 25.3607 39.019 25.315 38.9799C25.2886 38.959 25.2667 38.933 25.2505 38.9034C25.2344 38.8739 25.2243 38.8413 25.221 38.8077C25.2176 38.7742 25.221 38.7404 25.231 38.7082C25.241 38.676 25.2573 38.6461 25.2791 38.6204L27.8477 35.4866L25.3561 34.0842C25.3008 34.0489 25.261 33.9937 25.2451 33.9299C25.2291 33.8662 25.2382 33.7988 25.2705 33.7416C25.3027 33.6843 25.3556 33.6417 25.4184 33.6223C25.4811 33.6029 25.549 33.6083 25.6079 33.6373L28.6337 35.3376L25.6798 38.9337C25.6567 38.9652 25.6265 38.991 25.5917 39.0088C25.557 39.0266 25.5185 39.0361 25.4794 39.0365Z" fill="#1A1C2B"/>
</g>
<defs>
<clipPath id="clip0_5592_19990">
<rect width="100" height="100" fill="white"/>
</clipPath>
</defs>
</svg>
