<svg width="100" height="100" viewBox="0 0 100 100" fill="none" xmlns="http://www.w3.org/2000/svg">
<g clip-path="url(#clip0_5592_19868)">
<path d="M27.1286 87.4266L28.1155 88.1015C28.1369 88.1168 28.152 88.1394 28.1577 88.1652C28.1674 88.1909 28.1674 88.2194 28.1577 88.245L24.9437 92.996C24.9286 93.0176 24.906 93.0328 24.8804 93.0386C24.8549 93.0484 24.8267 93.0484 24.8012 93.0386L23.8143 92.3583C23.8028 92.3518 23.793 92.3425 23.7857 92.3315C23.7784 92.3204 23.7737 92.3077 23.7721 92.2945C23.7624 92.2688 23.7624 92.2405 23.7721 92.2148L25.6773 89.3929C25.6773 89.3929 25.6773 89.361 25.6773 89.3556C25.6773 89.3503 25.6773 89.3556 25.6351 89.3556L24.379 89.8871C24.3599 89.9013 24.3368 89.909 24.3131 89.909C24.2893 89.909 24.2662 89.9013 24.2471 89.8871L23.751 89.547C23.7295 89.5354 23.7119 89.5176 23.7006 89.4958C23.6893 89.474 23.6848 89.4492 23.6877 89.4248L23.7458 88.0324C23.7458 88.0324 23.7458 87.9953 23.7458 87.9899C23.7458 87.9846 23.7458 87.9899 23.7141 87.9899L21.7984 90.8224C21.7832 90.844 21.7607 90.8592 21.735 90.865C21.7097 90.8753 21.6813 90.8753 21.6559 90.865L20.6637 90.1847C20.6423 90.1695 20.6272 90.1468 20.6215 90.121C20.6162 90.1093 20.6135 90.0966 20.6135 90.0838C20.6135 90.0709 20.6162 90.0582 20.6215 90.0465L23.8355 85.2902C23.8506 85.2686 23.8732 85.2534 23.8988 85.2477C23.9104 85.2424 23.923 85.2397 23.9357 85.2397C23.9485 85.2397 23.9611 85.2424 23.9727 85.2477L24.9596 85.9226C24.9801 85.9349 24.9966 85.9531 25.0069 85.9749C25.0173 85.9966 25.021 86.0209 25.0176 86.0448L24.9543 88.245C24.9543 88.2822 24.9543 88.2875 24.9965 88.245L26.9861 87.3681C27.0129 87.3597 27.0417 87.3611 27.0677 87.3717C27.0937 87.3824 27.1152 87.4018 27.1286 87.4266Z" fill="#00DF8D"/>
<path d="M29.9046 95.5998L30.0365 94.8239C30.0407 94.8157 30.0428 94.8066 30.0428 94.7973C30.0428 94.7881 30.0407 94.7791 30.0365 94.7709L28.3055 93.9259C28.3055 93.9259 28.2738 93.9259 28.2527 93.9259L27.725 94.5105C27.7038 94.5269 27.6778 94.5357 27.6511 94.5357C27.6244 94.5357 27.5984 94.5269 27.5772 94.5105L26.4162 93.9418C26.4034 93.9356 26.3921 93.9266 26.383 93.9156C26.3739 93.9046 26.3672 93.8918 26.3634 93.878C26.3621 93.8631 26.3644 93.8482 26.3699 93.8344C26.3753 93.8205 26.384 93.8082 26.395 93.7983L30.522 89.4299C30.536 89.4089 30.5574 89.3939 30.5818 89.388C30.6063 89.3821 30.632 89.3857 30.6539 89.398L32.0894 90.1049C32.1134 90.1134 32.1333 90.1307 32.145 90.1534C32.1568 90.1761 32.1595 90.2024 32.1528 90.2271L31.282 96.1951C31.2843 96.2092 31.2843 96.2236 31.282 96.2376C31.282 96.2855 31.2186 96.2961 31.1659 96.2376L30.0048 95.669C29.9831 95.6693 29.9618 95.6628 29.9438 95.6504C29.9259 95.6381 29.9122 95.6203 29.9046 95.5998ZM29.0496 93.0915L30.1842 93.6229C30.2106 93.6229 30.2318 93.623 30.237 93.5964L30.6065 91.3483V91.3112C30.6011 91.3073 30.5946 91.3053 30.588 91.3053C30.5813 91.3053 30.5749 91.3073 30.5695 91.3112L29.0496 92.9958C29.0232 93.0596 29.0232 93.0808 29.0496 93.0915Z" fill="#00DF8D"/>
<path d="M32.8019 96.9129C32.7916 96.8874 32.7916 96.8587 32.8019 96.8331L34.5857 91.3753C34.5898 91.3623 34.5967 91.3505 34.6058 91.3404C34.6149 91.3303 34.626 91.3223 34.6384 91.3169C34.6509 91.3115 34.6644 91.3086 34.678 91.3086C34.6916 91.3086 34.7051 91.3115 34.7176 91.3169L36.76 91.9971C37.1492 92.1139 37.5091 92.3131 37.8155 92.5816C38.07 92.8158 38.253 93.1182 38.3432 93.4533C38.4309 93.7878 38.4181 94.1411 38.3063 94.4683L37.6096 96.594C37.5115 96.9257 37.3144 97.2189 37.0449 97.4337C36.772 97.6508 36.4416 97.7821 36.095 97.811C35.6967 97.8456 35.2956 97.7948 34.9182 97.6622L32.8705 96.9819C32.8544 96.9768 32.8398 96.9679 32.8279 96.9559C32.8159 96.9438 32.807 96.9291 32.8019 96.9129ZM34.5118 96.238L35.3351 96.509C35.4321 96.5457 35.536 96.56 35.6393 96.5508C35.7425 96.5416 35.8423 96.5091 35.9314 96.4558C36.1259 96.3324 36.2715 96.1444 36.3431 95.9244L36.8708 94.2557C36.9554 94.0352 36.9554 93.7907 36.8708 93.5702C36.8284 93.473 36.7653 93.3865 36.6859 93.3167C36.6066 93.2468 36.513 93.1955 36.4117 93.1663L35.5936 92.8952C35.5936 92.8952 35.5514 92.8953 35.5409 92.9218L34.4854 96.2007C34.4643 96.2114 34.4748 96.2274 34.5012 96.238H34.5118Z" fill="#00DF8D"/>
<path d="M43.6839 94.8825C43.6584 94.8923 43.6302 94.8923 43.6047 94.8825L41.003 94.351C40.9977 94.3494 40.9922 94.3491 40.9868 94.3499C40.9814 94.3507 40.9763 94.3527 40.9717 94.3557C40.9672 94.3588 40.9634 94.3627 40.9606 94.3674C40.9578 94.3721 40.956 94.3775 40.9555 94.383L40.7549 95.4086C40.7534 95.4142 40.7529 95.42 40.7537 95.4257C40.7545 95.4315 40.7564 95.4371 40.7593 95.4421C40.7623 95.447 40.7663 95.4514 40.7709 95.4548C40.7756 95.4582 40.781 95.4604 40.7866 95.4617L42.4543 95.7859C42.4799 95.7916 42.5025 95.8068 42.5176 95.8284C42.5273 95.8541 42.5273 95.8824 42.5176 95.9081L42.3276 96.886C42.3219 96.9118 42.3068 96.9345 42.2854 96.9497C42.2729 96.9551 42.2594 96.9579 42.2458 96.9579C42.2322 96.9579 42.2187 96.9551 42.2062 96.9497L40.5438 96.6203C40.5383 96.6187 40.5325 96.6182 40.5267 96.619C40.521 96.6197 40.5155 96.6217 40.5106 96.6247C40.5056 96.6277 40.5014 96.6316 40.498 96.6364C40.4947 96.6411 40.4923 96.6465 40.4911 96.6522L40.2799 97.7575C40.2784 97.7627 40.278 97.7683 40.2788 97.7737C40.2796 97.7791 40.2815 97.7844 40.2846 97.789C40.2876 97.7936 40.2916 97.7973 40.2963 97.8002C40.301 97.803 40.3062 97.8048 40.3116 97.8054L42.9134 98.3368C42.9409 98.3413 42.9656 98.3566 42.982 98.3794C42.9917 98.405 42.9917 98.4334 42.982 98.459L42.7867 99.4422C42.7856 99.4556 42.7811 99.4683 42.7738 99.4795C42.7664 99.4906 42.7563 99.4997 42.7445 99.5059C42.7329 99.5112 42.7203 99.514 42.7076 99.514C42.6949 99.514 42.6823 99.5112 42.6706 99.5059L38.7495 98.7354C38.7239 98.7296 38.7013 98.7144 38.6862 98.6928C38.6809 98.6811 38.6782 98.6684 38.6782 98.6556C38.6782 98.6428 38.6809 98.6302 38.6862 98.6185L39.7786 92.9746C39.7815 92.9611 39.7872 92.9485 39.7954 92.9375C39.8036 92.9265 39.8141 92.9174 39.8261 92.9109C39.8377 92.9056 39.8503 92.9028 39.863 92.9028C39.8758 92.9028 39.8884 92.9056 39.9 92.9109L43.8211 93.6814C43.8467 93.6872 43.8693 93.7024 43.8844 93.724C43.8942 93.7497 43.8942 93.778 43.8844 93.8036L43.6945 94.7869C43.7003 94.8025 43.7024 94.8193 43.7006 94.8359C43.6987 94.8525 43.693 94.8685 43.6839 94.8825Z" fill="#00DF8D"/>
<path d="M46.713 99.9261C46.703 99.9168 46.6953 99.9051 46.6907 99.8921C46.6861 99.8792 46.6847 99.8653 46.6866 99.8516L46.9822 94.1069C46.9825 94.0938 46.9854 94.0809 46.9909 94.069C46.9963 94.0572 47.0041 94.0465 47.0138 94.0378C47.0379 94.0304 47.0636 94.0304 47.0877 94.0378L48.2857 94.1016C48.3117 94.1033 48.3361 94.1146 48.3543 94.1334C48.3637 94.1573 48.3637 94.184 48.3543 94.2079L48.0587 99.9527C48.0561 99.9786 48.045 100.003 48.0271 100.022C48.0059 100.038 47.98 100.048 47.9532 100.048L46.7552 99.9845C46.7341 99.9713 46.7189 99.9504 46.713 99.9261Z" fill="#00DF8D"/>
<path d="M52.8982 94.0378C52.9159 94.0175 52.9402 94.0042 52.9668 94.0006L54.1648 93.9475C54.1763 93.9419 54.1889 93.939 54.2017 93.939C54.2145 93.939 54.2272 93.9419 54.2387 93.9475C54.2489 93.9558 54.2571 93.9663 54.2626 93.9783C54.2681 93.9903 54.2707 94.0034 54.2703 94.0166L54.5395 99.7561C54.5419 99.7697 54.5407 99.7838 54.5361 99.7968C54.5315 99.8099 54.5235 99.8215 54.5131 99.8305C54.5049 99.8409 54.4944 99.849 54.4825 99.8545C54.4706 99.8601 54.4576 99.8627 54.4445 99.8623L53.2993 99.9208C53.2751 99.923 53.2508 99.9181 53.2293 99.9068C53.2078 99.8955 53.1899 99.8782 53.1779 99.857L51.0669 96.7056C51.062 96.7033 51.0566 96.702 51.0511 96.702C51.0456 96.702 51.0402 96.7033 51.0353 96.7056C51.0353 96.7056 51.0353 96.7057 51.0353 96.7482L51.1936 99.9368C51.1951 99.9504 51.1935 99.9641 51.1889 99.977C51.1843 99.9899 51.1769 100.002 51.1672 100.011C51.1488 100.03 51.1248 100.044 51.0986 100.048L49.9006 100.102C49.889 100.107 49.8764 100.109 49.8637 100.109C49.8509 100.109 49.8383 100.107 49.8267 100.102C49.8165 100.093 49.8083 100.083 49.8028 100.071C49.7973 100.059 49.7947 100.046 49.7951 100.032L49.5206 94.2929C49.5206 94.2658 49.5299 94.2395 49.547 94.2186C49.5654 94.1992 49.5894 94.1862 49.6156 94.1813L50.7714 94.1283C50.7956 94.1261 50.8199 94.1308 50.8414 94.1421C50.8629 94.1535 50.8807 94.1707 50.8928 94.192L53.0038 97.3327C53.0038 97.3327 53.0037 97.3327 53.0407 97.3327C53.0776 97.3327 53.0407 97.3328 53.0407 97.2956L52.8824 94.107C52.8791 94.0951 52.8788 94.0825 52.8816 94.0704C52.8844 94.0583 52.8901 94.0471 52.8982 94.0378Z" fill="#00DF8D"/>
<path d="M58.6136 99.2353C58.5908 99.2203 58.574 99.1978 58.5661 99.1716L57.4262 93.5383C57.4209 93.5266 57.4182 93.5139 57.4182 93.5011C57.4182 93.4883 57.4209 93.4757 57.4262 93.464C57.4327 93.4519 57.4417 93.4414 57.4527 93.4331C57.4636 93.4249 57.4762 93.419 57.4895 93.4161L58.6664 93.177C58.678 93.1717 58.6906 93.1689 58.7033 93.1689C58.7161 93.1689 58.7287 93.1717 58.7403 93.177C58.7523 93.1836 58.7627 93.1926 58.7709 93.2036C58.7791 93.2146 58.7849 93.2273 58.7878 93.2407L59.9277 98.874C59.933 98.8856 59.9357 98.8984 59.9357 98.9112C59.9357 98.924 59.933 98.9366 59.9277 98.9483C59.9212 98.9599 59.9121 98.9698 59.9011 98.9772C59.8901 98.9846 59.8775 98.9893 59.8644 98.9909L58.6875 99.2353C58.6759 99.2406 58.6633 99.2433 58.6505 99.2433C58.6378 99.2433 58.6252 99.2406 58.6136 99.2353Z" fill="#00DF8D"/>
<path d="M63.1945 92.0079C63.2004 91.9953 63.2092 91.9844 63.2203 91.9761C63.2313 91.9678 63.2442 91.9623 63.2578 91.9601L64.403 91.6093C64.4284 91.599 64.4568 91.599 64.4822 91.6093C64.4939 91.615 64.5041 91.6232 64.5123 91.6333C64.5205 91.6434 64.5264 91.6552 64.5297 91.6678L66.1763 97.1736C66.1815 97.1852 66.1842 97.1978 66.1842 97.2107C66.1842 97.2235 66.1815 97.2362 66.1763 97.2479C66.1709 97.2604 66.163 97.2717 66.1529 97.2808C66.1429 97.29 66.1311 97.2969 66.1182 97.3011L65.0152 97.6305C64.9928 97.6407 64.9677 97.643 64.9438 97.6373C64.92 97.6315 64.8987 97.6179 64.8833 97.5986L62.0968 95.0531C62.0902 95.0499 62.083 95.0481 62.0757 95.0481C62.0684 95.0481 62.0611 95.0499 62.0546 95.0531C62.0513 95.0597 62.0496 95.0669 62.0496 95.0743C62.0496 95.0817 62.0513 95.089 62.0546 95.0956L62.9781 98.1566C62.9834 98.1683 62.9861 98.181 62.9861 98.1939C62.9861 98.2067 62.9834 98.2194 62.9781 98.2311C62.9638 98.2557 62.9414 98.2744 62.9148 98.2842L61.7696 98.6297C61.7442 98.64 61.7158 98.64 61.6904 98.6297C61.6784 98.6231 61.668 98.614 61.6598 98.6029C61.6516 98.5919 61.6458 98.5793 61.643 98.5658L59.9964 93.0603C59.9911 93.0486 59.9884 93.0358 59.9884 93.023C59.9884 93.0102 59.9911 92.9975 59.9964 92.9858C60.0009 92.9733 60.0087 92.9623 60.0189 92.9539C60.0291 92.9455 60.0414 92.9399 60.0544 92.9379L61.1627 92.5978C61.1853 92.5893 61.21 92.5878 61.2335 92.5934C61.257 92.5991 61.2783 92.6118 61.2946 92.6298L64.0758 95.17C64.0758 95.17 64.0759 95.17 64.1128 95.17C64.1497 95.17 64.1128 95.17 64.1128 95.1328L63.1945 92.077C63.1854 92.0549 63.1854 92.03 63.1945 92.0079Z" fill="#00DF8D"/>
<path d="M67.9125 96.5886C67.9005 96.584 67.8895 96.577 67.8804 96.5678C67.8713 96.5586 67.8642 96.5475 67.8598 96.5354L65.506 91.2955C65.5008 91.2838 65.498 91.2711 65.498 91.2583C65.498 91.2454 65.5008 91.2327 65.506 91.221C65.5102 91.2081 65.517 91.1962 65.5261 91.1861C65.5352 91.176 65.5464 91.168 65.5588 91.1626L67.522 90.2699C67.8839 90.0983 68.2778 90.0059 68.6778 89.9988C69.024 89.9925 69.3648 90.0866 69.6594 90.2699C69.95 90.4564 70.178 90.7268 70.3138 91.0457L71.2268 93.0757C71.3715 93.3891 71.4211 93.7386 71.3693 94.0802C71.3122 94.4258 71.1563 94.7472 70.9207 95.0049C70.6515 95.3021 70.3222 95.5377 69.9549 95.6958L67.9917 96.5886C67.9663 96.5989 67.9379 96.5989 67.9125 96.5886ZM68.72 94.9304L69.5169 94.5691C69.6124 94.5293 69.698 94.4687 69.7674 94.3915C69.8368 94.3143 69.8882 94.2225 69.918 94.1228C69.9752 93.8932 69.9509 93.6507 69.8494 93.4372L69.1316 91.8429C69.0522 91.6128 68.8877 91.4225 68.6725 91.3115C68.5765 91.2667 68.4721 91.2435 68.3664 91.2435C68.2607 91.2435 68.1562 91.2667 68.0603 91.3115L67.274 91.6675C67.2665 91.6754 67.2624 91.6858 67.2624 91.6967C67.2624 91.7075 67.2665 91.7181 67.274 91.726L68.6883 94.872C68.6844 94.8777 68.6821 94.8843 68.6817 94.8913C68.6813 94.8982 68.6829 94.905 68.6862 94.9111C68.6895 94.9172 68.6944 94.9222 68.7004 94.9256C68.7063 94.9291 68.7131 94.9307 68.72 94.9304Z" fill="#00DF8D"/>
<path d="M73.396 93.9256C73.3708 93.916 73.3488 93.8993 73.3326 93.8777L70.4987 88.8876C70.4922 88.8763 70.4888 88.8634 70.4888 88.8503C70.4888 88.8373 70.4922 88.8245 70.4987 88.8132C70.5008 88.7995 70.5063 88.7865 70.5145 88.7753C70.5228 88.7642 70.5337 88.7553 70.5462 88.7494L71.6017 88.1489C71.6142 88.1435 71.6276 88.1406 71.6412 88.1406C71.6548 88.1406 71.6683 88.1435 71.6808 88.1489C71.6938 88.151 71.7061 88.1563 71.7163 88.1648C71.7265 88.1732 71.7343 88.1842 71.7389 88.1967L74.5781 93.1869C74.5862 93.2111 74.5862 93.2371 74.5781 93.2613C74.5686 93.2866 74.5521 93.3088 74.5306 93.3251L73.4751 93.9256C73.4496 93.9349 73.4215 93.9349 73.396 93.9256Z" fill="#00DF8D"/>
<path d="M79.0797 90.1422L78.4622 89.6585C78.4544 89.6533 78.4452 89.6505 78.4358 89.6505C78.4264 89.6505 78.4172 89.6533 78.4094 89.6585L76.8262 90.7852C76.8262 90.7852 76.8262 90.8117 76.8262 90.8383L77.0848 91.5824C77.0959 91.6072 77.0972 91.6353 77.0884 91.661C77.0796 91.6867 77.0613 91.708 77.0373 91.7206L75.9818 92.4805C75.9693 92.4859 75.9558 92.4886 75.9422 92.4886C75.9286 92.4886 75.9151 92.4859 75.9026 92.4805C75.8881 92.4747 75.8751 92.4653 75.865 92.4532C75.8549 92.4412 75.8479 92.4268 75.8446 92.4113L73.9817 86.6826C73.9713 86.6582 73.9698 86.6309 73.9776 86.6056C73.9853 86.5803 74.0017 86.5586 74.0239 86.5444L75.3169 85.6091C75.336 85.5926 75.3603 85.5835 75.3855 85.5835C75.4106 85.5835 75.435 85.5926 75.4541 85.6091L80.2618 89.2122C80.2749 89.22 80.2858 89.2308 80.2935 89.244C80.3199 89.2812 80.2935 89.3237 80.2618 89.3609L79.2063 90.1156C79.1906 90.1328 79.17 90.1446 79.1473 90.1493C79.1245 90.1541 79.1009 90.1517 79.0797 90.1422ZM76.4832 89.7064L77.507 88.9676C77.507 88.9676 77.507 88.9305 77.507 88.9092L75.7232 87.5115C75.7232 87.5115 75.6916 87.5115 75.6863 87.5115C75.6824 87.5169 75.6803 87.5235 75.6803 87.5302C75.6803 87.5369 75.6824 87.5433 75.6863 87.5487L76.4357 89.6745C76.4409 89.717 76.4621 89.7223 76.4832 89.7064Z" fill="#00DF8D"/>
<path d="M23.7775 7.70579L24.7749 7.04682C24.8003 7.03648 24.8287 7.03648 24.8541 7.04682C24.8674 7.04974 24.88 7.05556 24.8909 7.06382C24.9018 7.07207 24.9109 7.08261 24.9174 7.09469L28.0416 11.8776C28.0514 11.9033 28.0514 11.9316 28.0416 11.9573C28.0359 11.9831 28.0209 12.0059 27.9994 12.0211L26.9967 12.6801C26.9713 12.6904 26.9429 12.6904 26.9175 12.6801C26.8919 12.6743 26.8693 12.6591 26.8542 12.6375L24.9966 9.77833C24.9966 9.77833 24.9966 9.75176 24.9649 9.77833C24.962 9.78504 24.9605 9.7923 24.9605 9.79961C24.9605 9.80693 24.962 9.81419 24.9649 9.82089L24.9966 11.2027C24.9995 11.2271 24.995 11.2518 24.9837 11.2736C24.9724 11.2954 24.9548 11.3133 24.9332 11.3249L24.4055 11.6543C24.3853 11.6683 24.3614 11.6757 24.3369 11.6757C24.3124 11.6757 24.2885 11.6683 24.2683 11.6543L23.0122 11.0698C23.0122 11.0698 22.9806 11.0698 22.97 11.0698C22.9595 11.0698 22.97 11.0697 22.97 11.1069L24.833 13.9714C24.8432 13.997 24.8432 14.0255 24.833 14.0511C24.8273 14.0769 24.8122 14.0997 24.7907 14.1149L23.788 14.7739C23.7625 14.7837 23.7344 14.7837 23.7089 14.7739C23.6832 14.7681 23.6607 14.7529 23.6455 14.7313L20.516 9.92183C20.5095 9.91052 20.5061 9.89778 20.5061 9.88472C20.5061 9.87166 20.5095 9.8588 20.516 9.84749C20.5172 9.83346 20.5216 9.81991 20.529 9.80792C20.5363 9.79592 20.5463 9.78574 20.5582 9.77833L21.5557 9.12468C21.5757 9.11302 21.5985 9.10691 21.6216 9.10691C21.6448 9.10691 21.6675 9.11302 21.6876 9.12468L23.6825 10.0282C23.7141 10.0282 23.7247 10.0282 23.7247 10.0016L23.6825 7.81205C23.6844 7.78625 23.6948 7.76187 23.712 7.74264C23.7292 7.72341 23.7522 7.71042 23.7775 7.70579Z" fill="#00DF8D"/>
<path d="M32.448 9.73113L31.9203 9.14118C31.9203 9.14118 31.8833 9.14118 31.8675 9.14118L30.126 9.96493C30.126 9.96493 30.0996 9.96498 30.0996 10.0128L30.221 10.794C30.2265 10.82 30.2226 10.8472 30.21 10.8706C30.1975 10.8939 30.177 10.912 30.1523 10.9215L28.9808 11.453C28.9686 11.4595 28.955 11.4628 28.9412 11.4628C28.9274 11.4628 28.9138 11.4595 28.9016 11.453C28.8877 11.4462 28.8759 11.4356 28.8675 11.4225C28.8591 11.4094 28.8545 11.3941 28.8541 11.3785L28.0625 5.39986C28.0557 5.3752 28.0584 5.34886 28.0702 5.32617C28.0819 5.30348 28.1018 5.28614 28.1258 5.27765L29.5666 4.59207C29.589 4.57817 29.616 4.57378 29.6417 4.57975C29.6673 4.58572 29.6896 4.60159 29.7038 4.62399L33.7727 9.04556C33.7748 9.05608 33.7748 9.06696 33.7727 9.07748C33.7938 9.12354 33.778 9.16072 33.7252 9.18906L32.5536 9.72049C32.5385 9.73149 32.5208 9.73822 32.5022 9.74009C32.4837 9.74195 32.465 9.7389 32.448 9.73113ZM29.9729 8.82772L31.1128 8.29629C31.1392 8.29629 31.1445 8.25902 31.1128 8.23245L29.6352 6.51061C29.6352 6.51061 29.6088 6.51061 29.6035 6.51061C29.5996 6.51603 29.5975 6.52249 29.5975 6.52916C29.5975 6.53584 29.5996 6.54243 29.6035 6.54785L29.9518 8.7958C29.9307 8.82769 29.9465 8.83835 29.9729 8.82772Z" fill="#00DF8D"/>
<path d="M34.7384 8.82187C34.7143 8.80952 34.6956 8.78867 34.6857 8.76335L32.9599 3.28424C32.9522 3.25824 32.9522 3.23057 32.9599 3.20457C32.9665 3.19248 32.9755 3.18195 32.9864 3.17369C32.9973 3.16544 33.0099 3.15961 33.0233 3.1567L35.0762 2.49772C35.4547 2.36984 35.8558 2.32455 36.2531 2.36486C36.5982 2.39697 36.9266 2.52995 37.1977 2.74748C37.4646 2.96588 37.6596 3.26048 37.7571 3.59251L38.4274 5.71825C38.5386 6.04599 38.5478 6.40008 38.4538 6.73324C38.3641 7.067 38.1809 7.36778 37.926 7.59954C37.6187 7.86424 37.2589 8.05982 36.8705 8.17341L34.8176 8.82719C34.8049 8.83247 34.7911 8.83473 34.7774 8.83381C34.7637 8.83288 34.7503 8.82881 34.7384 8.82187ZM35.7306 7.26999L36.5592 7.00428C36.6593 6.97557 36.7519 6.92501 36.8303 6.85611C36.9088 6.78721 36.9712 6.70168 37.013 6.6057C37.0956 6.38476 37.0956 6.14107 37.013 5.92013L36.4853 4.25148C36.4246 4.022 36.2817 3.82322 36.0842 3.69345C35.9925 3.63934 35.8903 3.60611 35.7845 3.59601C35.6788 3.58591 35.5721 3.59926 35.472 3.63507L34.654 3.89546C34.654 3.89546 34.6171 3.92196 34.654 3.94853L35.7095 7.23821C35.6884 7.27009 35.7042 7.27531 35.7306 7.26999Z" fill="#00DF8D"/>
<path d="M43.2669 1.7803C43.2596 1.79229 43.2495 1.80237 43.2376 1.80976C43.2257 1.81714 43.2123 1.82152 43.1983 1.82273L40.5913 2.31706C40.5913 2.31706 40.5543 2.31698 40.5596 2.3648L40.7496 3.39044C40.7496 3.42232 40.7496 3.43299 40.8023 3.42767L42.47 3.11421C42.4816 3.10893 42.4942 3.10617 42.507 3.10617C42.5197 3.10617 42.5323 3.10893 42.5439 3.11421C42.5654 3.12944 42.5804 3.15211 42.5861 3.17791L42.7656 4.1558C42.7708 4.16749 42.7735 4.18008 42.7735 4.19291C42.7735 4.20574 42.7708 4.21845 42.7656 4.23014C42.759 4.24173 42.7499 4.25169 42.7389 4.25908C42.7279 4.26646 42.7154 4.2711 42.7022 4.2727L41.0345 4.59148C41.0082 4.59148 40.9976 4.59153 41.0029 4.63936L41.2034 5.73946C41.2034 5.77135 41.2034 5.78202 41.2562 5.7767L43.8633 5.28237C43.8749 5.27709 43.8875 5.27433 43.9002 5.27433C43.913 5.27433 43.9255 5.27709 43.9371 5.28237C43.9589 5.29959 43.9739 5.32416 43.9794 5.35153L44.1641 6.3346C44.1744 6.36017 44.1744 6.38883 44.1641 6.4144C44.1477 6.43714 44.123 6.45234 44.0955 6.45682L40.1691 7.19559C40.1575 7.20087 40.1449 7.20363 40.1321 7.20363C40.1194 7.20363 40.1068 7.20087 40.0952 7.19559C40.0737 7.18036 40.0587 7.15756 40.0529 7.13176L38.9975 1.47735C38.9922 1.46566 38.9895 1.45294 38.9895 1.44011C38.9895 1.42729 38.9922 1.41457 38.9975 1.40288C39.0138 1.38013 39.0385 1.36493 39.0661 1.36045L42.9925 0.621684C43.0041 0.616402 43.0167 0.61377 43.0294 0.61377C43.0422 0.61377 43.0548 0.616402 43.0664 0.621684C43.0878 0.636914 43.1029 0.659713 43.1086 0.685518L43.2933 1.67391C43.3011 1.69209 43.3027 1.71245 43.2979 1.73165C43.2932 1.75085 43.2823 1.76795 43.2669 1.7803Z" fill="#00DF8D"/>
<path d="M47.3569 6.16982C47.3465 6.1605 47.3383 6.14894 47.3328 6.13609C47.3274 6.12323 47.3247 6.10933 47.3252 6.09535L47.0508 0.355831C47.0414 0.331934 47.0414 0.305383 47.0508 0.281487C47.0589 0.271172 47.0694 0.262889 47.0813 0.257354C47.0932 0.25182 47.1063 0.249154 47.1194 0.24957L48.3174 0.191185C48.3411 0.181715 48.3675 0.181715 48.3912 0.191185C48.4015 0.199433 48.4097 0.209942 48.4151 0.221934C48.4206 0.233926 48.4233 0.247008 48.4229 0.260209L48.6973 5.99972C48.7026 6.01142 48.7053 6.02413 48.7053 6.03696C48.7053 6.04979 48.7026 6.06238 48.6973 6.07407C48.6789 6.09342 48.6549 6.10647 48.6287 6.11131L47.4307 6.16982C47.4067 6.17792 47.3808 6.17792 47.3569 6.16982Z" fill="#00DF8D"/>
<path d="M53.579 0.297909C53.6031 0.290515 53.6289 0.290515 53.6529 0.297909L54.8509 0.356294C54.864 0.355878 54.8771 0.358544 54.889 0.364079C54.9009 0.369614 54.9113 0.377896 54.9195 0.388211C54.9286 0.39819 54.9357 0.40994 54.9403 0.422724C54.9448 0.435507 54.9467 0.449134 54.9459 0.462685L54.6715 6.20207C54.6719 6.21605 54.6693 6.22996 54.6638 6.24281C54.6584 6.25567 54.6502 6.26723 54.6398 6.27655C54.6158 6.28465 54.5899 6.28465 54.5659 6.27655L53.4207 6.21803C53.396 6.21972 53.3714 6.21338 53.3505 6.2C53.3297 6.18661 53.3136 6.16693 53.3046 6.14369L51.5208 2.80626C51.5208 2.80626 51.5208 2.77969 51.4892 2.80626C51.4575 2.83284 51.4892 2.8063 51.4892 2.8435L51.3467 6.03211C51.3471 6.04531 51.3445 6.05839 51.339 6.07038C51.3335 6.08237 51.3253 6.09288 51.315 6.10113C51.3051 6.11033 51.2935 6.11745 51.2808 6.12202C51.2681 6.12659 51.2546 6.12853 51.2411 6.12773L50.0432 6.06921C50.0293 6.06966 50.0155 6.06707 50.0027 6.06156C49.9899 6.05605 49.9785 6.04786 49.9693 6.03743C49.964 6.02574 49.9613 6.01302 49.9613 6.00019C49.9613 5.98736 49.964 5.97464 49.9693 5.96295L50.2437 0.223436C50.2428 0.210175 50.2453 0.196967 50.2508 0.184901C50.2563 0.172836 50.2648 0.162357 50.2754 0.154411C50.2835 0.144339 50.2941 0.136627 50.3062 0.131966C50.3182 0.127304 50.3312 0.125829 50.344 0.127814L51.4997 0.181009C51.5241 0.180822 51.5481 0.18766 51.5687 0.20086C51.5893 0.21406 51.6057 0.233002 51.6159 0.255353L53.3943 3.58214C53.3943 3.58214 53.3943 3.60873 53.426 3.60873C53.4293 3.60308 53.4309 3.59658 53.4309 3.59005C53.4309 3.58352 53.4293 3.57715 53.426 3.5715L53.5685 0.382892C53.5626 0.369047 53.5605 0.353848 53.5624 0.338908C53.5642 0.323969 53.57 0.309872 53.579 0.297909Z" fill="#00DF8D"/>
<path d="M58.0068 6.78066C57.9971 6.75499 57.9971 6.72666 58.0068 6.701L59.094 1.0571C59.1019 1.0309 59.1187 1.00839 59.1415 0.993396C59.1531 0.988113 59.1657 0.985352 59.1784 0.985352C59.1911 0.985352 59.2037 0.988113 59.2153 0.993396L60.3922 1.2272C60.4054 1.2288 60.4179 1.23343 60.4289 1.24082C60.4399 1.2482 60.449 1.25804 60.4556 1.26962C60.4608 1.28131 60.4635 1.29403 60.4635 1.30686C60.4635 1.31969 60.4608 1.33241 60.4556 1.3441L59.3684 6.98786C59.3627 7.01367 59.3476 7.03647 59.3262 7.0517C59.3008 7.06204 59.2724 7.06204 59.247 7.0517L58.0701 6.82322C58.0445 6.81747 58.0219 6.80227 58.0068 6.78066Z" fill="#00DF8D"/>
<path d="M65.4427 2.56722C65.4681 2.55688 65.4965 2.55688 65.5219 2.56722L66.6671 2.90728C66.6929 2.91565 66.7152 2.93253 66.7304 2.95515C66.7407 2.98072 66.7407 3.00925 66.7304 3.03482L65.1102 8.54585C65.1073 8.5593 65.1016 8.57196 65.0934 8.58296C65.0852 8.59397 65.0748 8.60299 65.0628 8.60956C65.0388 8.61766 65.0128 8.61766 64.9889 8.60956L63.8859 8.28014C63.8627 8.27477 63.8416 8.26293 63.8248 8.24601C63.808 8.2291 63.7962 8.2077 63.7909 8.18439L62.8462 4.51222C62.8449 4.50508 62.8418 4.49834 62.8372 4.49276C62.8326 4.48718 62.8266 4.4829 62.8198 4.4803C62.8198 4.4803 62.8198 4.48033 62.8198 4.51222L61.9227 7.58393C61.9207 7.59705 61.9152 7.60933 61.9069 7.61961C61.8985 7.62989 61.8876 7.63772 61.8752 7.64231C61.8635 7.64728 61.8509 7.64997 61.8382 7.64997C61.8256 7.64997 61.813 7.64728 61.8013 7.64231L60.6508 7.29693C60.6372 7.29478 60.6243 7.28931 60.6132 7.28097C60.6022 7.27263 60.5934 7.26163 60.5875 7.24906C60.5821 7.23646 60.5793 7.22293 60.5793 7.20922C60.5793 7.19552 60.5821 7.18198 60.5875 7.16939L62.2076 1.65849C62.2097 1.64536 62.2151 1.63296 62.2235 1.62268C62.2318 1.6124 62.2428 1.60456 62.2552 1.59997C62.2677 1.59456 62.2811 1.5918 62.2947 1.5918C62.3084 1.5918 62.3218 1.59456 62.3343 1.59997L63.4426 1.92939C63.4659 1.93626 63.4869 1.94928 63.5036 1.96702C63.5203 1.98476 63.532 2.00668 63.5376 2.03046L64.477 5.69199V5.71859C64.477 5.71859 64.477 5.71856 64.5034 5.68667L65.3952 2.63092C65.3974 2.61719 65.4028 2.60428 65.4111 2.59317C65.4194 2.58205 65.4302 2.57313 65.4427 2.56722Z" fill="#00DF8D"/>
<path d="M66.1923 9.02931C66.182 9.00375 66.182 8.97522 66.1923 8.94965L68.5038 3.69369C68.5083 3.68154 68.5153 3.67056 68.5244 3.66139C68.5335 3.65222 68.5445 3.64515 68.5566 3.64063C68.5691 3.63522 68.5825 3.63232 68.5961 3.63232C68.6098 3.63232 68.6232 3.63522 68.6357 3.64063L70.6042 4.51744C70.9735 4.67505 71.306 4.90856 71.5805 5.20301C71.8164 5.45918 71.974 5.77837 72.0344 6.12238C72.0908 6.46345 72.043 6.81367 71.8972 7.12674L71 9.16749C70.8671 9.48646 70.643 9.75838 70.3562 9.94869C70.0621 10.1339 69.7213 10.2298 69.3746 10.225C68.973 10.2221 68.5769 10.1314 68.2135 9.95933L66.245 9.08251C66.233 9.07799 66.222 9.07079 66.2129 9.06162C66.2038 9.05245 66.1968 9.04147 66.1923 9.02931ZM67.9602 8.5298L68.7571 8.8805C68.8503 8.92495 68.9522 8.94797 69.0553 8.94797C69.1584 8.94797 69.2603 8.92495 69.3535 8.8805C69.5642 8.77483 69.7293 8.59532 69.8179 8.37566L70.5198 6.78136C70.6272 6.56941 70.6499 6.32405 70.5831 6.09579C70.5503 5.99517 70.496 5.90306 70.424 5.82592C70.3519 5.74878 70.2639 5.68844 70.1662 5.64934L69.3798 5.29864C69.3764 5.29421 69.372 5.29071 69.367 5.28826C69.3619 5.2858 69.3564 5.28449 69.3508 5.28449C69.3452 5.28449 69.3397 5.2858 69.3347 5.28826C69.3297 5.29071 69.3253 5.29421 69.3218 5.29864L67.9391 8.45532C67.9329 8.46062 67.9284 8.46763 67.9261 8.47543C67.9237 8.48324 67.9237 8.49159 67.9259 8.49944C67.9281 8.50728 67.9325 8.51429 67.9386 8.51968C67.9447 8.52506 67.9522 8.52859 67.9602 8.5298Z" fill="#00DF8D"/>
<path d="M71.2426 11.4147C71.2323 11.3892 71.2323 11.3606 71.2426 11.3351L74.0238 6.31822C74.0291 6.30571 74.0371 6.29456 74.0471 6.28539C74.0571 6.27623 74.0689 6.26933 74.0818 6.26515C74.1076 6.25732 74.1352 6.25732 74.161 6.26515L75.2165 6.85497C75.2283 6.86037 75.2388 6.86857 75.247 6.87871C75.2552 6.88885 75.2611 6.90071 75.264 6.91349C75.2693 6.92608 75.2721 6.93961 75.2721 6.95332C75.2721 6.96702 75.2693 6.98056 75.264 6.99315L72.4828 12.0153C72.4675 12.0379 72.4453 12.0547 72.4194 12.0631C72.4078 12.0683 72.3952 12.0711 72.3825 12.0711C72.3697 12.0711 72.3571 12.0683 72.3455 12.0631L71.29 11.4786C71.2685 11.4622 71.2521 11.4401 71.2426 11.4147Z" fill="#00DF8D"/>
<path d="M76.6045 14.7581L76.8526 14.0088C76.8572 14.0007 76.8596 13.9916 76.8596 13.9822C76.8596 13.9729 76.8572 13.9637 76.8526 13.9556L75.2693 12.8502C75.2615 12.845 75.2523 12.8422 75.2429 12.8422C75.2335 12.8422 75.2244 12.845 75.2166 12.8502L74.6044 13.3445C74.5844 13.3614 74.5592 13.3706 74.5331 13.3706C74.5071 13.3706 74.4818 13.3614 74.4619 13.3445L73.4064 12.6004C73.3826 12.5841 73.3657 12.5596 73.3589 12.5314C73.3603 12.5154 73.3653 12.4998 73.3735 12.486C73.3818 12.4722 73.393 12.4604 73.4064 12.4516L78.1561 8.77947C78.1752 8.763 78.1996 8.75391 78.2247 8.75391C78.2499 8.75391 78.2742 8.763 78.2933 8.77947L79.6021 9.69884C79.6248 9.71126 79.6418 9.73196 79.6497 9.7567C79.6575 9.78145 79.6556 9.80833 79.6443 9.8317L77.8711 15.5925C77.8756 15.6063 77.8756 15.6211 77.8711 15.6349C77.8395 15.6774 77.8025 15.6774 77.7497 15.6349L76.6942 14.891C76.6659 14.8835 76.6412 14.8658 76.6247 14.8414C76.6082 14.817 76.601 14.7874 76.6045 14.7581ZM76.1507 12.1435L77.2062 12.8715C77.2062 12.8715 77.2537 12.8715 77.2642 12.8715L77.9767 10.7085C77.9767 10.7085 77.9767 10.6767 77.9767 10.6714C77.9767 10.6661 77.9767 10.6714 77.9397 10.6714L76.1823 12.1009C76.1823 12.1009 76.1243 12.1275 76.1507 12.1435Z" fill="#00DF8D"/>
<path d="M48.386 38.6039C48.4968 38.9175 48.6076 39.2098 48.7026 39.5021C48.738 39.5988 48.7935 39.6867 48.8654 39.7601C48.9373 39.8334 49.024 39.8903 49.1195 39.9272C49.7264 40.2088 50.3228 40.5065 50.9455 40.735C53.2043 41.58 55.5264 42.223 57.8484 42.8607C58.7667 43.1105 59.685 43.3391 60.6033 43.5782C61.025 43.6924 61.4692 43.6924 61.891 43.5782C62.4609 43.4241 63.0256 43.2594 63.5956 43.1C63.7753 43.0521 63.9411 42.9614 64.0788 42.8357C64.2166 42.7099 64.3223 42.5527 64.3872 42.3772C64.4822 42.138 64.5666 41.8882 64.6616 41.6543C64.7091 41.5205 64.7828 41.3977 64.8783 41.293C64.9738 41.1884 65.0892 41.104 65.2176 41.0451C65.3461 40.9861 65.4849 40.9537 65.626 40.9497C65.7671 40.9457 65.9075 40.9703 66.039 41.022C66.4944 41.1695 66.9061 41.4289 67.237 41.7767C67.409 41.978 67.6341 42.1263 67.8862 42.2043C68.1383 42.2824 68.4073 42.287 68.6619 42.2177C68.91 42.1646 69.1633 42.1115 69.4113 42.0477C70.0763 41.8617 70.7412 41.6704 71.4062 41.5163C71.9037 41.3831 72.3737 41.1616 72.7942 40.8625C73.5752 40.2992 74.351 39.7306 75.1215 39.1566C75.6453 38.762 76.1078 38.291 76.4936 37.759C76.6625 37.5305 76.8367 37.302 77.0214 37.0894C77.1856 36.8811 77.3919 36.7104 77.6267 36.5886C77.8614 36.4667 78.1192 36.3965 78.383 36.3826C79.0727 36.3466 79.7589 36.2595 80.4359 36.1222C80.6624 36.077 80.8955 36.077 81.122 36.1222C81.3946 36.153 81.6446 36.2895 81.8189 36.5028C81.9933 36.7161 82.0784 36.9895 82.0561 37.2648C82.0346 37.4306 82.0774 37.5983 82.1758 37.7329C82.2741 37.8676 82.4203 37.9588 82.5838 37.9875C82.8002 38.0566 83.0166 38.1416 83.2277 38.2319C83.443 38.2986 83.6246 38.4462 83.7346 38.6441C83.8447 38.8421 83.8748 39.0751 83.8187 39.2948C83.7766 39.5375 83.8196 39.7873 83.9401 40.0017C84.0131 40.1218 84.0715 40.2502 84.1143 40.3843C84.153 40.4681 84.1674 40.5613 84.1556 40.653C84.1439 40.7447 84.1066 40.8311 84.048 40.9023C83.9895 40.9736 83.912 41.0266 83.8248 41.0553C83.7375 41.084 83.6439 41.0872 83.5549 41.0645C83.454 41.0504 83.3549 41.0254 83.2593 40.99C82.9534 40.8873 82.6265 40.8651 82.3096 40.9256C81.9928 40.986 81.6965 41.1272 81.4492 41.3356C81.0283 41.6747 80.6891 42.1052 80.457 42.595C80.0728 43.3984 79.8078 44.2543 79.6707 45.1353C79.5446 45.9512 79.3378 46.7523 79.0532 47.5267C78.9566 47.7788 78.8327 48.0195 78.6838 48.2442C78.6238 48.3597 78.5417 48.462 78.4421 48.5452C78.3426 48.6284 78.2276 48.6909 78.1038 48.7289C77.9801 48.767 77.8501 48.7799 77.7213 48.7669C77.5926 48.754 77.4677 48.7154 77.3539 48.6534L77.1375 48.5843C77.1375 48.9988 77.1005 49.3814 77.09 49.764C77.09 49.9872 77.09 50.2051 77.09 50.423C77.0987 50.5128 77.0879 50.6035 77.0583 50.6887C76.9106 51.0612 76.8632 51.4665 76.9211 51.8633C76.9265 52.2211 76.826 52.5723 76.6324 52.8723C76.4388 53.1724 76.1608 53.4076 75.834 53.5479C75.7563 53.5887 75.6709 53.6123 75.5834 53.6171C75.4959 53.6218 75.4084 53.6075 75.3269 53.5753C75.2453 53.543 75.1716 53.4935 75.1107 53.4301C75.0498 53.3667 75.0031 53.291 74.9737 53.2079C74.8931 52.9923 74.8313 52.77 74.789 52.5436C74.666 51.97 74.4709 51.4146 74.2085 50.8907L74.0238 51.199C73.9588 51.3468 73.8553 51.4742 73.7243 51.5677C73.5934 51.6613 73.4397 51.7175 73.2797 51.7304C73.1098 51.7222 72.9464 51.6624 72.8108 51.5591C72.6752 51.4557 72.5737 51.3135 72.5197 51.1511C72.3125 50.7711 72.2008 50.3457 72.1944 49.9122C72.188 49.4787 72.287 49.0502 72.4828 48.6641C72.7462 48.2328 72.9253 47.7547 73.0105 47.2557C73.0597 47.0555 73.0295 46.8439 72.9261 46.6659C72.7821 46.6552 72.6374 46.6552 72.4934 46.6659L69.8018 47.091C69.6621 47.1327 69.5147 47.1412 69.3711 47.1163C69.2275 47.0914 69.0915 47.0336 68.9737 46.9473C68.8558 46.861 68.7592 46.7485 68.6915 46.6186C68.6237 46.4887 68.5865 46.3448 68.5827 46.1981C68.5627 46.0579 68.515 45.9233 68.4425 45.8019C68.37 45.6805 68.2742 45.575 68.1606 45.4914C67.9495 45.3426 67.7595 45.1672 67.5484 45.0237C67.3753 44.8876 67.1724 44.7954 66.9565 44.7547C66.7407 44.714 66.5184 44.7261 66.3082 44.7899C66.1099 44.8416 65.9362 44.962 65.8174 45.1299C65.8228 45.2277 65.8486 45.3232 65.8932 45.4102C65.9378 45.4972 66 45.5738 66.076 45.6349C66.2818 45.8422 66.5087 46.0334 66.7304 46.2354C66.8302 46.3147 66.9254 46.3999 67.0154 46.4904C67.0705 46.5361 67.1105 46.5977 67.1297 46.6669C67.149 46.7361 67.1466 46.8096 67.123 46.8775C67.0994 46.9453 67.0557 47.0043 66.9977 47.0463C66.9398 47.0883 66.8704 47.1112 66.799 47.1122C66.7356 47.1122 66.6723 47.1122 66.5879 47.1122C66.4656 47.3335 66.4095 47.5858 66.4263 47.8385C66.4432 48.0912 66.5323 48.3337 66.6829 48.5365C66.9824 48.9867 67.1839 49.4955 67.274 50.0298C67.3458 50.5078 67.5947 50.9407 67.9706 51.2414C68.1992 51.4336 68.3572 51.6975 68.4191 51.9908C68.6157 52.7009 68.6872 53.4401 68.6303 54.175C68.6193 54.4311 68.5094 54.6728 68.3241 54.8485C68.1388 55.0242 67.8926 55.12 67.6381 55.1156C66.2554 55.0784 64.9994 55.6471 63.7011 55.9234C63.5982 55.9643 63.5007 56.0179 63.4109 56.0829C63.4434 56.2087 63.4821 56.3329 63.5269 56.4548C63.6647 56.7002 63.7032 56.9897 63.6344 57.2629C63.5656 57.5361 63.3948 57.772 63.1576 57.9216L58.4078 61.6416C56.9724 62.7577 55.5316 63.879 54.0856 64.9897C53.9096 65.1113 53.7608 65.2686 53.649 65.4517C53.5372 65.6348 53.4648 65.8395 53.4365 66.0526C53.4089 66.2783 53.3178 66.4914 53.1737 66.6665C53.0297 66.8417 52.8388 66.9716 52.6238 67.041C52.3968 67.1313 52.1646 67.2005 51.9324 67.2802C51.504 67.4208 51.1175 67.6674 50.8083 67.9976C50.2806 68.529 49.8162 69.0604 49.299 69.5919C49.1149 69.771 48.97 69.9871 48.8737 70.2259C48.7773 70.4648 48.7316 70.7213 48.7396 70.979C48.7396 73.9338 48.7396 76.8885 48.7396 79.8433C48.7449 80.0217 48.729 80.2001 48.6921 80.3747C48.662 80.57 48.5576 80.7458 48.4009 80.8649C48.2442 80.9839 48.0477 81.0368 47.853 81.0124C47.6991 80.9993 47.5448 81.031 47.4082 81.1035C47.2716 81.176 47.1586 81.2864 47.0824 81.4216C46.8133 81.8308 46.5547 82.2401 46.2803 82.6493C46.1187 82.9162 45.9056 83.1477 45.6536 83.3303C45.4016 83.5129 45.1158 83.6427 44.8131 83.7121C44.0849 83.8822 44.0426 83.9354 44.0004 84.6953C44.0019 84.8216 43.978 84.9467 43.9299 85.0633C43.8818 85.1799 43.8107 85.2854 43.7208 85.3734C43.6309 85.4614 43.5243 85.53 43.4072 85.5751C43.2901 85.6203 43.1652 85.6409 43.0399 85.6359C42.9133 85.6359 42.7813 85.6359 42.6547 85.6359C42.2324 85.5898 41.8064 85.6772 41.4356 85.8857C41.3747 85.9307 41.304 85.9599 41.2294 85.9711C41.1547 85.9823 41.0785 85.9751 41.0073 85.95C40.9361 85.9249 40.8721 85.8826 40.8207 85.827C40.7694 85.7713 40.7322 85.7039 40.7126 85.6305C40.5928 85.3594 40.5179 85.0705 40.4909 84.775C40.4183 83.9372 40.1853 83.1215 39.8049 82.3729C39.2705 81.1876 38.6624 80.0374 37.9841 78.9292C37.2325 77.6979 36.588 76.4035 36.0578 75.0604C35.4193 73.4661 34.7491 71.8718 34.0683 70.2775C33.7018 69.4394 33.4531 68.5541 33.3294 67.6469C33.2224 66.7898 33.0297 65.9459 32.7542 65.1279C32.6396 64.7583 32.567 64.3767 32.5378 63.9905C32.5085 63.6832 32.4226 63.3841 32.2845 63.1084C32.0945 62.7417 31.894 62.3803 31.6829 62.0455C31.377 61.5716 31.2189 61.0164 31.229 60.4512C31.2557 59.4073 31.16 58.3637 30.944 57.3423L30.9123 57.1883C30.754 57.1883 30.6802 57.2945 30.5746 57.3583C30.0859 57.6849 29.5144 57.8635 28.9279 57.873C28.3413 57.8824 27.7645 57.7222 27.2656 57.4114C27.1301 57.337 27.0043 57.246 26.8909 57.1404C26.2471 56.4814 25.5979 55.8171 24.9699 55.1422C24.7809 54.931 24.6212 54.695 24.495 54.4407C24.2628 53.9837 24.4633 53.6435 24.9699 53.6169C25.4548 53.5683 25.9269 53.4314 26.3632 53.213C26.4045 53.1711 26.4433 53.1267 26.4793 53.0802C26.2524 53.0802 26.0782 53.0802 25.9093 53.0802C25.5198 53.1077 25.1293 53.0438 24.7684 52.8935C24.4076 52.7432 24.0864 52.5106 23.83 52.214C23.4902 51.8428 23.2058 51.4239 22.9856 50.9704C22.9207 50.8306 22.8762 50.6821 22.8537 50.5294C22.8216 50.3764 22.8403 50.217 22.9071 50.0758C22.9738 49.9346 23.0849 49.8195 23.2231 49.7482C23.2546 49.7256 23.2882 49.706 23.3234 49.6897C24.1753 49.2709 25.0734 48.9552 25.999 48.749C26.3663 48.6992 26.7367 48.6762 27.1073 48.68L28.2103 48.6109C28.2698 48.5995 28.3269 48.578 28.3792 48.5472C28.3792 48.51 28.4108 48.478 28.3792 48.462C28.1396 48.0353 27.9838 47.5663 27.92 47.0804C27.8524 46.6946 27.6951 46.3304 27.4609 46.0175C26.9827 45.2998 26.5694 44.5404 26.226 43.7483C26.0796 43.435 26.0525 43.0785 26.1498 42.7464C26.247 42.4143 26.4619 42.1298 26.7537 41.9467C27.1049 41.7014 27.5244 41.5749 27.9517 41.5853C28.5797 41.5853 29.2077 41.5853 29.8305 41.5853C30.1666 41.6029 30.4973 41.495 30.7593 41.2824C31.1076 40.9954 31.4401 40.6925 31.7673 40.3896C31.8544 40.2966 31.9241 40.1886 31.9731 40.0707C32.0027 39.97 32.0696 39.8846 32.16 39.8322C32.2503 39.7798 32.3573 39.7644 32.4586 39.7891C32.5172 39.8071 32.5787 39.8132 32.6396 39.8072C32.7006 39.8011 32.7597 39.783 32.8137 39.7538C32.8676 39.7247 32.9153 39.6851 32.954 39.6373C32.9927 39.5896 33.0217 39.5346 33.0392 39.4755C33.1236 39.3002 33.1817 39.1142 33.2714 38.9441C33.4271 38.6161 33.6033 38.2983 33.7991 37.9928C33.9001 37.808 34.0567 37.6601 34.2463 37.5704C34.4359 37.4806 34.6488 37.4537 34.8546 37.4933C34.9759 37.5013 35.0975 37.5013 35.2188 37.4933C35.2188 37.3179 35.2188 37.1797 35.2188 37.0415C35.219 36.7435 35.2849 36.4493 35.4118 36.18C35.5386 35.9108 35.7232 35.6732 35.9523 35.4845L36.042 35.41C36.3021 35.2422 36.515 35.01 36.6601 34.7354C36.8052 34.4609 36.8777 34.1532 36.8706 33.8423C36.8556 33.4788 36.9595 33.1204 37.1661 32.822C37.2283 32.7191 37.2654 32.603 37.2746 32.4829C37.2838 32.3629 37.2647 32.2423 37.2189 32.1311C36.7703 31.7644 36.3692 31.4296 35.9576 31.1054C35.8051 30.9681 35.6388 30.847 35.4615 30.7441C35.2298 30.6308 35.0517 30.4304 34.9654 30.1861C34.6888 29.5016 34.4871 28.7888 34.3638 28.0603C34.3184 27.8114 34.3357 27.555 34.4141 27.3146C34.4924 27.0741 34.6294 26.8573 34.8124 26.6839C35.0823 26.4645 35.2943 26.1816 35.4298 25.8601C35.3182 25.6838 35.1537 25.5479 34.9602 25.4722C34.2794 25.1108 33.588 24.7707 32.9019 24.4093C32.7542 24.3349 32.6011 24.2712 32.4322 24.1915C32.4568 24.0895 32.4904 23.9899 32.5325 23.8938C32.7383 23.5059 32.9336 23.1127 33.1658 22.746C33.4275 22.3252 33.8329 22.0152 34.3057 21.8744C34.4963 21.8018 34.6744 21.6997 34.8335 21.5715C35.0582 21.4026 35.3099 21.2732 35.5776 21.1889C36.2636 20.9883 36.9743 20.8863 37.6886 20.886C37.9461 20.8801 38.202 20.9291 38.4394 21.0299C38.6768 21.1306 38.8903 21.2807 39.066 21.4705C39.3879 21.8 39.7046 22.1402 40.0212 22.4803C40.3965 22.8886 40.8714 23.1908 41.3986 23.3571C41.9657 23.5619 42.5562 23.6941 43.156 23.7504C43.4241 23.7709 43.6937 23.7567 43.9582 23.7079C44.444 23.5923 44.942 23.5369 45.4412 23.5431C46.1061 23.5431 46.7711 23.5803 47.436 23.6388C47.7136 23.6554 47.9779 23.764 48.1879 23.9476C48.3979 24.1311 48.5417 24.3794 48.5971 24.6538C48.6862 24.9585 48.7064 25.2795 48.6562 25.5931C48.606 25.9067 48.4866 26.205 48.3068 26.466C48.0324 26.8699 47.7316 27.2579 47.4255 27.6405C47.2582 27.8728 47.0123 28.0354 46.7341 28.0976C46.6463 28.1165 46.5661 28.1616 46.504 28.2269C46.4419 28.2923 46.4007 28.375 46.3858 28.4642C46.3365 28.6411 46.3224 28.826 46.3441 29.0084C46.3658 29.1908 46.423 29.367 46.5125 29.5271C46.6127 29.7184 46.7341 29.9043 46.8291 30.101C46.9198 30.2423 46.9784 30.4022 47.0006 30.569C47.0229 30.7357 47.0083 30.9053 46.9578 31.0657C46.9074 31.2262 46.8224 31.3735 46.709 31.497C46.5955 31.6205 46.4563 31.7173 46.3014 31.7804C46.0157 31.8891 45.7207 31.9709 45.42 32.0248C45.3119 32.0464 45.2026 32.0624 45.0928 32.0727C45.1302 32.1627 45.1743 32.2498 45.2248 32.3331C45.3831 32.5988 45.5572 32.8645 45.7156 33.1196C45.994 33.5666 46.3833 33.9329 46.8449 34.1825C47.7527 34.6927 48.6569 35.2063 49.5576 35.7236C49.6709 35.7807 49.7786 35.8484 49.8795 35.9256C49.9716 35.9855 50.0481 36.0668 50.1026 36.1626C50.1571 36.2585 50.1879 36.3661 50.1926 36.4765C50.1972 36.5868 50.1756 36.6967 50.1293 36.7968C50.0831 36.897 50.0137 36.9846 49.927 37.0522C49.4837 37.4773 49.0509 37.9184 48.6129 38.3542C48.5179 38.4339 48.4651 38.5083 48.386 38.6039Z" fill="white"/>
<path d="M41.0768 86.5125C40.9708 86.5119 40.8657 86.4939 40.7655 86.4593C40.6267 86.4068 40.5009 86.3244 40.397 86.218C40.2931 86.1115 40.2135 85.9835 40.1638 85.8429C40.0164 85.5175 39.9271 85.1685 39.8999 84.8119C39.8324 84.0418 39.6154 83.2924 39.2614 82.6064C38.7385 81.4401 38.1409 80.3094 37.4723 79.2212C36.705 77.9651 36.0482 76.6438 35.5091 75.2726C34.9391 73.8483 34.3058 72.3337 33.5195 70.4897C33.136 69.6051 32.875 68.6717 32.7437 67.7156C32.6502 66.8953 32.4733 66.0868 32.216 65.3029C32.0879 64.8973 32.0065 64.4783 31.9732 64.0541C31.9349 63.8164 31.8582 63.5866 31.7463 63.3738C31.5669 63.0231 31.3716 62.6723 31.1605 62.3109C30.8038 61.7541 30.62 61.1028 30.6328 60.4403C30.6519 59.6217 30.5936 58.8031 30.4586 57.9956C29.9125 58.2896 29.2992 58.4337 28.6803 58.4132C28.0615 58.3926 27.4589 58.2083 26.9333 57.8787C26.7535 57.7823 26.5882 57.6607 26.4425 57.5174C25.7881 56.8478 25.1336 56.1835 24.5109 55.5086C24.2853 55.2651 24.0968 54.9893 23.9515 54.6901C23.8588 54.5296 23.8074 54.3484 23.8019 54.1628C23.7963 53.9773 23.8369 53.7931 23.9198 53.6273C24.01 53.4786 24.135 53.3545 24.284 53.2659C23.9535 53.083 23.6557 52.8459 23.4026 52.5644C23.0309 52.1545 22.7199 51.6928 22.4791 51.1934C22.3837 51.0035 22.3212 50.7985 22.2944 50.5875C22.2496 50.3287 22.2866 50.0623 22.4002 49.8259C22.5138 49.5894 22.6983 49.3947 22.9277 49.2695L23.0596 49.2005C23.9494 48.7609 24.8885 48.4308 25.8567 48.2173C26.1373 48.1687 26.4216 48.1456 26.7063 48.1483H27.0388H27.118L27.6457 48.1164C27.532 47.8072 27.4524 47.4864 27.4082 47.1597C27.3507 46.8583 27.2242 46.5744 27.0388 46.3307C26.5415 45.5866 26.1122 44.7987 25.7564 43.9765C25.5567 43.5504 25.5178 43.0657 25.647 42.613C25.7762 42.1602 26.0645 41.7703 26.4583 41.516C26.8963 41.2147 27.4161 41.0568 27.9465 41.0642H28.5429C28.9809 41.0642 29.4136 41.0642 29.8517 41.0642C30.0594 41.0738 30.2636 41.0077 30.4269 40.8782C30.7172 40.639 31.0338 40.3468 31.4085 40.0067C31.4085 40.0067 31.4455 39.9694 31.493 39.8578C31.5721 39.6507 31.7215 39.4783 31.9147 39.3713C32.1078 39.2643 32.3323 39.2296 32.5485 39.2732C32.5854 39.2041 32.6118 39.1298 32.6435 39.0554C32.6751 38.981 32.7332 38.8427 32.7859 38.7365L32.8704 38.5612C33.0054 38.2778 33.157 38.0027 33.3242 37.7374C33.4615 37.5011 33.6593 37.3063 33.897 37.1736C34.1347 37.0408 34.4035 36.975 34.6753 36.9828C34.686 36.6231 34.7742 36.27 34.9336 35.948C35.0931 35.6259 35.32 35.3426 35.5988 35.1175C35.6392 35.074 35.6854 35.0365 35.736 35.0059C35.9247 34.884 36.0781 34.7141 36.1809 34.5135C36.2838 34.313 36.3323 34.0887 36.3218 33.8632C36.3115 33.3903 36.4521 32.9265 36.7229 32.54C36.7289 32.5156 36.7289 32.4901 36.7229 32.4656L36.4801 32.2636C36.1846 32.0192 35.8996 31.7853 35.6094 31.5568L35.5355 31.4931C35.4336 31.403 35.3221 31.3246 35.203 31.2593C34.8561 31.0858 34.588 30.7854 34.4536 30.4196C34.1668 29.7036 33.9563 28.959 33.8256 28.1982C33.7613 27.8651 33.7824 27.521 33.8867 27.1984C33.991 26.8758 34.1752 26.5852 34.422 26.3541L34.5011 26.269C34.5908 26.1787 34.6753 26.0937 34.7439 26.014H34.7069C34.1475 25.7163 33.5987 25.4401 33.0445 25.1637L32.6435 24.9617C32.5537 24.9139 32.4587 24.8714 32.3585 24.8289L31.7621 24.5578L31.931 24.0264C31.9602 23.922 31.9991 23.8205 32.0471 23.7234L32.1738 23.4843C32.3374 23.1708 32.5062 22.8519 32.7015 22.5437C33.0327 22.0203 33.5377 21.6325 34.1264 21.449C34.2624 21.3953 34.3889 21.3199 34.5011 21.2257C34.7741 21.0251 35.0769 20.8691 35.3983 20.7634C36.1359 20.549 36.8998 20.4398 37.6676 20.4392C37.9964 20.4345 38.3227 20.4982 38.626 20.6262C38.9293 20.7542 39.2031 20.9439 39.4302 21.1833C39.7363 21.4968 40.0319 21.8156 40.3327 22.1345L40.396 22.1983C40.705 22.545 41.1032 22.7987 41.5465 22.9316C42.0706 23.1242 42.6167 23.2493 43.172 23.3037C43.3893 23.3307 43.6091 23.3307 43.8264 23.3037C44.3555 23.1786 44.8977 23.1179 45.4413 23.123C45.969 23.123 46.7289 23.1548 47.4678 23.2186C47.8548 23.2451 48.2229 23.3971 48.5169 23.6519C48.8109 23.9068 49.015 24.2508 49.0985 24.6323C49.2041 25.0114 49.2258 25.4091 49.162 25.7975C49.0981 26.186 48.9503 26.5556 48.7291 26.8803C48.4441 27.3001 48.1275 27.704 47.8266 28.0813C47.5938 28.3968 47.2603 28.622 46.882 28.719C46.8525 28.8287 46.8457 28.9432 46.8621 29.0557C46.8784 29.1681 46.9175 29.2761 46.977 29.3727C47.0211 29.464 47.0704 29.5528 47.1248 29.6384C47.1828 29.7393 47.2409 29.8404 47.2937 29.9466C47.409 30.1592 47.4806 30.393 47.5042 30.634C47.5278 30.8751 47.5028 31.1184 47.4308 31.3496C47.3497 31.5717 47.2239 31.7746 47.0614 31.9456C46.8988 32.1166 46.703 32.2521 46.4862 32.3434C46.2944 32.4287 46.0946 32.4945 45.8898 32.54C45.969 32.6675 46.0534 32.7951 46.1326 32.9279C46.3608 33.3015 46.6831 33.6077 47.0667 33.8154C47.8795 34.2724 48.6886 34.733 49.4943 35.1972L49.7793 35.3619C49.9145 35.435 50.045 35.5166 50.1698 35.6064C50.3199 35.712 50.445 35.8495 50.5362 36.0094C50.6274 36.1692 50.6825 36.3473 50.6976 36.5311C50.7036 36.7198 50.6684 36.9075 50.5946 37.081C50.5207 37.2546 50.4099 37.4096 50.2701 37.5354L49.2146 38.5665L48.9877 38.7897L49.1988 39.4008C49.1988 39.4008 49.1988 39.4593 49.336 39.5178L49.6896 39.6824C50.1593 39.9003 50.6448 40.1289 51.1251 40.3043C53.3046 41.1227 55.5212 41.7445 57.9857 42.43C58.6349 42.6054 59.2787 42.7755 59.9279 42.9615L60.7353 43.1687C61.0685 43.2618 61.4206 43.2618 61.7538 43.1687L63.2051 42.7648L63.4532 42.6957C63.5554 42.6708 63.6496 42.6202 63.7271 42.5486C63.8047 42.4771 63.8629 42.3869 63.8965 42.2865L64.0073 41.9942C64.0601 41.8454 64.1181 41.6966 64.1762 41.5531C64.3242 41.158 64.6219 40.8383 65.0038 40.6639C65.3857 40.4896 65.8207 40.4748 66.2133 40.6231C66.7488 40.802 67.2326 41.1103 67.6224 41.5212C67.7314 41.655 67.8771 41.7535 68.0413 41.8045C68.2055 41.8556 68.381 41.8568 68.5459 41.8082L68.7887 41.7551L69.2689 41.6382L70.4511 41.3086L71.2691 41.0802C71.7052 40.9681 72.1169 40.7753 72.4829 40.5115C73.264 39.9482 74.0397 39.3849 74.8102 38.8109C75.2908 38.4445 75.7157 38.0095 76.0716 37.5196C76.2457 37.2804 76.4251 37.0466 76.5993 36.8234C76.8088 36.5611 77.0707 36.3461 77.3679 36.1923C77.6652 36.0385 77.9913 35.9494 78.325 35.9306C78.9901 35.8985 79.6517 35.8149 80.3041 35.6807C80.6001 35.62 80.9052 35.62 81.2012 35.6807C81.5976 35.7362 81.9584 35.941 82.211 36.2535C82.4636 36.5661 82.5893 36.9633 82.5628 37.3654C82.5582 37.4078 82.5582 37.4506 82.5628 37.493C82.6118 37.5239 82.6652 37.5471 82.7212 37.562C82.9481 37.6364 83.1803 37.7268 83.4125 37.8277C83.7373 37.9398 84.0094 38.1692 84.1761 38.4715C84.3427 38.7738 84.3922 39.1277 84.3149 39.4646C84.2885 39.5916 84.3092 39.7239 84.373 39.8366C84.4673 39.9931 84.5417 40.1609 84.5946 40.3361C84.6523 40.5043 84.667 40.6845 84.6375 40.86C84.608 41.0355 84.5352 41.2008 84.4258 41.3406C84.3087 41.4735 84.1604 41.5747 83.9945 41.6351C83.8285 41.6954 83.6502 41.7129 83.4758 41.6859C83.3371 41.6702 83.2007 41.6382 83.0695 41.5903C82.8448 41.5148 82.6044 41.4995 82.3721 41.5461C82.1398 41.5927 81.9236 41.6995 81.7448 41.856C81.385 42.1406 81.0944 42.5042 80.8951 42.9189C80.5405 43.677 80.2952 44.4823 80.1669 45.3104C80.029 46.1599 79.8117 46.9944 79.5177 47.8028C79.4061 48.0898 79.2646 48.3642 79.0955 48.6212C78.952 48.8823 78.7322 49.0927 78.466 49.2239C78.1999 49.355 77.9001 49.4007 77.6073 49.3546L77.5809 50.1358V50.5291C77.5904 50.6952 77.5596 50.8612 77.4912 51.0126C77.3945 51.2757 77.3655 51.559 77.4068 51.8364V51.9161C77.4175 52.3765 77.2924 52.8299 77.0472 53.2187C76.802 53.6075 76.4478 53.9143 76.0293 54.1003C75.8915 54.1733 75.7401 54.2166 75.5848 54.2276C75.4294 54.2386 75.2735 54.2169 75.1269 54.164C74.9744 54.106 74.8352 54.0172 74.7181 53.903C74.601 53.7887 74.5084 53.6514 74.4461 53.4997C74.3705 53.301 74.3105 53.0967 74.2667 52.8886L74.235 52.7451C74.177 52.5166 74.1189 52.2827 74.0397 52.0383C73.8191 52.2369 73.5335 52.3466 73.2376 52.3465C72.9668 52.3416 72.7038 52.254 72.4834 52.0956C72.263 51.9372 72.0954 51.7153 72.0027 51.4591C71.7641 51.0018 71.6395 50.4929 71.6395 49.9764C71.6395 49.4598 71.7641 48.951 72.0027 48.4937C72.2225 48.1236 72.3744 47.7168 72.4512 47.2926L71.1371 47.4946L69.8442 47.7018C69.6368 47.7524 69.421 47.7572 69.2117 47.7158C69.0023 47.6745 68.8043 47.588 68.6313 47.4623C68.4583 47.3366 68.3144 47.1745 68.2095 46.9874C68.1045 46.8004 68.0411 46.5927 68.0234 46.3786C68.0194 46.3062 67.9993 46.2357 67.9646 46.1723C67.9299 46.1088 67.8815 46.054 67.8229 46.0119C67.7109 45.935 67.6034 45.8516 67.501 45.7621C67.406 45.6877 67.3163 45.6133 67.216 45.5495C67.112 45.4584 66.9871 45.3947 66.8527 45.3641C66.7182 45.3335 66.5783 45.3369 66.4455 45.3741C66.5774 45.5069 66.7199 45.6346 66.8624 45.7568L67.1263 45.9959C67.215 46.0651 67.298 46.1415 67.3743 46.2244C67.4869 46.3442 67.5654 46.4923 67.6016 46.6531C67.6378 46.8139 67.6304 46.9815 67.5802 47.1385C67.5285 47.2802 67.4417 47.4064 67.3281 47.505C67.2146 47.6036 67.0779 47.6713 66.931 47.7018C66.9097 47.8126 66.9119 47.9267 66.9374 48.0366C66.9628 48.1464 67.011 48.2497 67.0788 48.3395C67.4218 48.848 67.6539 49.424 67.7596 50.0294C67.8011 50.3787 67.9774 50.6976 68.2504 50.917C68.5666 51.1792 68.7906 51.5369 68.889 51.9373C69.1041 52.7075 69.1827 53.5098 69.1212 54.3075C69.0994 54.7008 68.9274 55.0704 68.6411 55.3389C68.3549 55.6073 67.9765 55.7538 67.5854 55.7477C66.6991 55.7694 65.8215 55.929 64.9836 56.2207C64.6723 56.3111 64.3556 56.4014 64.0284 56.4811C64.1755 56.8246 64.1979 57.2092 64.0918 57.5677C63.9857 57.9262 63.7578 58.2357 63.4479 58.4421C61.8612 59.6856 60.2779 60.9257 58.6982 62.1621L58.1019 62.6245C56.8634 63.5918 55.6197 64.5554 54.3707 65.5155C54.2489 65.5961 54.146 65.7025 54.0694 65.8274C53.9928 65.9523 53.9444 66.0924 53.9274 66.2382C53.8913 66.5601 53.7649 66.865 53.563 67.1172C53.3612 67.3694 53.0921 67.5586 52.7875 67.6625C52.6186 67.7316 52.4391 67.79 52.2597 67.8431L52.0645 67.9123C51.7186 68.0233 51.4063 68.2208 51.1567 68.4863L50.687 68.9911C50.3387 69.3631 49.9904 69.735 49.6316 70.0964C49.4961 70.2246 49.3897 70.3807 49.3196 70.554C49.2494 70.7273 49.2172 70.9139 49.2252 71.1009C49.2252 73.7085 49.2252 76.3142 49.2252 78.9183V79.9811C49.2288 80.2025 49.2075 80.4236 49.1619 80.6401C49.1085 80.961 48.936 81.2493 48.6792 81.4467C48.4224 81.6441 48.1006 81.7358 47.7792 81.703C47.6578 81.703 47.5839 81.703 47.4836 81.8784L47.2884 82.1707C47.0826 82.4789 46.8767 82.7872 46.6815 83.1007C46.4807 83.4209 46.2186 83.6976 45.9105 83.9147C45.6025 84.1319 45.2546 84.2851 44.8871 84.3655C44.808 84.3655 44.6127 84.4345 44.523 84.4664C44.5026 84.5966 44.4903 84.7279 44.486 84.8597C44.4833 85.0523 44.4429 85.2425 44.3671 85.4194C44.2914 85.5963 44.1818 85.7564 44.0445 85.8906C43.9073 86.0248 43.7452 86.1306 43.5674 86.2018C43.3896 86.2729 43.1997 86.308 43.0084 86.3052C42.8606 86.3052 42.7075 86.3052 42.5598 86.3052C42.2419 86.2686 41.9206 86.3338 41.6415 86.4912C41.458 86.5459 41.2638 86.5532 41.0768 86.5125ZM30.8175 56.6724H30.9019L31.2713 56.7149L31.398 57.2464C31.6237 58.3095 31.7229 59.396 31.6935 60.4828C31.6899 60.9393 31.8202 61.3867 32.0682 61.7689C32.2899 62.1302 32.4957 62.5023 32.6909 62.8796C32.8555 63.2125 32.9592 63.5726 32.997 63.9425C33.0251 64.2866 33.0888 64.6267 33.187 64.9575C33.4767 65.8094 33.6783 66.6891 33.7887 67.5827C33.9052 68.4426 34.1415 69.2818 34.4906 70.0753C35.2822 71.9193 35.9155 73.4392 36.4854 74.8582C37.0034 76.172 37.6338 77.438 38.3695 78.6419C39.061 79.7708 39.6814 80.9423 40.2271 82.1494C40.6292 82.9603 40.8763 83.84 40.9554 84.7428C40.9787 84.972 41.0374 85.1962 41.1296 85.4071C41.5918 85.1525 42.1205 85.0467 42.6442 85.1041C42.7514 85.1121 42.859 85.1121 42.9661 85.1041C43.0253 85.1097 43.0849 85.1023 43.1409 85.0822C43.1969 85.0621 43.2478 85.0299 43.2901 84.9879C43.3324 84.9458 43.3649 84.8949 43.3856 84.8388C43.4062 84.7827 43.4143 84.7227 43.4094 84.6631C43.4675 83.664 43.6733 83.4195 44.6285 83.191C44.8636 83.141 45.0862 83.0436 45.283 82.9048C45.4798 82.766 45.6467 82.5886 45.7737 82.3832C45.9743 82.0697 46.1801 81.7561 46.3859 81.4426L46.5812 81.1503C46.7065 80.937 46.8885 80.7632 47.1068 80.6487C47.325 80.5341 47.5707 80.4833 47.8161 80.5019C47.985 80.5019 48.0642 80.502 48.1117 80.2681C48.1401 80.1355 48.1525 79.9999 48.1486 79.8642V78.8014C48.1486 76.1973 48.1486 73.5933 48.1486 70.9893C48.141 70.6618 48.2003 70.3361 48.3229 70.0326C48.4454 69.7291 48.6286 69.4542 48.861 69.2249C49.2094 68.8742 49.5524 68.5128 49.9165 68.162L50.3915 67.6572C50.759 67.262 51.2203 66.9675 51.732 66.8015L51.9378 66.7325C52.0917 66.6873 52.2432 66.6341 52.3917 66.5731C52.513 66.538 52.6216 66.468 52.7041 66.3717C52.7866 66.2754 52.8394 66.157 52.8561 66.031C52.8886 65.7427 52.9811 65.4645 53.1275 65.2145C53.2739 64.9645 53.4709 64.7484 53.7057 64.5802C54.9512 63.6307 56.1932 62.6706 57.4316 61.6998L58.028 61.2374L62.7777 57.5174C62.8486 57.4792 62.9108 57.4264 62.9602 57.3625C63.0097 57.2986 63.0452 57.225 63.0646 57.1463C63.084 57.0677 63.0868 56.9858 63.0728 56.906C63.0589 56.8263 63.0284 56.7502 62.9835 56.683C62.9465 56.5874 62.9149 56.4865 62.8832 56.3749L62.7143 55.8434L63.0943 55.6308L63.1735 55.583C63.2807 55.5074 63.4004 55.4516 63.5271 55.4183C63.907 55.3332 64.2817 55.2269 64.6723 55.1153C65.6118 54.7868 66.5964 54.6075 67.5907 54.5839C67.6495 54.586 67.7082 54.5763 67.7632 54.5551C67.8182 54.5339 67.8683 54.5017 67.9107 54.4605C67.9531 54.4193 67.9868 54.37 68.0098 54.3154C68.0328 54.2608 68.0446 54.202 68.0446 54.1427C68.1014 53.4706 68.037 52.7938 67.8546 52.1447C67.8224 51.9611 67.7316 51.7931 67.596 51.6663C67.1133 51.2884 66.7923 50.739 66.6988 50.1305C66.6154 49.6657 66.4356 49.2238 66.1711 48.8337C65.966 48.551 65.8457 48.2152 65.8241 47.8658C65.8026 47.5164 65.8809 47.1681 66.0497 46.8621L66.1869 46.607H66.2872L66.1236 46.4582C65.9547 46.3094 65.7858 46.1554 65.6275 45.9959C65.5008 45.8854 65.3987 45.7492 65.3277 45.5963C65.2568 45.4434 65.2187 45.2771 65.2158 45.1084V44.949L65.3056 44.8215C65.4941 44.5604 65.7662 44.3727 66.0761 44.2901C66.3623 44.2036 66.6647 44.1859 66.9589 44.2385C67.2531 44.2912 67.531 44.4125 67.7701 44.5929C67.8927 44.6768 68.0107 44.7673 68.1237 44.8639C68.2082 44.933 68.2926 45.0022 68.3823 45.0659C68.5578 45.1875 68.7059 45.3451 68.8168 45.5282C68.9278 45.7114 68.9991 45.916 69.0262 46.1288C69.1053 46.5593 69.232 46.6602 69.6489 46.5911L70.9366 46.3892L72.3404 46.166C72.4755 46.1532 72.6116 46.1532 72.7468 46.166H73.2006L73.3378 46.4848C73.4788 46.7519 73.5218 47.0606 73.4592 47.3564C73.3723 47.9189 73.1807 48.4598 72.8945 48.9507C72.7372 49.2647 72.6597 49.6129 72.6689 49.9644C72.6781 50.316 72.7738 50.6596 72.9473 50.9648C73.0687 51.2305 73.1848 51.2305 73.227 51.2305C73.2692 51.2305 73.3484 51.2306 73.5173 50.9489L74.1875 49.8382L74.6203 50.6726C74.9046 51.2327 75.1157 51.8274 75.2483 52.4422L75.2852 52.5963C75.3134 52.743 75.354 52.8871 75.4066 53.0268C75.421 53.0611 75.4448 53.0906 75.4752 53.1118C75.4975 53.1191 75.5215 53.1191 75.5438 53.1118C75.7775 53.0148 75.9776 52.8508 76.1193 52.64C76.261 52.4293 76.338 52.1812 76.3407 51.9267V51.847C76.283 51.4039 76.3412 50.9533 76.5096 50.5397V50.4333C76.5096 50.3111 76.5096 50.1889 76.5096 50.0614L76.594 47.9356L77.3382 48.1589L77.5018 48.212C77.887 48.3608 78.0295 48.2971 78.2089 48.0048C78.3327 47.8102 78.437 47.6036 78.5203 47.3882C78.7908 46.6459 78.9887 45.8789 79.1114 45.0978C79.257 44.1652 79.5379 43.2591 79.9452 42.4088C80.2115 41.8461 80.6034 41.3532 81.0904 40.9686C81.4048 40.7074 81.7801 40.5313 82.1809 40.4569C82.5817 40.3825 82.9947 40.4123 83.3808 40.5434C83.4403 40.5668 83.5023 40.5828 83.5655 40.5912C83.5324 40.4959 83.4881 40.405 83.4336 40.3203C83.2559 39.9967 83.1926 39.6219 83.2541 39.2574C83.2964 38.9492 83.2542 38.8694 82.9745 38.726C82.7796 38.6397 82.5806 38.5633 82.3781 38.4973C82.102 38.4351 81.8583 38.2731 81.6929 38.0419C81.5276 37.8108 81.4521 37.5266 81.4809 37.2432C81.4899 37.1683 81.483 37.0922 81.4605 37.0202C81.438 36.9482 81.4006 36.8818 81.3507 36.8254C81.3007 36.7691 81.2395 36.7242 81.1709 36.6936C81.1024 36.663 81.0282 36.6474 80.9532 36.648C80.7982 36.6167 80.6385 36.6167 80.4835 36.648C79.7787 36.7907 79.0642 36.8795 78.3461 36.9137C78.1529 36.9267 77.9646 36.9809 77.7935 37.0725C77.6225 37.1641 77.4727 37.291 77.354 37.4451C77.1798 37.6524 77.0162 37.8702 76.8526 38.0934C76.4356 38.6647 75.9377 39.1714 75.3749 39.5974C74.6009 40.1785 73.8216 40.7489 73.037 41.3086C72.5673 41.6442 72.0419 41.8927 71.4855 42.0421L70.6727 42.2706L69.4853 42.6C69.3059 42.6496 69.13 42.6921 68.9576 42.7275L68.7254 42.7807C68.3805 42.869 68.0181 42.8597 67.6782 42.7537C67.3383 42.6478 67.0341 42.4493 66.7991 42.1803C66.5274 41.8975 66.1901 41.6874 65.8175 41.569C65.749 41.5388 65.6749 41.5235 65.6001 41.5243C65.5253 41.5251 65.4515 41.5419 65.3837 41.5736C65.3158 41.6052 65.2554 41.6511 65.2064 41.708C65.1575 41.765 65.1211 41.8317 65.0998 41.9039C65.0417 42.0368 64.9942 42.1696 64.9414 42.3025C64.8887 42.4354 64.8675 42.5097 64.8253 42.616C64.7313 42.8678 64.5787 43.0933 64.3804 43.2736C64.1821 43.4539 63.9438 43.5837 63.6854 43.6522L63.4373 43.7267L61.9755 44.1306C61.4573 44.2735 60.9105 44.2735 60.3923 44.1306L59.5901 43.9233C58.9357 43.7532 58.2813 43.5885 57.6322 43.3918C55.1465 42.7116 52.8825 42.0845 50.687 41.2661C50.1593 41.0695 49.6579 40.8356 49.1724 40.6071L48.8241 40.4425C48.6609 40.3765 48.5137 40.2758 48.3926 40.1474C48.2715 40.019 48.1793 39.8659 48.1222 39.6984C48.0589 39.5071 47.9903 39.3158 47.9164 39.1139L47.7106 38.5239L47.9639 38.2157C48.0131 38.1491 48.0678 38.087 48.1275 38.0297L48.3913 37.764C48.7397 37.4133 49.088 37.0625 49.4468 36.7012C49.503 36.6585 49.5408 36.5957 49.5524 36.5257C49.5312 36.4674 49.4925 36.4173 49.4416 36.3822C49.3687 36.3302 49.2929 36.2822 49.2146 36.2387L48.898 36.0581L46.4704 34.6817C45.9278 34.3842 45.4728 33.9478 45.151 33.4168C45.0613 33.268 44.9663 33.1193 44.8713 32.9705L44.6602 32.6356C44.6169 32.5683 44.5798 32.4972 44.5494 32.4231L44.1694 31.6632L45.0455 31.5463C45.0875 31.5521 45.1301 31.5521 45.1721 31.5463L45.436 31.4878C45.6162 31.4527 45.7929 31.4011 45.9637 31.3336C46.1363 31.2617 46.2757 31.127 46.3543 30.9563C46.4006 30.7595 46.3704 30.5521 46.2698 30.377C46.2276 30.292 46.1801 30.207 46.1326 30.1272C46.0851 30.0475 46.0059 29.9094 45.9532 29.7978C45.7126 29.3581 45.6538 28.8407 45.7896 28.3577C45.8312 28.1749 45.9247 28.0082 46.0587 27.878C46.1927 27.7478 46.3614 27.6596 46.5442 27.6242C46.6992 27.5829 46.8341 27.4867 46.9242 27.3532C47.2145 26.9918 47.5153 26.6092 47.7792 26.216C47.9172 26.0174 48.0084 25.7897 48.0459 25.5502C48.0834 25.3108 48.0661 25.0659 47.9955 24.8342C47.968 24.6667 47.8845 24.5137 47.7587 24.4006C47.633 24.2875 47.4726 24.2211 47.3042 24.2124C46.5917 24.154 45.8793 24.1326 45.341 24.122C44.8842 24.1136 44.4282 24.1655 43.9847 24.2762C43.6732 24.3331 43.3559 24.351 43.04 24.3293C42.4103 24.2709 41.79 24.1353 41.1929 23.9255C40.563 23.7322 39.9949 23.3747 39.5464 22.8892L39.483 22.8253C39.1927 22.5118 38.8972 22.1982 38.6017 21.89C38.4785 21.7488 38.3254 21.6373 38.1537 21.5637C37.9819 21.4901 37.796 21.4563 37.6095 21.4648C36.9403 21.4637 36.2742 21.5567 35.6305 21.7412C35.4199 21.8151 35.2209 21.9189 35.0394 22.0495C34.8359 22.2111 34.6078 22.3385 34.3639 22.4268C34.0108 22.5353 33.7076 22.767 33.509 23.0804C33.3401 23.3515 33.187 23.6385 33.0287 23.9414V23.968H33.0551L33.4562 24.1699C33.9839 24.4516 34.5697 24.7333 35.1186 25.0202C35.4068 25.1436 35.6488 25.3556 35.8099 25.626L35.9207 25.828L35.8469 26.0406C35.7099 26.4128 35.4811 26.7439 35.1819 27.0025L35.1027 27.0821C34.9797 27.1953 34.8871 27.3379 34.8335 27.4968C34.78 27.6557 34.7674 27.8257 34.7967 27.9909C34.9192 28.678 35.1101 29.3511 35.3666 29.9997C35.4067 30.1239 35.494 30.2271 35.6094 30.2867C35.799 30.3855 35.9762 30.5068 36.1371 30.648L36.211 30.7066C36.5013 30.9351 36.7862 31.1743 37.0871 31.4187L37.6148 31.8331L37.6623 31.9873C37.7382 32.1776 37.7663 32.3839 37.7442 32.5879C37.7221 32.7918 37.6505 32.987 37.5356 33.1564C37.3929 33.3649 37.3241 33.6158 37.3404 33.8686C37.3487 34.2654 37.2561 34.6578 37.0713 35.0085C36.8866 35.3592 36.6159 35.6565 36.2849 35.8721L36.248 35.9093C36.0788 36.0498 35.9435 36.2269 35.8521 36.4275C35.7607 36.6282 35.7156 36.8471 35.7202 37.0678C35.7202 37.1741 35.7202 37.2751 35.7202 37.3867L35.678 38.0404H35.0711C34.9589 38.0533 34.8455 38.0533 34.7333 38.0404C34.5486 38.0085 34.3903 38.0404 34.2056 38.3061C34.0605 38.5367 33.9301 38.7763 33.815 39.0235L33.7253 39.2042C33.6848 39.2814 33.6495 39.3613 33.6198 39.4433C33.5828 39.539 33.5406 39.6346 33.4984 39.7303C33.4166 39.9373 33.268 40.1106 33.0766 40.2224C32.8852 40.3342 32.662 40.378 32.4429 40.3467C32.3656 40.5155 32.2582 40.6686 32.1262 40.7985C31.7304 41.1652 31.4032 41.4575 31.0708 41.7125C30.7117 42.0081 30.2569 42.1596 29.7936 42.1377C29.3714 42.1377 28.9493 42.1377 28.5271 42.1377H27.9254C27.6066 42.1333 27.2939 42.2259 27.0282 42.4034C26.8417 42.5195 26.7044 42.7011 26.643 42.9131C26.5816 43.1251 26.6004 43.3524 26.6958 43.5513C27.029 44.3148 27.4281 45.0475 27.8885 45.7409C28.1607 46.1208 28.3414 46.5592 28.4162 47.0216C28.4742 47.4412 28.6084 47.8465 28.812 48.2173L28.9334 48.4298L28.7593 48.9348L28.5218 49.057C28.4243 49.1114 28.3163 49.144 28.2051 49.1526L27.1496 49.2218H27.0652H26.6905C26.4714 49.2176 26.2523 49.2335 26.0361 49.2695C25.151 49.4672 24.292 49.7686 23.4765 50.1676L23.4079 50.2102C23.3446 50.2474 23.2865 50.2792 23.3077 50.4599C23.3232 50.5555 23.3516 50.6485 23.3921 50.7363C23.5877 51.1437 23.842 51.5198 24.1468 51.8524C24.3462 52.091 24.5975 52.2803 24.8812 52.4056C25.1648 52.5309 25.4733 52.5889 25.7828 52.575C25.9094 52.575 26.0308 52.575 26.1733 52.575H27.5296L26.7274 53.4997C26.6619 53.5907 26.5748 53.6639 26.4741 53.7124C25.9779 53.9583 25.4414 54.1113 24.8909 54.164H24.8381V54.2119C24.9414 54.422 25.0728 54.617 25.2287 54.7912C25.8408 55.4502 26.4899 56.1091 27.1127 56.7468C27.1951 56.8334 27.2915 56.9052 27.3977 56.9594C27.8152 57.2231 28.2999 57.3589 28.7927 57.3504C29.2855 57.3419 29.7653 57.1896 30.1736 56.9116C30.3486 56.7496 30.5799 56.6636 30.8175 56.6724Z" fill="#415EEF"/>
<path d="M60.7721 70.622L62.8409 65.3076L64.9097 70.622C65.2935 71.6132 66.0007 72.4435 66.9151 72.9763L71.0157 75.3837L66.9151 77.791C66.0028 78.3265 65.2964 79.1559 64.9097 80.1454L62.8409 85.4597L60.7721 80.1454C60.3819 79.1581 59.6763 78.3296 58.7667 77.791L54.6661 75.3837L58.7667 72.9763C59.6801 72.4422 60.3869 71.6123 60.7721 70.622Z" fill="#FFDA3E"/>
<path d="M66.9257 77.7911C66.9257 77.7911 65.3055 79.157 64.9203 80.1455L62.8515 85.4598L60.7828 80.1455C60.3926 79.1582 59.6869 78.3297 58.7773 77.7911L54.6768 75.3838L58.7773 72.9764C59.6907 72.4423 60.3975 71.6124 60.7828 70.6221C60.7828 70.6221 61.168 76.5954 66.9257 77.7911Z" fill="#F68B42"/>
<path d="M53.1674 17.4467L54.1226 15.0073L55.0725 17.4467C55.2553 17.8956 55.5824 18.2699 56.0014 18.5095L57.8907 19.6201L56.0014 20.7309C55.5824 20.9705 55.2553 21.3448 55.0725 21.7938L54.1226 24.2384L53.1674 21.7938C52.9867 21.3452 52.6614 20.9708 52.2438 20.7309L50.3545 19.6201L52.2438 18.5095C52.6614 18.2696 52.9867 17.8952 53.1674 17.4467Z" fill="#FFDA3E"/>
<path opacity="0.69" d="M56.0226 20.7525C55.6528 21.0485 55.3383 21.4084 55.0938 21.8154L54.1438 24.2599L53.1886 21.8154C53.0079 21.3668 52.6826 20.9924 52.2651 20.7525L50.3757 19.6417L52.2651 18.5311C52.6826 18.2912 53.0079 17.9169 53.1886 17.4683C53.1886 17.4683 53.3469 20.1998 56.0226 20.7525Z" fill="#E57428"/>
<path d="M16.3151 83.8448C15.8718 83.3825 15.4232 82.8989 14.9904 82.4153C7.26199 73.7076 2.99298 62.4363 3.00011 50.7577C2.987 44.5424 4.19228 38.3856 6.54689 32.6403C8.90149 26.895 12.3591 21.6743 16.7215 17.2773L17.0961 17.6493C12.7823 22.0004 9.36369 27.1662 7.03627 32.8503C4.70884 38.5345 3.51837 44.6253 3.5331 50.7737C3.52559 62.3216 7.74784 73.4665 15.3915 82.0751C15.819 82.5587 16.257 83.0371 16.7003 83.4941L16.3151 83.8448Z" fill="#00DF8D"/>
<path d="M16.4364 84.9342C17.1359 84.9342 17.703 84.3631 17.703 83.6587C17.703 82.9543 17.1359 82.3833 16.4364 82.3833C15.7369 82.3833 15.1698 82.9543 15.1698 83.6587C15.1698 84.3631 15.7369 84.9342 16.4364 84.9342Z" fill="#00DF8D"/>
<path d="M17.7029 18.3141C18.4024 18.3141 18.9695 17.743 18.9695 17.0386C18.9695 16.3342 18.4024 15.7632 17.7029 15.7632C17.0034 15.7632 16.4363 16.3342 16.4363 17.0386C16.4363 17.743 17.0034 18.3141 17.7029 18.3141Z" fill="#00DF8D"/>
<path d="M84.8109 83.037L84.4203 82.6757C84.6473 82.4312 84.8689 82.1814 85.0906 81.9316C92.6481 73.3394 96.8179 62.2569 96.8118 50.779C96.842 38.5384 92.1052 26.7738 83.6182 18.0106L83.9929 17.6387C92.588 26.4955 97.388 38.3953 97.3607 50.779C97.3666 62.3871 93.1477 73.5949 85.5022 82.2824C85.2595 82.5056 85.0484 82.766 84.8109 83.037Z" fill="#00DF8D"/>
<path d="M83.7712 84.9342C84.4707 84.9342 85.0378 84.3631 85.0378 83.6587C85.0378 82.9543 84.4707 82.3833 83.7712 82.3833C83.0717 82.3833 82.5046 82.9543 82.5046 83.6587C82.5046 84.3631 83.0717 84.9342 83.7712 84.9342Z" fill="#00DF8D"/>
<path d="M83.1644 18.7228C83.8639 18.7228 84.431 18.1517 84.431 17.4473C84.431 16.7429 83.8639 16.1719 83.1644 16.1719C82.4649 16.1719 81.8978 16.7429 81.8978 17.4473C81.8978 18.1517 82.4649 18.7228 83.1644 18.7228Z" fill="#00DF8D"/>
</g>
<defs>
<clipPath id="clip0_5592_19868">
<rect width="100" height="100" fill="white"/>
</clipPath>
</defs>
</svg>
