<svg width="100" height="100" viewBox="0 0 100 100" fill="none" xmlns="http://www.w3.org/2000/svg">
<g clip-path="url(#clip0_5592_19905)">
<path d="M12.2367 26.9268L11.7109 26.8112C12.3917 23.6529 13.3416 20.5587 14.5502 17.5625L14.6133 17.4152H14.7763C34.3094 16.6055 48.7949 5.32209 49.3996 4.82784L49.5626 4.70166L49.7308 4.82258C49.8833 4.94351 65.0155 16.6529 84.4067 17.4415H84.5749L84.638 17.594C85.8006 20.4742 86.7205 23.4464 87.3879 26.4798L86.8621 26.5955C86.2038 23.651 85.3161 20.7627 84.2069 17.9568C65.8042 17.1313 51.2504 6.61552 49.5573 5.33785C47.8169 6.67335 33.7047 17.0734 14.9498 17.9094C13.801 20.8362 12.8936 23.8521 12.2367 26.9268Z" fill="#00DF8D"/>
<path d="M49.5681 92.5984L49.4734 92.5615C36.5074 87.5034 26.57 80.5105 19.9503 71.7666C14.6051 64.6826 11.3061 56.2677 10.4125 47.4383L10.9383 47.3804C11.8302 56.1174 15.1039 64.4418 20.4025 71.4458C26.9486 80.0898 36.7703 87.0144 49.5996 92.0305C62.5814 86.9566 72.4872 79.9373 79.0438 71.1514C84.3222 64.0429 87.5355 55.6151 88.3293 46.7969L88.8551 46.8494C88.0477 55.7625 84.7984 64.2805 79.4645 71.4669C72.8395 80.3475 62.8232 87.4456 49.7048 92.5615L49.5681 92.5984Z" fill="#00DF8D"/>
<path d="M50.3671 25.5918C70.6783 25.5918 92.1253 30.6236 92.1253 30.6236C92.1253 30.6236 93.3083 39.236 92.6511 45.0408C92.6511 45.0408 71.2252 39.4253 49.6099 40.0089H49.0421C30.9181 40.0089 6.41627 45.0408 6.41627 45.0408C5.71697 36.4388 7.063 30.6236 7.063 30.6236C7.063 30.6236 30.1136 25.5918 48.2744 25.5918H50.3671Z" fill="white"/>
<path d="M92.83 45.3139L92.5829 45.2507C92.3725 45.1982 70.9413 39.6407 49.6048 40.2243H48.9581C31.0812 40.2243 6.69505 45.2034 6.44793 45.256L6.20607 45.3034V45.0615C5.51729 36.5174 6.84754 30.6286 6.86331 30.5707L6.89486 30.4393L7.03157 30.4077C7.25766 30.3604 30.3083 25.376 48.285 25.376H50.3882C70.4892 25.376 91.9782 30.3604 92.1938 30.4077L92.341 30.4445V30.5918C92.341 30.6812 93.5188 39.2989 92.8668 45.0668L92.83 45.3139ZM7.23662 30.8073C6.40828 35.4155 6.19436 40.1132 6.60042 44.7776C9.19782 44.2518 31.9803 39.7878 48.9581 39.7878H49.5995C69.7583 39.262 90.0065 44.1571 92.4514 44.767C93.0035 39.5091 92.0781 31.9483 91.9256 30.802C89.996 30.3604 69.5427 25.8123 50.3619 25.8123H48.2588C31.0549 25.8123 9.17678 30.3919 7.23662 30.8073Z" fill="#415EEF"/>
<path d="M31.8015 47.559C32.103 47.6772 32.3641 47.8797 32.5534 48.1426C32.7491 48.4227 32.8687 48.7488 32.9004 49.0891C32.9448 49.4248 32.8976 49.7665 32.7637 50.0776C32.6306 50.3741 32.4129 50.6246 32.138 50.7979C31.8294 50.991 31.4802 51.1098 31.118 51.145L30.0979 51.2606C30.0716 51.2606 30.0611 51.2605 30.0611 51.3079L30.2925 53.3217C30.3001 53.3456 30.3001 53.3713 30.2925 53.3952C30.2749 53.4154 30.2506 53.4285 30.2241 53.4321L29.0358 53.5688C29.0119 53.5764 28.9861 53.5764 28.9622 53.5688C28.9431 53.5504 28.9302 53.5266 28.9254 53.5005L28.2839 47.8483C28.279 47.8366 28.2765 47.8241 28.2765 47.8114C28.2765 47.7988 28.279 47.7862 28.2839 47.7746C28.2915 47.7634 28.3017 47.7543 28.3136 47.7479C28.3255 47.7415 28.3388 47.7379 28.3523 47.7377L30.7657 47.4644C31.1134 47.4088 31.4696 47.4413 31.8015 47.559ZM31.3703 49.8042C31.4327 49.733 31.4786 49.6491 31.5049 49.5582C31.5313 49.4674 31.5374 49.3719 31.5228 49.2784C31.5174 49.182 31.4905 49.088 31.4441 49.0034C31.3977 48.9188 31.333 48.8457 31.2547 48.7893C31.0868 48.6706 30.8795 48.6216 30.6763 48.6526L29.814 48.7526C29.7877 48.7526 29.7772 48.7525 29.7772 48.7998L29.9297 50.1196C29.9297 50.1196 29.9297 50.1617 29.977 50.1564L30.834 50.0566C31.0383 50.0432 31.2299 49.9531 31.3703 49.8042Z" fill="#00DF8D"/>
<path d="M37.6116 52.6015L37.3277 51.876C37.3228 51.8674 37.316 51.86 37.3077 51.8545C37.2995 51.849 37.2901 51.8456 37.2803 51.8444L35.3717 52.0127C35.3625 52.0155 35.354 52.0202 35.3467 52.0265C35.3395 52.0329 35.3337 52.0408 35.3297 52.0495L35.1824 52.8171C35.1776 52.8432 35.1641 52.8668 35.144 52.884C35.1239 52.9012 35.0985 52.911 35.072 52.9118L33.7891 53.0274C33.7638 53.0376 33.7355 53.0376 33.7102 53.0274C33.7041 53.0142 33.7009 53 33.7009 52.9854C33.7009 52.9709 33.7041 52.9565 33.7102 52.9433L34.9984 47.1175C35.0009 47.0924 35.0124 47.0691 35.0307 47.0517C35.0491 47.0343 35.0731 47.0241 35.0983 47.0229L36.6757 46.881C36.7006 46.8774 36.7259 46.8829 36.7472 46.8964C36.7684 46.9099 36.7841 46.9304 36.7914 46.9545L39.0943 52.4596C39.0943 52.4596 39.0943 52.4596 39.0943 52.5016C39.0943 52.5437 39.068 52.5806 39.0049 52.5858L37.7273 52.7015C37.6991 52.7018 37.6719 52.6918 37.6506 52.6734C37.6293 52.655 37.6154 52.6294 37.6116 52.6015ZM35.6031 50.9137L36.8492 50.8033C36.886 50.8033 36.8965 50.8034 36.8807 50.7508L36.05 48.6477C36.05 48.6477 36.05 48.6161 36.0237 48.6214C35.9974 48.6266 36.0237 48.6213 36.0237 48.6528L35.5873 50.8612C35.561 50.898 35.5768 50.9137 35.6031 50.9137Z" fill="#00DF8D"/>
<path d="M41.0397 52.3897C41.0294 52.3805 41.0213 52.3692 41.0158 52.3565C41.0104 52.3438 41.0078 52.33 41.0082 52.3162L40.8873 50.3287C40.8933 50.3117 40.8933 50.2931 40.8873 50.276L38.9576 46.7743C38.9531 46.7589 38.9531 46.7424 38.9576 46.727C38.9576 46.6796 38.9839 46.6587 39.047 46.6534L40.3404 46.5797C40.3653 46.5765 40.3905 46.5814 40.4123 46.5937C40.4341 46.606 40.4513 46.6252 40.4614 46.6481L41.513 48.7197C41.513 48.7513 41.5445 48.7513 41.5603 48.7197L42.3595 46.543C42.368 46.5189 42.3836 46.498 42.4042 46.4829C42.4249 46.4679 42.4496 46.4595 42.4752 46.4588L43.7739 46.38C43.8009 46.3694 43.8309 46.3694 43.858 46.38C43.858 46.38 43.858 46.4273 43.858 46.4693L42.3227 50.1762C42.3194 50.1918 42.3194 50.2079 42.3227 50.2235L42.4383 52.2162C42.4402 52.2297 42.4388 52.2434 42.4343 52.2562C42.4297 52.2691 42.4221 52.2806 42.4121 52.2899C42.4039 52.3001 42.3935 52.3083 42.3816 52.3137C42.3697 52.3192 42.3568 52.3219 42.3437 52.3214L41.1607 52.3897C41.1437 52.4038 41.1223 52.4116 41.1002 52.4116C41.0781 52.4116 41.0567 52.4038 41.0397 52.3897Z" fill="#00DF8D"/>
<path d="M49.1161 46.271H50.3044C50.3284 46.2637 50.3541 46.2637 50.378 46.271C50.3854 46.295 50.3854 46.3206 50.378 46.3446L50.4464 52.0336C50.4461 52.0466 50.4431 52.0592 50.4377 52.071C50.4323 52.0828 50.4245 52.0933 50.4148 52.1019C50.4067 52.1121 50.3963 52.1203 50.3844 52.1258C50.3725 52.1313 50.3596 52.1339 50.3465 52.1335H49.1529C49.1391 52.134 49.1254 52.1314 49.1126 52.1259C49.0999 52.1205 49.0886 52.1123 49.0793 52.1019C49.0691 52.0938 49.061 52.0834 49.0555 52.0715C49.05 52.0596 49.0474 52.0467 49.0478 52.0336L49.011 48.6476V48.616C49.011 48.616 49.011 48.616 48.9742 48.616L48.2644 49.7832C48.2553 49.8058 48.239 49.8247 48.2181 49.837C48.1972 49.8494 48.1728 49.8545 48.1487 49.8515H47.5493C47.5253 49.8536 47.5013 49.8481 47.4805 49.8359C47.4598 49.8236 47.4434 49.8053 47.4336 49.7832L46.687 48.6265C46.687 48.6265 46.687 48.6265 46.6554 48.6265C46.6239 48.6265 46.6554 48.6264 46.6554 48.658L46.6922 52.0494C46.6996 52.0734 46.6996 52.099 46.6922 52.123C46.6683 52.1303 46.6426 52.1303 46.6186 52.123H45.4251C45.3982 52.123 45.3722 52.1137 45.3515 52.0967C45.3317 52.0773 45.3203 52.0509 45.3199 52.0231L45.2568 46.3393C45.2568 46.3124 45.2661 46.2865 45.2831 46.2657C45.2924 46.2554 45.3037 46.2472 45.3164 46.2417C45.3291 46.2363 45.3429 46.2337 45.3567 46.2342H46.5398C46.5638 46.2326 46.5877 46.2377 46.6091 46.2488C46.6304 46.2599 46.6482 46.2766 46.6607 46.2972L47.849 48.1165C47.849 48.1533 47.8858 48.1533 47.9016 48.1165L49.032 46.271C49.0591 46.2604 49.0891 46.2604 49.1161 46.271Z" fill="#00DF8D"/>
<path d="M56.0404 47.4216C56.0322 47.4318 56.0218 47.44 56.01 47.4455C55.9981 47.4509 55.9851 47.4536 55.9721 47.4532H53.3431C53.3374 47.4523 53.3315 47.4526 53.326 47.4544C53.3205 47.4562 53.3155 47.4593 53.3114 47.4634C53.3073 47.4675 53.3042 47.4725 53.3024 47.4781C53.3006 47.4836 53.3001 47.4894 53.301 47.4951V48.5467C53.301 48.573 53.301 48.5888 53.3431 48.5888H55.0309C55.0586 48.5892 55.0851 48.6006 55.1045 48.6204C55.1216 48.639 55.131 48.6634 55.1308 48.6887V49.6351C55.1312 49.649 55.1286 49.6627 55.1232 49.6754C55.1177 49.6882 55.1096 49.6995 55.0992 49.7087C55.0898 49.7184 55.0782 49.7258 55.0655 49.7304C55.0527 49.7349 55.0391 49.7365 55.0256 49.735H53.3379C53.3063 49.735 53.2958 49.735 53.2958 49.7771V50.8865C53.2958 50.8865 53.2958 50.9286 53.3379 50.9286H55.9668C55.9806 50.9281 55.9944 50.9307 56.0071 50.9361C56.0198 50.9416 56.0312 50.9498 56.0404 50.9601C56.0567 50.9793 56.066 51.0033 56.0667 51.0284V52.0222C56.0671 52.0361 56.0646 52.0498 56.0591 52.0625C56.0537 52.0753 56.0455 52.0866 56.0351 52.0958C56.0144 52.1128 55.9884 52.1222 55.9615 52.1221L51.9866 52.0905C51.9727 52.091 51.959 52.0884 51.9463 52.083C51.9335 52.0775 51.9222 52.0694 51.913 52.0591C51.907 52.0487 51.9038 52.0368 51.9038 52.0248C51.9038 52.0128 51.907 52.0011 51.913 51.9907L51.955 46.3016C51.9546 46.2885 51.9573 46.2756 51.9627 46.2637C51.9682 46.2518 51.9764 46.2414 51.9866 46.2333C51.9958 46.223 52.0071 46.2147 52.0199 46.2093C52.0326 46.2038 52.0463 46.2013 52.0602 46.2017L56.0404 46.2333C56.0534 46.2336 56.0661 46.2366 56.0779 46.242C56.0896 46.2474 56.1001 46.2552 56.1088 46.2649C56.1191 46.2741 56.1273 46.2854 56.1327 46.2981C56.1382 46.3108 56.1408 46.3246 56.1403 46.3384V47.3322C56.1396 47.3447 56.1365 47.3568 56.1311 47.368C56.1257 47.3793 56.1182 47.3893 56.1089 47.3976C56.0996 47.4059 56.0888 47.4123 56.077 47.4164C56.0653 47.4206 56.0528 47.4223 56.0404 47.4216Z" fill="#00DF8D"/>
<path d="M60.8674 46.4801C60.8881 46.463 60.9141 46.4537 60.941 46.4538L62.1293 46.5169C62.1431 46.5165 62.1569 46.519 62.1696 46.5245C62.1823 46.5299 62.1937 46.5381 62.2029 46.5484C62.2199 46.5691 62.2292 46.5952 62.2292 46.6221L61.94 52.3006C61.9404 52.3137 61.9378 52.3266 61.9323 52.3385C61.9268 52.3503 61.9186 52.3607 61.9084 52.3689C61.899 52.3786 61.8874 52.386 61.8747 52.3906C61.8619 52.3952 61.8483 52.3967 61.8348 52.3952L60.6939 52.3373C60.6693 52.339 60.6447 52.3329 60.6239 52.3196C60.6031 52.3064 60.5871 52.2868 60.5782 52.2638L58.8063 48.9565C58.8014 48.9542 58.796 48.9529 58.7905 48.9529C58.7851 48.9529 58.7797 48.9542 58.7747 48.9565C58.7747 48.9565 58.7747 48.9566 58.7747 48.9934L58.6223 52.1481C58.6227 52.1612 58.62 52.1741 58.6146 52.186C58.6091 52.1978 58.6009 52.2082 58.5907 52.2164C58.5815 52.2264 58.57 52.234 58.5571 52.2386C58.5443 52.2432 58.5306 52.2446 58.5171 52.2427L57.3236 52.185C57.3105 52.1854 57.2975 52.1827 57.2857 52.1773C57.2738 52.1718 57.2634 52.1636 57.2552 52.1534C57.2458 52.1297 57.2458 52.1033 57.2552 52.0797L57.5391 46.396C57.5394 46.3831 57.5424 46.3703 57.5478 46.3585C57.5532 46.3468 57.561 46.3362 57.5707 46.3276C57.5918 46.3113 57.6176 46.302 57.6443 46.3013L58.7958 46.3592C58.8201 46.359 58.8439 46.3659 58.8645 46.3789C58.885 46.392 58.9013 46.4106 58.9114 46.4327L60.6728 49.7294C60.6728 49.7294 60.6728 49.7557 60.7044 49.7557C60.7359 49.7557 60.7044 49.7557 60.7044 49.7189L60.8516 46.5642C60.8469 46.5351 60.8525 46.5054 60.8674 46.4801Z" fill="#00DF8D"/>
<path d="M68.118 47.0586C68.1229 47.0703 68.1254 47.0827 68.1254 47.0954C68.1254 47.108 68.1229 47.1205 68.118 47.1322L68.0339 48.1311C68.0291 48.1572 68.0162 48.1812 67.997 48.1996C67.9854 48.2045 67.9729 48.207 67.9603 48.207C67.9476 48.207 67.9351 48.2045 67.9234 48.1996L66.4565 48.0734C66.4249 48.0734 66.4144 48.0734 66.4092 48.1102L66.0148 52.6372C66.01 52.6633 65.9972 52.6873 65.978 52.7056C65.9664 52.7105 65.9539 52.7131 65.9412 52.7131C65.9286 52.7131 65.9161 52.7105 65.9044 52.7056L64.7161 52.6004C64.703 52.6012 64.6899 52.5988 64.6779 52.5933C64.666 52.5878 64.6556 52.5794 64.6478 52.5689C64.6387 52.559 64.6316 52.5474 64.6271 52.5348C64.6226 52.5221 64.6207 52.5086 64.6215 52.4952L65.0211 47.9682C65.0218 47.9623 65.0213 47.9563 65.0195 47.9505C65.0178 47.9448 65.0148 47.9395 65.0108 47.935C65.0068 47.9305 65.0019 47.9269 64.9964 47.9245C64.9909 47.922 64.985 47.9208 64.979 47.9209L63.5646 47.8C63.5382 47.7964 63.5139 47.7833 63.4963 47.7631C63.4869 47.7395 63.4869 47.7132 63.4963 47.6896L63.5857 46.6905C63.5893 46.664 63.6023 46.6398 63.6225 46.6222C63.6341 46.6173 63.6466 46.6147 63.6593 46.6147C63.6719 46.6147 63.6844 46.6173 63.6961 46.6222L68.0549 47.0007C68.082 47.0121 68.1043 47.0326 68.118 47.0586Z" fill="#00DF8D"/>
<path d="M69.6324 52.9694C69.3283 52.8001 69.0799 52.5461 68.9173 52.2385C68.763 51.9334 68.7044 51.5889 68.7491 51.25V51.087C68.7529 51.0621 68.7661 51.0395 68.7859 51.0238C68.7972 51.0179 68.8098 51.0147 68.8227 51.0147C68.8355 51.0147 68.8481 51.0179 68.8595 51.0238L70.0215 51.1606C70.048 51.1641 70.0722 51.1773 70.0898 51.1974C70.0947 51.209 70.0973 51.2216 70.0973 51.2342C70.0973 51.2469 70.0947 51.2594 70.0898 51.2711V51.3709C70.079 51.4696 70.093 51.5695 70.1307 51.6613C70.1683 51.7532 70.2284 51.8341 70.3054 51.8967C70.5077 52.0696 70.7603 52.1728 71.0257 52.1912C71.2186 52.2275 71.418 52.1939 71.5883 52.0965C71.6466 52.0564 71.6961 52.0051 71.7341 51.9455C71.772 51.8859 71.7976 51.8192 71.8092 51.7495C71.8164 51.6997 71.8136 51.6488 71.801 51.6001C71.7883 51.5513 71.7661 51.5056 71.7356 51.4656C71.6639 51.3797 71.5764 51.3083 71.4779 51.2553C71.3622 51.1975 71.194 51.1081 70.9521 50.9977L70.8575 50.945L70.7681 50.9082C70.4567 50.7657 70.1562 50.6006 69.869 50.414C69.6167 50.2466 69.4063 50.0236 69.2538 49.762C69.0882 49.4819 69.025 49.1529 69.0751 48.8313C69.1084 48.5084 69.2406 48.2036 69.4536 47.9586C69.6747 47.7102 69.9605 47.5281 70.2791 47.4328C70.6432 47.3305 71.0247 47.3053 71.399 47.3591C71.7981 47.3982 72.1839 47.5239 72.5295 47.7273C72.8368 47.9076 73.088 48.1697 73.2551 48.4844C73.4177 48.7962 73.4801 49.1505 73.4339 49.4991V49.6148C73.4333 49.6282 73.4296 49.6413 73.4233 49.6531C73.4169 49.665 73.4079 49.6753 73.3971 49.6832C73.3731 49.6908 73.3474 49.6908 73.3234 49.6832L72.1614 49.5412C72.148 49.5406 72.1349 49.5369 72.1231 49.5306C72.1112 49.5242 72.101 49.5152 72.0931 49.5044C72.0854 49.4804 72.0854 49.4548 72.0931 49.4308V49.3729C72.1036 49.2722 72.0915 49.1705 72.0579 49.075C72.0243 48.9795 71.9698 48.8927 71.8985 48.8208C71.7215 48.6398 71.4835 48.5312 71.2308 48.5159C71.0521 48.4849 70.8683 48.5106 70.705 48.5895C70.6411 48.6249 70.587 48.6756 70.5476 48.7371C70.5081 48.7986 70.4845 48.8689 70.4789 48.9417C70.47 48.9978 70.4724 49.0551 70.486 49.1102C70.4995 49.1652 70.5239 49.217 70.5578 49.2625C70.6513 49.3731 70.7656 49.4642 70.8943 49.5307C71.052 49.6218 71.2939 49.7427 71.6199 49.8934C71.9459 50.0442 72.235 50.1967 72.4874 50.3509C72.7108 50.4971 72.9007 50.6887 73.0448 50.9135C73.2153 51.1898 73.2789 51.5189 73.2235 51.8388C73.1919 52.1711 73.0578 52.4853 72.8397 52.7379C72.6125 52.9892 72.3191 53.1714 71.9932 53.2637C71.6077 53.367 71.2055 53.3922 70.8102 53.3374C70.3964 53.2973 69.9954 53.172 69.6324 52.9694Z" fill="#00DF8D"/>
<path d="M34.2833 37.0175C33.9414 36.9126 33.6367 36.7118 33.4052 36.4391C33.1842 36.1643 33.0521 35.8288 33.0267 35.477V35.3614C33.0144 35.331 33.0144 35.297 33.0267 35.2666C33.0373 35.2531 33.0509 35.2423 33.0664 35.235C33.0819 35.2277 33.0989 35.2242 33.116 35.2246L34.4147 35.1037C34.4295 35.0967 34.4457 35.0931 34.4621 35.0931C34.4784 35.0931 34.4946 35.0967 34.5094 35.1037C34.5229 35.1143 34.5337 35.1279 34.541 35.1434C34.5483 35.1589 34.5519 35.1759 34.5515 35.1931V35.2456C34.5649 35.3289 34.5982 35.4078 34.6485 35.4755C34.6989 35.5432 34.7648 35.5979 34.8406 35.6348C35.046 35.7467 35.2821 35.7891 35.5136 35.7557C35.6742 35.7548 35.8284 35.6927 35.9448 35.5821C35.9819 35.542 36.0103 35.4947 36.0284 35.4431C36.0465 35.3916 36.0539 35.3369 36.05 35.2824C36.0476 35.2249 36.0284 35.1693 35.9947 35.1226C35.9611 35.0759 35.9145 35.04 35.8607 35.0195C35.6532 34.9474 35.4405 34.8912 35.2245 34.8512L34.9773 34.8092C34.4671 34.7181 33.9763 34.5403 33.5262 34.2835C33.3261 34.1606 33.1596 33.9903 33.0412 33.7876C32.9229 33.5849 32.8565 33.3561 32.8479 33.1215C32.8103 32.7877 32.8803 32.4505 33.0477 32.1592C33.2178 31.863 33.4697 31.622 33.7733 31.4652C34.1113 31.2818 34.4837 31.1709 34.8669 31.1392C35.2748 31.0983 35.6867 31.143 36.0762 31.2707C36.4261 31.3909 36.738 31.6013 36.9806 31.8806C37.2114 32.1596 37.3509 32.5029 37.3802 32.8639V32.9427C37.3827 32.9594 37.3816 32.9764 37.3771 32.9927C37.3726 33.009 37.3647 33.0242 37.3539 33.0373C37.3439 33.05 37.3311 33.0604 37.3166 33.0677C37.302 33.075 37.286 33.079 37.2698 33.0794L35.9711 33.2003C35.9553 33.2071 35.9383 33.2106 35.9211 33.2106C35.904 33.2106 35.887 33.2071 35.8712 33.2003C35.8469 33.1765 35.832 33.1448 35.8291 33.111C35.8187 33.0231 35.7894 32.9386 35.7431 32.8632C35.6968 32.7879 35.6346 32.7235 35.561 32.6745C35.3771 32.5468 35.1514 32.4941 34.93 32.5273C34.7811 32.531 34.6373 32.5827 34.5199 32.6745C34.4728 32.7112 34.4363 32.7598 34.4141 32.8152C34.3919 32.8706 34.3849 32.931 34.3937 32.99C34.3961 33.0389 34.4097 33.0866 34.4334 33.1294C34.4571 33.1723 34.4903 33.2091 34.5304 33.2371C34.6408 33.3136 34.7635 33.3704 34.8932 33.4053C35.0562 33.4526 35.3033 33.5158 35.6398 33.5841L36.2445 33.7103C36.5945 33.7764 36.9178 33.9427 37.1751 34.1889C37.4342 34.4411 37.5915 34.7797 37.6168 35.1404C37.6577 35.4839 37.5896 35.8316 37.4223 36.1343C37.2482 36.4325 36.9929 36.6749 36.6862 36.8335C36.3226 37.0186 35.9258 37.1295 35.5189 37.1595C35.1017 37.1983 34.6809 37.15 34.2833 37.0175Z" fill="#1A1C2B"/>
<path d="M42.8223 31.9277C42.8106 31.9409 42.796 31.9512 42.7795 31.9576C42.763 31.964 42.7452 31.9663 42.7277 31.9644L40.2197 32.1274C40.2139 32.1265 40.2081 32.127 40.2026 32.1288C40.197 32.1306 40.192 32.1337 40.1879 32.1378C40.1838 32.1419 40.1808 32.1469 40.179 32.1524C40.1772 32.158 40.1767 32.1638 40.1776 32.1695L40.2302 32.9582C40.2302 32.9897 40.2302 33.0003 40.2775 33.0003L41.8286 32.9003C41.8592 32.8895 41.8926 32.8895 41.9232 32.9003C41.9353 32.9128 41.9448 32.9277 41.9511 32.9439C41.9575 32.9602 41.9605 32.9776 41.96 32.995L42.0336 34.0833C42.0351 34.1004 42.033 34.1176 42.0276 34.1339C42.0222 34.1502 42.0135 34.1653 42.0021 34.1781C41.991 34.191 41.9773 34.2014 41.9619 34.2086C41.9465 34.2159 41.9297 34.2197 41.9127 34.22L40.3616 34.3148C40.3556 34.3147 40.3497 34.3159 40.3442 34.3184C40.3387 34.3208 40.3338 34.3244 40.3298 34.3289C40.3259 34.3334 40.3229 34.3386 40.3211 34.3443C40.3193 34.35 40.3188 34.3561 40.3196 34.362L40.3774 35.2349C40.3774 35.2612 40.3774 35.2769 40.4195 35.2716L42.9327 35.1139C42.9664 35.1111 43 35.1204 43.0274 35.1402C43.0395 35.1527 43.049 35.1676 43.0553 35.1838C43.0616 35.2001 43.0646 35.2175 43.0642 35.2349L43.1378 36.3337C43.1386 36.368 43.1275 36.4014 43.1062 36.4283C43.0949 36.4406 43.081 36.4502 43.0656 36.4566C43.0502 36.4629 43.0335 36.4658 43.0169 36.4652L39.0104 36.7228C38.9761 36.7236 38.9426 36.7124 38.9157 36.6912C38.9035 36.6799 38.8939 36.6661 38.8875 36.6507C38.8812 36.6352 38.8782 36.6186 38.8789 36.6019L38.5214 30.976C38.5186 30.9423 38.5279 30.9088 38.5477 30.8813C38.5594 30.8696 38.5733 30.8603 38.5887 30.854C38.604 30.8477 38.6204 30.8445 38.637 30.8445L42.6435 30.5869C42.6606 30.5854 42.6779 30.5875 42.6941 30.5929C42.7104 30.5983 42.7254 30.607 42.7382 30.6185C42.7511 30.6296 42.7615 30.6432 42.7688 30.6586C42.776 30.674 42.7799 30.6908 42.7803 30.7078L42.8486 31.8067C42.8536 31.8276 42.8539 31.8492 42.8493 31.8702C42.8448 31.8911 42.8356 31.9108 42.8223 31.9277Z" fill="#1A1C2B"/>
<path d="M45.2093 36.2078C44.8675 36.0446 44.5794 35.7875 44.3785 35.4665C44.1696 35.1244 44.0586 34.7315 44.0578 34.3307L44.021 32.6324C44.0043 32.237 44.0951 31.8445 44.2839 31.4967C44.4699 31.1672 44.7475 30.8987 45.0831 30.7238C45.4558 30.5269 45.8709 30.424 46.2924 30.4241C46.7109 30.4055 47.1282 30.4828 47.5122 30.6501C47.8493 30.7955 48.1377 31.0346 48.343 31.339C48.5451 31.6528 48.6544 32.0173 48.6585 32.3905C48.6585 32.4431 48.6164 32.4746 48.5375 32.4851L47.2073 32.6009H47.181C47.1679 32.6025 47.1547 32.6011 47.1422 32.5969C47.1298 32.5928 47.1183 32.5861 47.1088 32.577C47.0993 32.568 47.0918 32.5569 47.0871 32.5447C47.0823 32.5325 47.0802 32.5193 47.0811 32.5062C47.0813 32.3094 47.0039 32.1204 46.8655 31.9804C46.7957 31.914 46.713 31.8625 46.6226 31.8291C46.5322 31.7956 46.436 31.781 46.3397 31.7859C46.2422 31.7852 46.1455 31.8039 46.0552 31.8409C45.9649 31.8779 45.8829 31.9325 45.8139 32.0015C45.7468 32.077 45.6954 32.1653 45.6629 32.261C45.6304 32.3567 45.6174 32.458 45.6246 32.5588L45.6667 34.3675C45.666 34.4651 45.6847 34.5618 45.7217 34.6521C45.7587 34.7424 45.8133 34.8243 45.8823 34.8933C45.9521 34.9597 46.0348 35.0112 46.1252 35.0446C46.2156 35.0781 46.3118 35.0929 46.4081 35.0879C46.5061 35.0888 46.6033 35.0696 46.6938 35.0317C46.7842 34.9937 46.8659 34.9376 46.9339 34.867C47.0641 34.7237 47.1322 34.5346 47.1232 34.3412C47.1223 34.3273 47.1247 34.3135 47.1302 34.3008C47.1357 34.288 47.1441 34.2766 47.1547 34.2676C47.1686 34.2607 47.1839 34.2571 47.1994 34.2571C47.2149 34.2571 47.2302 34.2607 47.2441 34.2676L48.5743 34.3045C48.6585 34.3045 48.7058 34.336 48.7058 34.3833C48.7179 34.7522 48.625 35.1169 48.4376 35.4349C48.2468 35.7514 47.9695 36.0067 47.6384 36.1709C47.2622 36.357 46.8488 36.4559 46.4291 36.4601C46.0083 36.4729 45.5904 36.3865 45.2093 36.2078Z" fill="#1A1C2B"/>
<path d="M50.9142 36.1231C50.5759 35.9614 50.2912 35.7058 50.094 35.3869C49.8984 35.0503 49.7985 34.6668 49.8048 34.2776V30.5602C49.8033 30.5431 49.8054 30.5259 49.8108 30.5096C49.8162 30.4933 49.8249 30.4784 49.8363 30.4656C49.8489 30.4535 49.8637 30.4439 49.8799 30.4376C49.8962 30.4313 49.9135 30.4283 49.931 30.4287H51.2559C51.273 30.4273 51.2902 30.4293 51.3065 30.4348C51.3228 30.4402 51.3378 30.4489 51.3506 30.4603C51.3727 30.4868 51.3839 30.5205 51.3821 30.5549V34.2723C51.3773 34.3729 51.3925 34.4735 51.4268 34.5683C51.4611 34.6631 51.5138 34.7501 51.5819 34.8244C51.65 34.8937 51.7322 34.9473 51.823 34.9818C51.9137 35.0163 52.0109 35.0307 52.1077 35.0241C52.2053 35.0283 52.3026 35.0117 52.3932 34.9755C52.4839 34.9392 52.5658 34.8842 52.6335 34.8139C52.7677 34.6622 52.8375 34.4641 52.8281 34.2618V30.5444C52.8266 30.5116 52.8379 30.4796 52.8596 30.455C52.8718 30.4424 52.8865 30.4325 52.9029 30.4262C52.9192 30.4198 52.9367 30.4171 52.9543 30.4182H54.2845C54.3173 30.4167 54.3493 30.4281 54.3739 30.4498C54.3871 30.4615 54.3974 30.4762 54.4038 30.4927C54.4102 30.5091 54.4126 30.5268 54.4107 30.5444V34.2618C54.4204 34.65 54.3241 35.0337 54.132 35.3712C53.9413 35.6923 53.662 35.9516 53.3276 36.1178C52.952 36.2981 52.5401 36.3899 52.1235 36.386C51.7056 36.3917 51.292 36.3018 50.9142 36.1231Z" fill="#1A1C2B"/>
<path d="M58.5065 36.3331L57.6652 34.1669C57.6628 34.1563 57.6567 34.1467 57.6481 34.14C57.6395 34.1333 57.6288 34.1298 57.6179 34.1301H57.2604C57.2546 34.1292 57.2488 34.1297 57.2433 34.1315C57.2377 34.1333 57.2327 34.1363 57.2286 34.1404C57.2245 34.1445 57.2215 34.1495 57.2197 34.155C57.2179 34.1605 57.2174 34.1665 57.2183 34.1722L57.1394 36.2754C57.1401 36.292 57.1372 36.3086 57.1308 36.324C57.1245 36.3394 57.1148 36.3533 57.1026 36.3647C57.0913 36.3783 57.0765 36.3884 57.0598 36.394C57.0431 36.3996 57.0251 36.4004 57.008 36.3963L55.683 36.3489C55.6482 36.3474 55.615 36.3344 55.5884 36.3121C55.5671 36.2852 55.556 36.2517 55.5568 36.2175L55.7724 30.5863C55.7719 30.5689 55.775 30.5514 55.7813 30.5352C55.7876 30.5189 55.7971 30.5042 55.8092 30.4917C55.8219 30.4803 55.837 30.472 55.8534 30.4674C55.8698 30.4629 55.8871 30.4621 55.9038 30.4654L58.4487 30.56C58.7992 30.5664 59.1426 30.6604 59.4476 30.8334C59.7226 30.9967 59.9465 31.2334 60.0944 31.5169C60.246 31.8234 60.3149 32.1641 60.2942 32.5054C60.2912 32.8502 60.1829 33.1859 59.9839 33.4676C59.7931 33.7364 59.5228 33.9387 59.211 34.046C59.2046 34.0467 59.1985 34.0489 59.1933 34.0527C59.1881 34.0564 59.184 34.0615 59.1813 34.0673C59.1786 34.0732 59.1776 34.0797 59.1782 34.0861C59.1788 34.0925 59.181 34.0985 59.1848 34.1038L60.168 36.3647C60.169 36.384 60.169 36.4033 60.168 36.4226C60.1667 36.4359 60.1628 36.4487 60.1565 36.4605C60.1502 36.4722 60.1416 36.4825 60.1312 36.4909C60.1037 36.4988 60.0745 36.4988 60.047 36.4909L58.6327 36.4383C58.6033 36.436 58.5754 36.4246 58.5528 36.4058C58.5302 36.3869 58.514 36.3616 58.5065 36.3331ZM57.3024 31.885L57.2656 32.8683C57.2656 32.8998 57.2656 32.9155 57.3077 32.9155L58.0964 32.9418C58.2557 32.9551 58.4144 32.9102 58.5433 32.8156C58.5995 32.7699 58.6448 32.7122 58.6757 32.6467C58.7067 32.5812 58.7225 32.5095 58.7221 32.4371C58.7285 32.3641 58.7182 32.2906 58.6917 32.2222C58.6653 32.1538 58.6235 32.0924 58.5696 32.0427C58.4513 31.9358 58.2979 31.8759 58.1384 31.8744H57.3497C57.3024 31.8482 57.2919 31.8587 57.2866 31.885H57.3024Z" fill="#1A1C2B"/>
<path d="M65.7886 32.3158C65.776 32.3272 65.7608 32.3355 65.7444 32.3401C65.728 32.3446 65.7107 32.3453 65.694 32.3421L63.186 32.158C63.186 32.158 63.1439 32.1581 63.1439 32.1949L63.0861 32.9836C63.0861 33.0098 63.0861 33.0255 63.1229 33.0308L64.7003 33.1465C64.7169 33.1458 64.7335 33.1488 64.749 33.1552C64.7644 33.1615 64.7783 33.1711 64.7897 33.1833C64.8004 33.1964 64.8083 33.2115 64.8128 33.2278C64.8174 33.2441 64.8184 33.2612 64.8159 33.2779L64.7371 34.3716C64.7352 34.4057 64.7201 34.4377 64.695 34.4609C64.6823 34.4723 64.6672 34.4806 64.6508 34.4852C64.6343 34.4898 64.6171 34.4905 64.6004 34.4872L63.023 34.3716C63.0175 34.3708 63.0118 34.3713 63.0065 34.3727C63.0011 34.3742 62.996 34.3766 62.9916 34.3801C62.9872 34.3835 62.9835 34.3878 62.9808 34.3926C62.9781 34.3975 62.9763 34.4029 62.9757 34.4084L62.9126 35.2812C62.9126 35.3127 62.9126 35.3286 62.9494 35.3286L65.4574 35.5178C65.4741 35.5167 65.4909 35.5196 65.5063 35.526C65.5218 35.5324 65.5357 35.5421 65.5468 35.5546C65.568 35.5815 65.5792 35.615 65.5783 35.6492L65.4942 36.7482C65.4939 36.7652 65.49 36.7819 65.4827 36.7973C65.4755 36.8127 65.465 36.8264 65.4521 36.8375C65.4395 36.8489 65.4243 36.8572 65.4079 36.8618C65.3915 36.8663 65.3742 36.867 65.3575 36.8638L61.3562 36.5694C61.3227 36.5653 61.2914 36.5506 61.2669 36.5274C61.2561 36.5143 61.2482 36.4991 61.2437 36.4828C61.2391 36.4665 61.2381 36.4494 61.2406 36.4326L61.6612 30.812C61.6603 30.7948 61.6637 30.7776 61.6711 30.762C61.6784 30.7465 61.6895 30.7329 61.7033 30.7226C61.7159 30.7112 61.7311 30.7029 61.7475 30.6984C61.7639 30.6938 61.7812 30.6931 61.7979 30.6963L65.7992 30.9908C65.8327 30.9949 65.864 31.0097 65.8885 31.0329C65.8994 31.0635 65.8994 31.0969 65.8885 31.1275L65.8044 32.2263C65.8086 32.2415 65.8094 32.2575 65.8067 32.2729C65.8039 32.2884 65.7978 32.303 65.7886 32.3158Z" fill="#1A1C2B"/>
<path d="M49.5683 97.1616L49.4736 97.1248C29.7565 89.4378 16.5487 77.8126 10.2129 62.5699C0.391129 38.9094 10.807 14.5443 10.9122 14.3024L10.9753 14.1499H11.1435C32.7009 13.2561 48.727 0.76856 49.4 0.237513L49.563 0.111328L49.7313 0.23225C49.8995 0.363697 66.6196 13.3087 88.0456 14.192H88.2138L88.2769 14.3392C88.3821 14.5864 98.7927 38.9357 88.9499 62.5541C82.6089 77.8021 69.3958 89.4273 49.6629 97.1196L49.5683 97.1616ZM11.3276 14.6599C10.4705 16.7631 1.36384 39.8978 10.7019 62.3753C16.9693 77.4497 30.0457 88.9646 49.5683 96.5938C69.1066 88.9593 82.1673 77.4445 88.4767 62.3648C97.8095 39.9188 88.7344 16.7894 87.8773 14.7073C67.4925 13.8029 51.377 2.0883 49.5893 0.768566C47.7228 2.1882 32.1068 13.745 11.3276 14.6599Z" fill="#00DF8D"/>
<path d="M26.5543 37.2793C27.6375 37.2793 28.5155 36.4013 28.5155 35.3181C28.5155 34.235 27.6375 33.3569 26.5543 33.3569C25.4712 33.3569 24.5931 34.235 24.5931 35.3181C24.5931 36.4013 25.4712 37.2793 26.5543 37.2793Z" fill="#1A1C2B"/>
<path d="M73.5493 37.2793C74.6325 37.2793 75.5105 36.4013 75.5105 35.3181C75.5105 34.235 74.6325 33.3569 73.5493 33.3569C72.4662 33.3569 71.5881 34.235 71.5881 35.3181C71.5881 36.4013 72.4662 37.2793 73.5493 37.2793Z" fill="#1A1C2B"/>
<path d="M47.9907 99.8181C53.0031 100.696 58.1591 99.5481 62.3249 96.6256C66.4907 93.7031 69.3253 89.2458 70.2053 84.2337C71.0852 79.2219 69.9382 74.0659 67.0165 69.8999C64.0949 65.7338 59.6379 62.899 54.6262 62.0191C49.6138 61.1407 44.4578 62.2891 40.292 65.2116C36.1262 68.134 33.2916 72.5914 32.4116 77.6034C31.9752 80.0851 32.032 82.6284 32.5789 85.0881C33.1257 87.5478 34.1518 89.8755 35.5986 91.9385C37.0454 94.0015 38.8844 95.7592 41.0107 97.1112C43.137 98.4632 45.5088 99.383 47.9907 99.8181Z" fill="#182877"/>
<path d="M46.7709 96.3055C49.0375 96.7033 51.3602 96.6506 53.6064 96.1506C55.8525 95.6505 57.9782 94.7128 59.8619 93.3911C61.7457 92.0693 63.3505 90.3895 64.5849 88.4474C65.8193 86.5053 66.6589 84.339 67.0559 82.0723C67.4545 79.8061 67.4025 77.4836 66.9031 75.2375C66.4037 72.9913 65.4665 70.8656 64.1452 68.9818C62.8239 67.098 61.1443 65.493 59.2025 64.2585C57.2606 63.0241 55.0946 62.1844 52.8281 61.7875C48.2507 60.9839 43.5416 62.0314 39.7366 64.6996C35.9315 67.3678 33.3421 71.438 32.5378 76.0152C31.7358 80.5932 32.7846 85.3022 35.4537 89.1071C38.1227 92.912 42.1934 95.5012 46.7709 96.3055Z" fill="#F68B42"/>
<path d="M49.8098 96.7414C48.7804 96.7402 47.7531 96.6505 46.7392 96.4732C42.1167 95.6549 38.0077 93.0362 35.3137 89.1919C32.6197 85.3475 31.5608 80.5916 32.3693 75.9674C32.7665 73.677 33.6136 71.4879 34.8617 69.5269C36.1098 67.5658 37.7342 65.8716 39.641 64.542C41.54 63.2014 43.6863 62.2512 45.9554 61.7467C48.2245 61.2421 50.5712 61.1932 52.8594 61.6028C57.4831 62.4185 61.5939 65.0365 64.2884 68.8816C66.9829 72.7266 68.0406 77.4841 67.2292 82.1086C66.5018 86.2029 64.3589 89.9113 61.1748 92.586C57.9908 95.2607 53.9681 96.7315 49.8098 96.7414ZM46.8023 96.1314C51.3342 96.9257 55.9962 95.8874 59.7627 93.2449C63.5293 90.6024 66.0921 86.572 66.8874 82.0402C67.6817 77.5082 66.6434 72.8463 64.0009 69.0798C61.3584 65.3132 57.3281 62.7504 52.7963 61.955C50.5527 61.554 48.2519 61.6021 46.0271 62.0967C43.8023 62.5913 41.6978 63.5225 39.8355 64.8363C37.9654 66.1405 36.3727 67.803 35.1497 69.7272C33.9268 71.6515 33.0979 73.7993 32.7111 76.0462C31.9168 80.5782 32.9551 85.2402 35.5976 89.0068C38.2401 92.7733 42.2704 95.336 46.8023 96.1314Z" fill="#1D2749"/>
<path opacity="0.72" d="M38.6896 65.7983C36.9216 67.2631 35.46 69.0624 34.3886 71.0931C33.3209 73.1253 32.6634 75.3478 32.4537 77.6339C32.249 79.9187 32.4955 82.2215 33.1793 84.4113C33.8663 86.6021 34.9796 88.6356 36.455 90.3948C37.9292 92.1542 39.7377 93.6034 41.776 94.6589C43.8137 95.7153 46.0402 96.3586 48.3273 96.5518C50.6136 96.7444 52.9154 96.4818 55.0995 95.7789C57.2866 95.0801 59.3132 93.9542 61.062 92.4664L38.6896 65.7983Z" fill="#FCE68D"/>
<path d="M47.77 90.6158C49.2894 90.8819 50.8464 90.8463 52.352 90.5108C53.8576 90.1752 55.2823 89.5464 56.5449 88.6602C57.8075 87.7741 58.8832 86.6479 59.7106 85.346C60.538 84.0442 61.1008 82.5921 61.367 81.0727C61.6339 79.5536 61.5989 77.9968 61.264 76.4912C60.9291 74.9856 60.3009 73.5608 59.4151 72.2981C58.5294 71.0354 57.4036 69.9596 56.1019 69.1322C54.8003 68.3047 53.3484 67.7419 51.8291 67.4757C48.7613 66.938 45.6056 67.6408 43.0558 69.4293C40.506 71.2179 38.771 73.946 38.2322 77.0136C37.9652 78.533 38.0001 80.0902 38.335 81.5961C38.6698 83.102 39.298 84.5272 40.1837 85.7903C41.0694 87.0534 42.1952 88.1297 43.4969 88.9576C44.7985 89.7856 46.2506 90.349 47.77 90.6158Z" fill="#182877"/>
<path d="M47.544 88.1016C48.82 88.3254 50.1276 88.2957 51.3921 88.0141C52.6567 87.7326 53.8533 87.2048 54.9138 86.4607C55.9743 85.7166 56.8779 84.7709 57.5728 83.6775C58.2678 82.5842 58.7405 81.3646 58.9641 80.0885C59.1887 78.8124 59.1595 77.5046 58.8782 76.2398C58.597 74.975 58.0691 73.7781 57.3249 72.7175C56.5807 71.6568 55.6347 70.7532 54.541 70.0585C53.4474 69.3637 52.2275 68.8913 50.9511 68.6684C49.6751 68.4445 48.3675 68.4742 47.1029 68.7558C45.8384 69.0374 44.6417 69.5653 43.5812 70.3094C42.5207 71.0535 41.6172 71.9992 40.9223 73.0925C40.2273 74.1859 39.7545 75.4054 39.5309 76.6814C39.3071 77.9574 39.3368 79.2651 39.6184 80.5296C39.8999 81.7941 40.4278 82.9908 41.1719 84.0513C41.916 85.1118 42.8617 86.0154 43.9551 86.7103C45.0484 87.4053 46.2679 87.878 47.544 88.1016Z" fill="#F4A045"/>
<path d="M49.2525 88.4229C48.669 88.4239 48.0866 88.3729 47.5122 88.2705C46.213 88.0452 44.9713 87.565 43.8586 86.8575C42.7459 86.15 41.7843 85.2292 41.0292 84.1482C40.2704 83.0702 39.7325 81.8528 39.4464 80.566C39.1604 79.2792 39.1318 77.9484 39.3624 76.6504C39.5877 75.3513 40.0679 74.1095 40.7754 72.9969C41.4829 71.8842 42.4037 70.9226 43.4846 70.1675C44.5626 69.4088 45.7801 68.8708 47.0669 68.5848C48.3537 68.2987 49.6845 68.2701 50.9824 68.5007C53.605 68.9638 55.9367 70.4486 57.4656 72.6291C58.9946 74.8096 59.5958 77.5078 59.1374 80.1312C58.7232 82.4529 57.5064 84.5552 55.6996 86.0708C53.8927 87.5864 51.6108 88.4189 49.2525 88.4229ZM49.2525 68.69C46.9739 68.6946 44.7694 69.5003 43.0249 70.9661C41.2803 72.4319 40.1067 74.4646 39.7094 76.7083C39.4866 77.9625 39.5141 79.2482 39.7902 80.4917C40.0663 81.7352 40.5857 82.9118 41.3184 83.9537C42.0474 84.998 42.9762 85.8874 44.051 86.5706C45.1259 87.2538 46.3255 87.7172 47.5805 87.934C48.8355 88.1532 50.1213 88.1231 51.3646 87.8454C52.6079 87.5677 53.7844 87.0478 54.8268 86.3154C55.8692 85.5831 56.7571 84.6526 57.4399 83.5771C58.1227 82.5016 58.5869 81.3021 58.8061 80.0472C59.2475 77.5129 58.6647 74.907 57.1859 72.8021C55.7071 70.6973 53.4531 69.2655 50.9193 68.8215C50.3651 68.7288 49.8039 68.6848 49.242 68.69H49.2525Z" fill="#1D2749"/>
<path d="M48.0272 83.8488C47.9253 83.8232 47.8295 83.7774 47.7456 83.7142C47.6616 83.651 47.5911 83.5716 47.5382 83.4808L45.1669 79.4795C45.1242 79.4306 45.0968 79.3702 45.0881 79.3059C45.072 79.2654 45.0614 79.223 45.0565 79.1797V79.1272C45.0565 79.0799 45.0565 79.0273 45.0828 78.9747V78.8853C45.0993 78.8119 45.1297 78.7424 45.1722 78.6803V78.6224V78.5699L45.2037 78.5278L45.2931 78.4332C45.3301 78.391 45.3725 78.3539 45.4193 78.3228H45.4456L45.5297 78.2912C45.5846 78.265 45.6431 78.2473 45.7032 78.2386H45.7558C45.7854 78.2336 45.8156 78.2336 45.8452 78.2386L47.7433 78.5699C48.0922 78.6275 48.4503 78.5584 48.7528 78.3753C48.9541 78.2562 49.1237 78.0903 49.2471 77.8916L46.1344 77.3658C46.0292 77.3479 45.9287 77.3094 45.8384 77.2526C45.7482 77.1957 45.6701 77.1217 45.6086 77.0346C45.4873 76.86 45.44 76.6445 45.4771 76.4351C45.4939 76.3296 45.5319 76.2286 45.5888 76.1382C45.6457 76.0478 45.7205 75.97 45.8084 75.9094C45.9825 75.7868 46.1978 75.7376 46.4078 75.7726L49.1682 76.2563C49.1067 76.1766 49.0381 76.1027 48.9631 76.0355C48.7581 75.8449 48.5026 75.7172 48.227 75.6675L46.4814 75.3625C46.2699 75.3243 46.0814 75.2056 45.9556 75.0313C45.8351 74.8544 45.7879 74.6376 45.8242 74.4266C45.8438 74.322 45.883 74.2222 45.9398 74.1322C45.9977 74.0447 46.0707 73.968 46.1554 73.9061C46.3323 73.7855 46.5491 73.7384 46.7601 73.7746L52.2598 74.7369C52.4709 74.7761 52.6591 74.8947 52.7856 75.0682C52.9062 75.2451 52.9533 75.4618 52.9171 75.6728C52.8799 75.8847 52.7609 76.0735 52.5858 76.1986C52.5 76.2616 52.4012 76.3047 52.2966 76.3247C52.1943 76.3459 52.0888 76.3459 51.9864 76.3247L50.9348 76.1354C50.981 76.2798 51.0161 76.4275 51.04 76.5771L51.9286 76.7349C52.0335 76.7502 52.1339 76.7878 52.223 76.8453C52.3108 76.905 52.3874 76.9797 52.4491 77.0661C52.507 77.1529 52.5496 77.2489 52.5753 77.35C52.5963 77.4541 52.5963 77.5614 52.5753 77.6655C52.5581 77.7708 52.5186 77.8712 52.4596 77.96C52.4062 78.051 52.3324 78.1284 52.2441 78.1861C52.1596 78.2481 52.0628 78.2912 51.9601 78.3122C51.856 78.3332 51.7488 78.3332 51.6447 78.3122L50.9033 78.1808C50.6487 78.8585 50.1651 79.4258 49.5362 79.7845C48.9102 80.1409 48.1799 80.2691 47.4699 80.1472H47.4278L48.8948 82.65C48.9475 82.7428 48.9832 82.8443 48.9999 82.9498C49.0182 83.0523 49.0182 83.1573 48.9999 83.2599C48.9482 83.4557 48.8266 83.6259 48.6582 83.7384C48.487 83.8488 48.2803 83.8902 48.0798 83.8541L48.0272 83.8488Z" fill="#1D2749"/>
<path d="M51.6712 76.671L50.5565 76.4765C50.525 76.0956 50.4158 75.7252 50.2358 75.3881L51.8395 75.672C51.9055 75.6848 51.9733 75.6848 52.0393 75.672C52.1033 75.6572 52.1639 75.6305 52.218 75.5932C52.2741 75.555 52.3208 75.5047 52.3547 75.446C52.3931 75.3911 52.4183 75.3281 52.4284 75.2619C52.4496 75.1296 52.4195 74.9942 52.3442 74.8834C52.308 74.8276 52.2594 74.7808 52.2023 74.7466C52.145 74.7091 52.0805 74.6841 52.013 74.6731L46.5237 73.7109C46.4582 73.6983 46.3909 73.6993 46.3258 73.7138C46.2607 73.7283 46.1992 73.7558 46.1452 73.7949C46.0909 73.8328 46.0448 73.8812 46.0096 73.9372C45.9743 73.9932 45.9507 74.0557 45.9401 74.121C45.9273 74.187 45.9273 74.2547 45.9401 74.3207C45.9564 74.3859 45.983 74.4481 46.019 74.5048C46.0596 74.5568 46.1074 74.6029 46.1609 74.6415C46.2196 74.6751 46.2836 74.6982 46.3502 74.7098L48.1011 75.0201C48.4296 75.0797 48.7353 75.229 48.9844 75.4512C49.2351 75.6768 49.4173 75.9683 49.5102 76.2924L46.182 75.7089C46.084 75.6936 45.9838 75.7063 45.8928 75.7456C45.8022 75.7881 45.7255 75.8557 45.672 75.9402C45.6174 76.0246 45.5899 76.1237 45.5931 76.2241C45.5937 76.324 45.6249 76.4212 45.6825 76.5028C45.7207 76.5569 45.7689 76.6033 45.8244 76.6395C45.8793 76.6779 45.9423 76.703 46.0085 76.7131L49.505 77.3282C49.373 77.7321 49.1006 78.0754 48.7373 78.2957C48.3732 78.5157 47.9416 78.596 47.5227 78.5218L45.7456 78.2116H45.6772C45.6443 78.2042 45.6102 78.2042 45.5773 78.2116C45.54 78.2159 45.504 78.2284 45.4721 78.2484H45.4038C45.3527 78.2898 45.3052 78.3355 45.2618 78.3851V78.4745C45.2192 78.5187 45.1884 78.5729 45.1725 78.6322C45.1695 78.6566 45.1695 78.6814 45.1725 78.7059C45.1674 78.7372 45.1674 78.7691 45.1725 78.8005C45.1773 78.837 45.188 78.8724 45.204 78.9056C45.2015 78.9177 45.2015 78.9303 45.204 78.9424V78.974L47.5858 83.0015C47.6561 83.1153 47.767 83.198 47.896 83.2328C47.962 83.2456 48.0299 83.2456 48.0959 83.2328C48.163 83.2236 48.2275 83.2003 48.2851 83.1645C48.3421 83.1304 48.392 83.0858 48.4323 83.0331C48.4714 82.9794 48.5 82.9187 48.5165 82.8543C48.5295 82.7901 48.5295 82.724 48.5165 82.6598C48.5067 82.5935 48.4853 82.5294 48.4534 82.4705L46.6657 79.3999L47.3282 79.5156C48.012 79.6391 48.7173 79.5022 49.3052 79.1318C49.895 78.7604 50.3259 78.1833 50.5145 77.5123L51.5135 77.6859C51.5777 77.699 51.6438 77.699 51.708 77.6859C51.7739 77.6716 51.8363 77.6447 51.8921 77.6069C51.9716 77.5453 52.0332 77.4636 52.0708 77.3703C52.0997 77.2761 52.0997 77.1754 52.0708 77.0811C52.0514 76.9826 52.0018 76.8925 51.9288 76.8235C51.8555 76.7556 51.7643 76.71 51.666 76.692L51.6712 76.671Z" fill="#F68B42"/>
<path d="M47.9908 83.3185C47.9403 83.3265 47.8889 83.3265 47.8384 83.3185C47.7628 83.3009 47.6916 83.2681 47.6292 83.2219C47.5668 83.1758 47.5145 83.1174 47.4756 83.0503L45.0937 79.0332L45.0622 78.9754C45.0596 78.9598 45.0596 78.9437 45.0622 78.9281C45.0462 78.8949 45.0355 78.8594 45.0306 78.8229C45.0197 78.7798 45.0197 78.7346 45.0306 78.6915C45.0257 78.6654 45.0257 78.6387 45.0306 78.6127C45.0454 78.5498 45.0762 78.4918 45.12 78.4444C45.1151 78.4183 45.1151 78.3915 45.12 78.3654V78.334C45.1656 78.2797 45.2166 78.2303 45.2725 78.1867H45.2988H45.3619C45.4016 78.1676 45.4443 78.1551 45.4881 78.1499C45.5299 78.1441 45.5724 78.1441 45.6143 78.1499H45.6931L47.4545 78.4602C47.8535 78.5299 48.2642 78.4532 48.6113 78.2445C48.9308 78.0537 49.1771 77.7613 49.3106 77.4139L45.914 76.8196C45.8373 76.806 45.7641 76.7775 45.6984 76.7356C45.6325 76.6924 45.5754 76.6371 45.5301 76.5725C45.4664 76.4753 45.4301 76.3628 45.425 76.2466C45.4246 76.1295 45.4574 76.0146 45.5196 75.9153C45.5814 75.8163 45.671 75.7377 45.7773 75.6892C45.8845 75.6415 46.0035 75.6268 46.119 75.6471L49.3053 76.2045C49.2117 75.951 49.0584 75.7237 48.8584 75.542C48.6225 75.3273 48.331 75.1833 48.0171 75.1266L46.2662 74.8164C46.1895 74.8063 46.1158 74.7794 46.0507 74.7375C45.9836 74.6959 45.9262 74.6403 45.8824 74.5745C45.8357 74.5123 45.8034 74.4405 45.7878 74.3642C45.7747 74.2877 45.7747 74.2095 45.7878 74.1329C45.8171 73.9763 45.9056 73.837 46.0349 73.7438C46.1639 73.6554 46.3226 73.6213 46.4766 73.6491L51.9658 74.6114C52.043 74.623 52.1167 74.6517 52.1814 74.6954C52.2485 74.7349 52.3059 74.7888 52.3496 74.8532C52.4397 74.9835 52.4756 75.1439 52.4495 75.3002C52.4379 75.3774 52.4091 75.451 52.3654 75.5157C52.3242 75.5815 52.2706 75.6386 52.2077 75.684C52.1433 75.7304 52.0698 75.7626 51.9921 75.7786C51.9155 75.7918 51.8373 75.7918 51.7608 75.7786L50.3253 75.5262C50.4569 75.8105 50.5422 76.114 50.5777 76.4253L51.7082 76.6199C51.7903 76.6501 51.8654 76.6966 51.929 76.7566C52.0127 76.8383 52.0711 76.9423 52.0973 77.0562C52.1314 77.1676 52.1314 77.2867 52.0973 77.3981C52.0552 77.5092 51.9799 77.6047 51.8817 77.6715C51.8194 77.7182 51.7476 77.7505 51.6714 77.7661C51.5953 77.7844 51.5161 77.7844 51.44 77.7661L50.5146 77.6083C50.3091 78.2628 49.8765 78.8222 49.2948 79.1857C48.6879 79.5673 47.9601 79.7079 47.2547 79.58L46.7763 79.5012L48.4693 82.4089C48.51 82.476 48.5352 82.5515 48.5429 82.6296C48.5612 82.7039 48.5612 82.7814 48.5429 82.8557C48.5237 82.9317 48.4897 83.0032 48.443 83.0661C48.3972 83.1292 48.3379 83.1813 48.2695 83.2186C48.2023 83.2602 48.127 83.2871 48.0487 83.2974L47.9908 83.3185ZM45.3198 78.4128C45.3172 78.4302 45.3172 78.448 45.3198 78.4654V78.4969V78.5232C45.2881 78.5557 45.2647 78.5954 45.2515 78.6389C45.2492 78.6563 45.2492 78.674 45.2515 78.6915C45.2493 78.7142 45.2493 78.737 45.2515 78.7598C45.2566 78.7822 45.2654 78.8036 45.2778 78.8229V78.8492L47.6754 82.8873C47.7347 82.9813 47.8263 83.0505 47.933 83.0819C47.9886 83.0924 48.0457 83.0924 48.1013 83.0819C48.1556 83.0772 48.208 83.0591 48.2537 83.0293C48.3029 83.0014 48.3458 82.9639 48.3799 82.9189C48.4131 82.8753 48.4364 82.8251 48.4483 82.7716C48.4588 82.7178 48.4588 82.6624 48.4483 82.6086C48.4387 82.5554 48.421 82.5039 48.3957 82.4561L46.5134 79.2225L47.3546 79.3698C48.0202 79.489 48.7063 79.3559 49.279 78.9965C49.8502 78.6336 50.2662 78.0714 50.4463 77.4191V77.3454L51.4979 77.5348C51.5532 77.548 51.6108 77.548 51.6661 77.5348C51.7195 77.5229 51.7698 77.4995 51.8133 77.4664C51.8821 77.4178 51.9351 77.3502 51.9658 77.2719C51.9923 77.1934 51.9923 77.1085 51.9658 77.03C51.9489 76.9488 51.9066 76.8751 51.8449 76.8196C51.7873 76.7599 51.7114 76.7211 51.6293 76.7092H51.5452L50.4515 76.5199V76.4516C50.4216 76.0828 50.3141 75.7245 50.1361 75.4L50.0519 75.2423L51.8344 75.5525C51.8882 75.563 51.9435 75.563 51.9974 75.5525C52.0521 75.5397 52.1038 75.5164 52.1498 75.4841C52.1944 75.4537 52.232 75.4143 52.2603 75.3685C52.2919 75.3208 52.3134 75.2671 52.3233 75.2107C52.3413 75.0999 52.3149 74.9867 52.2497 74.8953C52.218 74.8505 52.1789 74.8114 52.1341 74.7796C52.0849 74.752 52.0317 74.7324 51.9763 74.7217L46.4871 73.7595C46.4334 73.7494 46.3783 73.7503 46.325 73.7621C46.2717 73.7738 46.2213 73.7962 46.1769 73.8279C46.0857 73.8931 46.0235 73.9911 46.0034 74.1013C45.9928 74.1569 45.9928 74.214 46.0034 74.2696C46.0184 74.322 46.0414 74.3715 46.0717 74.4167C46.102 74.4628 46.1414 74.5022 46.1874 74.5325C46.2349 74.5596 46.2863 74.5791 46.3399 74.5903L48.096 74.9006C48.4411 74.9604 48.7621 75.1172 49.0214 75.3527C49.2752 75.5926 49.4573 75.8986 49.5472 76.2361L49.5787 76.3675L46.119 75.7575C46.0388 75.7444 45.9564 75.7554 45.8824 75.7891C45.8055 75.8228 45.7411 75.8798 45.6984 75.9521C45.6523 76.0204 45.6285 76.1011 45.63 76.1835C45.6328 76.2659 45.6582 76.3459 45.7037 76.4148C45.7358 76.461 45.7769 76.5004 45.8246 76.5304C45.8703 76.5621 45.9223 76.5837 45.9771 76.5936L49.5735 77.2245L49.5419 77.3191C49.4026 77.7436 49.1152 78.1039 48.7322 78.334C48.3502 78.563 47.8986 78.6469 47.4598 78.5706L45.6826 78.2603H45.6248H45.5985C45.576 78.2553 45.5527 78.2553 45.5301 78.2603H45.4618L45.4039 78.2866C45.37 78.3244 45.3416 78.3669 45.3198 78.4128Z" fill="#1D2749"/>
</g>
<defs>
<clipPath id="clip0_5592_19905">
<rect width="100" height="100" fill="white"/>
</clipPath>
</defs>
</svg>
