<svg width="237" height="40" viewBox="0 0 237 40" fill="none" xmlns="http://www.w3.org/2000/svg">
<path d="M48.4871 26.4831V10.4542H42.4316V7.02344H58.1745V10.4542H52.1191V26.4894H48.4932L48.4871 26.4831Z" fill="#2031AE"/>
<path d="M57.9028 26.4825V11.8846H61.1032V15.4528L60.7579 14.9904C60.9429 14.4842 61.1957 14.028 61.504 13.6094C61.8123 13.1969 62.1947 12.8532 62.651 12.5845C62.9963 12.3658 63.3724 12.1971 63.7856 12.0783C64.1926 11.9596 64.6181 11.8784 65.0497 11.8471C65.4875 11.8159 65.9192 11.8284 66.357 11.8784V15.3091C65.9562 15.1841 65.4937 15.1404 64.9634 15.1779C64.4331 15.2154 63.9583 15.3404 63.5266 15.5466C63.1011 15.7465 62.7373 16.009 62.4475 16.3402C62.1515 16.6714 61.9295 17.0589 61.7815 17.5025C61.6335 17.9462 61.5534 18.4524 61.5534 19.0086V26.47H57.8967L57.9028 26.4825Z" fill="#2031AE"/>
<path d="M71.5614 26.8903C70.5316 26.8903 69.6559 26.6904 68.9406 26.2904C68.2253 25.8905 67.6827 25.3531 67.3127 24.6844C66.9427 24.0158 66.7577 23.2721 66.7577 22.4597C66.7577 21.7848 66.8626 21.1662 67.066 20.61C67.2695 20.0538 67.6025 19.5602 68.0588 19.129C68.5152 18.704 69.1318 18.3416 69.9088 18.0541C70.4452 17.8542 71.0804 17.6792 71.8142 17.5292C72.548 17.3792 73.3866 17.2292 74.3239 17.0918C75.255 16.9543 76.2848 16.7981 77.4071 16.6231L76.0998 17.3542C76.0998 16.4918 75.8964 15.8544 75.4832 15.4483C75.0762 15.0421 74.3917 14.8421 73.4298 14.8421C72.8933 14.8421 72.3383 14.9733 71.7648 15.2358C71.1852 15.4982 70.7844 15.9607 70.5501 16.6293L67.2695 15.5732C67.6333 14.3672 68.3178 13.3861 69.3229 12.6237C70.3281 11.8675 71.697 11.4863 73.4298 11.4863C74.7001 11.4863 75.8285 11.6863 76.8151 12.08C77.8018 12.4737 78.5479 13.1611 79.0536 14.1359C79.3372 14.6796 79.5099 15.217 79.5592 15.7607C79.6085 16.3044 79.6394 16.9043 79.6394 17.5729V26.4966H76.4637V23.4971L76.92 24.1157C76.217 25.0968 75.4585 25.8092 74.6446 26.2467C73.8306 26.6841 72.8008 26.9028 71.5552 26.9028L71.5614 26.8903ZM72.3322 23.997C72.9981 23.997 73.5593 23.8783 74.0218 23.6408C74.4781 23.4033 74.8419 23.1284 75.1132 22.8222C75.3845 22.516 75.5695 22.2598 75.6682 22.0535C75.8532 21.6598 75.9642 21.1974 75.995 20.6662C76.0258 20.1413 76.0443 19.6976 76.0443 19.3477L77.1111 19.6164C76.032 19.7976 75.1625 19.9476 74.4966 20.0663C73.8306 20.1913 73.288 20.2975 72.881 20.3975C72.474 20.4975 72.1102 20.6038 71.8019 20.7225C71.4442 20.8662 71.1605 21.0224 70.9386 21.1912C70.7166 21.3599 70.5624 21.5411 70.4576 21.7411C70.3527 21.9411 70.3034 22.1598 70.3034 22.4035C70.3034 22.7347 70.3836 23.0221 70.5501 23.2596C70.7166 23.4971 70.9509 23.6783 71.253 23.8095C71.5552 23.9345 71.9128 23.997 72.3322 23.997V23.997Z" fill="#2031AE"/>
<path d="M87.8904 26.8897C86.5647 26.8897 85.4054 26.5522 84.4064 25.8773C83.4075 25.2024 82.6367 24.2838 82.0755 23.1215C81.5144 21.9592 81.243 20.6468 81.243 19.1908C81.243 17.7348 81.5267 16.3787 82.0878 15.2226C82.6551 14.0666 83.4445 13.1542 84.4681 12.4855C85.4917 11.8169 86.688 11.4857 88.0693 11.4857C89.4505 11.4857 90.5913 11.8231 91.5225 12.498C92.4536 13.1729 93.1627 14.0915 93.6437 15.2539C94.1247 16.4162 94.3652 17.7285 94.3652 19.1846C94.3652 20.6406 94.1247 21.9529 93.6375 23.1152C93.1504 24.2776 92.4289 25.1962 91.4731 25.8711C90.5112 26.546 89.3149 26.8834 87.8843 26.8834L87.8904 26.8897ZM88.4762 23.6152C89.284 23.6152 89.9315 23.4339 90.4187 23.059C90.9058 22.6903 91.2511 22.1716 91.467 21.503C91.6828 20.8343 91.7876 20.0594 91.7876 19.1783C91.7876 18.2972 91.6828 17.5223 91.467 16.8536C91.2511 16.185 90.912 15.6663 90.4433 15.2976C89.9747 14.9289 89.3642 14.7415 88.6119 14.7415C87.8041 14.7415 87.1381 14.9414 86.6202 15.3414C86.1022 15.7413 85.7137 16.2787 85.467 16.9474C85.2204 17.616 85.0909 18.3597 85.0909 19.1721C85.0909 19.9844 85.2081 20.7406 85.4485 21.4092C85.689 22.0779 86.059 22.6153 86.5523 23.009C87.0518 23.4027 87.6931 23.6027 88.4762 23.6027V23.6152ZM91.7814 26.4835V16.4787H91.3251V7.01758H94.9818V26.4835H91.7814Z" fill="#2031AE"/>
<path d="M97.917 9.85461V6.61133H101.543V9.85461H97.917ZM97.917 26.4834V11.8856H101.543V26.4834H97.917Z" fill="#2031AE"/>
<path d="M104.453 26.4841V11.8863H107.678V16.7231H108.134V26.4841H104.453V26.4841ZM114.295 26.4841V19.5914C114.295 19.2602 114.276 18.8353 114.239 18.3166C114.202 17.7979 114.091 17.2792 113.906 16.7543C113.721 16.2294 113.413 15.7919 112.994 15.442C112.574 15.092 111.976 14.9171 111.199 14.9171C110.891 14.9171 110.552 14.9671 110.2 15.0671C109.843 15.167 109.51 15.3545 109.201 15.642C108.887 15.9232 108.634 16.3419 108.437 16.8918C108.239 17.4417 108.134 18.1729 108.134 19.079L106.056 18.0791C106.056 16.923 106.291 15.8419 106.747 14.8358C107.21 13.8235 107.906 13.0111 108.831 12.3862C109.756 11.7613 110.934 11.4551 112.346 11.4551C113.475 11.4551 114.393 11.6488 115.109 12.0362C115.818 12.4237 116.373 12.9174 116.767 13.511C117.162 14.1047 117.446 14.7234 117.612 15.367C117.779 16.0107 117.884 16.5981 117.921 17.1293C117.958 17.6604 117.976 18.0479 117.976 18.2916V26.4841H114.295V26.4841Z" fill="#2031AE"/>
<path d="M126.228 26.8903C124.902 26.8903 123.743 26.5529 122.744 25.878C121.745 25.2031 120.974 24.2845 120.413 23.1221C119.852 21.9598 119.58 20.6475 119.58 19.1915C119.58 17.7354 119.864 16.3794 120.425 15.2233C120.992 14.0672 121.782 13.1548 122.805 12.4862C123.829 11.8175 125.025 11.4863 126.406 11.4863C127.788 11.4863 128.928 11.8238 129.86 12.4987C130.791 13.1736 131.5 14.0922 131.981 15.2545C132.462 16.4169 132.702 17.7292 132.702 19.1852C132.702 20.6412 132.462 21.9536 131.975 23.1159C131.488 24.2782 130.766 25.1968 129.81 25.8717C128.848 26.5466 127.652 26.8841 126.221 26.8841L126.228 26.8903ZM126.548 33.3769C125.728 33.3769 124.951 33.2457 124.211 32.9769C123.471 32.7145 122.811 32.3395 122.232 31.8709C121.652 31.4022 121.177 30.846 120.813 30.2149L124.174 28.5651C124.409 28.9963 124.735 29.3275 125.167 29.5524C125.599 29.7774 126.067 29.8899 126.573 29.8899C127.116 29.8899 127.627 29.7962 128.108 29.6149C128.589 29.4275 128.972 29.1525 129.261 28.7901C129.551 28.4276 129.687 27.9714 129.668 27.434V23.1909H130.125V11.8863H133.3V27.484C133.3 27.8464 133.282 28.1839 133.251 28.5026C133.22 28.8213 133.165 29.14 133.085 29.4525C132.85 30.3461 132.425 31.0772 131.796 31.6584C131.167 32.2396 130.402 32.6645 129.496 32.952C128.589 33.2394 127.609 33.3769 126.548 33.3769V33.3769ZM126.813 23.6158C127.621 23.6158 128.269 23.4346 128.756 23.0596C129.243 22.6909 129.588 22.1723 129.804 21.5036C130.02 20.835 130.125 20.0601 130.125 19.179C130.125 18.2978 130.02 17.5229 129.804 16.8543C129.588 16.1856 129.249 15.667 128.78 15.2983C128.312 14.9296 127.701 14.7421 126.949 14.7421C126.141 14.7421 125.475 14.9421 124.957 15.342C124.439 15.742 124.051 16.2794 123.804 16.948C123.558 17.6167 123.428 18.3603 123.428 19.1727C123.428 19.9851 123.545 20.7412 123.786 21.4099C124.026 22.0785 124.396 22.616 124.889 23.0097C125.389 23.4033 126.03 23.6033 126.813 23.6033V23.6158Z" fill="#2031AE"/>
<path d="M22.5506 0H0V11.4296H22.5506V0Z" fill="#2031AE"/>
<path d="M22.5506 39.9938C10.1191 39.9938 0 29.739 0 17.1409H11.2784C11.2784 23.44 16.3348 28.5705 22.5568 28.5705V40L22.5506 39.9938Z" fill="#00DF8D"/>
<path d="M136.037 26.5284V7.0625H139.663V23.0914H147.932V26.5222H136.031L136.037 26.5284Z" fill="#00DF8D"/>
<path d="M155.832 26.9356C154.359 26.9356 153.057 26.6107 151.929 25.967C150.801 25.3234 149.925 24.436 149.29 23.3049C148.655 22.1738 148.334 20.8803 148.334 19.418C148.334 17.8245 148.642 16.4372 149.265 15.2561C149.888 14.075 150.745 13.1564 151.837 12.5065C152.928 11.8503 154.186 11.5254 155.61 11.5254C157.121 11.5254 158.41 11.8878 159.464 12.6065C160.525 13.3251 161.308 14.3437 161.814 15.6498C162.319 16.9558 162.498 18.4931 162.35 20.2616H158.761V18.9118C158.761 17.4245 158.527 16.3559 158.058 15.6998C157.59 15.0436 156.831 14.7187 155.771 14.7187C154.537 14.7187 153.625 15.0999 153.045 15.8623C152.466 16.6246 152.17 17.7495 152.17 19.2368C152.17 20.5991 152.459 21.6489 153.045 22.3926C153.625 23.1362 154.482 23.5049 155.61 23.5049C156.32 23.5049 156.93 23.3487 157.436 23.03C157.941 22.7113 158.33 22.2613 158.595 21.6614L162.221 22.7175C161.678 24.0486 160.821 25.0859 159.656 25.8296C158.484 26.567 157.207 26.9356 155.82 26.9356H155.832ZM151.06 20.2554V17.5245H160.611V20.2554H151.06V20.2554Z" fill="#00DF8D"/>
<path d="M168.022 26.9355C166.993 26.9355 166.117 26.7355 165.402 26.3356C164.686 25.9356 164.144 25.3982 163.774 24.7296C163.404 24.0609 163.219 23.3173 163.219 22.5049C163.219 21.83 163.324 21.2113 163.527 20.6552C163.731 20.099 164.064 19.6053 164.52 19.1741C164.976 18.7429 165.593 18.3867 166.37 18.0993C166.906 17.8993 167.541 17.7243 168.275 17.5744C169.015 17.4181 169.848 17.2744 170.785 17.1369C171.716 16.9994 172.746 16.8432 173.868 16.6682L172.561 17.3994C172.561 16.537 172.357 15.8996 171.944 15.4934C171.537 15.0872 170.853 14.8873 169.891 14.8873C169.354 14.8873 168.799 15.0185 168.226 15.2809C167.646 15.5434 167.245 16.0058 167.011 16.6745L163.731 15.6184C164.094 14.4123 164.779 13.4312 165.784 12.6688C166.789 11.9127 168.158 11.5315 169.891 11.5315C171.161 11.5315 172.29 11.7315 173.276 12.1252C174.263 12.5188 175.009 13.2063 175.515 14.1811C175.798 14.7248 175.971 15.2622 176.02 15.8059C176.07 16.3495 176.1 16.9495 176.1 17.6181V26.5418H172.925V23.5422L173.381 24.1672C172.678 25.1483 171.92 25.8607 171.106 26.2981C170.292 26.7355 169.262 26.9543 168.016 26.9543L168.022 26.9355ZM168.793 24.0422C169.459 24.0422 170.02 23.9234 170.483 23.686C170.939 23.4485 171.303 23.1736 171.574 22.8673C171.846 22.5611 172.031 22.3049 172.129 22.0987C172.314 21.705 172.425 21.2426 172.456 20.7114C172.487 20.1865 172.505 19.7428 172.505 19.3929L173.572 19.6616C172.493 19.8428 171.624 19.9928 170.958 20.1115C170.292 20.2302 169.749 20.3427 169.342 20.4427C168.935 20.5427 168.571 20.6489 168.263 20.7676C167.905 20.9114 167.622 21.0676 167.4 21.2363C167.184 21.4051 167.023 21.5863 166.919 21.7863C166.814 21.9862 166.764 22.2049 166.764 22.4487C166.764 22.7799 166.845 23.0673 167.011 23.3048C167.178 23.5422 167.412 23.7235 167.714 23.8547C168.016 23.9797 168.374 24.0422 168.793 24.0422V24.0422Z" fill="#00DF8D"/>
<path d="M184.352 26.9355C183.026 26.9355 181.866 26.5981 180.867 25.9231C179.869 25.2482 179.098 24.3296 178.537 23.1673C177.975 22.005 177.704 20.6927 177.704 19.2366C177.704 17.7806 177.988 16.4245 178.549 15.2684C179.116 14.1124 179.906 13.2 180.929 12.5313C181.953 11.8627 183.149 11.5315 184.53 11.5315C185.912 11.5315 187.052 11.8689 187.984 12.5438C188.915 13.2187 189.624 14.1374 190.105 15.2997C190.586 16.462 190.826 17.7743 190.826 19.2304C190.826 20.6864 190.586 21.9987 190.099 23.1611C189.611 24.3234 188.89 25.242 187.934 25.9169C186.972 26.5918 185.776 26.9293 184.345 26.9293L184.352 26.9355ZM184.672 33.4221C183.852 33.4221 183.075 33.2908 182.335 33.0221C181.595 32.7534 180.935 32.3847 180.356 31.916C179.776 31.4411 179.301 30.8912 178.937 30.26L182.298 28.6103C182.532 29.0414 182.859 29.3726 183.291 29.5976C183.723 29.8226 184.191 29.9351 184.697 29.9351C185.239 29.9351 185.751 29.8413 186.232 29.6601C186.713 29.4726 187.096 29.1977 187.385 28.8352C187.675 28.4728 187.811 28.0166 187.792 27.4792V23.236H188.249V11.9314H191.424V27.5292C191.424 27.8916 191.406 28.2291 191.375 28.5478C191.344 28.8665 191.289 29.1852 191.209 29.4976C190.974 30.3912 190.549 31.1224 189.92 31.7036C189.291 32.2785 188.526 32.7097 187.62 32.9971C186.713 33.2783 185.733 33.4221 184.672 33.4221V33.4221ZM184.937 23.661C185.745 23.661 186.393 23.4735 186.88 23.1048C187.367 22.7361 187.712 22.2174 187.928 21.5488C188.144 20.8801 188.249 20.1052 188.249 19.2241C188.249 18.343 188.144 17.5681 187.928 16.8995C187.712 16.2308 187.373 15.7121 186.904 15.3434C186.436 14.9747 185.825 14.7873 185.073 14.7873C184.265 14.7873 183.599 14.9872 183.081 15.3872C182.563 15.7871 182.175 16.3245 181.928 16.9932C181.681 17.6619 181.552 18.4055 181.552 19.2179C181.552 20.0303 181.669 20.7864 181.91 21.4551C182.15 22.1237 182.52 22.6611 183.013 23.0548C183.507 23.4485 184.154 23.6485 184.937 23.6485V23.661Z" fill="#00DF8D"/>
<path d="M199.453 26.9607C198.325 26.9607 197.406 26.767 196.691 26.3795C195.981 25.9921 195.427 25.4984 195.032 24.9048C194.637 24.3111 194.354 23.6924 194.187 23.0488C194.021 22.4051 193.916 21.8177 193.879 21.2865C193.842 20.7554 193.823 20.3679 193.823 20.1242V11.9316H197.505V18.8244C197.505 19.1556 197.523 19.5868 197.56 20.0992C197.597 20.6116 197.708 21.1366 197.893 21.6615C198.078 22.1864 198.386 22.6238 198.806 22.9738C199.231 23.3237 199.829 23.4987 200.6 23.4987C200.908 23.4987 201.241 23.4487 201.599 23.3487C201.957 23.2487 202.29 23.0613 202.598 22.7738C202.906 22.4926 203.165 22.0739 203.363 21.5177C203.56 20.9616 203.665 20.2367 203.665 19.3368L205.749 20.3367C205.749 21.4928 205.515 22.5738 205.058 23.5799C204.596 24.5923 203.899 25.4047 202.974 26.0296C202.043 26.6545 200.871 26.9607 199.459 26.9607H199.453ZM204.121 26.5295V21.6927H203.665V11.9316H207.322V26.5295H204.121Z" fill="#00DF8D"/>
<path d="M216.689 26.9356C215.215 26.9356 213.914 26.6107 212.785 25.967C211.657 25.3234 210.781 24.436 210.146 23.3049C209.511 22.1738 209.19 20.8803 209.19 19.418C209.19 17.8245 209.499 16.4372 210.122 15.2561C210.744 14.075 211.602 13.1564 212.693 12.5065C213.784 11.8503 215.042 11.5254 216.467 11.5254C217.978 11.5254 219.266 11.8878 220.321 12.6065C221.381 13.3251 222.165 14.3437 222.67 15.6498C223.176 16.9558 223.355 18.4931 223.207 20.2616H219.618V18.9118C219.618 17.4245 219.384 16.3559 218.915 15.6998C218.446 15.0436 217.688 14.7187 216.627 14.7187C215.394 14.7187 214.481 15.0999 213.902 15.8623C213.322 16.6246 213.026 17.7495 213.026 19.2368C213.026 20.5991 213.316 21.6489 213.902 22.3926C214.481 23.1362 215.338 23.5049 216.467 23.5049C217.176 23.5049 217.786 23.3487 218.292 23.03C218.798 22.7113 219.186 22.2613 219.451 21.6614L223.077 22.7175C222.535 24.0486 221.677 25.0859 220.512 25.8296C219.34 26.567 218.064 26.9356 216.676 26.9356H216.689ZM211.916 20.2554V17.5245H221.468V20.2554H211.916Z" fill="#00DF8D"/>
<path d="M230.771 26.9353C228.958 26.9353 227.491 26.5166 226.375 25.6854C225.259 24.8543 224.58 23.6732 224.34 22.1485L228.046 21.5798C228.2 22.2672 228.533 22.7984 229.051 23.1858C229.569 23.5732 230.235 23.767 231.03 23.767C231.69 23.767 232.196 23.6357 232.554 23.3795C232.911 23.1233 233.09 22.7671 233.09 22.3047C233.09 22.0172 233.016 21.786 232.874 21.611C232.732 21.4361 232.412 21.2611 231.918 21.0924C231.425 20.9236 230.66 20.6987 229.618 20.4175C228.447 20.1113 227.503 19.7676 226.806 19.3926C226.103 19.0114 225.598 18.5615 225.283 18.0366C224.975 17.5116 224.815 16.8742 224.815 16.1243C224.815 15.187 225.049 14.3746 225.524 13.6872C225.992 12.9998 226.658 12.4686 227.516 12.0937C228.373 11.7187 229.384 11.5312 230.549 11.5312C231.715 11.5312 232.677 11.7062 233.552 12.0562C234.428 12.4061 235.131 12.906 235.668 13.556C236.204 14.2059 236.537 14.9683 236.66 15.8556L232.954 16.5305C232.893 15.9869 232.658 15.5619 232.264 15.2432C231.863 14.9308 231.32 14.7433 230.636 14.687C229.97 14.6433 229.433 14.7308 229.026 14.9558C228.619 15.1807 228.422 15.5057 228.422 15.9306C228.422 16.1806 228.508 16.393 228.681 16.568C228.854 16.743 229.217 16.918 229.76 17.0929C230.309 17.2742 231.141 17.5054 232.264 17.7928C233.355 18.0803 234.237 18.4177 234.897 18.7989C235.557 19.1801 236.044 19.6426 236.346 20.18C236.648 20.7174 236.802 21.3611 236.802 22.1172C236.802 23.6107 236.266 24.7918 235.199 25.6479C234.132 26.5041 232.658 26.9353 230.771 26.9353V26.9353Z" fill="#00DF8D"/>
</svg>
