<svg width="142" height="24" viewBox="0 0 142 24" fill="none" xmlns="http://www.w3.org/2000/svg">
<path d="M29.0758 15.8902V6.27281H25.4446V4.21436H34.8849V6.27281H31.2537V15.8939H29.0795L29.0758 15.8902Z" fill="white"/>
<path d="M34.722 15.8896V7.13086H36.6411V9.2718L36.434 8.99434C36.5449 8.69064 36.6965 8.41693 36.8814 8.16571C37.0663 7.91825 37.2956 7.71203 37.5692 7.5508C37.7763 7.41957 38.0019 7.31834 38.2496 7.2471C38.4936 7.17586 38.7488 7.12711 39.0076 7.10837C39.2702 7.08962 39.529 7.09712 39.7916 7.12711V9.18556C39.5512 9.11057 39.2739 9.08433 38.9559 9.10682C38.6379 9.12932 38.3531 9.20431 38.0943 9.32804C37.8391 9.44802 37.621 9.6055 37.4472 9.80422C37.2697 10.0029 37.1366 10.2354 37.0478 10.5016C36.9591 10.7678 36.911 11.0715 36.911 11.4052V15.8821H34.7183L34.722 15.8896Z" fill="white"/>
<path d="M42.9125 16.1342C42.295 16.1342 41.7699 16.0143 41.341 15.7743C40.912 15.5343 40.5866 15.2119 40.3648 14.8107C40.1429 14.4095 40.032 13.9633 40.032 13.4759C40.032 13.0709 40.0948 12.6997 40.2169 12.366C40.3389 12.0323 40.5386 11.7361 40.8122 11.4774C41.0858 11.2225 41.4556 11.005 41.9215 10.8325C42.2432 10.7125 42.6241 10.6076 43.0641 10.5176C43.5042 10.4276 44.007 10.3376 44.5691 10.2551C45.1275 10.1726 45.745 10.0789 46.418 9.9739L45.634 10.4126C45.634 9.89516 45.512 9.51271 45.2643 9.269C45.0202 9.02529 44.6098 8.9053 44.0329 8.9053C43.7112 8.9053 43.3784 8.98404 43.0345 9.14152C42.687 9.299 42.4466 9.57646 42.3061 9.97765L40.3389 9.34399C40.5571 8.62034 40.9675 8.03168 41.5702 7.57425C42.173 7.12056 42.9939 6.89185 44.0329 6.89185C44.7947 6.89185 45.4713 7.01183 46.063 7.24804C46.6546 7.48426 47.102 7.8967 47.4053 8.48161C47.5754 8.80782 47.6789 9.13027 47.7085 9.45647C47.7381 9.78267 47.7565 10.1426 47.7565 10.5438V15.898H45.8522V14.0983L46.1258 14.4695C45.7043 15.0582 45.2495 15.4856 44.7614 15.7481C44.2733 16.0105 43.6558 16.1417 42.9088 16.1417L42.9125 16.1342ZM43.3747 14.3983C43.7741 14.3983 44.1106 14.327 44.3879 14.1845C44.6615 14.0421 44.8797 13.8771 45.0424 13.6934C45.2051 13.5096 45.316 13.3559 45.3752 13.2322C45.4861 12.996 45.5527 12.7185 45.5712 12.3998C45.5897 12.0848 45.6008 11.8186 45.6008 11.6087L46.2405 11.7699C45.5934 11.8786 45.072 11.9686 44.6726 12.0398C44.2733 12.1148 43.9479 12.1786 43.7038 12.2386C43.4598 12.2986 43.2416 12.3623 43.0567 12.4335C42.8423 12.5198 42.6722 12.6135 42.539 12.7147C42.4059 12.816 42.3135 12.9247 42.2506 13.0447C42.1878 13.1647 42.1582 13.2959 42.1582 13.4421C42.1582 13.6409 42.2063 13.8133 42.3061 13.9558C42.4059 14.0983 42.5464 14.207 42.7276 14.2858C42.9088 14.3608 43.1233 14.3983 43.3747 14.3983Z" fill="white"/>
<path d="M52.7042 16.134C51.9092 16.134 51.214 15.9315 50.615 15.5265C50.0159 15.1216 49.5537 14.5704 49.2172 13.873C48.8807 13.1756 48.718 12.3883 48.718 11.5146C48.718 10.641 48.8881 9.82738 49.2246 9.13373C49.5648 8.44008 50.0381 7.89266 50.6519 7.49147C51.2658 7.09027 51.9831 6.89155 52.8114 6.89155C53.6397 6.89155 54.3238 7.09402 54.8821 7.49897C55.4405 7.90391 55.8657 8.45508 56.1542 9.15247C56.4426 9.84987 56.5868 10.6373 56.5868 11.5109C56.5868 12.3845 56.4426 13.1719 56.1505 13.8693C55.8583 14.5667 55.4257 15.1179 54.8526 15.5228C54.2757 15.9277 53.5584 16.1302 52.7005 16.1302L52.7042 16.134ZM53.0555 14.1692C53.5399 14.1692 53.9281 14.0605 54.2202 13.8355C54.5124 13.6143 54.7194 13.3031 54.8489 12.9019C54.9783 12.5007 55.0411 12.0358 55.0411 11.5071C55.0411 10.9785 54.9783 10.5135 54.8489 10.1123C54.7194 9.71114 54.5161 9.39994 54.235 9.17872C53.954 8.9575 53.5879 8.84502 53.1368 8.84502C52.6524 8.84502 52.2531 8.965 51.9424 9.20497C51.6318 9.44493 51.3989 9.76739 51.251 10.1686C51.1031 10.5698 51.0254 11.016 51.0254 11.5034C51.0254 11.9908 51.0957 12.4445 51.2399 12.8457C51.3841 13.2469 51.6059 13.5693 51.9018 13.8055C52.2013 14.0418 52.5858 14.1617 53.0555 14.1617V14.1692ZM55.0374 15.8902V9.88737H54.7638V4.21069H56.9566V15.8902H55.0374Z" fill="white"/>
<path d="M58.7168 5.91276V3.9668H60.8911V5.91276H58.7168ZM58.7168 15.8901V7.13134H60.8911V15.8901H58.7168Z" fill="white"/>
<path d="M62.6362 15.8905V7.13176H64.5701V10.0338H64.8438V15.8905H62.6362ZM68.5378 15.8905V11.7548C68.5378 11.5561 68.5267 11.3012 68.5045 10.9899C68.4823 10.6787 68.4158 10.3675 68.3049 10.0526C68.1939 9.73763 68.009 9.47517 67.7576 9.2652C67.5061 9.05523 67.1475 8.95024 66.6816 8.95024C66.4967 8.95024 66.2933 8.98024 66.0825 9.04023C65.8681 9.10022 65.6684 9.21271 65.4835 9.38518C65.2949 9.55391 65.1433 9.80512 65.025 10.1351C64.9066 10.465 64.8438 10.9037 64.8438 11.4474L63.5976 10.8475C63.5976 10.1538 63.7382 9.50516 64.0118 8.9015C64.2891 8.29409 64.707 7.80666 65.2616 7.43172C65.8163 7.05677 66.5225 6.87305 67.3693 6.87305C68.046 6.87305 68.597 6.98928 69.0259 7.22175C69.4512 7.45421 69.7839 7.75042 70.0206 8.10662C70.2573 8.46282 70.4274 8.83401 70.5272 9.22021C70.627 9.6064 70.6899 9.95885 70.7121 10.2776C70.7343 10.5963 70.7454 10.8287 70.7454 10.975V15.8905H68.5378Z" fill="white"/>
<path d="M75.6934 16.1343C74.8984 16.1343 74.2032 15.9318 73.6042 15.5268C73.0052 15.1219 72.543 14.5707 72.2065 13.8733C71.87 13.1759 71.7073 12.3885 71.7073 11.5149C71.7073 10.6413 71.8774 9.82767 72.2139 9.13402C72.5541 8.44037 73.0274 7.89295 73.6412 7.49176C74.255 7.09057 74.9724 6.89185 75.8007 6.89185C76.629 6.89185 77.313 7.09432 77.8714 7.49926C78.4298 7.9042 78.855 8.45537 79.1434 9.15277C79.4318 9.85017 79.5761 10.6376 79.5761 11.5112C79.5761 12.3848 79.4318 13.1722 79.1397 13.8696C78.8476 14.567 78.415 15.1181 77.8418 15.5231C77.265 15.928 76.5476 16.1305 75.6897 16.1305L75.6934 16.1343ZM75.8857 20.0262C75.3939 20.0262 74.928 19.9474 74.4843 19.7862C74.0405 19.6287 73.6449 19.4038 73.2973 19.1226C72.9497 18.8414 72.665 18.5077 72.4468 18.129L74.4621 17.1391C74.6026 17.3978 74.7986 17.5965 75.0574 17.7315C75.3163 17.8665 75.5973 17.934 75.9005 17.934C76.2259 17.934 76.5328 17.8777 76.8212 17.769C77.1097 17.6565 77.3389 17.4916 77.5127 17.2741C77.6865 17.0566 77.7679 16.7829 77.7568 16.4605V13.9146H78.0304V7.13181H79.9347V16.4904C79.9347 16.7079 79.9236 16.9104 79.9052 17.1016C79.8867 17.2928 79.8534 17.4841 79.8053 17.6715C79.6648 18.2077 79.4097 18.6464 79.0325 18.9951C78.6553 19.3438 78.1968 19.5987 77.6532 19.7712C77.1097 19.9437 76.5217 20.0262 75.8857 20.0262ZM76.0447 14.1695C76.5291 14.1695 76.9174 14.0608 77.2095 13.8358C77.5016 13.6146 77.7087 13.3034 77.8381 12.9022C77.9675 12.501 78.0304 12.0361 78.0304 11.5074C78.0304 10.9788 77.9675 10.5138 77.8381 10.1126C77.7087 9.71144 77.5053 9.40023 77.2243 9.17901C76.9433 8.9578 76.5772 8.84531 76.1261 8.84531C75.6417 8.84531 75.2423 8.96529 74.9317 9.20526C74.6211 9.44522 74.3881 9.76768 74.2402 10.1689C74.0923 10.5701 74.0147 11.0162 74.0147 11.5037C74.0147 11.9911 74.0849 12.4448 74.2291 12.846C74.3733 13.2472 74.5952 13.5696 74.891 13.8058C75.1905 14.0421 75.5751 14.162 76.0447 14.162V14.1695Z" fill="white"/>
<path d="M13.5226 0H0V6.85775H13.5226V0Z" fill="white"/>
<path d="M13.5226 23.9964C6.06798 23.9964 0 17.8436 0 10.2847H6.76315C6.76315 14.0641 9.7953 17.1424 13.5263 17.1424V24.0002L13.5226 23.9964Z" fill="#00DF8D"/>
<path d="M81.5757 15.9171V4.23755H83.75V13.8549H88.7086V15.9133H81.572L81.5757 15.9171Z" fill="#00DF8D"/>
<path d="M93.4459 16.1612C92.5622 16.1612 91.7819 15.9662 91.1052 15.58C90.4286 15.1938 89.9035 14.6614 89.5226 13.9828C89.1417 13.3041 88.9495 12.528 88.9495 11.6506C88.9495 10.6945 89.1343 9.86211 89.5078 9.15346C89.8813 8.44482 90.3953 7.89365 91.0498 7.5037C91.7043 7.11001 92.4586 6.91504 93.3128 6.91504C94.2187 6.91504 94.9916 7.13251 95.6239 7.56369C96.2599 7.99488 96.7295 8.60604 97.0327 9.38968C97.3359 10.1733 97.4432 11.0957 97.3544 12.1568H95.2023V11.3469C95.2023 10.4545 95.0618 9.81337 94.7808 9.41967C94.4998 9.02598 94.0449 8.83101 93.4089 8.83101C92.6694 8.83101 92.1221 9.05973 91.7745 9.51716C91.4269 9.97459 91.2495 10.6495 91.2495 11.5419C91.2495 12.3592 91.4232 12.9892 91.7745 13.4353C92.1221 13.8815 92.6361 14.1027 93.3128 14.1027C93.738 14.1027 94.1041 14.009 94.4073 13.8178C94.7105 13.6266 94.9435 13.3566 95.1025 12.9967L97.2768 13.6303C96.9514 14.4289 96.4374 15.0514 95.7385 15.4975C95.0359 15.94 94.2705 16.1612 93.4385 16.1612H93.4459ZM90.5839 12.153V10.5145H96.3116V12.153H90.5839Z" fill="#00DF8D"/>
<path d="M100.756 16.1611C100.138 16.1611 99.6132 16.0411 99.1842 15.8012C98.7553 15.5612 98.4299 15.2387 98.208 14.8375C97.9862 14.4364 97.8752 13.9902 97.8752 13.5027C97.8752 13.0978 97.9381 12.7266 98.0601 12.3929C98.1822 12.0592 98.3818 11.763 98.6555 11.5043C98.9291 11.2456 99.2989 11.0319 99.7648 10.8594C100.086 10.7394 100.467 10.6344 100.907 10.5444C101.351 10.4507 101.85 10.3644 102.412 10.282C102.971 10.1995 103.588 10.1057 104.261 10.0008L103.477 10.4394C103.477 9.92201 103.355 9.53957 103.108 9.29586C102.863 9.05214 102.453 8.93216 101.876 8.93216C101.554 8.93216 101.222 9.0109 100.878 9.16837C100.53 9.32585 100.29 9.60331 100.149 10.0045L98.1822 9.37084C98.4003 8.6472 98.8108 8.05854 99.4135 7.6011C100.016 7.14742 100.837 6.9187 101.876 6.9187C102.638 6.9187 103.315 7.03868 103.906 7.2749C104.498 7.51111 104.945 7.92355 105.249 8.50847C105.419 8.83467 105.522 9.15713 105.552 9.48333C105.581 9.80953 105.6 10.1695 105.6 10.5707V15.9249H103.695V14.1252L103.969 14.5001C103.548 15.0888 103.093 15.5162 102.605 15.7787C102.117 16.0411 101.499 16.1724 100.752 16.1724L100.756 16.1611ZM101.218 14.4251C101.617 14.4251 101.954 14.3539 102.231 14.2114C102.505 14.0689 102.723 13.9039 102.886 13.7202C103.048 13.5365 103.159 13.3828 103.218 13.259C103.329 13.0228 103.396 12.7454 103.414 12.4266C103.433 12.1117 103.444 11.8455 103.444 11.6355L104.084 11.7967C103.437 11.9055 102.915 11.9955 102.516 12.0667C102.117 12.1379 101.791 12.2054 101.547 12.2654C101.303 12.3254 101.085 12.3892 100.9 12.4604C100.686 12.5466 100.515 12.6404 100.382 12.7416C100.253 12.8428 100.157 12.9516 100.094 13.0716C100.031 13.1915 100.001 13.3228 100.001 13.469C100.001 13.6677 100.05 13.8402 100.149 13.9827C100.249 14.1252 100.39 14.2339 100.571 14.3126C100.752 14.3876 100.967 14.4251 101.218 14.4251Z" fill="#00DF8D"/>
<path d="M110.548 16.1611C109.753 16.1611 109.057 15.9586 108.458 15.5537C107.859 15.1488 107.397 14.5976 107.061 13.9002C106.724 13.2028 106.562 12.4154 106.562 11.5418C106.562 10.6682 106.732 9.85452 107.068 9.16087C107.408 8.46723 107.882 7.9198 108.495 7.51861C109.109 7.11742 109.827 6.9187 110.655 6.9187C111.483 6.9187 112.167 7.12117 112.726 7.52611C113.284 7.93105 113.709 8.48222 113.998 9.17962C114.286 9.87702 114.43 10.6644 114.43 11.538C114.43 12.4117 114.286 13.199 113.994 13.8964C113.702 14.5938 113.269 15.145 112.696 15.5499C112.119 15.9549 111.402 16.1574 110.544 16.1574L110.548 16.1611ZM110.74 20.053C110.248 20.053 109.782 19.9743 109.339 19.8131C108.895 19.6518 108.499 19.4306 108.152 19.1494C107.804 18.8645 107.519 18.5345 107.301 18.1558L109.316 17.166C109.457 17.4247 109.653 17.6234 109.912 17.7584C110.171 17.8934 110.452 17.9608 110.755 17.9608C111.08 17.9608 111.387 17.9046 111.675 17.7959C111.964 17.6834 112.193 17.5184 112.367 17.3009C112.541 17.0835 112.622 16.8098 112.611 16.4873V13.9414H112.885V7.15867H114.789V16.5173C114.789 16.7348 114.778 16.9372 114.759 17.1285C114.741 17.3197 114.708 17.5109 114.66 17.6984C114.519 18.2346 114.264 18.6732 113.887 19.0219C113.51 19.3669 113.051 19.6256 112.507 19.7981C111.964 19.9668 111.376 20.053 110.74 20.053ZM110.899 14.1964C111.383 14.1964 111.772 14.0839 112.064 13.8627C112.356 13.6415 112.563 13.3303 112.692 12.9291C112.822 12.5279 112.885 12.063 112.885 11.5343C112.885 11.0056 112.822 10.5407 112.692 10.1395C112.563 9.73829 112.36 9.42709 112.079 9.20587C111.798 8.98465 111.431 8.87217 110.98 8.87217C110.496 8.87217 110.097 8.99215 109.786 9.23211C109.475 9.47208 109.242 9.79453 109.094 10.1957C108.947 10.5969 108.869 11.0431 108.869 11.5305C108.869 12.018 108.939 12.4716 109.083 12.8728C109.228 13.274 109.449 13.5965 109.745 13.8327C110.041 14.0689 110.429 14.1889 110.899 14.1889V14.1964Z" fill="#00DF8D"/>
<path d="M119.603 16.1764C118.927 16.1764 118.376 16.0601 117.947 15.8277C117.521 15.5952 117.189 15.299 116.952 14.9428C116.715 14.5866 116.545 14.2154 116.445 13.8292C116.346 13.443 116.283 13.0906 116.261 12.7719C116.238 12.4532 116.227 12.2207 116.227 12.0745V7.15894H118.435V11.2946C118.435 11.4933 118.446 11.752 118.468 12.0595C118.49 12.3669 118.557 12.6819 118.668 12.9968C118.779 13.3118 118.964 13.5743 119.215 13.7842C119.47 13.9942 119.829 14.0992 120.291 14.0992C120.476 14.0992 120.676 14.0692 120.89 14.0092C121.105 13.9492 121.304 13.8367 121.489 13.6642C121.674 13.4955 121.829 13.2443 121.948 12.9106C122.066 12.5769 122.129 12.142 122.129 11.602L123.379 12.202C123.379 12.8956 123.238 13.5443 122.965 14.1479C122.687 14.7553 122.269 15.2428 121.715 15.6177C121.156 15.9927 120.454 16.1764 119.607 16.1764H119.603ZM122.403 15.9177V13.0156H122.129V7.15894H124.322V15.9177H122.403Z" fill="#00DF8D"/>
<path d="M129.939 16.1612C129.055 16.1612 128.275 15.9662 127.598 15.58C126.921 15.1938 126.396 14.6614 126.016 13.9828C125.635 13.3041 125.442 12.528 125.442 11.6506C125.442 10.6945 125.627 9.86211 126.001 9.15346C126.374 8.44482 126.888 7.89365 127.543 7.5037C128.197 7.11001 128.952 6.91504 129.806 6.91504C130.712 6.91504 131.484 7.13251 132.117 7.56369C132.753 7.99488 133.222 8.60604 133.526 9.38968C133.829 10.1733 133.936 11.0957 133.847 12.1568H131.695V11.3469C131.695 10.4545 131.555 9.81337 131.274 9.41967C130.993 9.02598 130.538 8.83101 129.902 8.83101C129.162 8.83101 128.615 9.05973 128.267 9.51716C127.92 9.97459 127.742 10.6495 127.742 11.5419C127.742 12.3592 127.916 12.9892 128.267 13.4353C128.615 13.8815 129.129 14.1027 129.806 14.1027C130.231 14.1027 130.597 14.009 130.9 13.8178C131.203 13.6266 131.436 13.3566 131.595 12.9967L133.77 13.6303C133.444 14.4289 132.93 15.0514 132.231 15.4975C131.529 15.94 130.763 16.1612 129.931 16.1612H129.939ZM127.077 12.153V10.5145H132.805V12.153H127.077Z" fill="#00DF8D"/>
<path d="M138.384 16.1611C137.296 16.1611 136.416 15.9099 135.747 15.4112C135.078 14.9125 134.671 14.2039 134.527 13.289L136.749 12.9478C136.842 13.3603 137.041 13.679 137.352 13.9114C137.663 14.1439 138.062 14.2601 138.539 14.2601C138.935 14.2601 139.238 14.1814 139.452 14.0277C139.667 13.8739 139.774 13.6602 139.774 13.3828C139.774 13.2103 139.73 13.0716 139.645 12.9666C139.559 12.8616 139.367 12.7566 139.071 12.6554C138.776 12.5541 138.317 12.4192 137.692 12.2504C136.99 12.0667 136.424 11.8605 136.006 11.6355C135.584 11.4068 135.281 11.1368 135.093 10.8219C134.908 10.5069 134.812 10.1245 134.812 9.67455C134.812 9.11213 134.952 8.6247 135.237 8.21226C135.518 7.79982 135.917 7.48112 136.431 7.25615C136.945 7.03118 137.552 6.9187 138.25 6.9187C138.949 6.9187 139.526 7.02369 140.051 7.23366C140.576 7.44362 140.998 7.74358 141.32 8.13352C141.641 8.52347 141.841 8.9809 141.915 9.51332L139.693 9.91826C139.656 9.59206 139.515 9.3371 139.278 9.14588C139.038 8.9584 138.713 8.84592 138.302 8.81218C137.903 8.78593 137.581 8.83842 137.337 8.9734C137.093 9.10838 136.975 9.30335 136.975 9.55832C136.975 9.7083 137.027 9.83578 137.13 9.94076C137.234 10.0457 137.452 10.1507 137.777 10.2557C138.106 10.3644 138.605 10.5032 139.278 10.6757C139.933 10.8481 140.462 11.0506 140.857 11.2793C141.253 11.508 141.545 11.7855 141.726 12.1079C141.908 12.4304 142 12.8166 142 13.2703C142 14.1664 141.678 14.875 141.039 15.3887C140.399 15.9024 139.515 16.1611 138.384 16.1611Z" fill="#00DF8D"/>
</svg>
