<svg width="32" height="32" viewBox="0 0 32 32" fill="none" xmlns="http://www.w3.org/2000/svg">
<path d="M16.75 8C16.75 7.58579 16.4142 7.25 16 7.25C15.5858 7.25 15.25 7.58579 15.25 8H16.75ZM15.25 24C15.25 24.4142 15.5858 24.75 16 24.75C16.4142 24.75 16.75 24.4142 16.75 24H15.25ZM24 16.75C24.4142 16.75 24.75 16.4142 24.75 16C24.75 15.5858 24.4142 15.25 24 15.25V16.75ZM8 15.25C7.58579 15.25 7.25 15.5858 7.25 16C7.25 16.4142 7.58579 16.75 8 16.75L8 15.25ZM15.25 8V24H16.75V8H15.25ZM24 15.25L8 15.25L8 16.75H24V15.25Z" fill="#15182C"/>
</svg>
