<svg width="207" height="58" viewBox="0 0 207 58" fill="none" xmlns="http://www.w3.org/2000/svg">
<path d="M28.4179 4.9082H0V18.6756H28.4179V4.9082Z" fill="white"/>
<path d="M28.4179 53.083C12.7519 53.083 0 40.7307 0 25.5557H14.2128C14.2128 33.1432 20.5849 39.3231 28.4257 39.3231V53.0905L28.4179 53.083Z" fill="#00DF8D"/>
<path d="M46.7499 24C46.5739 24 46.4619 23.92 46.4139 23.76L42.0459 7.512L42.0219 7.416C42.0219 7.272 42.1099 7.2 42.2859 7.2H44.6379C44.8139 7.2 44.9259 7.28 44.9739 7.44L47.7099 18.384C47.7259 18.432 47.7499 18.456 47.7819 18.456C47.8139 18.456 47.8379 18.432 47.8539 18.384L50.4699 7.44C50.5179 7.28 50.6219 7.2 50.7819 7.2H53.0859C53.2619 7.2 53.3739 7.28 53.4219 7.44L56.2059 18.408C56.2219 18.456 56.2459 18.48 56.2779 18.48C56.3099 18.48 56.3339 18.456 56.3499 18.408L59.0379 7.44C59.0859 7.28 59.1979 7.2 59.3739 7.2H61.6059C61.8299 7.2 61.9179 7.304 61.8699 7.512L57.7179 23.76C57.6699 23.92 57.5579 24 57.3819 24H55.1499C54.9739 24 54.8619 23.92 54.8139 23.76L52.0059 12.312C51.9899 12.264 51.9659 12.24 51.9339 12.24C51.9019 12.224 51.8779 12.248 51.8619 12.312L49.1739 23.76C49.1259 23.92 49.0219 24 48.8619 24H46.7499ZM72.2448 16.488C72.3088 16.888 72.3408 17.336 72.3408 17.832L72.3168 18.576C72.3168 18.768 72.2208 18.864 72.0288 18.864H64.5168C64.4368 18.864 64.3968 18.904 64.3968 18.984C64.4448 19.512 64.5168 19.872 64.6128 20.064C64.9968 21.216 65.9328 21.8 67.4208 21.816C68.5088 21.816 69.3728 21.368 70.0128 20.472C70.0768 20.376 70.1568 20.328 70.2528 20.328C70.3168 20.328 70.3728 20.352 70.4208 20.4L71.9088 21.624C72.0528 21.736 72.0768 21.864 71.9808 22.008C71.4848 22.712 70.8208 23.256 69.9888 23.64C69.1728 24.024 68.2608 24.216 67.2528 24.216C66.0048 24.216 64.9408 23.936 64.0608 23.376C63.1968 22.816 62.5648 22.032 62.1648 21.024C61.7968 20.16 61.6128 18.96 61.6128 17.424C61.6128 16.496 61.7088 15.744 61.9008 15.168C62.2208 14.048 62.8208 13.168 63.7008 12.528C64.5968 11.872 65.6688 11.544 66.9168 11.544C70.0688 11.544 71.8448 13.192 72.2448 16.488ZM66.9168 13.944C66.3248 13.944 65.8288 14.096 65.4288 14.4C65.0448 14.688 64.7728 15.096 64.6128 15.624C64.5168 15.896 64.4528 16.248 64.4208 16.68C64.3888 16.76 64.4208 16.8 64.5168 16.8H69.3888C69.4688 16.8 69.5088 16.76 69.5088 16.68C69.4768 16.28 69.4288 15.976 69.3648 15.768C69.2208 15.192 68.9328 14.744 68.5008 14.424C68.0848 14.104 67.5568 13.944 66.9168 13.944ZM74.4532 24C74.3732 24 74.3012 23.976 74.2372 23.928C74.1892 23.864 74.1652 23.792 74.1652 23.712V7.488C74.1652 7.408 74.1892 7.344 74.2372 7.296C74.3012 7.232 74.3732 7.2 74.4532 7.2H76.6612C76.7412 7.2 76.8052 7.232 76.8532 7.296C76.9172 7.344 76.9492 7.408 76.9492 7.488V23.712C76.9492 23.792 76.9172 23.864 76.8532 23.928C76.8052 23.976 76.7412 24 76.6612 24H74.4532ZM84.2994 24.192C83.0674 24.192 82.0034 23.88 81.1074 23.256C80.2114 22.616 79.5874 21.76 79.2354 20.688C78.9794 19.968 78.8514 19.008 78.8514 17.808C78.8514 16.656 78.9794 15.712 79.2354 14.976C79.5714 13.92 80.1874 13.088 81.0834 12.48C81.9954 11.856 83.0674 11.544 84.2994 11.544C85.5474 11.544 86.6354 11.856 87.5634 12.48C88.4914 13.104 89.1074 13.888 89.4114 14.832C89.4914 15.088 89.5474 15.344 89.5794 15.6V15.648C89.5794 15.808 89.4914 15.904 89.3154 15.936L87.1554 16.248H87.1074C86.9634 16.248 86.8674 16.168 86.8194 16.008C86.8194 15.928 86.8114 15.864 86.7954 15.816C86.7634 15.688 86.7314 15.576 86.6994 15.48C86.5554 15.032 86.2674 14.664 85.8354 14.376C85.4034 14.088 84.8914 13.944 84.2994 13.944C83.6914 13.944 83.1714 14.104 82.7394 14.424C82.3234 14.728 82.0434 15.152 81.8994 15.696C81.7394 16.208 81.6594 16.92 81.6594 17.832C81.6594 18.712 81.7314 19.424 81.8754 19.968C82.0354 20.528 82.3234 20.976 82.7394 21.312C83.1554 21.632 83.6754 21.792 84.2994 21.792C84.9074 21.792 85.4274 21.64 85.8594 21.336C86.3074 21.016 86.5954 20.592 86.7234 20.064C86.7394 20.032 86.7474 19.992 86.7474 19.944C86.7634 19.928 86.7714 19.904 86.7714 19.872C86.8194 19.68 86.9314 19.6 87.1074 19.632L89.2674 19.968C89.3474 19.984 89.4114 20.024 89.4594 20.088C89.5234 20.136 89.5474 20.208 89.5314 20.304C89.4834 20.56 89.4434 20.744 89.4114 20.856C89.1074 21.88 88.4914 22.696 87.5634 23.304C86.6354 23.896 85.5474 24.192 84.2994 24.192ZM96.3082 24.192C95.0442 24.192 93.9562 23.872 93.0442 23.232C92.1482 22.592 91.5162 21.704 91.1482 20.568C90.8762 19.704 90.7402 18.792 90.7402 17.832C90.7402 16.808 90.8682 15.896 91.1242 15.096C91.4922 13.976 92.1322 13.104 93.0442 12.48C93.9562 11.856 95.0522 11.544 96.3322 11.544C97.5482 11.544 98.5962 11.856 99.4762 12.48C100.372 13.104 101.004 13.968 101.372 15.072C101.66 15.84 101.804 16.752 101.804 17.808C101.804 18.816 101.668 19.728 101.396 20.544C101.028 21.68 100.396 22.576 99.5002 23.232C98.6042 23.872 97.5402 24.192 96.3082 24.192ZM96.3082 21.792C96.9002 21.792 97.4042 21.624 97.8202 21.288C98.2522 20.952 98.5642 20.48 98.7562 19.872C98.9162 19.344 98.9962 18.672 98.9962 17.856C98.9962 16.992 98.9162 16.32 98.7562 15.84C98.5802 15.232 98.2762 14.768 97.8442 14.448C97.4122 14.112 96.8842 13.944 96.2602 13.944C95.6682 13.944 95.1562 14.112 94.7242 14.448C94.2922 14.768 93.9802 15.232 93.7882 15.84C93.6282 16.4 93.5482 17.072 93.5482 17.856C93.5482 18.64 93.6282 19.312 93.7882 19.872C93.9642 20.48 94.2682 20.952 94.7002 21.288C95.1482 21.624 95.6842 21.792 96.3082 21.792ZM116.844 11.544C118.076 11.544 119.036 11.92 119.724 12.672C120.428 13.408 120.78 14.44 120.78 15.768V23.712C120.78 23.792 120.748 23.864 120.684 23.928C120.636 23.976 120.572 24 120.492 24H118.308C118.228 24 118.156 23.976 118.092 23.928C118.044 23.864 118.02 23.792 118.02 23.712V16.344C118.02 15.608 117.82 15.024 117.42 14.592C117.036 14.16 116.516 13.944 115.86 13.944C115.204 13.944 114.668 14.16 114.252 14.592C113.836 15.024 113.628 15.6 113.628 16.32V23.712C113.628 23.792 113.596 23.864 113.532 23.928C113.484 23.976 113.42 24 113.34 24H111.156C111.076 24 111.004 23.976 110.94 23.928C110.892 23.864 110.868 23.792 110.868 23.712V16.344C110.868 15.608 110.668 15.024 110.268 14.592C109.868 14.16 109.34 13.944 108.684 13.944C108.076 13.944 107.572 14.12 107.172 14.472C106.788 14.824 106.564 15.304 106.5 15.912V23.712C106.5 23.792 106.468 23.864 106.404 23.928C106.356 23.976 106.292 24 106.212 24H104.004C103.924 24 103.852 23.976 103.788 23.928C103.74 23.864 103.716 23.792 103.716 23.712V12.024C103.716 11.944 103.74 11.88 103.788 11.832C103.852 11.768 103.924 11.736 104.004 11.736H106.212C106.292 11.736 106.356 11.768 106.404 11.832C106.468 11.88 106.5 11.944 106.5 12.024V12.816C106.5 12.864 106.516 12.896 106.548 12.912C106.58 12.928 106.612 12.912 106.644 12.864C106.996 12.416 107.428 12.088 107.94 11.88C108.468 11.656 109.052 11.544 109.692 11.544C110.476 11.544 111.164 11.704 111.756 12.024C112.348 12.344 112.804 12.808 113.124 13.416C113.172 13.48 113.228 13.48 113.292 13.416C113.644 12.776 114.132 12.304 114.756 12C115.38 11.696 116.076 11.544 116.844 11.544ZM133.145 16.488C133.209 16.888 133.241 17.336 133.241 17.832L133.217 18.576C133.217 18.768 133.121 18.864 132.929 18.864H125.417C125.337 18.864 125.297 18.904 125.297 18.984C125.345 19.512 125.417 19.872 125.513 20.064C125.897 21.216 126.833 21.8 128.321 21.816C129.409 21.816 130.273 21.368 130.913 20.472C130.977 20.376 131.057 20.328 131.153 20.328C131.217 20.328 131.273 20.352 131.321 20.4L132.809 21.624C132.953 21.736 132.977 21.864 132.881 22.008C132.385 22.712 131.721 23.256 130.889 23.64C130.073 24.024 129.161 24.216 128.153 24.216C126.905 24.216 125.841 23.936 124.961 23.376C124.097 22.816 123.465 22.032 123.065 21.024C122.697 20.16 122.513 18.96 122.513 17.424C122.513 16.496 122.609 15.744 122.801 15.168C123.121 14.048 123.721 13.168 124.601 12.528C125.497 11.872 126.569 11.544 127.817 11.544C130.969 11.544 132.745 13.192 133.145 16.488ZM127.817 13.944C127.225 13.944 126.729 14.096 126.329 14.4C125.945 14.688 125.673 15.096 125.513 15.624C125.417 15.896 125.353 16.248 125.321 16.68C125.289 16.76 125.321 16.8 125.417 16.8H130.289C130.369 16.8 130.409 16.76 130.409 16.68C130.377 16.28 130.329 15.976 130.265 15.768C130.121 15.192 129.833 14.744 129.401 14.424C128.985 14.104 128.457 13.944 127.817 13.944ZM145.654 13.704C145.654 13.784 145.622 13.856 145.558 13.92C145.51 13.968 145.446 13.992 145.366 13.992H142.918C142.838 13.992 142.798 14.032 142.798 14.112V19.896C142.798 20.504 142.926 20.944 143.182 21.216C143.454 21.488 143.878 21.624 144.454 21.624H145.174C145.254 21.624 145.318 21.656 145.366 21.72C145.43 21.768 145.462 21.832 145.462 21.912V23.712C145.462 23.888 145.366 23.992 145.174 24.024L143.926 24.048C142.662 24.048 141.718 23.832 141.094 23.4C140.47 22.968 140.15 22.152 140.134 20.952V14.112C140.134 14.032 140.094 13.992 140.014 13.992H138.646C138.566 13.992 138.494 13.968 138.43 13.92C138.382 13.856 138.358 13.784 138.358 13.704V12.024C138.358 11.944 138.382 11.88 138.43 11.832C138.494 11.768 138.566 11.736 138.646 11.736H140.014C140.094 11.736 140.134 11.696 140.134 11.616V8.808C140.134 8.728 140.158 8.664 140.206 8.616C140.27 8.552 140.342 8.52 140.422 8.52H142.51C142.59 8.52 142.654 8.552 142.702 8.616C142.766 8.664 142.798 8.728 142.798 8.808V11.616C142.798 11.696 142.838 11.736 142.918 11.736H145.366C145.446 11.736 145.51 11.768 145.558 11.832C145.622 11.88 145.654 11.944 145.654 12.024V13.704ZM152.38 24.192C151.116 24.192 150.028 23.872 149.116 23.232C148.22 22.592 147.588 21.704 147.22 20.568C146.948 19.704 146.812 18.792 146.812 17.832C146.812 16.808 146.94 15.896 147.196 15.096C147.564 13.976 148.204 13.104 149.116 12.48C150.028 11.856 151.124 11.544 152.404 11.544C153.62 11.544 154.668 11.856 155.548 12.48C156.444 13.104 157.076 13.968 157.444 15.072C157.732 15.84 157.876 16.752 157.876 17.808C157.876 18.816 157.74 19.728 157.468 20.544C157.1 21.68 156.468 22.576 155.572 23.232C154.676 23.872 153.612 24.192 152.38 24.192ZM152.38 21.792C152.972 21.792 153.476 21.624 153.892 21.288C154.324 20.952 154.636 20.48 154.828 19.872C154.988 19.344 155.068 18.672 155.068 17.856C155.068 16.992 154.988 16.32 154.828 15.84C154.652 15.232 154.348 14.768 153.916 14.448C153.484 14.112 152.956 13.944 152.332 13.944C151.74 13.944 151.228 14.112 150.796 14.448C150.364 14.768 150.052 15.232 149.86 15.84C149.7 16.4 149.62 17.072 149.62 17.856C149.62 18.64 149.7 19.312 149.86 19.872C150.036 20.48 150.34 20.952 150.772 21.288C151.22 21.624 151.756 21.792 152.38 21.792ZM54.2139 36.2C54.2939 36.2 54.3579 36.232 54.4059 36.296C54.4699 36.344 54.5019 36.408 54.5019 36.488V38.336C54.5019 38.416 54.4699 38.488 54.4059 38.552C54.3579 38.6 54.2939 38.624 54.2139 38.624H49.7979C49.7179 38.624 49.6779 38.664 49.6779 38.744V52.712C49.6779 52.792 49.6459 52.864 49.5819 52.928C49.5339 52.976 49.4699 53 49.3899 53H47.1819C47.1019 53 47.0299 52.976 46.9659 52.928C46.9179 52.864 46.8939 52.792 46.8939 52.712V38.744C46.8939 38.664 46.8539 38.624 46.7739 38.624H42.5259C42.4459 38.624 42.3739 38.6 42.3099 38.552C42.2619 38.488 42.2379 38.416 42.2379 38.336V36.488C42.2379 36.408 42.2619 36.344 42.3099 36.296C42.3739 36.232 42.4459 36.2 42.5259 36.2H54.2139ZM60.4644 40.592C60.9764 40.592 61.4244 40.696 61.8084 40.904C61.9364 40.968 61.9844 41.088 61.9524 41.264L61.5444 43.424C61.5284 43.616 61.4164 43.672 61.2084 43.592C60.9684 43.512 60.6884 43.472 60.3684 43.472C60.1604 43.472 60.0004 43.48 59.8884 43.496C59.2164 43.528 58.6564 43.768 58.2084 44.216C57.7604 44.648 57.5364 45.216 57.5364 45.92V52.712C57.5364 52.792 57.5044 52.864 57.4404 52.928C57.3924 52.976 57.3284 53 57.2484 53H55.0404C54.9604 53 54.8884 52.976 54.8244 52.928C54.7764 52.864 54.7524 52.792 54.7524 52.712V41.024C54.7524 40.944 54.7764 40.88 54.8244 40.832C54.8884 40.768 54.9604 40.736 55.0404 40.736H57.2484C57.3284 40.736 57.3924 40.768 57.4404 40.832C57.5044 40.88 57.5364 40.944 57.5364 41.024V42.104C57.5364 42.168 57.5444 42.208 57.5604 42.224C57.5924 42.224 57.6244 42.2 57.6564 42.152C58.3284 41.112 59.2644 40.592 60.4644 40.592ZM67.6186 40.544C68.6266 40.544 69.5146 40.72 70.2826 41.072C71.0506 41.424 71.6426 41.912 72.0586 42.536C72.4746 43.144 72.6826 43.84 72.6826 44.624V52.712C72.6826 52.792 72.6506 52.864 72.5866 52.928C72.5386 52.976 72.4746 53 72.3946 53H70.1866C70.1066 53 70.0346 52.976 69.9706 52.928C69.9226 52.864 69.8986 52.792 69.8986 52.712V51.944C69.8986 51.896 69.8826 51.872 69.8506 51.872C69.8186 51.856 69.7866 51.864 69.7546 51.896C68.9706 52.76 67.8346 53.192 66.3466 53.192C65.1466 53.192 64.1546 52.888 63.3706 52.28C62.6026 51.672 62.2186 50.768 62.2186 49.568C62.2186 48.32 62.6506 47.352 63.5146 46.664C64.3946 45.96 65.6266 45.608 67.2106 45.608H69.7786C69.8586 45.608 69.8986 45.568 69.8986 45.488V44.912C69.8986 44.288 69.7146 43.808 69.3466 43.472C68.9786 43.12 68.4266 42.944 67.6906 42.944C67.0826 42.944 66.5866 43.056 66.2026 43.28C65.8346 43.488 65.6026 43.784 65.5066 44.168C65.4586 44.36 65.3466 44.44 65.1706 44.408L62.8426 44.12C62.7626 44.104 62.6906 44.08 62.6266 44.048C62.5786 44 62.5626 43.944 62.5786 43.88C62.7066 42.904 63.2266 42.104 64.1386 41.48C65.0666 40.856 66.2266 40.544 67.6186 40.544ZM67.0426 50.984C67.8266 50.984 68.4986 50.776 69.0586 50.36C69.6186 49.944 69.8986 49.416 69.8986 48.776V47.648C69.8986 47.568 69.8586 47.528 69.7786 47.528H67.7626C66.9146 47.528 66.2426 47.688 65.7466 48.008C65.2666 48.328 65.0266 48.784 65.0266 49.376C65.0266 49.888 65.2106 50.288 65.5786 50.576C65.9626 50.848 66.4506 50.984 67.0426 50.984ZM82.3657 36.488C82.3657 36.408 82.3897 36.344 82.4377 36.296C82.5017 36.232 82.5737 36.2 82.6537 36.2H84.8617C84.9417 36.2 85.0057 36.232 85.0537 36.296C85.1177 36.344 85.1497 36.408 85.1497 36.488V52.712C85.1497 52.792 85.1177 52.864 85.0537 52.928C85.0057 52.976 84.9417 53 84.8617 53H82.6537C82.5737 53 82.5017 52.976 82.4377 52.928C82.3897 52.864 82.3657 52.792 82.3657 52.712V51.992C82.3657 51.944 82.3497 51.912 82.3177 51.896C82.2857 51.88 82.2537 51.896 82.2217 51.944C81.5177 52.776 80.5977 53.192 79.4617 53.192C78.3257 53.192 77.3657 52.896 76.5817 52.304C75.7977 51.712 75.2297 50.888 74.8777 49.832C74.5897 48.936 74.4457 47.936 74.4457 46.832C74.4457 45.696 74.5817 44.72 74.8537 43.904C75.2057 42.848 75.7737 42.024 76.5577 41.432C77.3417 40.84 78.3257 40.544 79.5097 40.544C80.6137 40.544 81.5177 40.944 82.2217 41.744C82.2537 41.776 82.2857 41.792 82.3177 41.792C82.3497 41.776 82.3657 41.744 82.3657 41.696V36.488ZM81.7897 49.64C82.1577 48.984 82.3417 48.056 82.3417 46.856C82.3417 45.608 82.1417 44.656 81.7417 44C81.3097 43.296 80.7017 42.944 79.9177 42.944C79.1017 42.944 78.4617 43.28 77.9977 43.952C77.5177 44.656 77.2777 45.632 77.2777 46.88C77.2777 48 77.4697 48.92 77.8537 49.64C78.3017 50.408 78.9817 50.792 79.8937 50.792C80.7097 50.792 81.3417 50.408 81.7897 49.64ZM89.0279 39.056C88.5319 39.056 88.1239 38.896 87.8039 38.576C87.4839 38.256 87.3239 37.848 87.3239 37.352C87.3239 36.856 87.4839 36.448 87.8039 36.128C88.1239 35.808 88.5319 35.648 89.0279 35.648C89.5239 35.648 89.9319 35.808 90.2519 36.128C90.5719 36.448 90.7319 36.856 90.7319 37.352C90.7319 37.848 90.5719 38.256 90.2519 38.576C89.9319 38.896 89.5239 39.056 89.0279 39.056ZM87.8759 53C87.7959 53 87.7239 52.976 87.6599 52.928C87.6119 52.864 87.5879 52.792 87.5879 52.712V41C87.5879 40.92 87.6119 40.856 87.6599 40.808C87.7239 40.744 87.7959 40.712 87.8759 40.712H90.0839C90.1639 40.712 90.2279 40.744 90.2759 40.808C90.3399 40.856 90.3719 40.92 90.3719 41V52.712C90.3719 52.792 90.3399 52.864 90.2759 52.928C90.2279 52.976 90.1639 53 90.0839 53H87.8759ZM98.7211 40.544C100.017 40.544 101.049 40.928 101.817 41.696C102.601 42.464 102.993 43.512 102.993 44.84V52.712C102.993 52.792 102.961 52.864 102.897 52.928C102.849 52.976 102.785 53 102.705 53H100.497C100.417 53 100.345 52.976 100.281 52.928C100.233 52.864 100.209 52.792 100.209 52.712V45.416C100.209 44.68 100.001 44.088 99.5851 43.64C99.1691 43.176 98.6171 42.944 97.9291 42.944C97.2411 42.944 96.6811 43.168 96.2491 43.616C95.8331 44.064 95.6251 44.656 95.6251 45.392V52.712C95.6251 52.792 95.5931 52.864 95.5291 52.928C95.4811 52.976 95.4171 53 95.3371 53H93.1291C93.0491 53 92.9771 52.976 92.9131 52.928C92.8651 52.864 92.8411 52.792 92.8411 52.712V41.024C92.8411 40.944 92.8651 40.88 92.9131 40.832C92.9771 40.768 93.0491 40.736 93.1291 40.736H95.3371C95.4171 40.736 95.4811 40.768 95.5291 40.832C95.5931 40.88 95.6251 40.944 95.6251 41.024V41.792C95.6251 41.84 95.6411 41.872 95.6731 41.888C95.7051 41.904 95.7291 41.888 95.7451 41.84C96.4011 40.976 97.3931 40.544 98.7211 40.544ZM112.688 41.024C112.688 40.944 112.712 40.88 112.76 40.832C112.824 40.768 112.896 40.736 112.976 40.736H115.184C115.264 40.736 115.328 40.768 115.376 40.832C115.44 40.88 115.472 40.944 115.472 41.024V52.184C115.472 54.184 114.896 55.608 113.744 56.456C112.608 57.32 111.112 57.752 109.256 57.752C108.76 57.752 108.272 57.728 107.792 57.68C107.616 57.664 107.528 57.56 107.528 57.368L107.6 55.4C107.6 55.224 107.712 55.136 107.936 55.136C108.4 55.184 108.816 55.208 109.184 55.208C110.384 55.208 111.264 54.968 111.824 54.488C112.4 54.024 112.688 53.232 112.688 52.112V51.92C112.688 51.872 112.672 51.848 112.64 51.848C112.608 51.832 112.576 51.84 112.544 51.872C111.888 52.576 110.96 52.928 109.76 52.928C108.72 52.928 107.768 52.664 106.904 52.136C106.04 51.608 105.44 50.8 105.104 49.712C104.896 48.96 104.792 47.992 104.792 46.808C104.792 45.48 104.92 44.464 105.176 43.76C105.496 42.784 106.048 42.008 106.832 41.432C107.616 40.84 108.536 40.544 109.592 40.544C110.856 40.544 111.84 40.912 112.544 41.648C112.576 41.696 112.608 41.712 112.64 41.696C112.672 41.68 112.688 41.648 112.688 41.6V41.024ZM112.52 48.92C112.584 48.68 112.624 48.424 112.64 48.152C112.672 47.864 112.688 47.408 112.688 46.784C112.688 46.176 112.672 45.744 112.64 45.488C112.624 45.216 112.576 44.952 112.496 44.696C112.368 44.168 112.104 43.744 111.704 43.424C111.32 43.104 110.824 42.944 110.216 42.944C109.64 42.944 109.152 43.104 108.752 43.424C108.352 43.744 108.064 44.168 107.888 44.696C107.696 45.144 107.6 45.848 107.6 46.808C107.6 47.8 107.68 48.496 107.84 48.896C108 49.408 108.288 49.832 108.704 50.168C109.136 50.488 109.648 50.648 110.24 50.648C110.864 50.648 111.368 50.488 111.752 50.168C112.136 49.848 112.392 49.432 112.52 48.92ZM122.264 53C122.184 53 122.112 52.976 122.048 52.928C122 52.864 121.976 52.792 121.976 52.712V36.488C121.976 36.408 122 36.344 122.048 36.296C122.112 36.232 122.184 36.2 122.264 36.2H124.472C124.552 36.2 124.616 36.232 124.664 36.296C124.728 36.344 124.76 36.408 124.76 36.488V50.48C124.76 50.56 124.8 50.6 124.88 50.6H132.92C133 50.6 133.064 50.632 133.112 50.696C133.176 50.744 133.208 50.808 133.208 50.888V52.712C133.208 52.792 133.176 52.864 133.112 52.928C133.064 52.976 133 53 132.92 53H122.264ZM145.047 45.488C145.111 45.888 145.143 46.336 145.143 46.832L145.119 47.576C145.119 47.768 145.023 47.864 144.831 47.864H137.319C137.239 47.864 137.199 47.904 137.199 47.984C137.247 48.512 137.319 48.872 137.415 49.064C137.799 50.216 138.735 50.8 140.223 50.816C141.311 50.816 142.175 50.368 142.815 49.472C142.879 49.376 142.959 49.328 143.055 49.328C143.119 49.328 143.175 49.352 143.223 49.4L144.711 50.624C144.855 50.736 144.879 50.864 144.783 51.008C144.287 51.712 143.623 52.256 142.791 52.64C141.975 53.024 141.063 53.216 140.055 53.216C138.807 53.216 137.743 52.936 136.863 52.376C135.999 51.816 135.367 51.032 134.967 50.024C134.599 49.16 134.415 47.96 134.415 46.424C134.415 45.496 134.511 44.744 134.703 44.168C135.023 43.048 135.623 42.168 136.503 41.528C137.399 40.872 138.471 40.544 139.719 40.544C142.871 40.544 144.647 42.192 145.047 45.488ZM139.719 42.944C139.127 42.944 138.631 43.096 138.231 43.4C137.847 43.688 137.575 44.096 137.415 44.624C137.319 44.896 137.255 45.248 137.223 45.68C137.191 45.76 137.223 45.8 137.319 45.8H142.191C142.271 45.8 142.311 45.76 142.311 45.68C142.279 45.28 142.231 44.976 142.167 44.768C142.023 44.192 141.735 43.744 141.303 43.424C140.887 43.104 140.359 42.944 139.719 42.944ZM151.531 40.544C152.539 40.544 153.427 40.72 154.195 41.072C154.963 41.424 155.555 41.912 155.971 42.536C156.387 43.144 156.595 43.84 156.595 44.624V52.712C156.595 52.792 156.563 52.864 156.499 52.928C156.451 52.976 156.387 53 156.307 53H154.099C154.019 53 153.947 52.976 153.883 52.928C153.835 52.864 153.811 52.792 153.811 52.712V51.944C153.811 51.896 153.795 51.872 153.763 51.872C153.731 51.856 153.699 51.864 153.667 51.896C152.883 52.76 151.747 53.192 150.259 53.192C149.059 53.192 148.067 52.888 147.283 52.28C146.515 51.672 146.131 50.768 146.131 49.568C146.131 48.32 146.563 47.352 147.427 46.664C148.307 45.96 149.539 45.608 151.123 45.608H153.691C153.771 45.608 153.811 45.568 153.811 45.488V44.912C153.811 44.288 153.627 43.808 153.259 43.472C152.891 43.12 152.339 42.944 151.603 42.944C150.995 42.944 150.499 43.056 150.115 43.28C149.747 43.488 149.515 43.784 149.419 44.168C149.371 44.36 149.259 44.44 149.083 44.408L146.755 44.12C146.675 44.104 146.603 44.08 146.539 44.048C146.491 44 146.475 43.944 146.491 43.88C146.619 42.904 147.139 42.104 148.051 41.48C148.979 40.856 150.139 40.544 151.531 40.544ZM150.955 50.984C151.739 50.984 152.411 50.776 152.971 50.36C153.531 49.944 153.811 49.416 153.811 48.776V47.648C153.811 47.568 153.771 47.528 153.691 47.528H151.675C150.827 47.528 150.155 47.688 149.659 48.008C149.179 48.328 148.939 48.784 148.939 49.376C148.939 49.888 149.123 50.288 149.491 50.576C149.875 50.848 150.363 50.984 150.955 50.984ZM166.182 41.024C166.182 40.944 166.206 40.88 166.254 40.832C166.318 40.768 166.39 40.736 166.47 40.736H168.678C168.758 40.736 168.822 40.768 168.87 40.832C168.934 40.88 168.966 40.944 168.966 41.024V52.184C168.966 54.184 168.39 55.608 167.238 56.456C166.102 57.32 164.606 57.752 162.75 57.752C162.254 57.752 161.766 57.728 161.286 57.68C161.11 57.664 161.022 57.56 161.022 57.368L161.094 55.4C161.094 55.224 161.206 55.136 161.43 55.136C161.894 55.184 162.31 55.208 162.678 55.208C163.878 55.208 164.758 54.968 165.318 54.488C165.894 54.024 166.182 53.232 166.182 52.112V51.92C166.182 51.872 166.166 51.848 166.134 51.848C166.102 51.832 166.07 51.84 166.038 51.872C165.382 52.576 164.454 52.928 163.254 52.928C162.214 52.928 161.262 52.664 160.398 52.136C159.534 51.608 158.934 50.8 158.598 49.712C158.39 48.96 158.286 47.992 158.286 46.808C158.286 45.48 158.414 44.464 158.67 43.76C158.99 42.784 159.542 42.008 160.326 41.432C161.11 40.84 162.03 40.544 163.086 40.544C164.35 40.544 165.334 40.912 166.038 41.648C166.07 41.696 166.102 41.712 166.134 41.696C166.166 41.68 166.182 41.648 166.182 41.6V41.024ZM166.014 48.92C166.078 48.68 166.118 48.424 166.134 48.152C166.166 47.864 166.182 47.408 166.182 46.784C166.182 46.176 166.166 45.744 166.134 45.488C166.118 45.216 166.07 44.952 165.99 44.696C165.862 44.168 165.598 43.744 165.198 43.424C164.814 43.104 164.318 42.944 163.71 42.944C163.134 42.944 162.646 43.104 162.246 43.424C161.846 43.744 161.558 44.168 161.382 44.696C161.19 45.144 161.094 45.848 161.094 46.808C161.094 47.8 161.174 48.496 161.334 48.896C161.494 49.408 161.782 49.832 162.198 50.168C162.63 50.488 163.142 50.648 163.734 50.648C164.358 50.648 164.862 50.488 165.246 50.168C165.63 49.848 165.886 49.432 166.014 48.92ZM178.369 41.024C178.369 40.944 178.393 40.88 178.441 40.832C178.505 40.768 178.577 40.736 178.657 40.736H180.841C180.921 40.736 180.985 40.768 181.033 40.832C181.097 40.88 181.129 40.944 181.129 41.024V52.712C181.129 52.792 181.097 52.864 181.033 52.928C180.985 52.976 180.921 53 180.841 53H178.657C178.577 53 178.505 52.976 178.441 52.928C178.393 52.864 178.369 52.792 178.369 52.712V51.944C178.369 51.896 178.353 51.864 178.321 51.848C178.289 51.832 178.257 51.848 178.225 51.896C177.569 52.744 176.585 53.168 175.273 53.168C174.057 53.168 173.033 52.816 172.201 52.112C171.385 51.408 170.977 50.408 170.977 49.112V41.024C170.977 40.944 171.001 40.88 171.049 40.832C171.113 40.768 171.185 40.736 171.265 40.736H173.473C173.553 40.736 173.617 40.768 173.665 40.832C173.729 40.88 173.761 40.944 173.761 41.024V48.32C173.761 49.072 173.953 49.672 174.337 50.12C174.737 50.568 175.289 50.792 175.993 50.792C176.713 50.792 177.289 50.568 177.721 50.12C178.153 49.672 178.369 49.072 178.369 48.32V41.024ZM193.73 45.488C193.794 45.888 193.826 46.336 193.826 46.832L193.802 47.576C193.802 47.768 193.706 47.864 193.514 47.864H186.002C185.922 47.864 185.882 47.904 185.882 47.984C185.93 48.512 186.002 48.872 186.098 49.064C186.482 50.216 187.418 50.8 188.906 50.816C189.994 50.816 190.858 50.368 191.498 49.472C191.562 49.376 191.642 49.328 191.738 49.328C191.802 49.328 191.858 49.352 191.906 49.4L193.394 50.624C193.538 50.736 193.562 50.864 193.466 51.008C192.97 51.712 192.306 52.256 191.474 52.64C190.658 53.024 189.746 53.216 188.738 53.216C187.49 53.216 186.426 52.936 185.546 52.376C184.682 51.816 184.05 51.032 183.65 50.024C183.282 49.16 183.098 47.96 183.098 46.424C183.098 45.496 183.194 44.744 183.386 44.168C183.706 43.048 184.306 42.168 185.186 41.528C186.082 40.872 187.154 40.544 188.402 40.544C191.554 40.544 193.33 42.192 193.73 45.488ZM188.402 42.944C187.81 42.944 187.314 43.096 186.914 43.4C186.53 43.688 186.258 44.096 186.098 44.624C186.002 44.896 185.938 45.248 185.906 45.68C185.874 45.76 185.906 45.8 186.002 45.8H190.874C190.954 45.8 190.994 45.76 190.994 45.68C190.962 45.28 190.914 44.976 190.85 44.768C190.706 44.192 190.418 43.744 189.986 43.424C189.57 43.104 189.042 42.944 188.402 42.944ZM200.023 53.144C199.015 53.144 198.127 53 197.359 52.712C196.607 52.408 196.023 52 195.607 51.488C195.191 50.96 194.983 50.376 194.983 49.736V49.52C194.983 49.44 195.007 49.376 195.055 49.328C195.119 49.264 195.191 49.232 195.271 49.232H197.383C197.463 49.232 197.527 49.264 197.575 49.328C197.639 49.376 197.671 49.44 197.671 49.52V49.568C197.671 49.968 197.887 50.32 198.319 50.624C198.767 50.912 199.327 51.056 199.999 51.056C200.639 51.056 201.159 50.928 201.559 50.672C201.959 50.4 202.159 50.064 202.159 49.664C202.159 49.296 201.991 49.024 201.655 48.848C201.335 48.656 200.807 48.456 200.071 48.248L199.159 47.96C198.343 47.72 197.655 47.464 197.095 47.192C196.535 46.92 196.063 46.552 195.679 46.088C195.295 45.608 195.103 45 195.103 44.264C195.103 43.144 195.543 42.256 196.423 41.6C197.303 40.928 198.463 40.592 199.903 40.592C200.879 40.592 201.735 40.752 202.471 41.072C203.207 41.376 203.775 41.808 204.175 42.368C204.575 42.912 204.775 43.536 204.775 44.24C204.775 44.32 204.743 44.392 204.679 44.456C204.631 44.504 204.567 44.528 204.487 44.528H202.447C202.367 44.528 202.295 44.504 202.231 44.456C202.183 44.392 202.159 44.32 202.159 44.24C202.159 43.824 201.951 43.48 201.535 43.208C201.135 42.92 200.583 42.776 199.879 42.776C199.255 42.776 198.743 42.896 198.343 43.136C197.959 43.36 197.767 43.68 197.767 44.096C197.767 44.48 197.951 44.776 198.319 44.984C198.703 45.176 199.335 45.392 200.215 45.632L200.743 45.776C201.591 46.032 202.303 46.296 202.879 46.568C203.455 46.824 203.943 47.192 204.343 47.672C204.743 48.136 204.943 48.744 204.943 49.496C204.943 50.632 204.495 51.528 203.599 52.184C202.703 52.824 201.511 53.144 200.023 53.144Z" fill="#00DF8D"/>
</svg>
