<svg width="278" height="77" viewBox="0 0 278 77" fill="none" xmlns="http://www.w3.org/2000/svg">
<path d="M44.8245 0H0V21.7158H44.8245V0Z" fill="white"/>
<path d="M44.8245 75.9881C20.114 75.9881 0 56.5044 0 32.5684H22.4184C22.4184 44.5364 32.4693 54.2842 44.8368 54.2842V75.9999L44.8245 75.9881Z" fill="#00DF8D"/>
<path d="M64.9399 32C64.7053 32 64.5559 31.8933 64.4919 31.68L58.6679 10.016L58.6359 9.888C58.6359 9.696 58.7533 9.6 58.9879 9.6H62.1239C62.3586 9.6 62.5079 9.70667 62.5719 9.92L66.2199 24.512C66.2413 24.576 66.2733 24.608 66.3159 24.608C66.3586 24.608 66.3906 24.576 66.4119 24.512L69.8999 9.92C69.9639 9.70667 70.1026 9.6 70.3159 9.6H73.3879C73.6226 9.6 73.7719 9.70667 73.8359 9.92L77.5479 24.544C77.5693 24.608 77.6013 24.64 77.6439 24.64C77.6866 24.64 77.7186 24.608 77.7399 24.544L81.3239 9.92C81.3879 9.70667 81.5373 9.6 81.7719 9.6H84.7479C85.0466 9.6 85.1639 9.73867 85.0999 10.016L79.5639 31.68C79.4999 31.8933 79.3506 32 79.1159 32H76.1399C75.9053 32 75.7559 31.8933 75.6919 31.68L71.9479 16.416C71.9266 16.352 71.8946 16.32 71.8519 16.32C71.8093 16.2987 71.7773 16.3307 71.7559 16.416L68.1719 31.68C68.1079 31.8933 67.9693 32 67.7559 32H64.9399ZM98.9332 21.984C99.0185 22.5173 99.0612 23.1147 99.0612 23.776L99.0292 24.768C99.0292 25.024 98.9012 25.152 98.6452 25.152H88.6292C88.5225 25.152 88.4692 25.2053 88.4692 25.312C88.5332 26.016 88.6292 26.496 88.7572 26.752C89.2692 28.288 90.5172 29.0667 92.5012 29.088C93.9519 29.088 95.1039 28.4907 95.9572 27.296C96.0425 27.168 96.1492 27.104 96.2772 27.104C96.3625 27.104 96.4372 27.136 96.5012 27.2L98.4852 28.832C98.6772 28.9813 98.7092 29.152 98.5812 29.344C97.9199 30.2827 97.0345 31.008 95.9252 31.52C94.8372 32.032 93.6212 32.288 92.2772 32.288C90.6132 32.288 89.1945 31.9147 88.0212 31.168C86.8692 30.4213 86.0265 29.376 85.4932 28.032C85.0025 26.88 84.7572 25.28 84.7572 23.232C84.7572 21.9947 84.8852 20.992 85.1412 20.224C85.5679 18.7307 86.3679 17.5573 87.5412 16.704C88.7359 15.8293 90.1652 15.392 91.8292 15.392C96.0319 15.392 98.3999 17.5893 98.9332 21.984ZM91.8292 18.592C91.0399 18.592 90.3785 18.7947 89.8452 19.2C89.3332 19.584 88.9705 20.128 88.7572 20.832C88.6292 21.1947 88.5439 21.664 88.5012 22.24C88.4585 22.3467 88.5012 22.4 88.6292 22.4H95.1252C95.2319 22.4 95.2852 22.3467 95.2852 22.24C95.2425 21.7067 95.1785 21.3013 95.0932 21.024C94.9012 20.256 94.5172 19.6587 93.9412 19.232C93.3865 18.8053 92.6825 18.592 91.8292 18.592ZM101.878 32C101.771 32 101.675 31.968 101.59 31.904C101.526 31.8187 101.494 31.7227 101.494 31.616V9.984C101.494 9.87733 101.526 9.792 101.59 9.728C101.675 9.64267 101.771 9.6 101.878 9.6H104.822C104.928 9.6 105.014 9.64267 105.078 9.728C105.163 9.792 105.206 9.87733 105.206 9.984V31.616C105.206 31.7227 105.163 31.8187 105.078 31.904C105.014 31.968 104.928 32 104.822 32H101.878ZM115.006 32.256C113.363 32.256 111.945 31.84 110.75 31.008C109.555 30.1547 108.723 29.0133 108.254 27.584C107.913 26.624 107.742 25.344 107.742 23.744C107.742 22.208 107.913 20.9493 108.254 19.968C108.702 18.56 109.523 17.4507 110.718 16.64C111.934 15.808 113.363 15.392 115.006 15.392C116.67 15.392 118.121 15.808 119.358 16.64C120.595 17.472 121.417 18.5173 121.822 19.776C121.929 20.1173 122.003 20.4587 122.046 20.8V20.864C122.046 21.0773 121.929 21.2053 121.694 21.248L118.814 21.664H118.75C118.558 21.664 118.43 21.5573 118.366 21.344C118.366 21.2373 118.355 21.152 118.334 21.088C118.291 20.9173 118.249 20.768 118.206 20.64C118.014 20.0427 117.63 19.552 117.054 19.168C116.478 18.784 115.795 18.592 115.006 18.592C114.195 18.592 113.502 18.8053 112.926 19.232C112.371 19.6373 111.998 20.2027 111.806 20.928C111.593 21.6107 111.486 22.56 111.486 23.776C111.486 24.9493 111.582 25.8987 111.774 26.624C111.987 27.3707 112.371 27.968 112.926 28.416C113.481 28.8427 114.174 29.056 115.006 29.056C115.817 29.056 116.51 28.8533 117.086 28.448C117.683 28.0213 118.067 27.456 118.238 26.752C118.259 26.7093 118.27 26.656 118.27 26.592C118.291 26.5707 118.302 26.5387 118.302 26.496C118.366 26.24 118.515 26.1333 118.75 26.176L121.63 26.624C121.737 26.6453 121.822 26.6987 121.886 26.784C121.971 26.848 122.003 26.944 121.982 27.072C121.918 27.4133 121.865 27.6587 121.822 27.808C121.417 29.1733 120.595 30.2613 119.358 31.072C118.121 31.8613 116.67 32.256 115.006 32.256ZM131.018 32.256C129.332 32.256 127.882 31.8293 126.666 30.976C125.471 30.1227 124.628 28.9387 124.138 27.424C123.775 26.272 123.594 25.056 123.594 23.776C123.594 22.4107 123.764 21.1947 124.106 20.128C124.596 18.6347 125.45 17.472 126.666 16.64C127.882 15.808 129.343 15.392 131.05 15.392C132.671 15.392 134.068 15.808 135.242 16.64C136.436 17.472 137.279 18.624 137.77 20.096C138.154 21.12 138.346 22.336 138.346 23.744C138.346 25.088 138.164 26.304 137.802 27.392C137.311 28.9067 136.468 30.1013 135.274 30.976C134.079 31.8293 132.66 32.256 131.018 32.256ZM131.018 29.056C131.807 29.056 132.479 28.832 133.034 28.384C133.61 27.936 134.026 27.3067 134.282 26.496C134.495 25.792 134.602 24.896 134.602 23.808C134.602 22.656 134.495 21.76 134.282 21.12C134.047 20.3093 133.642 19.6907 133.066 19.264C132.49 18.816 131.786 18.592 130.954 18.592C130.164 18.592 129.482 18.816 128.906 19.264C128.33 19.6907 127.914 20.3093 127.658 21.12C127.444 21.8667 127.338 22.7627 127.338 23.808C127.338 24.8533 127.444 25.7493 127.658 26.496C127.892 27.3067 128.298 27.936 128.874 28.384C129.471 28.832 130.186 29.056 131.018 29.056ZM158.399 15.392C160.042 15.392 161.322 15.8933 162.239 16.896C163.178 17.8773 163.647 19.2533 163.647 21.024V31.616C163.647 31.7227 163.604 31.8187 163.519 31.904C163.455 31.968 163.37 32 163.263 32H160.351C160.244 32 160.148 31.968 160.063 31.904C159.999 31.8187 159.967 31.7227 159.967 31.616V21.792C159.967 20.8107 159.7 20.032 159.167 19.456C158.655 18.88 157.962 18.592 157.087 18.592C156.212 18.592 155.498 18.88 154.943 19.456C154.388 20.032 154.111 20.8 154.111 21.76V31.616C154.111 31.7227 154.068 31.8187 153.983 31.904C153.919 31.968 153.834 32 153.727 32H150.815C150.708 32 150.612 31.968 150.527 31.904C150.463 31.8187 150.431 31.7227 150.431 31.616V21.792C150.431 20.8107 150.164 20.032 149.631 19.456C149.098 18.88 148.394 18.592 147.519 18.592C146.708 18.592 146.036 18.8267 145.503 19.296C144.991 19.7653 144.692 20.4053 144.607 21.216V31.616C144.607 31.7227 144.564 31.8187 144.479 31.904C144.415 31.968 144.33 32 144.223 32H141.279C141.172 32 141.076 31.968 140.991 31.904C140.927 31.8187 140.895 31.7227 140.895 31.616V16.032C140.895 15.9253 140.927 15.84 140.991 15.776C141.076 15.6907 141.172 15.648 141.279 15.648H144.223C144.33 15.648 144.415 15.6907 144.479 15.776C144.564 15.84 144.607 15.9253 144.607 16.032V17.088C144.607 17.152 144.628 17.1947 144.671 17.216C144.714 17.2373 144.756 17.216 144.799 17.152C145.268 16.5547 145.844 16.1173 146.527 15.84C147.231 15.5413 148.01 15.392 148.863 15.392C149.908 15.392 150.826 15.6053 151.615 16.032C152.404 16.4587 153.012 17.0773 153.439 17.888C153.503 17.9733 153.578 17.9733 153.663 17.888C154.132 17.0347 154.783 16.4053 155.615 16C156.447 15.5947 157.375 15.392 158.399 15.392ZM180.133 21.984C180.219 22.5173 180.261 23.1147 180.261 23.776L180.229 24.768C180.229 25.024 180.101 25.152 179.845 25.152H169.829C169.723 25.152 169.669 25.2053 169.669 25.312C169.733 26.016 169.829 26.496 169.957 26.752C170.469 28.288 171.717 29.0667 173.701 29.088C175.152 29.088 176.304 28.4907 177.157 27.296C177.243 27.168 177.349 27.104 177.477 27.104C177.563 27.104 177.637 27.136 177.701 27.2L179.685 28.832C179.877 28.9813 179.909 29.152 179.781 29.344C179.12 30.2827 178.235 31.008 177.125 31.52C176.037 32.032 174.821 32.288 173.477 32.288C171.813 32.288 170.395 31.9147 169.221 31.168C168.069 30.4213 167.227 29.376 166.693 28.032C166.203 26.88 165.957 25.28 165.957 23.232C165.957 21.9947 166.085 20.992 166.341 20.224C166.768 18.7307 167.568 17.5573 168.741 16.704C169.936 15.8293 171.365 15.392 173.029 15.392C177.232 15.392 179.6 17.5893 180.133 21.984ZM173.029 18.592C172.24 18.592 171.579 18.7947 171.045 19.2C170.533 19.584 170.171 20.128 169.957 20.832C169.829 21.1947 169.744 21.664 169.701 22.24C169.659 22.3467 169.701 22.4 169.829 22.4H176.325C176.432 22.4 176.485 22.3467 176.485 22.24C176.443 21.7067 176.379 21.3013 176.293 21.024C176.101 20.256 175.717 19.6587 175.141 19.232C174.587 18.8053 173.883 18.592 173.029 18.592ZM196.812 18.272C196.812 18.3787 196.769 18.4747 196.684 18.56C196.62 18.624 196.535 18.656 196.428 18.656H193.164C193.057 18.656 193.004 18.7093 193.004 18.816V26.528C193.004 27.3387 193.175 27.9253 193.516 28.288C193.879 28.6507 194.444 28.832 195.212 28.832H196.172C196.279 28.832 196.364 28.8747 196.428 28.96C196.513 29.024 196.556 29.1093 196.556 29.216V31.616C196.556 31.8507 196.428 31.9893 196.172 32.032L194.508 32.064C192.823 32.064 191.564 31.776 190.732 31.2C189.9 30.624 189.473 29.536 189.452 27.936V18.816C189.452 18.7093 189.399 18.656 189.292 18.656H187.468C187.361 18.656 187.265 18.624 187.18 18.56C187.116 18.4747 187.084 18.3787 187.084 18.272V16.032C187.084 15.9253 187.116 15.84 187.18 15.776C187.265 15.6907 187.361 15.648 187.468 15.648H189.292C189.399 15.648 189.452 15.5947 189.452 15.488V11.744C189.452 11.6373 189.484 11.552 189.548 11.488C189.633 11.4027 189.729 11.36 189.836 11.36H192.62C192.727 11.36 192.812 11.4027 192.876 11.488C192.961 11.552 193.004 11.6373 193.004 11.744V15.488C193.004 15.5947 193.057 15.648 193.164 15.648H196.428C196.535 15.648 196.62 15.6907 196.684 15.776C196.769 15.84 196.812 15.9253 196.812 16.032V18.272ZM205.78 32.256C204.095 32.256 202.644 31.8293 201.428 30.976C200.234 30.1227 199.391 28.9387 198.9 27.424C198.538 26.272 198.356 25.056 198.356 23.776C198.356 22.4107 198.527 21.1947 198.868 20.128C199.359 18.6347 200.212 17.472 201.428 16.64C202.644 15.808 204.106 15.392 205.812 15.392C207.434 15.392 208.831 15.808 210.004 16.64C211.199 17.472 212.042 18.624 212.532 20.096C212.916 21.12 213.108 22.336 213.108 23.744C213.108 25.088 212.927 26.304 212.564 27.392C212.074 28.9067 211.231 30.1013 210.036 30.976C208.842 31.8293 207.423 32.256 205.78 32.256ZM205.78 29.056C206.57 29.056 207.242 28.832 207.796 28.384C208.372 27.936 208.788 27.3067 209.044 26.496C209.258 25.792 209.364 24.896 209.364 23.808C209.364 22.656 209.258 21.76 209.044 21.12C208.81 20.3093 208.404 19.6907 207.828 19.264C207.252 18.816 206.548 18.592 205.716 18.592C204.927 18.592 204.244 18.816 203.668 19.264C203.092 19.6907 202.676 20.3093 202.42 21.12C202.207 21.8667 202.1 22.7627 202.1 23.808C202.1 24.8533 202.207 25.7493 202.42 26.496C202.655 27.3067 203.06 27.936 203.636 28.384C204.234 28.832 204.948 29.056 205.78 29.056ZM74.8919 47.6C74.9986 47.6 75.0839 47.6427 75.1479 47.728C75.2333 47.792 75.2759 47.8773 75.2759 47.984V50.448C75.2759 50.5547 75.2333 50.6507 75.1479 50.736C75.0839 50.8 74.9986 50.832 74.8919 50.832H69.0039C68.8973 50.832 68.8439 50.8853 68.8439 50.992V69.616C68.8439 69.7227 68.8013 69.8187 68.7159 69.904C68.6519 69.968 68.5666 70 68.4599 70H65.5159C65.4093 70 65.3133 69.968 65.2279 69.904C65.1639 69.8187 65.1319 69.7227 65.1319 69.616V50.992C65.1319 50.8853 65.0786 50.832 64.9719 50.832H59.3079C59.2013 50.832 59.1053 50.8 59.0199 50.736C58.9559 50.6507 58.9239 50.5547 58.9239 50.448V47.984C58.9239 47.8773 58.9559 47.792 59.0199 47.728C59.1053 47.6427 59.2013 47.6 59.3079 47.6H74.8919ZM83.2259 53.456C83.9086 53.456 84.5059 53.5947 85.0179 53.872C85.1886 53.9573 85.2526 54.1173 85.2099 54.352L84.6659 57.232C84.6446 57.488 84.4953 57.5627 84.2179 57.456C83.8979 57.3493 83.5246 57.296 83.0979 57.296C82.8206 57.296 82.6073 57.3067 82.4579 57.328C81.5619 57.3707 80.8153 57.6907 80.2179 58.288C79.6206 58.864 79.3219 59.6213 79.3219 60.56V69.616C79.3219 69.7227 79.2793 69.8187 79.1939 69.904C79.1299 69.968 79.0446 70 78.9379 70H75.9939C75.8873 70 75.7913 69.968 75.7059 69.904C75.6419 69.8187 75.6099 69.7227 75.6099 69.616V54.032C75.6099 53.9253 75.6419 53.84 75.7059 53.776C75.7913 53.6907 75.8873 53.648 75.9939 53.648H78.9379C79.0446 53.648 79.1299 53.6907 79.1939 53.776C79.2793 53.84 79.3219 53.9253 79.3219 54.032V55.472C79.3219 55.5573 79.3326 55.6107 79.3539 55.632C79.3966 55.632 79.4393 55.6 79.4819 55.536C80.3779 54.1493 81.6259 53.456 83.2259 53.456ZM92.7649 53.392C94.1089 53.392 95.2929 53.6267 96.3169 54.096C97.3409 54.5653 98.1303 55.216 98.6849 56.048C99.2396 56.8587 99.5169 57.7867 99.5169 58.832V69.616C99.5169 69.7227 99.4743 69.8187 99.3889 69.904C99.3249 69.968 99.2396 70 99.1329 70H96.1889C96.0823 70 95.9863 69.968 95.9009 69.904C95.8369 69.8187 95.8049 69.7227 95.8049 69.616V68.592C95.8049 68.528 95.7836 68.496 95.7409 68.496C95.6983 68.4747 95.6556 68.4853 95.6129 68.528C94.5676 69.68 93.0529 70.256 91.0689 70.256C89.4689 70.256 88.1463 69.8507 87.1009 69.04C86.0769 68.2293 85.5649 67.024 85.5649 65.424C85.5649 63.76 86.1409 62.4693 87.2929 61.552C88.4663 60.6133 90.1089 60.144 92.2209 60.144H95.6449C95.7516 60.144 95.8049 60.0907 95.8049 59.984V59.216C95.8049 58.384 95.5596 57.744 95.0689 57.296C94.5783 56.8267 93.8423 56.592 92.8609 56.592C92.0503 56.592 91.3889 56.7413 90.8769 57.04C90.3863 57.3173 90.0769 57.712 89.9489 58.224C89.8849 58.48 89.7356 58.5867 89.5009 58.544L86.3969 58.16C86.2903 58.1387 86.1943 58.1067 86.1089 58.064C86.0449 58 86.0236 57.9253 86.0449 57.84C86.2156 56.5387 86.9089 55.472 88.1249 54.64C89.3623 53.808 90.9089 53.392 92.7649 53.392ZM91.9969 67.312C93.0423 67.312 93.9383 67.0347 94.6849 66.48C95.4316 65.9253 95.8049 65.2213 95.8049 64.368V62.864C95.8049 62.7573 95.7516 62.704 95.6449 62.704H92.9569C91.8263 62.704 90.9303 62.9173 90.2689 63.344C89.6289 63.7707 89.3089 64.3787 89.3089 65.168C89.3089 65.8507 89.5543 66.384 90.0449 66.768C90.5569 67.1307 91.2076 67.312 91.9969 67.312ZM112.428 47.984C112.428 47.8773 112.46 47.792 112.524 47.728C112.609 47.6427 112.705 47.6 112.812 47.6H115.756C115.862 47.6 115.948 47.6427 116.012 47.728C116.097 47.792 116.14 47.8773 116.14 47.984V69.616C116.14 69.7227 116.097 69.8187 116.012 69.904C115.948 69.968 115.862 70 115.756 70H112.812C112.705 70 112.609 69.968 112.524 69.904C112.46 69.8187 112.428 69.7227 112.428 69.616V68.656C112.428 68.592 112.406 68.5493 112.364 68.528C112.321 68.5067 112.278 68.528 112.236 68.592C111.297 69.7013 110.07 70.256 108.556 70.256C107.041 70.256 105.761 69.8613 104.716 69.072C103.67 68.2827 102.913 67.184 102.444 65.776C102.06 64.5813 101.868 63.248 101.868 61.776C101.868 60.2613 102.049 58.96 102.412 57.872C102.881 56.464 103.638 55.3653 104.684 54.576C105.729 53.7867 107.041 53.392 108.62 53.392C110.092 53.392 111.297 53.9253 112.236 54.992C112.278 55.0347 112.321 55.056 112.364 55.056C112.406 55.0347 112.428 54.992 112.428 54.928V47.984ZM111.66 65.52C112.15 64.6453 112.396 63.408 112.396 61.808C112.396 60.144 112.129 58.8747 111.596 58C111.02 57.0613 110.209 56.592 109.164 56.592C108.076 56.592 107.222 57.04 106.604 57.936C105.964 58.8747 105.644 60.176 105.644 61.84C105.644 63.3333 105.9 64.56 106.412 65.52C107.009 66.544 107.916 67.056 109.132 67.056C110.22 67.056 111.062 66.544 111.66 65.52ZM121.311 51.408C120.649 51.408 120.105 51.1947 119.679 50.768C119.252 50.3413 119.039 49.7973 119.039 49.136C119.039 48.4747 119.252 47.9307 119.679 47.504C120.105 47.0773 120.649 46.864 121.311 46.864C121.972 46.864 122.516 47.0773 122.943 47.504C123.369 47.9307 123.583 48.4747 123.583 49.136C123.583 49.7973 123.369 50.3413 122.943 50.768C122.516 51.1947 121.972 51.408 121.311 51.408ZM119.775 70C119.668 70 119.572 69.968 119.487 69.904C119.423 69.8187 119.391 69.7227 119.391 69.616V54C119.391 53.8933 119.423 53.808 119.487 53.744C119.572 53.6587 119.668 53.616 119.775 53.616H122.719C122.825 53.616 122.911 53.6587 122.975 53.744C123.06 53.808 123.103 53.8933 123.103 54V69.616C123.103 69.7227 123.06 69.8187 122.975 69.904C122.911 69.968 122.825 70 122.719 70H119.775ZM134.235 53.392C135.963 53.392 137.339 53.904 138.363 54.928C139.408 55.952 139.931 57.3493 139.931 59.12V69.616C139.931 69.7227 139.888 69.8187 139.803 69.904C139.739 69.968 139.654 70 139.547 70H136.603C136.496 70 136.4 69.968 136.315 69.904C136.251 69.8187 136.219 69.7227 136.219 69.616V59.888C136.219 58.9067 135.942 58.1173 135.387 57.52C134.832 56.9013 134.096 56.592 133.179 56.592C132.262 56.592 131.515 56.8907 130.939 57.488C130.384 58.0853 130.107 58.8747 130.107 59.856V69.616C130.107 69.7227 130.064 69.8187 129.979 69.904C129.915 69.968 129.83 70 129.723 70H126.779C126.672 70 126.576 69.968 126.491 69.904C126.427 69.8187 126.395 69.7227 126.395 69.616V54.032C126.395 53.9253 126.427 53.84 126.491 53.776C126.576 53.6907 126.672 53.648 126.779 53.648H129.723C129.83 53.648 129.915 53.6907 129.979 53.776C130.064 53.84 130.107 53.9253 130.107 54.032V55.056C130.107 55.12 130.128 55.1627 130.171 55.184C130.214 55.2053 130.246 55.184 130.267 55.12C131.142 53.968 132.464 53.392 134.235 53.392ZM152.857 54.032C152.857 53.9253 152.889 53.84 152.953 53.776C153.039 53.6907 153.135 53.648 153.241 53.648H156.185C156.292 53.648 156.377 53.6907 156.441 53.776C156.527 53.84 156.569 53.9253 156.569 54.032V68.912C156.569 71.5787 155.801 73.4773 154.265 74.608C152.751 75.76 150.756 76.336 148.281 76.336C147.62 76.336 146.969 76.304 146.329 76.24C146.095 76.2187 145.977 76.08 145.977 75.824L146.073 73.2C146.073 72.9653 146.223 72.848 146.521 72.848C147.14 72.912 147.695 72.944 148.185 72.944C149.785 72.944 150.959 72.624 151.705 71.984C152.473 71.3653 152.857 70.3093 152.857 68.816V68.56C152.857 68.496 152.836 68.464 152.793 68.464C152.751 68.4427 152.708 68.4533 152.665 68.496C151.791 69.4347 150.553 69.904 148.953 69.904C147.567 69.904 146.297 69.552 145.145 68.848C143.993 68.144 143.193 67.0667 142.745 65.616C142.468 64.6133 142.329 63.3227 142.329 61.744C142.329 59.9733 142.5 58.6187 142.841 57.68C143.268 56.3787 144.004 55.344 145.049 54.576C146.095 53.7867 147.321 53.392 148.729 53.392C150.415 53.392 151.727 53.8827 152.665 54.864C152.708 54.928 152.751 54.9493 152.793 54.928C152.836 54.9067 152.857 54.864 152.857 54.8V54.032ZM152.633 64.56C152.719 64.24 152.772 63.8987 152.793 63.536C152.836 63.152 152.857 62.544 152.857 61.712C152.857 60.9013 152.836 60.3253 152.793 59.984C152.772 59.6213 152.708 59.2693 152.601 58.928C152.431 58.224 152.079 57.6587 151.545 57.232C151.033 56.8053 150.372 56.592 149.561 56.592C148.793 56.592 148.143 56.8053 147.609 57.232C147.076 57.6587 146.692 58.224 146.457 58.928C146.201 59.5253 146.073 60.464 146.073 61.744C146.073 63.0667 146.18 63.9947 146.393 64.528C146.607 65.2107 146.991 65.776 147.545 66.224C148.121 66.6507 148.804 66.864 149.593 66.864C150.425 66.864 151.097 66.6507 151.609 66.224C152.121 65.7973 152.463 65.2427 152.633 64.56ZM165.626 70C165.519 70 165.423 69.968 165.338 69.904C165.274 69.8187 165.242 69.7227 165.242 69.616V47.984C165.242 47.8773 165.274 47.792 165.338 47.728C165.423 47.6427 165.519 47.6 165.626 47.6H168.57C168.677 47.6 168.762 47.6427 168.826 47.728C168.911 47.792 168.954 47.8773 168.954 47.984V66.64C168.954 66.7467 169.007 66.8 169.114 66.8H179.834C179.941 66.8 180.026 66.8427 180.09 66.928C180.175 66.992 180.218 67.0773 180.218 67.184V69.616C180.218 69.7227 180.175 69.8187 180.09 69.904C180.026 69.968 179.941 70 179.834 70H165.626ZM196.003 59.984C196.089 60.5173 196.131 61.1147 196.131 61.776L196.099 62.768C196.099 63.024 195.971 63.152 195.715 63.152H185.699C185.593 63.152 185.539 63.2053 185.539 63.312C185.603 64.016 185.699 64.496 185.827 64.752C186.339 66.288 187.587 67.0667 189.571 67.088C191.022 67.088 192.174 66.4907 193.027 65.296C193.113 65.168 193.219 65.104 193.347 65.104C193.433 65.104 193.507 65.136 193.571 65.2L195.555 66.832C195.747 66.9813 195.779 67.152 195.651 67.344C194.99 68.2827 194.105 69.008 192.995 69.52C191.907 70.032 190.691 70.288 189.347 70.288C187.683 70.288 186.265 69.9147 185.091 69.168C183.939 68.4213 183.097 67.376 182.563 66.032C182.073 64.88 181.827 63.28 181.827 61.232C181.827 59.9947 181.955 58.992 182.211 58.224C182.638 56.7307 183.438 55.5573 184.611 54.704C185.806 53.8293 187.235 53.392 188.899 53.392C193.102 53.392 195.47 55.5893 196.003 59.984ZM188.899 56.592C188.11 56.592 187.449 56.7947 186.915 57.2C186.403 57.584 186.041 58.128 185.827 58.832C185.699 59.1947 185.614 59.664 185.571 60.24C185.529 60.3467 185.571 60.4 185.699 60.4H192.195C192.302 60.4 192.355 60.3467 192.355 60.24C192.313 59.7067 192.249 59.3013 192.163 59.024C191.971 58.256 191.587 57.6587 191.011 57.232C190.457 56.8053 189.753 56.592 188.899 56.592ZM204.647 53.392C205.991 53.392 207.175 53.6267 208.199 54.096C209.223 54.5653 210.013 55.216 210.567 56.048C211.122 56.8587 211.399 57.7867 211.399 58.832V69.616C211.399 69.7227 211.357 69.8187 211.271 69.904C211.207 69.968 211.122 70 211.015 70H208.071C207.965 70 207.869 69.968 207.783 69.904C207.719 69.8187 207.687 69.7227 207.687 69.616V68.592C207.687 68.528 207.666 68.496 207.623 68.496C207.581 68.4747 207.538 68.4853 207.495 68.528C206.45 69.68 204.935 70.256 202.951 70.256C201.351 70.256 200.029 69.8507 198.983 69.04C197.959 68.2293 197.447 67.024 197.447 65.424C197.447 63.76 198.023 62.4693 199.175 61.552C200.349 60.6133 201.991 60.144 204.103 60.144H207.527C207.634 60.144 207.687 60.0907 207.687 59.984V59.216C207.687 58.384 207.442 57.744 206.951 57.296C206.461 56.8267 205.725 56.592 204.743 56.592C203.933 56.592 203.271 56.7413 202.759 57.04C202.269 57.3173 201.959 57.712 201.831 58.224C201.767 58.48 201.618 58.5867 201.383 58.544L198.279 58.16C198.173 58.1387 198.077 58.1067 197.991 58.064C197.927 58 197.906 57.9253 197.927 57.84C198.098 56.5387 198.791 55.472 200.007 54.64C201.245 53.808 202.791 53.392 204.647 53.392ZM203.879 67.312C204.925 67.312 205.821 67.0347 206.567 66.48C207.314 65.9253 207.687 65.2213 207.687 64.368V62.864C207.687 62.7573 207.634 62.704 207.527 62.704H204.839C203.709 62.704 202.813 62.9173 202.151 63.344C201.511 63.7707 201.191 64.3787 201.191 65.168C201.191 65.8507 201.437 66.384 201.927 66.768C202.439 67.1307 203.09 67.312 203.879 67.312ZM224.182 54.032C224.182 53.9253 224.214 53.84 224.278 53.776C224.364 53.6907 224.46 53.648 224.566 53.648H227.51C227.617 53.648 227.702 53.6907 227.766 53.776C227.852 53.84 227.894 53.9253 227.894 54.032V68.912C227.894 71.5787 227.126 73.4773 225.59 74.608C224.076 75.76 222.081 76.336 219.606 76.336C218.945 76.336 218.294 76.304 217.654 76.24C217.42 76.2187 217.302 76.08 217.302 75.824L217.398 73.2C217.398 72.9653 217.548 72.848 217.846 72.848C218.465 72.912 219.02 72.944 219.51 72.944C221.11 72.944 222.284 72.624 223.03 71.984C223.798 71.3653 224.182 70.3093 224.182 68.816V68.56C224.182 68.496 224.161 68.464 224.118 68.464C224.076 68.4427 224.033 68.4533 223.99 68.496C223.116 69.4347 221.878 69.904 220.278 69.904C218.892 69.904 217.622 69.552 216.47 68.848C215.318 68.144 214.518 67.0667 214.07 65.616C213.793 64.6133 213.654 63.3227 213.654 61.744C213.654 59.9733 213.825 58.6187 214.166 57.68C214.593 56.3787 215.329 55.344 216.374 54.576C217.42 53.7867 218.646 53.392 220.054 53.392C221.74 53.392 223.052 53.8827 223.99 54.864C224.033 54.928 224.076 54.9493 224.118 54.928C224.161 54.9067 224.182 54.864 224.182 54.8V54.032ZM223.958 64.56C224.044 64.24 224.097 63.8987 224.118 63.536C224.161 63.152 224.182 62.544 224.182 61.712C224.182 60.9013 224.161 60.3253 224.118 59.984C224.097 59.6213 224.033 59.2693 223.926 58.928C223.756 58.224 223.404 57.6587 222.87 57.232C222.358 56.8053 221.697 56.592 220.886 56.592C220.118 56.592 219.468 56.8053 218.934 57.232C218.401 57.6587 218.017 58.224 217.782 58.928C217.526 59.5253 217.398 60.464 217.398 61.744C217.398 63.0667 217.505 63.9947 217.718 64.528C217.932 65.2107 218.316 65.776 218.87 66.224C219.446 66.6507 220.129 66.864 220.918 66.864C221.75 66.864 222.422 66.6507 222.934 66.224C223.446 65.7973 223.788 65.2427 223.958 64.56ZM240.433 54.032C240.433 53.9253 240.465 53.84 240.529 53.776C240.614 53.6907 240.71 53.648 240.817 53.648H243.729C243.835 53.648 243.921 53.6907 243.985 53.776C244.07 53.84 244.113 53.9253 244.113 54.032V69.616C244.113 69.7227 244.07 69.8187 243.985 69.904C243.921 69.968 243.835 70 243.729 70H240.817C240.71 70 240.614 69.968 240.529 69.904C240.465 69.8187 240.433 69.7227 240.433 69.616V68.592C240.433 68.528 240.411 68.4853 240.369 68.464C240.326 68.4427 240.283 68.464 240.241 68.528C239.366 69.6587 238.054 70.224 236.305 70.224C234.683 70.224 233.318 69.7547 232.209 68.816C231.121 67.8773 230.577 66.544 230.577 64.816V54.032C230.577 53.9253 230.609 53.84 230.673 53.776C230.758 53.6907 230.854 53.648 230.961 53.648H233.905C234.011 53.648 234.097 53.6907 234.161 53.776C234.246 53.84 234.289 53.9253 234.289 54.032V63.76C234.289 64.7627 234.545 65.5627 235.057 66.16C235.59 66.7573 236.326 67.056 237.265 67.056C238.225 67.056 238.993 66.7573 239.569 66.16C240.145 65.5627 240.433 64.7627 240.433 63.76V54.032ZM260.913 59.984C260.999 60.5173 261.041 61.1147 261.041 61.776L261.009 62.768C261.009 63.024 260.881 63.152 260.625 63.152H250.609C250.503 63.152 250.449 63.2053 250.449 63.312C250.513 64.016 250.609 64.496 250.737 64.752C251.249 66.288 252.497 67.0667 254.481 67.088C255.932 67.088 257.084 66.4907 257.937 65.296C258.023 65.168 258.129 65.104 258.257 65.104C258.343 65.104 258.417 65.136 258.481 65.2L260.465 66.832C260.657 66.9813 260.689 67.152 260.561 67.344C259.9 68.2827 259.015 69.008 257.905 69.52C256.817 70.032 255.601 70.288 254.257 70.288C252.593 70.288 251.175 69.9147 250.001 69.168C248.849 68.4213 248.007 67.376 247.473 66.032C246.983 64.88 246.737 63.28 246.737 61.232C246.737 59.9947 246.865 58.992 247.121 58.224C247.548 56.7307 248.348 55.5573 249.521 54.704C250.716 53.8293 252.145 53.392 253.809 53.392C258.012 53.392 260.38 55.5893 260.913 59.984ZM253.809 56.592C253.02 56.592 252.359 56.7947 251.825 57.2C251.313 57.584 250.951 58.128 250.737 58.832C250.609 59.1947 250.524 59.664 250.481 60.24C250.439 60.3467 250.481 60.4 250.609 60.4H257.105C257.212 60.4 257.265 60.3467 257.265 60.24C257.223 59.7067 257.159 59.3013 257.073 59.024C256.881 58.256 256.497 57.6587 255.921 57.232C255.367 56.8053 254.663 56.592 253.809 56.592ZM269.304 70.192C267.96 70.192 266.776 70 265.752 69.616C264.749 69.2107 263.97 68.6667 263.416 67.984C262.861 67.28 262.584 66.5013 262.584 65.648V65.36C262.584 65.2533 262.616 65.168 262.68 65.104C262.765 65.0187 262.861 64.976 262.968 64.976H265.784C265.89 64.976 265.976 65.0187 266.04 65.104C266.125 65.168 266.168 65.2533 266.168 65.36V65.424C266.168 65.9573 266.456 66.4267 267.032 66.832C267.629 67.216 268.376 67.408 269.272 67.408C270.125 67.408 270.818 67.2373 271.352 66.896C271.885 66.5333 272.152 66.0853 272.152 65.552C272.152 65.0613 271.928 64.6987 271.48 64.464C271.053 64.208 270.349 63.9413 269.368 63.664L268.152 63.28C267.064 62.96 266.146 62.6187 265.4 62.256C264.653 61.8933 264.024 61.4027 263.512 60.784C263 60.144 262.744 59.3333 262.744 58.352C262.744 56.8587 263.33 55.6747 264.504 54.8C265.677 53.904 267.224 53.456 269.144 53.456C270.445 53.456 271.586 53.6693 272.568 54.096C273.549 54.5013 274.306 55.0773 274.84 55.824C275.373 56.5493 275.64 57.3813 275.64 58.32C275.64 58.4267 275.597 58.5227 275.512 58.608C275.448 58.672 275.362 58.704 275.256 58.704H272.536C272.429 58.704 272.333 58.672 272.248 58.608C272.184 58.5227 272.152 58.4267 272.152 58.32C272.152 57.7653 271.874 57.3067 271.32 56.944C270.786 56.56 270.05 56.368 269.112 56.368C268.28 56.368 267.597 56.528 267.064 56.848C266.552 57.1467 266.296 57.5733 266.296 58.128C266.296 58.64 266.541 59.0347 267.032 59.312C267.544 59.568 268.386 59.856 269.56 60.176L270.264 60.368C271.394 60.7093 272.344 61.0613 273.112 61.424C273.88 61.7653 274.53 62.256 275.064 62.896C275.597 63.5147 275.864 64.3253 275.864 65.328C275.864 66.8427 275.266 68.0373 274.072 68.912C272.877 69.7653 271.288 70.192 269.304 70.192Z" fill="#00DF8D"/>
</svg>
